<?xml version="1.0" standalone="no"?>
<!DOCTYPE svg PUBLIC "-//W3C//DTD SVG 20010904//EN"
 "http://www.w3.org/TR/2001/REC-SVG-20010904/DTD/svg10.dtd">
<svg version="1.0" xmlns="http://www.w3.org/2000/svg"
 width="600.000000pt" height="600.000000pt" viewBox="0 0 600.000000 600.000000"
 preserveAspectRatio="xMidYMid meet">
<metadata>
Created by potrace 1.11, written by Peter Selinger 2001-2013
</metadata>
<g transform="translate(0.000000,600.000000) scale(0.100000,-0.100000)"
fill="#000000" stroke="none">
<path d="M2400 5975 c-47 -12 -128 -34 -180 -48 -52 -14 -156 -42 -230 -62
-74 -21 -143 -39 -153 -40 -9 -2 -21 -6 -25 -9 -5 -3 -19 -7 -33 -10 -13 -2
-85 -21 -159 -41 -74 -20 -142 -38 -150 -40 -8 -1 -109 -29 -225 -60 -115 -31
-217 -58 -225 -60 -8 -2 -82 -22 -165 -45 -82 -22 -161 -43 -175 -46 -14 -3
-50 -12 -80 -21 -30 -9 -60 -18 -66 -19 -57 -10 -125 -38 -134 -54 -5 -10 -10
-87 -10 -174 0 -143 2 -157 20 -174 17 -15 32 -18 75 -15 105 8 160 -46 159
-157 -2 -108 -85 -225 -192 -271 -25 -11 -50 -26 -54 -32 -4 -7 -8 -84 -8
-173 0 -149 2 -162 20 -179 18 -17 27 -17 78 -7 31 6 91 21 132 32 156 44 256
71 279 76 13 3 81 21 150 40 69 19 134 37 144 39 10 2 27 7 37 10 10 3 27 7
37 9 10 2 43 11 74 20 31 9 65 19 75 21 11 2 55 14 99 26 44 11 87 23 95 25
20 5 68 18 165 44 44 12 87 23 95 25 8 2 65 18 125 35 61 16 119 32 130 34 37
8 390 104 407 111 29 12 36 56 35 207 -2 180 -2 179 -110 181 -65 2 -79 5
-101 26 -35 33 -50 83 -43 148 11 105 82 202 183 248 29 13 56 30 61 37 4 7 8
83 9 168 1 143 0 157 -19 178 -25 27 -38 27 -147 -3z m42 -187 c0 -35 -1 -68
-1 -74 -1 -6 -15 -17 -32 -25 -18 -7 -58 -38 -89 -68 -68 -67 -101 -127 -127
-231 -5 -20 -5 -121 0 -140 15 -56 38 -99 72 -133 34 -34 107 -69 143 -69 35
0 39 -17 33 -144 -1 -11 -7 -21 -13 -22 -7 -1 -80 -20 -163 -43 -211 -58 -195
-56 -195 -25 0 30 -32 66 -59 66 -10 0 -29 -8 -42 -19 -18 -14 -23 -28 -22
-60 1 -43 -10 -54 -67 -66 -8 -2 -134 -35 -280 -75 -320 -86 -351 -95 -490
-129 -47 -12 -96 -26 -110 -31 -14 -6 -36 -12 -50 -14 -14 -3 -25 -5 -25 -6 0
-1 -7 -3 -15 -5 -14 -3 -345 -91 -382 -101 -14 -4 -16 4 -15 70 l1 74 45 29
c92 57 174 167 197 264 10 42 12 169 3 175 -5 3 -9 14 -9 26 0 23 -32 73 -69
106 -37 34 -80 55 -126 61 l-40 6 0 80 0 79 30 7 c17 4 66 17 110 29 44 12 87
23 95 25 8 2 47 13 85 24 39 11 81 22 95 25 14 3 133 34 265 71 132 36 249 67
260 69 11 3 127 34 258 69 l238 64 -3 -27 c-3 -36 27 -70 61 -70 43 0 54 14
59 74 3 40 9 57 21 60 9 3 79 21 156 41 77 20 151 40 165 45 14 4 27 6 29 4 1
-1 3 -31 3 -66z"/>
<path d="M1966 5511 c-13 -14 -17 -38 -18 -95 -1 -70 1 -79 23 -94 33 -23 45
-23 74 0 23 18 25 26 25 97 0 63 -4 81 -18 94 -25 23 -65 21 -86 -2z"/>
<path d="M1969 5191 c-16 -13 -20 -29 -20 -96 -1 -70 2 -81 21 -97 29 -23 55
-23 80 2 16 16 20 33 20 95 0 63 -3 78 -20 93 -27 22 -56 23 -81 3z"/>
<path d="M5510 5330 c-105 -30 -560 -152 -610 -164 -8 -2 -75 -20 -149 -40
-73 -20 -141 -38 -150 -40 -9 -2 -43 -11 -77 -21 l-61 -17 0 -199 c0 -110 3
-199 6 -199 5 0 60 15 131 35 8 2 35 10 60 16 59 15 65 22 66 72 1 23 2 51 3
63 1 16 11 23 44 31 23 6 52 14 65 18 l22 7 0 -340 c0 -315 -1 -342 -17 -351
-10 -5 -22 -9 -28 -10 -37 -4 -76 -15 -81 -23 -6 -9 -8 -248 -2 -254 2 -1 21
1 43 7 22 5 47 11 56 13 9 3 49 14 90 25 112 32 137 39 229 62 47 12 92 24
100 27 19 7 18 7 56 16 38 9 39 14 38 131 -2 157 2 145 -41 130 -21 -7 -49
-15 -63 -17 l-25 -3 0 340 0 339 40 12 c22 6 52 14 68 18 l27 6 -3 -51 c-6
-73 0 -90 26 -79 12 5 70 21 130 37 l107 27 0 198 c0 226 10 209 -100 178z"/>
<path d="M3896 4898 l-229 -62 -14 -35 c-9 -20 -16 -40 -18 -46 -1 -5 -5 -17
-8 -25 -5 -13 -68 -205 -72 -220 -1 -3 -4 -12 -8 -20 -7 -17 -197 -589 -201
-605 -2 -5 -8 -23 -14 -38 -7 -16 -12 -33 -12 -38 0 -32 -190 -54 -255 -29
-50 19 -91 57 -112 102 -38 82 -38 93 5 141 48 53 92 118 120 180 25 52 52
157 52 199 0 17 6 28 18 31 9 3 47 13 85 23 l67 17 0 133 c0 102 -3 132 -12
129 -22 -7 -202 -57 -222 -61 -10 -2 -42 -10 -70 -18 -84 -24 -209 -58 -235
-62 -36 -7 -38 -9 -39 -54 -1 -23 -4 -46 -8 -51 -3 -5 -2 -9 3 -9 4 0 7 -38 6
-85 -1 -52 2 -83 8 -79 5 3 23 9 39 14 37 11 41 -1 23 -69 -25 -99 -84 -153
-210 -190 -105 -31 -99 -36 -98 79 0 54 3 101 5 104 3 2 30 11 60 18 l55 14 0
128 c0 70 -3 130 -6 132 -4 2 -44 -7 -90 -20 -46 -13 -136 -37 -199 -54 -63
-17 -135 -37 -160 -43 -25 -7 -47 -13 -50 -14 -3 0 -29 -7 -57 -14 l-53 -13 0
-133 0 -134 67 19 c37 10 69 17 72 15 3 -4 5 -614 2 -666 -1 -10 -13 -19 -33
-23 -18 -3 -49 -11 -70 -17 l-38 -10 0 -131 0 -130 28 5 c40 7 29 5 277 73 50
13 110 29 135 35 25 5 70 18 100 28 l55 18 0 130 1 130 -44 -13 c-24 -8 -47
-12 -51 -10 -3 2 -6 48 -6 101 0 109 -4 103 81 127 l51 15 18 -59 c23 -79 85
-171 140 -211 116 -82 256 -94 460 -39 156 42 376 101 468 124 l77 20 0 133 0
133 -70 -18 c-38 -10 -70 -17 -70 -15 0 1 5 16 11 32 10 29 17 32 132 63 67
17 159 42 204 54 l81 23 12 -25 c8 -17 8 -28 0 -36 -5 -5 -10 -7 -10 -4 0 3
-17 0 -37 -7 l-38 -13 -3 -130 -3 -130 33 8 c18 4 87 22 153 40 66 18 125 33
130 34 6 1 16 5 23 9 6 5 12 6 12 4 0 -2 60 12 133 32 l132 37 1 124 c1 69 -1
128 -3 132 -2 4 -14 4 -26 -1 -12 -5 -39 -11 -60 -15 -34 -6 -38 -5 -48 21 -6
15 -17 44 -26 63 -8 19 -19 44 -23 55 -39 95 -132 326 -201 498 -46 114 -86
207 -89 206 -3 0 -108 -28 -234 -61z m29 -470 l54 -133 -87 -22 c-151 -39
-145 -41 -116 38 8 24 17 51 20 59 16 58 68 200 71 196 3 -3 29 -64 58 -138z"/>
<path d="M1760 4324 c-25 -8 -54 -16 -65 -18 -11 -2 -96 -25 -188 -50 -92 -25
-182 -48 -199 -51 -17 -3 -35 -8 -39 -11 -5 -3 -50 -16 -101 -30 -51 -14 -97
-26 -103 -28 -5 -1 -28 -7 -50 -11 -55 -12 -55 -12 -57 -15 -2 -1 -10 -3 -18
-5 -115 -30 -146 -39 -153 -45 -9 -8 -14 -247 -5 -256 3 -3 30 2 59 10 29 9
56 16 61 16 4 0 8 -153 8 -339 0 -372 5 -345 -60 -358 -14 -2 -36 -10 -49 -16
-24 -12 -25 -14 -23 -136 0 -68 3 -125 5 -127 2 -2 26 3 53 10 52 16 306 84
337 91 10 2 27 7 37 10 10 3 27 8 37 10 10 2 68 17 128 34 61 17 119 33 130
35 11 2 45 11 75 20 101 29 205 57 235 62 17 3 33 10 36 15 3 6 5 96 5 202 -1
164 -3 192 -16 191 -8 -1 -60 -14 -115 -29 -55 -15 -106 -28 -113 -29 -22 -4
-28 -23 -26 -86 l2 -60 -41 -10 c-23 -6 -64 -17 -92 -25 -120 -34 -164 -45
-178 -45 -12 0 -15 18 -15 104 l0 104 62 18 c33 10 66 19 71 20 6 1 42 10 80
20 39 9 75 21 80 26 14 13 15 258 1 258 -6 0 -60 -14 -121 -31 -60 -17 -124
-33 -142 -35 l-31 -5 0 99 1 100 66 17 c36 10 103 28 149 40 l82 23 1 -32 c2
-91 4 -101 19 -100 23 3 105 21 105 24 0 1 7 3 15 5 51 11 116 30 123 36 6 4
12 296 8 387 -1 15 -13 14 -71 -4z"/>
<path d="M5578 3924 c-3 -2 -14 -6 -24 -8 -26 -5 -186 -47 -204 -54 -8 -3 -19
-6 -25 -7 -5 -2 -30 -8 -55 -15 -25 -7 -54 -14 -65 -16 -11 -3 -49 -13 -85
-23 l-65 -18 -3 -133 -3 -132 23 6 c13 3 33 9 46 12 25 7 24 11 24 -114 0 -46
-3 -87 -7 -90 -4 -4 -28 -12 -53 -18 -26 -6 -90 -23 -142 -37 -52 -14 -102
-27 -110 -29 -12 -2 -15 14 -16 97 -1 108 0 109 57 125 l36 10 0 130 c-1 91
-4 130 -12 130 -6 0 -41 -9 -76 -19 -35 -11 -143 -40 -239 -66 -96 -25 -185
-50 -197 -55 -22 -9 -23 -14 -22 -140 1 -71 5 -127 10 -124 5 3 18 7 29 10 11
2 29 6 40 8 14 3 20 0 21 -12 3 -78 0 -664 -4 -668 -2 -3 -13 -6 -23 -8 -11
-2 -31 -7 -46 -11 l-27 -7 0 -134 c0 -74 4 -132 8 -130 8 5 260 74 301 82 21
4 164 43 221 60 13 3 15 25 16 135 l0 131 -26 -6 c-14 -3 -35 -8 -47 -12 -20
-5 -21 -3 -20 94 1 55 5 104 9 108 5 5 78 27 163 50 131 34 154 38 155 25 0
-9 1 -56 2 -104 l2 -88 -45 -13 -45 -13 -3 -132 -3 -131 23 4 c13 3 25 5 28 6
3 1 10 3 15 5 6 1 12 3 15 4 3 2 12 4 20 6 19 5 55 14 78 19 9 3 44 12 77 21
33 9 67 18 75 20 51 13 203 56 209 59 4 3 6 58 5 123 -2 146 -2 145 -12 139
-5 -3 -19 -7 -33 -9 -13 -3 -31 -7 -39 -9 -12 -3 -14 44 -15 336 l0 339 49 17
50 16 0 128 c1 117 -2 144 -16 130z"/>
<path d="M4255 3570 c-16 -5 -91 -25 -165 -45 -74 -21 -142 -39 -150 -40 -8
-2 -16 -4 -17 -5 -2 -2 -6 -3 -10 -4 -35 -8 -51 -21 -64 -49 -62 -133 -378
-747 -381 -740 -4 7 -3 385 1 405 0 3 19 9 40 13 22 4 41 12 43 18 2 7 3 57 2
112 -2 154 -1 147 -23 140 -11 -3 -28 -8 -38 -10 -10 -2 -61 -16 -113 -31 -91
-25 -157 -42 -190 -49 -8 -2 -15 -4 -15 -5 0 -1 -9 -4 -20 -6 -11 -3 -24 -6
-30 -7 -5 -1 -16 -6 -22 -10 -7 -5 -13 -6 -13 -3 0 3 -17 -1 -37 -8 l-38 -13
-1 -124 c-1 -68 1 -127 3 -131 2 -4 14 -4 26 1 12 4 33 11 47 14 l25 6 -1
-339 c0 -187 -2 -341 -5 -343 -2 -2 -24 -10 -49 -18 l-45 -14 0 -131 -1 -132
86 24 c47 13 105 29 130 35 25 6 52 13 60 16 8 2 16 4 17 4 2 0 17 5 35 10 18
6 44 12 57 15 14 3 31 9 39 13 8 5 102 181 208 391 107 211 196 385 198 387 2
2 4 -88 4 -201 l0 -205 -46 -13 -45 -13 1 -125 c0 -69 1 -128 1 -132 1 -4 16
-2 34 3 37 11 295 80 317 84 8 2 15 4 15 5 0 1 7 3 16 5 14 2 72 18 149 41 13
3 15 26 16 134 l0 131 -26 -6 c-14 -2 -37 -7 -52 -11 -33 -7 -29 -54 -29 375
1 277 3 305 19 307 4 0 25 6 47 12 l41 12 -1 130 c0 80 -4 130 -10 129 -5 -1
-23 -5 -40 -9z"/>
<path d="M2494 3095 c-49 -13 -143 -37 -209 -55 -185 -50 -296 -79 -340 -91
l-40 -10 0 -130 c0 -86 4 -129 11 -129 6 0 32 6 57 14 26 8 48 11 48 8 1 -4 2
-158 3 -344 l1 -336 -57 -16 c-32 -9 -59 -19 -59 -24 -6 -38 -3 -252 4 -252 9
0 269 68 362 95 50 14 138 37 142 37 1 0 22 6 45 13 l43 12 3 131 c4 147 11
136 -77 112 -23 -6 -46 -9 -49 -6 -3 3 -5 23 -5 43 l0 38 99 28 c54 16 105 29
112 29 6 1 12 5 12 10 0 4 7 8 16 8 21 0 121 56 174 98 70 56 116 111 150 177
42 83 58 151 58 247 0 145 -51 233 -165 285 -80 37 -214 40 -339 8z m80 -275
c85 -32 80 -189 -9 -268 -42 -36 -170 -90 -184 -76 -3 3 -6 77 -6 165 l0 159
45 14 c54 17 120 19 154 6z"/>
<path d="M1750 2899 c-36 -11 -72 -22 -80 -24 -8 -1 -51 -13 -95 -25 -80 -21
-257 -68 -285 -76 -45 -11 -98 -25 -215 -57 -71 -20 -166 -45 -210 -57 -44
-12 -81 -23 -83 -24 -6 -6 -4 -245 2 -255 4 -6 19 -4 41 5 19 8 35 12 35 9 0
-2 11 0 25 5 l25 10 0 -344 0 -344 -27 -6 c-16 -4 -45 -12 -65 -17 l-38 -10 0
-135 0 -135 23 12 c12 7 23 12 25 11 1 -1 3 -2 5 -1 1 0 9 2 17 4 8 1 51 13
95 25 161 43 230 62 245 65 8 2 17 4 20 5 3 1 9 2 13 1 4 -1 16 3 26 8 10 6
29 12 43 15 14 2 70 16 124 31 55 15 106 29 114 30 8 2 15 4 15 6 0 1 9 3 20
5 38 6 266 71 273 78 9 9 10 396 1 396 -4 0 -49 -11 -100 -25 -52 -14 -105
-28 -119 -31 -13 -3 -26 -6 -27 -7 -1 -2 -3 -34 -5 -72 l-3 -69 -45 -13 c-25
-7 -58 -16 -74 -19 -16 -3 -33 -7 -38 -10 -7 -5 -21 -8 -75 -20 -12 -2 -34 -9
-49 -14 -14 -6 -29 -8 -33 -6 -4 3 -7 51 -7 107 l1 102 39 14 c22 7 50 16 63
18 54 11 71 16 133 33 l65 17 1 133 c0 115 -2 132 -15 128 -14 -4 -131 -35
-156 -41 -5 -1 -17 -5 -25 -8 -8 -3 -36 -10 -61 -15 l-47 -9 0 98 0 99 72 21
c104 30 103 29 127 34 12 2 37 9 56 16 19 6 37 8 40 5 3 -3 6 -33 5 -66 -1
-68 4 -71 80 -46 24 7 76 22 116 32 60 15 72 21 73 38 1 26 1 228 0 319 -1 37
-4 67 -8 66 -5 0 -37 -9 -73 -20z"/>
<path d="M5500 2479 c-36 -10 -74 -21 -85 -24 -20 -4 -307 -81 -415 -112 -30
-8 -63 -17 -72 -19 -10 -2 -27 -6 -38 -9 -11 -3 -28 -7 -37 -9 -10 -2 -43 -11
-74 -20 -31 -9 -65 -19 -75 -21 -11 -2 -46 -12 -79 -21 -33 -9 -65 -17 -72
-18 -25 -4 -28 -20 -28 -142 0 -139 -4 -134 78 -109 26 8 48 11 48 7 1 -4 3
-155 4 -337 2 -314 -2 -364 -26 -349 -5 3 -15 2 -21 -3 -7 -4 -24 -9 -38 -11
-14 -2 -29 -8 -35 -13 -14 -14 -14 -259 1 -259 6 0 87 21 180 46 205 55 349
93 389 103 l30 7 3 131 3 132 -28 -5 c-15 -3 -43 -10 -61 -15 -18 -6 -36 -8
-39 -5 -11 10 -9 658 2 672 6 7 55 25 110 39 206 53 190 55 189 -22 0 -51 3
-63 15 -62 9 0 70 15 136 33 l120 32 1 189 c0 105 -2 196 -4 203 -5 15 -2 15
-82 -9z"/>
<path d="M4000 2074 c-68 -15 -315 -80 -390 -102 -30 -8 -59 -17 -65 -18 -5
-1 -37 -9 -70 -18 -33 -9 -68 -19 -78 -21 -10 -2 -52 -14 -95 -25 -42 -12 -84
-23 -92 -25 -8 -2 -49 -13 -90 -24 -41 -11 -129 -34 -195 -52 -66 -17 -122
-34 -125 -36 -3 -3 -5 -63 -6 -134 l0 -130 23 6 c13 3 23 2 23 -2 0 -5 -21
-66 -45 -138 -25 -71 -47 -137 -49 -145 -18 -67 -20 -66 -72 22 -27 45 -51 88
-53 93 -2 6 -15 27 -28 48 -24 39 -25 69 -1 65 10 -2 14 28 16 130 l3 132 -28
-5 c-15 -3 -62 -14 -103 -25 -41 -12 -82 -22 -90 -24 -42 -11 -329 -88 -356
-97 l-31 -10 0 -129 1 -130 25 5 c14 3 51 12 81 20 54 15 55 14 73 -8 10 -12
25 -30 33 -40 7 -9 14 -21 14 -25 0 -4 11 -20 25 -37 13 -16 76 -104 139 -195
63 -91 118 -169 123 -175 22 -26 24 -37 7 -63 -42 -65 -97 -102 -150 -102 -26
0 -26 -2 -27 108 0 52 -3 62 -16 58 -26 -8 -105 -28 -121 -31 -8 -2 -27 -8
-42 -14 -16 -6 -28 -9 -28 -6 0 2 -13 -1 -28 -6 l-29 -10 1 -182 1 -182 105 1
c116 0 149 5 230 29 190 58 351 199 449 393 12 24 69 161 127 305 58 144 113
280 123 302 10 22 28 68 41 102 l22 63 71 21 c38 11 78 22 87 24 10 2 34 8 54
13 l36 10 0 -344 c0 -299 -2 -344 -15 -344 -20 0 -18 1 -71 -19 l-47 -16 -1
-128 c-1 -80 3 -127 9 -127 6 0 44 9 85 21 73 20 89 24 130 33 11 3 24 7 28
10 5 3 20 7 33 9 14 3 77 19 140 37 63 17 125 34 138 36 51 10 52 13 54 147 2
143 4 141 -78 112 -55 -20 -55 -20 -55 29 l0 44 83 21 c129 34 235 70 285 98
82 45 87 48 105 63 141 119 205 236 214 391 12 192 -60 307 -218 347 -50 13
-183 11 -249 -4z m68 -297 c29 -26 40 -64 36 -120 -6 -74 -47 -136 -115 -172
-39 -21 -199 -64 -204 -55 -8 13 -4 319 4 324 4 3 18 7 32 10 13 2 42 11 64
18 58 21 158 18 183 -5z"/>
<path d="M1805 1490 c-11 -5 -92 -27 -180 -51 -88 -23 -239 -63 -335 -89 -96
-27 -229 -62 -295 -80 -66 -18 -124 -33 -130 -35 -5 -1 -25 -6 -43 -10 -18 -4
-35 -11 -38 -16 -5 -9 -7 -249 -1 -255 1 -2 27 3 57 11 30 8 58 15 63 15 4 0
7 -153 7 -340 l0 -339 -52 -16 c-28 -8 -58 -15 -65 -15 -7 0 -13 -12 -14 -27
-2 -86 0 -235 4 -239 2 -3 16 0 31 6 15 5 39 12 54 15 15 3 52 12 82 20 63 18
83 23 108 29 9 2 51 13 92 25 132 37 265 73 281 76 186 37 372 152 454 280 51
79 73 153 75 253 4 133 -35 225 -115 278 -62 41 -222 39 -390 -6 -66 -17 -124
-32 -130 -33 -5 -2 -14 -5 -20 -8 -32 -17 -40 -4 -42 68 l-3 72 43 11 c23 6
90 24 149 41 59 16 110 29 113 29 3 0 5 -25 5 -56 0 -34 4 -53 10 -49 5 3 19
8 30 11 36 7 54 12 115 29 74 20 87 23 102 24 8 1 12 32 12 104 1 56 2 109 2
117 2 44 -4 151 -10 154 -3 2 -15 0 -26 -4z m-218 -794 c66 -58 17 -190 -87
-234 -53 -22 -230 -70 -234 -63 -6 12 -5 247 2 257 11 16 202 62 251 61 29 -1
53 -8 68 -21z"/>
</g>
</svg>
