<?xml version="1.0" encoding="utf-8"?>
<!-- Generator: Adobe Illustrator 24.0.1, SVG Export Plug-In . SVG Version: 6.00 Build 0)  -->
<svg version="1.1" id="Capa_1" xmlns="http://www.w3.org/2000/svg" xmlns:xlink="http://www.w3.org/1999/xlink" x="0px" y="0px"
	 viewBox="0 0 40 40" style="enable-background:new 0 0 40 40;" xml:space="preserve">
<style type="text/css">
	.st0{fill:#FFFFFF;}
</style>
<g>
	<g>
		<path class="st0" d="M10,30h9.1v-9.1H10V30z M11.8,22.7h5.5v5.4h-5.5V22.7z"/>
		<rect x="13.6" y="24.5" class="st0" width="1.8" height="1.8"/>
		<rect x="24.5" y="28.2" class="st0" width="1.8" height="1.8"/>
		<rect x="28.2" y="28.2" class="st0" width="1.8" height="1.8"/>
		<polygon class="st0" points="28.2,22.7 26.4,22.7 26.4,20.9 20.9,20.9 20.9,30 22.7,30 22.7,24.5 24.5,24.5 24.5,26.4 30,26.4 
			30,20.9 30,20.9 28.2,20.9 		"/>
		<path class="st0" d="M10,19.1h9.1V10H10V19.1z M11.8,11.8h5.5v5.5h-5.5V11.8z"/>
		<rect x="13.6" y="13.6" class="st0" width="1.8" height="1.8"/>
		<path class="st0" d="M20.9,10v9.1H30V10H20.9z M28.2,17.3h-5.5v-5.5h5.5V17.3z"/>
		<rect x="24.5" y="13.6" class="st0" width="1.8" height="1.8"/>
	</g>
</g>
</svg>
