<?xml version="1.0" encoding="utf-8"?>
<!-- Generator: Adobe Illustrator 24.0.1, SVG Export Plug-In . SVG Version: 6.00 Build 0)  -->
<svg version="1.1" id="Слой_1" xmlns="http://www.w3.org/2000/svg" xmlns:xlink="http://www.w3.org/1999/xlink" x="0px" y="0px"
	 viewBox="0 0 250 250" style="enable-background:new 0 0 250 250;" xml:space="preserve">
<style type="text/css">
	.st0{fill:#D9D9D9;}
</style>
<g>
	<path class="st0" d="M105.8,8.8h3.8c1.4,0,2.5-1.1,2.5-2.5V2.5c0-1.4-1.1-2.5-2.5-2.5h-3.8c-1.3,0-2.5,1.1-2.5,2.5v3.8
		C103.3,7.7,104.4,8.8,105.8,8.8z"/>
	<path class="st0" d="M68.9,17.2v0.3v8.3v0.3v8.6H69v5.6c0,1.6,1.3,3,3,3h2.8c1.6,0,3-1.3,3-3v-5.6h0v-0.1h5.6c1.6,0,3-1.3,3-3v-2.8
		c0-1.6-1.3-3-3-3h-5.6v-8.3v-0.3V8.8h5.6c1.6,0,3-1.3,3-3V3c0-1.6-1.3-3-3-3h-5.6h-0.3h-5.6c-1.6,0-3,1.3-3,3v5.9h0V17.2z"/>
	<path class="st0" d="M149.4,17.5h5.6h0.3h8.3h0.1v5.6c0,1.6,1.3,3,3,3h2.8c1.6,0,3-1.3,3-3v-5.6v-0.3V8.6h-0.1V3c0-1.6-1.3-3-3-3
		h-2.8c-1.6,0-3,1.3-3,3v3.9c-0.2,0.8-0.9,1.5-1.7,1.7H155v0.1h-5.6c-1.6,0-3,1.3-3,3v2.8C146.4,16.1,147.7,17.5,149.4,17.5z"/>
	<path class="st0" d="M86.1,23.1c0,1.6,1.3,3,3,3h5.6H95h8.3h0.3h8.3h0.3h8.4h0.2h8.4h0.3h8.6V26h5.6c1.6,0,3-1.3,3-3v-2.8
		c0-1.6-1.3-3-3-3h-5.6V8.6H138V3c0-1.6-1.3-3-3-3h-2.8c-1.6,0-3,1.3-3,3v3.2c0.1,1.2-0.7,2.1-1.8,2.4h-3.9c-1.6,0-3,1.3-3,3v3.9
		c-0.2,0.8-0.9,1.5-1.7,1.7h-6.6h-0.3h-8.3h-0.3h-8.6v0.1h-5.6c-1.6,0-3,1.3-3,3V23.1z"/>
	<path class="st0" d="M143.7,34.4h-5.9v0.1h-5.7c-1.6,0-3,1.3-3,3v2.8c0,1.6,1.3,3,3,3h5.7V52h0.1v5.6c0,1.6,1.3,3,3,3h2.8
		c1.6,0,3-1.3,3-3V52h0v-8.7v-0.2v-5.7C146.7,35.8,145.4,34.4,143.7,34.4z"/>
	<path class="st0" d="M172.5,37.4c0-1.6-1.3-3-3-3h-5.6h-0.1v-5.6c0-1.6-1.3-3-3-3H158c-1.6,0-3,1.3-3,3v5.6v0.3v5.6
		c0,1.6,1.3,3,3,3h5.6V49c0,1.6,1.3,3,3,3h5.7v5.6c0,1.6,1.3,3,3,3h2.8c1.6,0,3-1.3,3-3v-5.7v-0.2V46c0-1.6-1.3-3-3-3h-5.6V37.4z"/>
	<path class="st0" d="M86.3,45.6c0-1.4-1.1-2.5-2.5-2.5H80c-1.4,0-2.5,1.1-2.5,2.5v3.8c0,1.4,1.1,2.5,2.5,2.5h3.8
		c1.4,0,2.5-1.1,2.5-2.5V45.6z"/>
	<path class="st0" d="M97.8,52h2.8c1.6,0,3-1.3,3-3v-5.7v-0.1h5.6c1.6,0,3-1.3,3-3v-2.8c0-1.6-1.3-3-3-3h-5.6h-0.3h-5.6
		c-1.6,0-3,1.3-3,3v5.9h0.1V49C94.8,50.6,96.1,52,97.8,52z"/>
	<path class="st0" d="M114.4,51.9h3.8c1.4,0,2.5-1.1,2.5-2.5v-3.8c0-1.4-1.1-2.5-2.5-2.5h-3.8c-1.3,0-2.5,1.1-2.5,2.5v3.8
		C111.9,50.8,113,51.9,114.4,51.9z"/>
	<path class="st0" d="M88.6,60.5h3.8c1.4,0,2.5-1.1,2.5-2.5v-3.8c0-1.4-1.1-2.5-2.5-2.5h-3.8c-1.4,0-2.5,1.1-2.5,2.5V58
		C86.1,59.4,87.2,60.5,88.6,60.5z"/>
	<path class="st0" d="M160.8,51.6H158c-1.6,0-3,1.3-3,3v3.9c-0.3,1-1.2,1.9-2.4,1.9h-3.2c-1.6,0-3,1.3-3,3v2.8c0,1.6,1.3,3,3,3h5.6
		h0.1v5.6c0,1.6,1.3,3,3,3h2.8c1.6,0,3-1.3,3-3v-5.6v-0.3v-8.6h-0.1v-5.7C163.8,53,162.5,51.6,160.8,51.6z"/>
	<path class="st0" d="M40.7,68.9h-3.8c-1.3,0-2.5,1.1-2.5,2.5v3.8c0,1.4,1.1,2.5,2.5,2.5h3.8c1.4,0,2.5-1.1,2.5-2.5v-3.8
		C43.2,70,42.1,68.9,40.7,68.9z"/>
	<path class="st0" d="M60.3,69h-5.7c-1.6,0-3,1.3-3,3v2.8c0,1.6,1.3,3,3,3h5.7v5.6c0,1.6,1.3,3,3,3h5.6V92c0,1.6,1.3,3,3,3h5.6h0.3
		h5.6c1.6,0,3-1.3,3-3v-5.6h8.3H95h8.6v-0.1h5.6c1.6,0,3-1.3,3-3v-2.8c0-1.6-1.3-3-3-3h-5.6v-8.3h8.3h0.1v5.6c0,1.6,1.3,3,3,3h2.8
		c1.6,0,3-1.3,3-3v-5.6h5.7c1.6,0,3-1.3,3-3v-5.9h-0.1v-5.7c0-1.6-1.3-3-3-3h-2.8c-1.6,0-3,1.3-3,3v3.3c0,1.1-0.8,2.1-1.8,2.4h-6.6
		h-0.1v-5.7c0-1.6-1.3-3-3-3h-2.8c-1.6,0-3,1.3-3,3v3.9c-0.2,0.8-0.9,1.5-1.7,1.8h-3.9c-1.6,0-3,1.3-3,3v3.9
		c-0.2,0.8-0.9,1.5-1.7,1.7h-6.6v-5.6c0-1.6-1.3-3-3-3h-5.6h-0.1v-5.7c0-1.6-1.3-3-3-3h-2.8c-1.6,0-3,1.3-3,3v5.7h0v5.9
		c0,1.6,1.3,3,3,3h5.6v6.6c-0.2,0.8-0.9,1.5-1.7,1.7h-6.6v-5.6c0-1.6-1.3-3-3-3h-5.9V69z"/>
	<path class="st0" d="M195.2,68.9h-2.8c-1.6,0-3,1.3-3,3v3.9c-0.2,0.8-0.9,1.5-1.7,1.7h-6.6H181v-5.6c0-1.6-1.3-3-3-3h-2.8
		c-1.6,0-3,1.3-3,3v5.6v0.3v5.6c0,1.6,1.3,3,3,3h5.6h0.1V92c0,1.6,1.3,3,3,3h2.8c1.6,0,3-1.3,3-3v-5.6h0h5.6c1.6,0,3-1.3,3-3v-5.9
		h-0.1v-5.6C198.2,70.3,196.9,68.9,195.2,68.9z"/>
	<path class="st0" d="M247,68.9h-5.9v0h-8.3h-0.3h-8.3h-0.3h-8.6V69h-5.7c-1.6,0-3,1.3-3,3v2.8c0,1.6,1.3,3,3,3h5.7v0h8.6h0.1v5.6
		c0,1.6,1.3,3,3,3h2.8c1.6,0,3-1.3,3-3v-5.6h8.3v8.3h-5.6c-1.6,0-3,1.3-3,3V95h0.1v5.6c0,1.6,1.3,3,3,3h2.8c1.6,0,3-1.3,3-3V95h5.6
		c1.6,0,3-1.3,3-3v-5.6v-0.3v-8.3v-0.3v-5.6C250,70.3,248.7,68.9,247,68.9z"/>
	<path class="st0" d="M20.2,86.4h5.9v-0.1h5.6c1.6,0,3-1.3,3-3v-2.8c0-1.6-1.3-3-3-3h-5.6h0v-5.6c0-1.6-1.3-3-3-3h-5.9V69h-5.6
		c-1.6,0-3,1.3-3,3v2.8c0,1.6,1.3,3,3,3h5.6v5.6C17.2,85,18.5,86.4,20.2,86.4z"/>
	<path class="st0" d="M49.4,77.5h-3.8c-1.4,0-2.5,1.1-2.5,2.5v3.8c0,1.4,1.1,2.5,2.5,2.5h3.8c1.4,0,2.5-1.1,2.5-2.5V80
		C51.9,78.6,50.8,77.5,49.4,77.5z"/>
	<path class="st0" d="M129.2,77.6h-5.7c-1.6,0-3,1.3-3,3v2.8c0,1.6,1.3,3,3,3h5.7h0.2h8.4h0.3h8.6v-0.1h5.6c1.6,0,3-1.3,3-3v-2.8
		c0-1.6-1.3-3-3-3h-5.6h-0.1v-5.6c0-1.6-1.3-3-3-3h-2.8c-1.6,0-3,1.3-3,3v3.2c0.1,1.2-0.7,2.1-1.8,2.4h-6.8V77.6z"/>
	<path class="st0" d="M3,95h2.9c1.6,0,3-1.3,3-3v-5.9H8.8v-5.6c0-1.6-1.3-3-3-3H3c-1.6,0-3,1.3-3,3v5.6v0.3V92C0,93.6,1.3,95,3,95z"
		/>
	<path class="st0" d="M58,86.2h-3.8c-1.4-0.1-2.5,1.1-2.5,2.5v3.8c0,1.4,1.1,2.5,2.5,2.5H58c1.4,0,2.5-1.1,2.5-2.5v-3.8
		C60.5,87.3,59.4,86.2,58,86.2z"/>
	<path class="st0" d="M203.9,86.1h-2.8c-1.6,0-3,1.3-3,3v3.2c0,1.2-0.8,2.1-1.8,2.4h-3.9c-1.6,0-3,1.3-3,3v5.6v0.3v6.6
		c-0.2,0.8-0.9,1.5-1.7,1.7h-6.6H181v-5.6c0-1.6-1.3-3-3-3h-2.8c-1.6,0-3,1.3-3,3v5.6v0.3v5.6c0,1.6,1.3,3,3,3h5.6h0.3h8.3v8.4h-5.6
		c-1.6,0-3,1.3-3,3v3.8c-0.2,0.8-0.9,1.5-1.7,1.8h-3.9c-1.6,0-3,1.3-3,3v5.6v0.3v8.3v0.3v5.6c0,1.6,1.3,3,3,3h5.9v-0.1h5.6
		c1.6,0,3-1.3,3-3V158c0-1.6-1.3-3-3-3h-5.6v-8.3h8.3h0.3h5.6c1.6,0,3-1.3,3-3v-5.6h8.7V138h5.6c1.6,0,3-1.3,3-3v-2.8
		c0-1.6-1.3-3-3-3H207h-0.3h-8.4v-8.4v-0.1h5.7c1.6,0,3-1.3,3-3v-2.8c0-1.6-1.3-3-3-3h-5.7v-8.3h8.7v-0.1h5.6c1.6,0,3-1.3,3-3v-2.8
		c0-1.6-1.3-3-3-3H207h-0.1v-5.6C206.9,87.5,205.6,86.1,203.9,86.1z"/>
	<path class="st0" d="M224.1,88.7c0-1.4-1.1-2.5-2.5-2.5h-3.8c-1.4-0.1-2.5,1.1-2.5,2.5v3.8c0,1.4,1.1,2.5,2.5,2.5h3.8
		c1.4,0,2.5-1.1,2.5-2.5V88.7z"/>
	<path class="st0" d="M163.6,101.1c0,1.4,1.1,2.5,2.5,2.5h3.8c1.4,0,2.5-1.1,2.5-2.5v-3.8c0-1.4-1.1-2.5-2.5-2.5h-3.8
		c-1.4-0.1-2.5,1.1-2.5,2.5V101.1z"/>
	<path class="st0" d="M37.5,120.8h2.8c1.6,0,3-1.3,3-3v-5.6h8.4H52h8.3h0.3h8.3h0.3h8.6v-0.1h5.6c1.6,0,3-1.3,3-3v-2.8
		c0-1.6-1.3-3-3-3h-5.6h-0.3h-8.3h-0.3h-8.3h-0.3H52h-0.3h-8.4v-5.6c0-1.6-1.3-3-3-3h-5.6h-0.3h-5.6c-1.6,0-3,1.3-3,3v5.6v0.3v5.6
		c0,1.6,1.3,3,3,3h5.6h0.1v5.6C34.5,119.4,35.8,120.8,37.5,120.8z"/>
	<path class="st0" d="M247,111.9h-5.6h-0.3h-5.6c-1.6,0-3,1.3-3,3v3.9c-0.3,1.1-1.2,1.8-2.4,1.8h-3.2c-1.6,0-3,1.3-3,3v2.8
		c0,1.6,1.3,3,3,3h5.6v0.1h8.6v8.3v0.3v6.6c-0.2,0.8-0.9,1.5-1.7,1.7h-6.6h-0.3h-5.6c-1.6,0-3,1.3-3,3v3.2h0
		c0.1,1.2-0.7,2.1-1.8,2.4h-6.5h-0.3h-8.6v0.1H201c-1.6,0-3,1.3-3,3v2.8c0,1.6,1.3,3,3,3h5.7h0.2h8.4h0.1v5.6c0,1.6,1.3,3,3,3h2.8
		c1.6,0,3-1.3,3-3v-5.6h8.3v8.3v0.3v8.3v0.3v6.6c-0.3,1.1-1.2,1.8-2.4,1.8h-3.2c-1.6,0-3,1.3-3,3v2.8c0,1.6,1.3,3,3,3h5.6v0.1v8.6
		h0.1v5.6c0,1.6,1.3,3,3,3h2.8c1.6,0,3-1.3,3-3V207h5.6c1.6,0,3-1.3,3-3v-5.6v-0.3v-8.4v-0.2v-5.7c0-1.6-1.3-3-3-3h-5.6v-8.3v-0.3
		v-8.3h5.6c1.6,0,3-1.3,3-3v-5.6V155v-8.3v-0.3v-8.3v-0.3v-8.3v-0.3v-8.4v-0.2v-5.7C250,113.3,248.7,111.9,247,111.9z"/>
	<path class="st0" d="M3,138.1h5.6h0.3h5.6c1.6,0,3-1.3,3-3v-5.7v-0.2v-5.7c0-1.6-1.3-3-3-3H8.9H8.6H3c-1.6,0-3,1.3-3,3v5.7v0.2v5.7
		C0,136.7,1.3,138.1,3,138.1z"/>
	<path class="st0" d="M28.9,138.1h2.8c1.6,0,3-1.3,3-3v-5.9h-0.1v-5.7c0-1.6-1.3-3-3-3h-2.8c-1.6,0-3,1.3-3,3v5.9h0.1v5.7
		C25.9,136.7,27.2,138.1,28.9,138.1z"/>
	<path class="st0" d="M166.1,138h3.8c1.4,0,2.5-1.1,2.5-2.5v-3.8c0-1.4-1.1-2.5-2.5-2.5h-3.8c-1.4,0-2.5,1.1-2.5,2.5v3.8
		C163.6,136.9,164.7,138,166.1,138z"/>
	<path class="st0" d="M217.8,137.8c-1.4,0-2.5,1.1-2.5,2.5v3.8c0,1.4,1.1,2.5,2.5,2.5h3.8c1.4,0,2.5-1.1,2.5-2.5v-3.8
		c0-1.4-1.1-2.5-2.5-2.5H217.8z"/>
	<path class="st0" d="M14.9,155.2c1.4,0,2.5-1.1,2.5-2.5v-3.8c0-1.4-1.1-2.5-2.5-2.5h-3.8c-1.4,0-2.5,1.1-2.5,2.5v3.8
		c0,1.4,1.1,2.5,2.5,2.5H14.9z"/>
	<path class="st0" d="M2.5,163.8h3.8c1.4,0,2.5-1.1,2.5-2.5v-3.8c0-1.4-1.1-2.5-2.5-2.5H2.5c-1.4,0-2.5,1.1-2.5,2.5v3.8
		C0,162.7,1.1,163.8,2.5,163.8z"/>
	<path class="st0" d="M19.7,163.8h3.8c1.4,0,2.5-1.1,2.5-2.5v-3.8c0-1.4-1.1-2.5-2.5-2.5h-3.8c-1.3,0-2.5,1.1-2.5,2.5v3.8
		C17.2,162.7,18.3,163.8,19.7,163.8z"/>
	<path class="st0" d="M8.6,170c0,1.4,1.1,2.5,2.5,2.5h3.8c1.4,0,2.5-1.1,2.5-2.5v-3.8c0-1.4-1.1-2.5-2.5-2.5h-3.8
		c-1.4-0.1-2.5,1.1-2.5,2.5V170z"/>
	<path class="st0" d="M129.5,172.4h5.6c1.6,0,3-1.3,3-3v-2.8c0-1.6-1.3-3-3-3h-5.6h-0.3h-8.6v0.1h-5.7c-1.6,0-3,1.3-3,3v2.8
		c0,1.6,1.3,3,3,3h5.7h0.2L129.5,172.4L129.5,172.4z"/>
	<path class="st0" d="M2.5,181.1h3.8c1.4,0,2.5-1.1,2.5-2.5v-3.8c0-1.4-1.1-2.5-2.5-2.5H2.5c-1.4-0.1-2.5,1.1-2.5,2.5v3.8
		C0,180,1.1,181.1,2.5,181.1z"/>
	<path class="st0" d="M28.3,181.1h3.8c1.4,0,2.5-1.1,2.5-2.5v-3.8c0-1.4-1.1-2.5-2.5-2.5h-3.8c-1.3-0.1-2.5,1.1-2.5,2.5v3.8
		C25.8,180,26.9,181.1,28.3,181.1z"/>
	<path class="st0" d="M89.2,189.7H92c1.6,0,3-1.3,3-3v-5.6h5.6c1.6,0,3-1.3,3-3v-5.9h-0.1v-5.6c0-1.6-1.3-3-3-3h-2.8
		c-1.6,0-3,1.3-3,3v3.9c-0.2,0.8-0.9,1.5-1.7,1.7h-6.6h-0.3h-8.3h-0.3h-8.3v-8.3h5.6c1.6,0,3-1.3,3-3v-5.6V155v-5.6c0-1.6-1.3-3-3-3
		h-5.6v-8.3h5.6c1.6,0,3-1.3,3-3v-5.7v-0.2v-5.7c0-1.6-1.3-3-3-3h-5.9v0.1h-8.3h-0.3h-8.4v-0.1H46c-1.6,0-3,1.3-3,3v5.9h0.1v5.7
		c0,1.6,1.3,3,3,3h2.8c1.6,0,3-1.3,3-3v-5.6h8.4v8.3v0.1h-5.7c-1.6,0-3,1.3-3,3v2.8c0,1.6,1.3,3,3,3h5.7v0v8.3v0.1h-5.7
		c-1.6,0-3,1.3-3,3v2.8c0,1.6,1.3,3,3,3h5.7v5.9c0.1,1.2-0.7,2.1-1.8,2.4H52v-5.6c0-1.6-1.3-3-3-3h-5.7v-8.3v-0.1H49
		c1.6,0,3-1.3,3-3v-2.8c0-1.6-1.3-3-3-3h-5.7h-0.1v-5.6c0-1.6-1.3-3-3-3h-2.8c-1.6,0-3,1.3-3,3v5.6v0.3v8.3v0.3v8.3v0.3v5.6
		c0,1.6,1.3,3,3,3H43v5.6c0,1.6,1.3,3,3,3h5.7h0.2h8.4h0.3h8.3v8.6H69v5.7c0,1.6,1.3,3,3,3h2.8c1.6,0,3-1.3,3-3v-5.7h0v-8.6h8.3h0.1
		v5.6C86.2,188.3,87.5,189.7,89.2,189.7z"/>
	<path class="st0" d="M149.5,189.7h2.8c1.6,0,3-1.3,3-3v-5.6v-0.3v-8.3v-0.1h5.6c1.6,0,3-1.3,3-3v-2.8c0-1.6-1.3-3-3-3h-5.6H155
		h-5.6c-1.6,0-3,1.3-3,3v3.2c0.1,1.4-1.1,2.5-2.5,2.5h-3.1c-1.6,0-3,1.3-3,3v2.8c0,1.6,1.3,3,3,3h5.6h0.1v5.6
		C146.5,188.3,147.8,189.7,149.5,189.7z"/>
	<path class="st0" d="M97.7,198.3h5.6h0.3h5.6c1.6,0,3-1.3,3-3v-2.8c0-1.6-1.3-3-3-3h-5.6h-0.3h-5.6c-1.6,0-3,1.3-3,3v2.8
		C94.7,196.9,96,198.3,97.7,198.3z"/>
	<path class="st0" d="M123.1,198.3h3.8c1.4,0,2.5-1.1,2.5-2.5V192c0-1.4-1.1-2.5-2.5-2.5h-3.8c-1.4,0-2.5,1.1-2.5,2.5v3.8
		C120.6,197.2,121.7,198.3,123.1,198.3z"/>
	<path class="st0" d="M195.7,189.5h-3.8c-1.3,0-2.5,1.1-2.5,2.5v3.8c0,1.4,1.1,2.5,2.5,2.5h3.8c1.4,0,2.5-1.1,2.5-2.5V192
		C198.2,190.6,197.1,189.5,195.7,189.5z"/>
	<path class="st0" d="M114.4,206.9h3.8c1.4,0,2.5-1.1,2.5-2.5v-3.8c0-1.4-1.1-2.5-2.5-2.5h-3.8c-1.3,0-2.5,1.1-2.5,2.5v3.8
		C111.9,205.8,113,206.9,114.4,206.9z"/>
	<path class="st0" d="M95,224.2h8.3h0.3h8.6v-0.1h5.6c1.6,0,3-1.3,3-3v-2.8c0-1.6-1.3-3-3-3h-5.6v-5.6c0-1.6-1.3-3-3-3h-5.6h-0.3
		h-5.6c-1.6,0-3,1.3-3,3v3.8c-0.2,0.8-0.9,1.5-1.8,1.8h-6.5v-8.6h-0.1V201c0-1.6-1.3-3-3-3h-2.8c-1.6,0-3,1.3-3,3v3.9
		c-0.3,1-1.2,1.9-2.4,1.9h-3.2c-1.6,0-3,1.3-3,3v2.8c0,1.6,1.3,3,3,3h5.6v5.6c0,1.6,1.3,3,3,3h5.6h0.3h8.3H95z"/>
	<path class="st0" d="M232.7,217.8c0-1.4-1.1-2.5-2.5-2.5h-3.8c-1.4,0-2.5,1.1-2.5,2.5v3.8c0,1.4,1.1,2.5,2.5,2.5h3.8
		c1.4,0,2.5-1.1,2.5-2.5V217.8z"/>
	<path class="st0" d="M221.2,223.9h-5.6v-8.3v-0.1h5.6c1.6,0,3-1.3,3-3v-2.8c0-1.6-1.3-3-3-3h-5.6v-8.3v-0.3v-8.4v-0.2v-8.4v-0.3
		v-5.6c0-1.6-1.3-3-3-3H207h-0.3h-8.4h-0.1v-5.6c0-1.6-1.3-3-3-3h-2.8c-1.6,0-3,1.3-3,3v3.9c-0.2,0.8-0.9,1.5-1.7,1.7h-6.6h-0.3
		h-5.6c-1.6,0-3,1.3-3,3v3.9c-0.2,0.8-0.9,1.5-1.7,1.7h-3.9c-1.6,0-3,1.3-3,3v3.9c-0.2,0.8-0.9,1.5-1.7,1.7H158c-1.6,0-3,1.3-3,3
		v3.9c-0.2,0.8-0.9,1.5-1.7,1.8h-3.9c-1.6,0-3,1.3-3,3v2.8c0,1.6,1.3,3,3,3h5.6v0.1v8.3v0.3v5.6c0,1.6,1.3,3,3,3h5.6v5.6
		c0,1.6,1.3,3,3,3h5.6v8.3v0.1h-5.6c-1.6,0-3,1.3-3,3v2.8c0,1.6,1.3,3,3,3h5.6h0.3h5.6c1.6,0,3-1.3,3-3v-5.6v-0.3v-8.3v-0.3v-8.3
		v-0.3v-8.3h8.3h0.3h8.4h0.2h8.4v8.3h-0.1v5.9c0,1.6,1.3,3,3,3h5.9v-0.1h5.7c1.6,0,3-1.3,3-3v-2.8
		C224.2,225.3,222.9,223.9,221.2,223.9z M163.9,206.7v-8.3h8.3v8.3v0.3v6.5c-0.2,0.8-0.9,1.5-1.8,1.8h-6.5V207V206.7z M198.1,206.7
		h-8.4h-0.3h-8.3v-8.3v-0.3v-8.4v-0.2v-8.4h8.3h0.3h8.4h0.2h8.4v8.4v0.2v8.4v0.3v5.9c0.1,1.1-0.7,2.1-1.8,2.4h-6.6H198.1z"/>
	<path class="st0" d="M243.6,232.7h3.8c1.4,0,2.5-1.1,2.5-2.5v-3.8c0-1.4-1.1-2.5-2.5-2.5h-3.8c-1.4,0-2.5,1.1-2.5,2.5v3.8
		C241.1,231.6,242.2,232.7,243.6,232.7z"/>
	<path class="st0" d="M83.4,232.5h-5.6h-0.1v-5.6c0-1.6-1.3-3-3-3h-2.8c-1.6,0-3,1.3-3,3v5.6h0v5.9c0,1.6,1.3,3,3,3h5.6h0.1v5.6
		c0,1.6,1.3,3,3,3h2.8c1.6,0,3-1.3,3-3v-5.6v-0.3v-5.6C86.4,233.9,85.1,232.5,83.4,232.5z"/>
	<path class="st0" d="M112.2,235.5c0-1.6-1.3-3-3-3h-5.9v0.1h-5.6c-1.6,0-3,1.3-3,3v2.8c0,1.6,1.3,3,3,3h5.9v-0.1h5.6
		c1.6,0,3-1.3,3-3V235.5z"/>
	<path class="st0" d="M163.9,235.5c0-1.6-1.3-3-3-3h-5.6v-5.6c0-1.6-1.3-3-3-3h-5.6v0v-8.3v-0.3v-5.6c0-1.6-1.3-3-3-3h-5.6v0h-8.9
		v0.1h-5.7c-1.6,0-3,1.3-3,3v2.8c0,1.6,1.3,3,3,3h5.7v8.3v0h-5.7c-1.6,0-3,1.3-3,3v5.9h0.1v5.6c0,1.6,1.3,3,3,3h2.8c1.6,0,3-1.3,3-3
		v-5.6v0h8.4v8.3v0.1h-5.7c-1.6,0-3,1.3-3,3v2.8c0,1.6,1.3,3,3,3h5.7h0.2h8.4h0.3h5.6c1.6,0,3-1.3,3-3v-5.6v-0.1h5.6
		c1.6,0,3-1.3,3-3V235.5z"/>
	<path class="st0" d="M206.9,235c0-1.4-1.1-2.5-2.5-2.5h-3.8c-1.4,0-2.5,1.1-2.5,2.5v3.8c0,1.4,1.1,2.5,2.5,2.5h3.8
		c1.4,0,2.5-1.1,2.5-2.5V235z"/>
	<path class="st0" d="M118.2,241.2h-3.8c-1.3-0.1-2.5,1.1-2.5,2.5v3.8c0,1.4,1.1,2.5,2.5,2.5h3.8c1.4,0,2.5-1.1,2.5-2.5v-3.8
		C120.7,242.3,119.6,241.2,118.2,241.2z"/>
	<path class="st0" d="M195.7,241.2h-3.8c-1.3-0.1-2.5,1.1-2.5,2.5v3.8c0,1.4,1.1,2.5,2.5,2.5h3.8c1.4,0,2.5-1.1,2.5-2.5v-3.8
		C198.2,242.3,197.1,241.2,195.7,241.2z"/>
	<path class="st0" d="M213,241.2h-3.8c-1.4-0.1-2.5,1.1-2.5,2.5v3.8c0,1.4,1.1,2.5,2.5,2.5h3.8c1.4,0,2.5-1.1,2.5-2.5v-3.8
		C215.5,242.3,214.4,241.2,213,241.2z"/>
	<path class="st0" d="M247,241.1h-5.6h-0.1v-5.6c0-1.6-1.3-3-3-3h-2.8c-1.6,0-3,1.3-3,3v5.6v0.3v5.6c0,1.6,1.3,3,3,3h5.9v-0.1h5.6
		c1.6,0,3-1.3,3-3v-2.8C250,242.5,248.7,241.1,247,241.1z"/>
	<path class="st0" d="M27,44.4c7.5,0,0.7,0,8.2,0c7.4,0,9.2-1.7,9.2-9.2s0-0.7,0-8.2c0-7.4-1.7-9.2-9.2-9.2s-0.8,0-8.2,0
		s-9.2,1.7-9.2,9.2c0,4.2,0,0.8,0,8.2C17.8,42.6,19.5,44.4,27,44.4z"/>
	<path class="st0" d="M21.5,62.1c17.4,0,1.7,0,19.1,0c17.4,0,21.5-4.1,21.5-21.5c0-17.4,0-1.7,0-19.1S58,0,40.6,0
		c-17.4,0-1.7,0-19.1,0S0,4.1,0,21.5c0,9.8,0,1.7,0,19.1C0,58,4.1,62.1,21.5,62.1z M8.9,21.5c0-8.4,1.1-10.5,1.6-11
		c0.5-0.4,2.5-1.6,11-1.6h19.2c8.4,0,10.5,1.1,11,1.6c0.4,0.5,1.6,2.5,1.6,11v19.1c0,8.5-1.2,10.5-1.7,11c-0.5,0.4-2.5,1.6-11,1.6
		H21.5c-8.4,0-10.5-1.1-11-1.6c-0.4-0.5-1.6-2.5-1.6-11V21.5z"/>
	<path class="st0" d="M223,17.8c-7.4,0-0.7,0-8.2,0c-7.4,0-9.2,1.7-9.2,9.2c0,4.2,0,0.8,0,8.2c0,7.4,1.7,9.2,9.2,9.2s0.7,0,8.2,0
		c7.4,0,9.2-1.7,9.2-9.2s0-0.7,0-8.2C232.2,19.6,230.5,17.8,223,17.8z"/>
	<path class="st0" d="M228.5,0c-17.4,0-1.7,0-19.1,0c-17.4,0-21.5,4.1-21.5,21.5c0,9.8,0,1.7,0,19.1c0,17.4,4.1,21.5,21.5,21.5
		c17.4,0,1.7,0,19.1,0c17.4,0,21.5-4.1,21.5-21.5c0-17.4,0-1.7,0-19.1S245.9,0,228.5,0z M241.2,40.6c0,8.5-1.2,10.5-1.7,11
		c-0.5,0.4-2.5,1.6-11,1.6h-19.1c-8.4,0-10.5-1.1-11-1.6c-0.4-0.5-1.6-2.5-1.6-11V21.5c0-8.4,1.1-10.5,1.6-11
		c0.5-0.4,2.5-1.6,11-1.6h19.2c8.4,0,10.5,1.1,11,1.6c0.4,0.5,1.6,2.5,1.6,11V40.6z"/>
	<path class="st0" d="M35.2,205.7c-7.5,0-0.8,0-8.2,0s-9.2,1.7-9.2,9.2c0,4.2,0,0.7,0,8.2c0,7.4,1.7,9.2,9.2,9.2s0.7,0,8.2,0
		c7.4,0,9.2-1.7,9.2-9.2s0-0.7,0-8.2C44.4,207.5,42.7,205.7,35.2,205.7z"/>
	<path class="st0" d="M40.6,187.9c-17.4,0-1.7,0-19.1,0S0,192,0,209.4c0,9.8,0,1.7,0,19.1C0,245.9,4.1,250,21.5,250s1.7,0,19.1,0
		c17.4,0,21.5-4.1,21.5-21.5c0-17.4,0-1.7,0-19.1C62.1,192,58,187.9,40.6,187.9z M53.3,228.5c0,8.5-1.2,10.5-1.7,11
		c-0.5,0.4-2.5,1.6-11,1.6H21.5c-8.4,0-10.5-1.1-11-1.6c-0.4-0.5-1.6-2.5-1.6-11v-19.1c0-8.4,1.1-10.5,1.6-11
		c0.5-0.4,2.5-1.6,11-1.6h19.2c8.4,0,10.5,1.1,11,1.6c0.4,0.5,1.6,2.5,1.6,11V228.5z"/>
	<path class="st0" d="M92.6,125.2c0,16.3,11.8,29.8,27.3,32.2v-22.8h-8.2v-9.4h8.2V118c0-8.2,4.8-12.7,12.2-12.7
		c3.5,0,7.3,0.6,7.3,0.6v8h-4.1c-4,0-5.3,2.5-5.3,5.1v6.1h9l-1.4,9.4H130v22.8c15.5-2.4,27.3-15.9,27.3-32.2
		c0.1-17.9-14.4-32.5-32.3-32.5S92.6,107.2,92.6,125.2z"/>
</g>
</svg>
