<?xml version="1.0" encoding="utf-8"?>
<!-- Generator: Adobe Illustrator 24.0.1, SVG Export Plug-In . SVG Version: 6.00 Build 0)  -->
<svg version="1.1" id="Слой_1" xmlns="http://www.w3.org/2000/svg" xmlns:xlink="http://www.w3.org/1999/xlink" x="0px" y="0px"
	 viewBox="0 0 250 250" style="enable-background:new 0 0 250 250;" xml:space="preserve">
<style type="text/css">
	.st0{fill:#D9D9D9;}
</style>
<g>
	<g>
		<g>
			<path class="st0" d="M59.9,166.4v-25.5c0-0.2,0.1-0.4,0.3-0.6c0.2-0.2,0.4-0.3,0.6-0.3h10c0.3,0,0.5,0.1,0.6,0.3
				c0.2,0.2,0.3,0.4,0.3,0.6v0.9c0,0.3-0.1,0.5-0.3,0.6c-0.2,0.2-0.4,0.3-0.7,0.3h-8v9.4h6.9c0.3,0,0.5,0.1,0.6,0.3
				c0.2,0.2,0.3,0.4,0.3,0.6v0.9c0,0.2-0.1,0.4-0.2,0.6c-0.2,0.2-0.4,0.3-0.6,0.3h-6.9v10h8.4c0.3,0,0.5,0.1,0.6,0.2
				s0.3,0.4,0.3,0.6v0.9c0,0.3-0.1,0.5-0.3,0.6c-0.2,0.2-0.4,0.3-0.6,0.3H60.8c-0.2,0-0.4-0.1-0.6-0.3
				C60,166.8,59.9,166.6,59.9,166.4z"/>
			<path class="st0" d="M75.6,166.4v-25.5c0-0.2,0.1-0.4,0.3-0.6c0.2-0.2,0.4-0.3,0.6-0.3h1c0.2,0,0.4,0.1,0.6,0.3
				c0.2,0.2,0.3,0.4,0.3,0.6v11.2h4.3c0.3,0,0.5-0.2,0.6-0.5l2.9-10.6c0.2-0.6,0.6-0.9,1.1-0.9h0.7c0.7,0,1,0.3,1,0.9
				c0,0.1,0,0.3-0.1,0.5l-3.4,11.5c1.9,0.7,2.9,2.4,2.9,5v6.9c0,0.3,0,0.6,0.1,1s0.1,0.6,0.1,0.7c0,0.4-0.3,0.7-0.8,0.7h-0.7
				c-1,0-1.5-0.6-1.5-1.7v-8c0-1.9-1-2.9-2.9-2.9h-4.4v11.7c0,0.3-0.1,0.5-0.3,0.6c-0.2,0.2-0.4,0.3-0.7,0.3h-1
				c-0.2,0-0.4-0.1-0.6-0.3C75.7,166.8,75.6,166.6,75.6,166.4z"/>
			<path class="st0" d="M93.3,166.4v-25.5c0-0.2,0.1-0.4,0.3-0.6c0.2-0.2,0.4-0.3,0.6-0.3h6c1.7,0,3,0.5,4.1,1.5
				c1.1,1,1.6,2.4,1.6,4.2v2.4c0,2.5-0.9,4.2-2.8,5.1c2.1,0.7,3.1,2.5,3.1,5.3v3c0,1.8-0.5,3.2-1.6,4.2c-1.1,1-2.4,1.5-4.1,1.5h-6.3
				c-0.2,0-0.4-0.1-0.6-0.3C93.4,166.8,93.3,166.6,93.3,166.4z M96.1,152.1h4c0.9,0,1.6-0.3,2.1-0.9c0.6-0.6,0.8-1.4,0.8-2.3v-2.9
				c0-1-0.3-1.7-0.8-2.4c-0.5-0.6-1.2-0.9-2.1-0.9h-4.1V152.1z M96.1,164.7h4.5c0.9,0,1.6-0.3,2.1-0.9c0.5-0.6,0.7-1.4,0.7-2.4v-3.3
				c0-1-0.3-1.8-0.8-2.5c-0.5-0.7-1.3-1-2.3-1h-4.2V164.7z"/>
			<path class="st0" d="M108.9,141.8V141c0-0.2,0.1-0.5,0.3-0.6c0.2-0.2,0.4-0.3,0.6-0.3H122c0.2,0,0.4,0.1,0.6,0.3
				c0.2,0.2,0.3,0.4,0.3,0.7v0.8c0,0.3-0.1,0.5-0.3,0.6c-0.2,0.2-0.4,0.3-0.6,0.3h-4.7v23.7c0,0.3-0.1,0.5-0.3,0.6
				c-0.2,0.2-0.4,0.3-0.6,0.3h-1.1c-0.2,0-0.4-0.1-0.6-0.3c-0.2-0.2-0.3-0.4-0.3-0.6v-23.7h-4.7c-0.2,0-0.4-0.1-0.6-0.3
				C109,142.2,108.9,142,108.9,141.8z"/>
			<path class="st0" d="M126,166.4v-25.5c0-0.2,0.1-0.4,0.3-0.6c0.2-0.2,0.4-0.3,0.6-0.3h6.4c1.7,0,3,0.5,4.1,1.5
				c1.1,1,1.6,2.4,1.6,4.2v2.8c0,1.1-0.2,2.1-0.7,3c-0.5,0.8-1.2,1.4-2.2,1.8c2,0.8,2.9,2.3,2.9,4.6v6.9c0,0.3,0,0.6,0.1,1
				s0.1,0.6,0.1,0.7c0,0.4-0.3,0.7-0.8,0.7h-0.7c-1,0-1.5-0.6-1.5-1.7v-7.5c0-1.1-0.3-1.9-0.9-2.5s-1.5-0.9-2.6-0.9h-3.9l0.1,11.7
				c0,0.3-0.1,0.5-0.3,0.6c-0.2,0.2-0.4,0.3-0.7,0.3h-1c-0.2,0-0.4-0.1-0.6-0.3C126.1,166.8,126,166.6,126,166.4z M128.9,152.1h4.3
				c0.9,0,1.7-0.3,2.2-0.9c0.5-0.6,0.8-1.4,0.8-2.4v-2.9c0-1-0.3-1.8-0.8-2.4c-0.5-0.6-1.2-0.9-2.1-0.9h-4.4V152.1z"/>
			<path class="st0" d="M142.2,166.6c0-0.1,0-0.4,0.1-0.8l4.8-24.8c0.1-0.6,0.4-0.9,1-0.9h2.9c0.5,0,0.9,0.3,1,0.9l4.7,24.5
				c0.1,0.4,0.1,0.8,0.1,1c0,0.5-0.3,0.8-0.8,0.8h-1.4c-0.6,0-0.9-0.3-1-0.8l-1.3-6.9h-6.1l-1.3,6.9c-0.1,0.5-0.4,0.8-0.9,0.8H143
				C142.5,167.3,142.2,167,142.2,166.6z M146.8,157.1h5.2l-2.6-14.4L146.8,157.1z"/>
			<path class="st0" d="M160.1,166.4V141c0-0.2,0.1-0.4,0.3-0.6c0.2-0.2,0.4-0.3,0.6-0.3h1.5c0.5,0,0.9,0.3,1.1,0.8l6.5,19.5V141
				c0-0.2,0.1-0.4,0.3-0.6c0.2-0.2,0.4-0.3,0.7-0.3h0.9c0.2,0,0.5,0.1,0.6,0.3c0.2,0.2,0.3,0.4,0.3,0.6v25.4c0,0.3-0.1,0.5-0.3,0.6
				c-0.2,0.2-0.4,0.3-0.6,0.3h-1.5c-0.5,0-0.8-0.3-1-0.8l-6.7-19.7v19.6c0,0.3-0.1,0.5-0.2,0.6c-0.2,0.2-0.4,0.3-0.6,0.3H161
				c-0.3,0-0.5-0.1-0.6-0.3C160.2,166.8,160.1,166.6,160.1,166.4z"/>
			<path class="st0" d="M177.1,161.6v-3.5c0-0.3,0.1-0.5,0.3-0.6c0.2-0.2,0.4-0.3,0.6-0.3h1.1c0.2,0,0.4,0.1,0.6,0.2
				c0.2,0.2,0.3,0.4,0.3,0.6v3.3c0,2.2,1,3.3,3,3.3h1.4c0.9,0,1.6-0.3,2.1-0.9c0.5-0.6,0.7-1.4,0.7-2.4v-1.7c0-1.2-0.2-2.1-0.6-2.7
				c-0.4-0.6-1.1-1.2-2.1-1.7l-4.1-2.3c-2-1.1-3-2.9-3-5.4v-1.8c0-1.8,0.5-3.1,1.6-4.2c1.1-1,2.4-1.5,4-1.5h1.4c1.6,0,3,0.5,4,1.5
				c1.1,1,1.6,2.4,1.6,4.1v2.7c0,0.3-0.1,0.5-0.2,0.6c-0.2,0.2-0.4,0.3-0.6,0.3h-0.9c-0.2,0-0.4-0.1-0.6-0.3
				c-0.2-0.2-0.2-0.4-0.2-0.6v-2.5c0-2.2-1-3.3-3-3.3h-1.3c-0.9,0-1.6,0.3-2.1,0.9c-0.5,0.6-0.7,1.4-0.7,2.3v1.3
				c0,0.8,0.1,1.5,0.4,2.1c0.3,0.6,0.9,1.1,1.7,1.6l4.6,2.6c2,1.1,3,3,3,5.5v2.7c0,1.8-0.5,3.2-1.6,4.2c-1.1,1-2.4,1.5-4.1,1.5h-1.5
				c-1.7,0-3-0.5-4.1-1.5C177.6,164.8,177.1,163.4,177.1,161.6z"/>
		</g>
		<g>
			<path class="st0" d="M125,86.4c5.4,0,6,0,8.1,0.1c2,0.1,3,0.4,3.7,0.7c0.9,0.4,1.6,0.8,2.3,1.5c0.7,0.7,1.1,1.4,1.5,2.3
				c0.3,0.7,0.6,1.8,0.7,3.7c0.1,2.1,0.1,2.8,0.1,8.1s0,6-0.1,8.1c-0.1,2-0.4,3-0.7,3.7c-0.4,0.9-0.8,1.6-1.5,2.3
				c-0.7,0.7-1.4,1.1-2.3,1.5c-0.7,0.3-1.8,0.6-3.7,0.7c-2.1,0.1-2.8,0.1-8.1,0.1s-6,0-8.1-0.1c-2-0.1-3-0.4-3.7-0.7
				c-0.9-0.4-1.6-0.8-2.3-1.5c-0.7-0.7-1.1-1.4-1.5-2.3c-0.3-0.7-0.6-1.8-0.7-3.7c-0.1-2.1-0.1-2.8-0.1-8.1s0-6,0.1-8.1
				c0.1-2,0.4-3,0.7-3.7c0.4-0.9,0.8-1.6,1.5-2.3c0.7-0.7,1.4-1.1,2.3-1.5c0.7-0.3,1.8-0.6,3.7-0.7C119,86.4,119.6,86.4,125,86.4
				 M125,82.7c-5.5,0-6.2,0-8.3,0.1c-2.1,0.1-3.6,0.4-4.9,0.9c-1.3,0.5-2.4,1.2-3.6,2.3c-1.1,1.1-1.8,2.2-2.3,3.6
				c-0.5,1.3-0.8,2.7-0.9,4.9c-0.1,2.1-0.1,2.8-0.1,8.3c0,5.5,0,6.2,0.1,8.3c0.1,2.1,0.4,3.6,0.9,4.9c0.5,1.3,1.2,2.4,2.3,3.6
				c1.1,1.1,2.2,1.8,3.6,2.3c1.3,0.5,2.7,0.8,4.9,0.9c2.1,0.1,2.8,0.1,8.3,0.1c5.5,0,6.2,0,8.3-0.1c2.1-0.1,3.6-0.4,4.9-0.9
				c1.3-0.5,2.4-1.2,3.6-2.3c1.1-1.1,1.8-2.2,2.3-3.6c0.5-1.3,0.8-2.7,0.9-4.9c0.1-2.1,0.1-2.8,0.1-8.3c0-5.5,0-6.2-0.1-8.3
				c-0.1-2.1-0.4-3.6-0.9-4.9c-0.5-1.3-1.2-2.4-2.3-3.6c-1.1-1.1-2.2-1.8-3.6-2.3c-1.3-0.5-2.7-0.8-4.9-0.9
				C131.2,82.8,130.5,82.7,125,82.7L125,82.7z"/>
			<path class="st0" d="M125,92.5c-5.7,0-10.3,4.6-10.3,10.3s4.6,10.3,10.3,10.3s10.3-4.6,10.3-10.3S130.7,92.5,125,92.5z
				 M125,109.6c-3.7,0-6.7-3-6.7-6.7s3-6.7,6.7-6.7c3.7,0,6.7,3,6.7,6.7S128.7,109.6,125,109.6z"/>
			<circle class="st0" cx="135.7" cy="92.1" r="2.4"/>
		</g>
	</g>
	<path class="st0" d="M20.1,246.4c-5.4,0-6,0-8.1-0.1c-2-0.1-3-0.4-3.7-0.7c-0.9-0.4-1.6-0.8-2.3-1.5c-0.7-0.7-1.1-1.4-1.5-2.3
		C4.2,241,3.8,240,3.7,238c-0.1-2.1-0.1-2.8-0.1-8.1c0-1-0.8-1.8-1.8-1.8S0,228.9,0,229.9c0,5.5,0,6.2,0.1,8.3
		c0.1,2.1,0.4,3.6,0.9,4.9c0.5,1.3,1.2,2.4,2.3,3.6c1.1,1.1,2.2,1.8,3.6,2.3c1.3,0.5,2.7,0.8,4.9,0.9c2.1,0.1,2.8,0.1,8.3,0.1
		c1,0,1.8-0.8,1.8-1.8C21.9,247.2,21.1,246.4,20.1,246.4z"/>
	<path class="st0" d="M3.6,20.1c0-5.4,0-6,0.1-8.1c0.1-2,0.4-3,0.7-3.7c0.4-0.9,0.8-1.6,1.5-2.3c0.7-0.7,1.4-1.1,2.3-1.5
		C9,4.2,10,3.8,12,3.7c2.1-0.1,2.8-0.1,8.1-0.1c1,0,1.8-0.8,1.8-1.8S21.1,0,20.1,0c-5.5,0-6.2,0-8.3,0.1C9.7,0.2,8.2,0.6,6.9,1.1
		C5.6,1.6,4.5,2.3,3.4,3.4S1.6,5.6,1.1,6.9c-0.5,1.3-0.8,2.7-0.9,4.9C0,14,0,14.7,0,20.1c0,1,0.8,1.8,1.8,1.8S3.6,21.1,3.6,20.1z"/>
	<path class="st0" d="M229.9,246.4c5.4,0,6,0,8.1-0.1c2-0.1,3-0.4,3.7-0.7c0.9-0.4,1.6-0.8,2.3-1.5c0.7-0.7,1.1-1.4,1.5-2.3
		c0.3-0.7,0.6-1.8,0.7-3.7c0.1-2.1,0.1-2.8,0.1-8.1c0-1,0.8-1.8,1.8-1.8c1,0,1.8,0.8,1.8,1.8c0,5.5,0,6.2-0.1,8.3
		c-0.1,2.1-0.4,3.6-0.9,4.9c-0.5,1.3-1.2,2.4-2.3,3.6c-1.1,1.1-2.2,1.8-3.6,2.3c-1.3,0.5-2.7,0.8-4.9,0.9c-2.1,0.1-2.8,0.1-8.3,0.1
		c-1,0-1.8-0.8-1.8-1.8C228.1,247.2,228.9,246.4,229.9,246.4z"/>
	<path class="st0" d="M246.4,20.1c0-5.4,0-6-0.1-8.1c-0.1-2-0.4-3-0.7-3.7c-0.4-0.9-0.8-1.6-1.5-2.3c-0.7-0.7-1.4-1.1-2.3-1.5
		C241,4.2,240,3.8,238,3.7c-2.1-0.1-2.8-0.1-8.1-0.1c-1,0-1.8-0.8-1.8-1.8s0.8-1.8,1.8-1.8c5.5,0,6.2,0,8.3,0.1
		c2.1,0.1,3.6,0.4,4.9,0.9c1.3,0.5,2.4,1.2,3.6,2.3c1.1,1.1,1.8,2.2,2.3,3.6c0.5,1.3,0.8,2.7,0.9,4.9c0.1,2.1,0.1,2.8,0.1,8.3
		c0,1-0.8,1.8-1.8,1.8C247.2,21.9,246.4,21.1,246.4,20.1z"/>
</g>
</svg>
