<?xml version="1.0" encoding="utf-8"?>
<!-- Generator: Adobe Illustrator 24.0.1, SVG Export Plug-In . SVG Version: 6.00 Build 0)  -->
<svg version="1.1" id="Слой_1" xmlns="http://www.w3.org/2000/svg" xmlns:xlink="http://www.w3.org/1999/xlink" x="0px" y="0px"
	 viewBox="0 0 250 250" style="enable-background:new 0 0 250 250;" xml:space="preserve">
<style type="text/css">
	.st0{fill:#D9D9D9;}
</style>
<path class="st0" d="M103.4,10.3h6.5h0.3h6.5c1.9,0,3.5-1.6,3.5-3.5V3.5c0-1.9-1.6-3.5-3.5-3.5h-6.5h-0.3h-6.5
	c-1.9,0-3.5,1.6-3.5,3.5v3.3C99.9,8.7,101.5,10.3,103.4,10.3z"/>
<path class="st0" d="M143.3,10.3h6.5V20v0.3v7.6c-0.3,1-1.1,1.8-2.1,2.1h-4.4c-1.9,0-3.5,1.6-3.5,3.5v4.4c-0.2,0.9-0.9,1.7-1.8,2
	h-4.7c-1.9,0-3.5,1.6-3.5,3.5v3.3c0,1.9,1.6,3.5,3.5,3.5h6.5v0.1v9.6h0v6.8c0,1.9,1.6,3.5,3.5,3.5h3.3c1.9,0,3.5-1.6,3.5-3.5v-6.5h0
	h6.5c1.9,0,3.5-1.6,3.5-3.5v-6.4v-0.4v-9.6h6.5c1.9,0,3.5-1.6,3.5-3.5v-6.5V30v-6.5c0-1.9-1.6-3.5-3.5-3.5h-6.5v-9.7V10V3.5
	c0-1.9-1.6-3.5-3.5-3.5h-6.5h-0.3h-6.5c-1.9,0-3.5,1.6-3.5,3.5v3.3C139.8,8.7,141.4,10.3,143.3,10.3z"/>
<path class="st0" d="M132.7,20.2h4.4c1.6,0,2.9-1.3,2.9-2.9v-4.4c0-1.6-1.3-2.9-3-2.9h-4.4c-1.4,0-2.8,1.3-2.8,2.9v4.4
	C129.8,18.9,131.1,20.2,132.7,20.2z"/>
<path class="st0" d="M119.8,37.3c0,1.6,1.3,2.9,2.9,2.9h4.4c1.6,0,2.9-1.3,2.9-2.9v-4.4c0-1.6-1.3-2.9-3-2.9h-4.4
	c-1.4,0-2.8,1.3-2.8,2.9V37.3z"/>
<path class="st0" d="M83.4,50.3h6.5v6.4c0,1.9,1.6,3.5,3.5,3.5h6.5v6.5c0,1.9,1.6,3.5,3.5,3.5h3.3c1.9,0,3.5-1.6,3.5-3.5v-6.5h9.6
	v6.5c0,1.9,1.6,3.5,3.5,3.5h3.3c1.9,0,3.5-1.6,3.5-3.5v-6.5h0v-6.8c0-1.9-1.6-3.5-3.5-3.5h-6.4v0v-6.4c0-1.9-1.6-3.5-3.5-3.5h-6.5
	h-0.3h-9.7h-0.3h-9.7v-9.7h9.7h0.3h6.5c1.9,0,3.5-1.6,3.5-3.5v-3.3c0-1.9-1.6-3.5-3.5-3.5h-6.5v-6.5c0-1.9-1.6-3.5-3.5-3.5h-6.5V3.5
	c0-1.9-1.6-3.5-3.5-3.5h-3.3c-1.9,0-3.5,1.6-3.5,3.5V10v0.3V20v0.3V30v0.3V40v0.3v6.5C79.9,48.7,81.5,50.3,83.4,50.3z"/>
<path class="st0" d="M83.4,80.2h6.5h0.3h6.5c1.9,0,3.5-1.6,3.5-3.5v-3.3c0-1.9-1.6-3.5-3.5-3.5h-6.5v-6.5c0-1.9-1.6-3.5-3.5-3.5
	h-3.3c-1.9,0-3.5,1.6-3.5,3.5v6.5v0.3v6.5C79.9,78.6,81.5,80.2,83.4,80.2z"/>
<path class="st0" d="M153.3,80.2h6.5h0.3h6.5c1.9,0,3.5-1.6,3.5-3.5v-6.5v-0.3v-6.5c0-1.9-1.6-3.5-3.5-3.5h-3.3
	c-1.9,0-3.5,1.6-3.5,3.5v4.4c-0.3,1-1.1,1.8-2.1,2.1h-4.4c-1.9,0-3.5,1.6-3.5,3.5v3.3C149.8,78.6,151.4,80.2,153.3,80.2z"/>
<path class="st0" d="M20.3,79.9H20h-6.5c-1.9,0-3.5,1.6-3.5,3.5v6.5v0.3v6.5c0,1.9,1.6,3.5,3.5,3.5h3.3c1.9,0,3.5-1.6,3.5-3.5v-6.5
	h6.5c1.9,0,3.5-1.6,3.5-3.5v-3.3c0-1.9-1.6-3.5-3.5-3.5H20.3z"/>
<path class="st0" d="M42.7,79.9c-1.4,0-2.8,1.3-2.8,2.9v4.4c0,1.6,1.3,2.9,2.9,2.9h4.4c1.6,0,2.9-1.3,2.9-2.9v-4.4
	c0-1.6-1.3-2.9-3-2.9H42.7z"/>
<path class="st0" d="M69.9,79.9h-6.5c-1.9,0-3.5,1.6-3.5,3.5v3.3c0,1.9,1.6,3.5,3.5,3.5h6.5h0.3h6.5c1.9,0,3.5-1.6,3.5-3.5v-3.3
	c0-1.9-1.6-3.5-3.5-3.5h-6.5H69.9z"/>
<path class="st0" d="M186.6,79.9h-3.3c-1.9,0-3.5,1.6-3.5,3.5v3.7c0.1,1.4-0.8,2.5-2.1,2.8h-7.6h-0.3h-9.7h-0.3h-9.7h-0.3h-9.7v-9.7
	v-0.3v-6.5c0-1.9-1.6-3.5-3.5-3.5h-3.3c-1.9,0-3.5,1.6-3.5,3.5v6.5v0.3v9.7v0.3v9.7v0.3v7.6c-0.3,1-1.1,1.8-2.1,2.1h-4.4
	c-1.9,0-3.5,1.6-3.5,3.5v3.3c0,1.9,1.6,3.5,3.5,3.5h6.5h0.3h9.7v6.5c0,1.9,1.6,3.5,3.5,3.5h3.3c1.9,0,3.5-1.6,3.5-3.5v-6.5h0v-10
	v-0.3v-9.7h9.7v6.5c0,1.9,1.6,3.5,3.5,3.5h6.5h0.3h6.5c1.9,0,3.5-1.6,3.5-3.5v-6.5h6.5c1.9,0,3.5-1.6,3.5-3.5v-6.5v-0.3v-6.5
	C190.1,81.5,188.5,79.9,186.6,79.9z"/>
<path class="st0" d="M246.5,79.9H240h-0.3H230h-0.3H220h-0.3H210h-0.3h-6.5c-1.9,0-3.5,1.6-3.5,3.5v3.3c0,1.9,1.6,3.5,3.5,3.5h6.5
	h0.3h9.7h0.3h9.7h0.3h9.7v9.7H230h-0.3h-6.5c-1.9,0-3.5,1.6-3.5,3.5v3.3c0,1.9,1.6,3.5,3.5,3.5h6.5v9.7v0.3v6.5
	c0,1.9,1.6,3.5,3.5,3.5h6.5v9.6H230v0h-6.8c-1.9,0-3.5,1.6-3.5,3.5v3.3c0,1.9,1.6,3.5,3.5,3.5h6.5v0v6.5c0,1.9,1.6,3.5,3.5,3.5h3.3
	c1.9,0,3.5-1.6,3.5-3.5v-6.5h6.5c1.9,0,3.5-1.6,3.5-3.5v-6.5v-0.3v-9.7v-0.3v-6.5c0-1.9-1.6-3.5-3.5-3.5H240v-9.6h6.5
	c1.9,0,3.5-1.6,3.5-3.5v-6.5v-0.3v-9.7v-0.3v-6.5C250,81.5,248.4,79.9,246.5,79.9z"/>
<path class="st0" d="M116.7,100.2c1.9,0,3.5-1.6,3.5-3.5v-6.5v-0.3v-6.5c0-1.9-1.6-3.5-3.5-3.5h-3.3c-1.9,0-3.5,1.6-3.5,3.5v3.7h0
	c0.1,1.4-0.9,2.5-2.2,2.8h-4.3c-1.9,0-3.5,1.6-3.5,3.5v3.3c0,1.9,1.6,3.5,3.5,3.5h6.5h0.3H116.7z"/>
<path class="st0" d="M97.1,99.9h-4.4c-1.5,0-2.8,1.3-2.8,2.9v4.4c0,1.6,1.3,2.9,2.9,2.9h4.4c1.6,0,2.9-1.3,2.9-2.9v-4.4
	C100.1,101.2,98.8,99.9,97.1,99.9z"/>
<path class="st0" d="M107.1,109.9h-4.4c-1.5,0-2.8,1.3-2.8,2.9v4.4c0,1.6,1.3,2.9,2.9,2.9h4.4c1.6,0,2.9-1.3,2.9-2.9v-4.4
	C110.1,111.2,108.8,109.9,107.1,109.9z"/>
<path class="st0" d="M206.9,109.9h-4.4c-1.4,0-2.8,1.3-2.8,2.9v4.4c0,1.6,1.3,2.9,2.9,2.9h4.4c1.6,0,2.9-1.3,2.9-2.9v-4.4
	C209.9,111.2,208.6,109.9,206.9,109.9z"/>
<path class="st0" d="M99.9,140.1h0.3h9.7h0.3h6.5c1.9,0,3.5-1.6,3.5-3.5v-3.3c0-1.9-1.6-3.5-3.5-3.5h-6.5h-0.3h-9.7h-0.3h-9.7v0
	h-6.8c-1.9,0-3.5,1.6-3.5,3.5v3.3c0,1.9,1.6,3.5,3.5,3.5h6.5v0H99.9z"/>
<path class="st0" d="M196.6,129.8h-6.5v-6.5c0-1.9-1.6-3.5-3.5-3.5h-6.8v0.1h-9.7v-0.1h-6.8c-1.9,0-3.5,1.6-3.5,3.5v6.5v0.3v6.5
	c0,1.9,1.6,3.5,3.5,3.5h6.5v6.5c0,1.9,1.6,3.5,3.5,3.5h6.5h0.3h6.5c1.9,0,3.5-1.6,3.5-3.5v-6.5h6.5c1.9,0,3.5-1.6,3.5-3.5v-3.3
	C200.1,131.4,198.5,129.8,196.6,129.8z"/>
<path class="st0" d="M213.2,140.1h3.3c1.9,0,3.5-1.6,3.5-3.5v-6.5v-0.3v-6.5c0-1.9-1.6-3.5-3.5-3.5h-3.3c-1.9,0-3.5,1.6-3.5,3.5v6.5
	v0.3v6.5C209.7,138.5,211.3,140.1,213.2,140.1z"/>
<path class="st0" d="M2.9,150.1h4.4c1.6,0,2.9-1.3,2.9-2.9v-4.4c0-1.6-1.3-2.9-3-2.9H2.9c-1.6-0.1-2.9,1.2-2.9,2.9v4.4
	C0,148.8,1.3,150.1,2.9,150.1z"/>
<path class="st0" d="M80.2,143.3c0-1.9-1.6-3.5-3.5-3.5h-6.5h-0.3h-9.7v-9.6h9.7h0.3h6.5c1.9,0,3.5-1.6,3.5-3.5v-6.5v-0.3v-6.5
	c0-1.9-1.6-3.5-3.5-3.5h-3.3c-1.9,0-3.5,1.6-3.5,3.5v4.4c-0.3,1-1.1,1.8-2.1,2.1h-7.6v-9.7h6.5c1.9,0,3.5-1.6,3.5-3.5v-3.3
	c0-1.9-1.6-3.5-3.5-3.5h-6.5v-6.5c0-1.9-1.6-3.5-3.5-3.5h-3.3c-1.9,0-3.5,1.6-3.5,3.5v4.4c-0.3,1-1.1,1.8-2.1,2.1h-7.5v-6.5
	c0-1.9-1.6-3.5-3.5-3.5h-3.3c-1.9,0-3.5,1.6-3.5,3.5v3.7c0.1,1.4-0.9,2.5-2.2,2.8h-4.3c-1.9,0-3.5,1.6-3.5,3.5v3.7
	c0.1,1.4-0.8,2.5-2.1,2.8h-7.6v-6.5c0-1.9-1.6-3.5-3.5-3.5H3.5c-1.9,0-3.5,1.6-3.5,3.5v6.5v0.3v9.7v0.3v6.5c0,1.9,1.6,3.5,3.5,3.5
	H10h0.3h6.5c1.9,0,3.5-1.6,3.5-3.5v-6.5h6.5c1.9,0,3.5-1.6,3.5-3.5v-6.5h9.6h0.4h9.6v9.6h-6.5c-1.9,0-3.5,1.6-3.5,3.5v6.5v0.3v7.7
	c-0.3,1-1.1,1.7-2.1,2h-7.5v0h-6.8c-1.9,0-3.5,1.6-3.5,3.5v3.7c0.1,1.4-0.8,2.5-2.1,2.8h-4.4c-1.9,0-3.5,1.6-3.5,3.5v3.3
	c0,1.9,1.6,3.5,3.5,3.5H20v0v6.5c0,1.9,1.6,3.5,3.5,3.5H30h0.3h6.5c1.9,0,3.5-1.6,3.5-3.5v-6.5h6.4c1.9,0,3.5-1.6,3.5-3.5v-6.5h9.7
	h0.3h9.7h0.3h6.5c1.9,0,3.5-1.6,3.5-3.5V143.3z"/>
<path class="st0" d="M206.9,139.9h-4.4c-1.4-0.1-2.8,1.2-2.8,2.9v4.4c0,1.6,1.3,2.9,2.9,2.9h4.4c1.6,0,2.9-1.3,2.9-2.9v-4.4
	C209.9,141.2,208.6,139.9,206.9,139.9z"/>
<path class="st0" d="M119.8,160.1h0.4h6.4c1.9,0,3.5-1.6,3.5-3.5v-3.3c0-1.9-1.6-3.5-3.5-3.5h-6.4h-0.4h-9.6v0h-6.8
	c-1.9,0-3.5,1.6-3.5,3.5v3.3c0,1.9,1.6,3.5,3.5,3.5h6.5v0H119.8z"/>
<path class="st0" d="M150,152.8c0-1.6-1.3-2.9-3-2.9h-4.4c-1.5-0.1-2.8,1.2-2.8,2.9v4.4c0,1.6,1.3,2.9,2.9,2.9h4.4
	c1.6,0,2.9-1.3,2.9-2.9V152.8z"/>
<path class="st0" d="M2.9,170h4.4c1.6,0,2.9-1.3,2.9-2.9v-4.4c0-1.6-1.3-2.9-3-2.9H2.9c-1.6,0-2.9,1.3-2.9,2.9v4.4
	C0,168.7,1.3,170,2.9,170z"/>
<path class="st0" d="M67.2,170c1.6,0,2.9-1.3,2.9-2.9v-4.4c0-1.6-1.3-2.9-3-2.9h-4.4c-1.5,0-2.8,1.3-2.8,2.9v4.4
	c0,1.6,1.3,2.9,2.9,2.9H67.2z"/>
<path class="st0" d="M132.7,170h4.4c1.6,0,2.9-1.3,2.9-2.9v-4.4c0-1.6-1.3-2.9-3-2.9h-4.4c-1.4,0-2.8,1.3-2.8,2.9v4.4
	C129.8,168.7,131.1,170,132.7,170z"/>
<path class="st0" d="M246.5,169.8h-6.8v0H230h-0.3H220v-9.7v-0.3v-6.5c0-1.9-1.6-3.5-3.5-3.5h-3.3c-1.9,0-3.5,1.6-3.5,3.5v4.4
	c-0.3,1-1.1,1.8-2.1,2.1h-7.5h-0.4h-9.6h-0.3h-9.7h-0.3h-9.7h-0.3h-9.7v0h-6.8c-1.9,0-3.5,1.6-3.5,3.5v6.8h0v9.7h0v6.8
	c0,1.9,1.6,3.5,3.5,3.5h6.5v9.7h0v6.8c0,1.9,1.6,3.5,3.5,3.5h6.5v6.4c0,1.9,1.6,3.5,3.5,3.5h3.3c1.9,0,3.5-1.6,3.5-3.5v-6.4h0h9.7
	h0.3h6.5c1.9,0,3.5-1.6,3.5-3.5v-4.4c0.3-1,1.1-1.8,2.1-2.1h7.5h0.3h6.5c1.9,0,3.5-1.6,3.5-3.5v-3.3c0-1.9-1.6-3.5-3.5-3.5H210v-9.7
	h9.7h0.3h9.7v9.7v0.3v6.5c0,1.9,1.6,3.5,3.5,3.5h3.3c1.9,0,3.5-1.6,3.5-3.5v-6.5h6.5c1.9,0,3.5-1.6,3.5-3.5v-6.5v-0.3v-6.5
	C250,171.4,248.4,169.8,246.5,169.8z M190.1,199.8h-0.3h-9.7h-0.3h-9.7v-9.7v-0.3v-9.7v-0.3v-9.7h9.7h0.3h9.7h0.3h9.6v9.7v0.3v9.7
	v0.3v7.6c-0.3,1-1.1,1.8-2.1,2.1H190.1z"/>
<path class="st0" d="M187,179.8h-4.4c-1.5,0-2.8,1.3-2.8,2.9v4.4c0,1.6,1.3,2.9,2.9,2.9h4.4c1.6,0,2.9-1.3,2.9-2.9v-4.4
	C190,181.1,188.7,179.8,187,179.8z"/>
<path class="st0" d="M100.2,190.1h6.5c1.9,0,3.5-1.6,3.5-3.5v-6.5v-0.3v-6.5c0-1.9-1.6-3.5-3.5-3.5h-6.8v0h-9.7v-6.5
	c0-1.9-1.6-3.5-3.5-3.5h-3.3c-1.9,0-3.5,1.6-3.5,3.5v6.5v0.3v9.7v0.3v6.5c0,1.9,1.6,3.5,3.5,3.5h6.5v6.5c0,1.9,1.6,3.5,3.5,3.5h3.3
	c1.9,0,3.5-1.6,3.5-3.5V190.1z"/>
<path class="st0" d="M142.7,200h4.4c1.6,0,2.9-1.3,2.9-2.9v-4.4c0-1.6-1.3-2.9-3-2.9h-4.4c-1.5,0-2.8,1.3-2.8,2.9v4.4
	C139.8,198.7,141.1,200,142.7,200z"/>
<path class="st0" d="M82.8,210h4.4c1.6,0,2.9-1.3,2.9-2.9v-4.4c0-1.6-1.3-2.9-3-2.9h-4.4c-1.5,0-2.8,1.3-2.8,2.9v4.4
	C79.9,208.7,81.2,210,82.8,210z"/>
<path class="st0" d="M86.7,219.7h-3.3c-1.9,0-3.5,1.6-3.5,3.5v6.5v0.3v6.5c0,1.9,1.6,3.5,3.5,3.5h3.3c1.9,0,3.5-1.6,3.5-3.5V230
	v-0.3v-6.5C90.2,221.3,88.6,219.7,86.7,219.7z"/>
<path class="st0" d="M196.6,219.7h-3.3c-1.9,0-3.5,1.6-3.5,3.5v3.3c0,1.9,1.6,3.5,3.5,3.5h3.3c1.9,0,3.5-1.5,3.5-3.5v-3.3
	C200.1,221.3,198.5,219.7,196.6,219.7z"/>
<path class="st0" d="M190,232.7c0-1.6-1.3-2.9-3-2.9h-4.4c-1.5-0.1-2.8,1.2-2.8,2.9v4.4c0,1.6,1.3,2.9,2.9,2.9h4.4
	c1.6,0,2.9-1.3,2.9-2.9V232.7z"/>
<path class="st0" d="M176.6,239.7h-6.5V230v-0.3v-6.5c0-1.9-1.6-3.5-3.5-3.5h-6.5h-0.3h-9.7v-6.5c0-1.9-1.6-3.5-3.5-3.5h-6.5h-0.3
	h-9.7v-9.6v-0.3v-6.5c0-1.9-1.6-3.5-3.5-3.5h-6.4h-0.4h-6.4c-1.9,0-3.5,1.6-3.5,3.5v3.3c0,1.9,1.6,3.5,3.5,3.5h6.4v9.6h-6.4
	c-1.9,0-3.5,1.6-3.5,3.5v3.3c0,1.9,1.6,3.5,3.5,3.5h6.4h0.4h9.6v9.7h-9.6h-0.4h-9.6h-0.3h-6.5c-1.9,0-3.5,1.6-3.5,3.5v6.5v0.3v6.5
	c0,1.9,1.6,3.5,3.5,3.5h6.5h0.3h9.6h0.4h9.6h0.3h9.7h0.3h9.7h0.3h9.7h0.3h9.7h0.3h6.5c1.9,0,3.5-1.6,3.5-3.5v-3.3
	C180.1,241.3,178.5,239.7,176.6,239.7z M140.1,239.7V230h9.7v9.7H140.1z"/>
<path class="st0" d="M197,239.7h-4.4c-1.5,0-2.8,1.3-2.8,2.9v4.4c0,1.6,1.3,2.9,2.9,2.9h4.4c1.6,0,2.9-1.3,2.9-2.9v-4.4
	C200,241,198.7,239.7,197,239.7z"/>
<path class="st0" d="M31.3,51.5c8.7,0,0.9,0,9.5,0c8.6,0,10.7-2,10.7-10.7s0-0.9,0-9.5c0-8.6-2.1-10.7-10.7-10.7c-8.7,0-0.9,0-9.5,0
	c-8.6,0-10.7,2.1-10.7,10.7c0,4.9,0,0.9,0,9.5C20.6,49.4,22.6,51.5,31.3,51.5z"/>
<path class="st0" d="M25,72.1c20.2,0,1.9,0,22.1,0c20.2,0,25-4.8,25-25c0-20.2,0-1.9,0-22.1s-4.8-25-25-25C26.9,0,45.2,0,25,0
	S0,4.8,0,25c0,11.3,0,1.9,0,22.1C0,67.3,4.8,72.1,25,72.1z M10.3,25c0-9.8,1.3-12.2,1.9-12.8c0.6-0.6,3-1.9,12.8-1.9h22.1
	c9.8,0,12.2,1.3,12.8,1.9c0.6,0.6,1.9,3,1.9,12.8v22.1c0,9.8-1.4,12.2-1.9,12.8c-0.6,0.6-3,1.9-12.8,1.9H25
	c-9.8,0-12.2-1.3-12.8-1.9c-0.6-0.6-1.9-3-1.9-12.8V25z"/>
<path class="st0" d="M47.1,177.9c-20.2,0-1.9,0-22.1,0s-25,4.8-25,25c0,11.3,0,1.9,0,22.1s4.8,25,25,25s1.9,0,22.1,0
	c20.2,0,25-4.8,25-25s0-1.9,0-22.1C72.1,182.7,67.3,177.9,47.1,177.9z M61.8,225c0,9.8-1.4,12.2-1.9,12.8c-0.6,0.6-3,1.9-12.8,1.9
	H25c-9.8,0-12.2-1.3-12.8-1.9c-0.6-0.6-1.9-3-1.9-12.8v-22.1c0-9.8,1.3-12.2,1.9-12.8c0.6-0.6,3-1.9,12.8-1.9h22.1
	c9.8,0,12.2,1.3,12.8,1.9c0.6,0.6,1.9,3,1.9,12.8V225z"/>
<path class="st0" d="M40.8,198.5c-8.7,0-0.9,0-9.5,0c-8.6,0-10.7,2.1-10.7,10.7c0,4.9,0,0.9,0,9.5c0,8.6,2,10.7,10.7,10.7
	s0.9,0,9.5,0c8.6,0,10.7-2,10.7-10.7c0-8.7,0-0.9,0-9.5C51.5,200.6,49.4,198.5,40.8,198.5z"/>
<path class="st0" d="M225,0c-20.2,0-1.9,0-22.1,0c-20.2,0-25,4.8-25,25c0,11.3,0,1.9,0,22.1c0,20.2,4.8,25,25,25s1.9,0,22.1,0
	s25-4.8,25-25c0-20.2,0-1.9,0-22.1S245.2,0,225,0z M239.7,47.1c0,9.8-1.4,12.2-1.9,12.8c-0.6,0.6-3,1.9-12.8,1.9h-22.1
	c-9.8,0-12.2-1.3-12.8-1.9c-0.6-0.6-1.9-3-1.9-12.8V25c0-9.8,1.3-12.2,1.9-12.8c0.6-0.6,3-1.9,12.8-1.9H225c9.8,0,12.2,1.3,12.8,1.9
	c0.6,0.6,1.9,3,1.9,12.8V47.1z"/>
<path class="st0" d="M218.7,20.6c-8.7,0-0.9,0-9.5,0s-10.7,2.1-10.7,10.7c0,4.9,0,0.9,0,9.5c0,8.6,2,10.7,10.7,10.7s0.9,0,9.5,0
	c8.6,0,10.7-2,10.7-10.7s0-0.9,0-9.5C229.4,22.7,227.3,20.6,218.7,20.6z"/>
<path class="st0" d="M237.5,214.1c0,0-5.9,2.4-7.7,3.2l-17.9,7.4c-3.2,1.2-1.3,2.2-1.3,2.2s2.7,0.9,5,1.6c2.3,0.7,3.5-0.1,3.5-0.1
	l10.8-7.3c3.8-2.6,2.9-0.4,2,0.5c-1.9,2-5.2,5.2-8,7.7c-1.2,1.1-0.6,2-0.1,2.5c2,1.7,7.4,5.2,7.7,5.4c0.4,0.3,2.5,1.7,3.8,1.4
	c1.3-0.3,1.5-2.1,1.5-2.1l1.9-12c0.6-4.1,1.2-7.8,1.3-8.9C240.3,213,237.5,214.1,237.5,214.1z"/>
</svg>
