<?xml version="1.0" encoding="utf-8"?>
<!-- Generator: Adobe Illustrator 24.0.1, SVG Export Plug-In . SVG Version: 6.00 Build 0)  -->
<svg version="1.1" id="Слой_1" xmlns="http://www.w3.org/2000/svg" xmlns:xlink="http://www.w3.org/1999/xlink" x="0px" y="0px"
	 viewBox="0 0 250 250" style="enable-background:new 0 0 250 250;" xml:space="preserve">
<style type="text/css">
	.st0{fill:#D9D9D9;}
	.st1{fill-rule:evenodd;clip-rule:evenodd;fill:#D9D9D9;}
</style>
<path class="st0" d="M248.5,219.8c-1.5,0.8-3,1.5-4.5,2.3c-3-3-7.6-3-10.6,0c-2.3,2.3-3,4.5-2.3,7.6c-6.1,0-12.1-3-15.9-8.3
	c-2.3,3.8-0.8,8.3,2.3,10.6c-1.5,0-2.3,0-3.8-0.8l0,0c0,3.8,2.3,6.8,6.1,7.6c-0.8,0-2.3,0-3.8,0c0.8,3,3.8,5.3,6.8,5.3
	c-3,2.3-6.1,3-9.8,3c-0.8,0-1.5,0-1.5,0c3,2.3,7.6,3,11.4,3c14.4,0,22-11.3,22-21.9v-0.8c1.5-0.8,3-2.3,3.8-3.8
	c-1.5,0.8-3,0.8-4.5,1.5C247,222.9,248.5,221.3,248.5,219.8z"/>
<path class="st0" d="M1.5,52.9h49.2c1.5,0,2.3-0.8,2.3-1.5V1.6c0-0.8-0.8-1.5-1.5-1.5h-50C0.8,0.1,0,0.8,0,1.6v49.1
	C0,52.2,0.8,52.9,1.5,52.9z M7.6,7.6h37.9v37.8H7.6V7.6z"/>
<path class="st0" d="M36.4,15.2H16.7c-0.8,0-1.5,0.8-1.5,1.5v18.9c0,1.5,0.8,2.3,1.5,2.3h18.9c1.5,0,2.3-0.8,2.3-1.5V16.7
	C37.9,15.9,37.1,15.2,36.4,15.2z"/>
<path class="st0" d="M51.5,196.4h-50c-0.8,0-1.5,0.8-1.5,1.5V247c0,1.5,0.8,2.3,1.5,2.3h49.2c1.5,0,2.3-0.8,2.3-1.5v-49.1
	C53,197.2,52.3,196.4,51.5,196.4z M45.5,241.7H7.6V204h37.9V241.7z"/>
<path class="st0" d="M16.7,234.2h18.9c1.5,0,2.3-0.8,2.3-1.5v-18.9c0-1.5-0.8-2.3-1.5-2.3H16.7c-0.8,0-1.5,0.8-1.5,1.5v18.9
	C15.2,233.4,15.9,234.2,16.7,234.2z"/>
<path class="st0" d="M248.5,0.1h-49.2c-1.5,0-2.3,0.8-2.3,1.5v49.1c0,1.5,0.8,2.3,1.5,2.3h49.2c1.5,0,2.3-0.8,2.3-1.5V1.6
	C250,0.8,249.2,0.1,248.5,0.1z M242.4,45.4h-37.9V7.6h37.9V45.4z"/>
<path class="st0" d="M213.6,37.8h18.9c1.5,0,2.3-0.8,2.3-1.5V16.7c0-0.8-0.8-1.5-1.5-1.5h-18.9c-1.5,0-2.3,0.8-2.3,1.5v18.9
	C212.1,37.1,212.9,37.8,213.6,37.8z"/>
<path class="st0" d="M60.6,21.2c0,0.8,0.8,1.5,2.3,1.5h3.8c0.8,0,1.5-0.8,1.5-1.5V7.6h5.3c1.5,0,2.3-0.8,2.3-1.5V1.6
	c0-0.8-0.8-1.5-2.3-1.5h-7.6h-3l0,0c-1.5,0-2.3,0.8-2.3,1.5v3.8l0,0V21.2z"/>
<path class="st0" d="M85.6,15.2h5.3v6c0,0.8,0.8,1.5,1.5,1.5h3.8c1.5,0,2.3-0.8,2.3-1.5v-6h6.1c0.8,0,1.5-0.8,1.5-1.5v3.8v3.8v1.5
	H100c-0.8,0-1.5,0.8-1.5,1.5V28c0,1.5,0.8,2.3,1.5,2.3h7.6h3.8c1.5,0,2.3-0.8,2.3-1.5v-4.5v-1.5h1.5h3.8c1.5,0,2.3-0.8,2.3-1.5v-4.5
	v-1.5h6.1c0.8,0,1.5-0.8,1.5-1.5V9.1c0-0.8-0.8-1.5-1.5-1.5h-7.6h-3.8h-3.8h-3.8c-1.5,0-2.3,0.8-2.3,1.5V1.6c0-0.8-0.8-1.5-1.5-1.5
	H97h-3.8h-7.6c-1.5,0-2.3,0.8-2.3,1.5v11.3C83.3,14.4,84.1,15.2,85.6,15.2z"/>
<path class="st0" d="M77.3,45.4c-0.8,0-1.5,0.8-1.5,1.5v3.8c0,1.5,0.8,2.3,1.5,2.3h3.8c1.5,0,2.3-0.8,2.3-1.5v-4.5
	c0-0.8-0.8-1.5-1.5-1.5H77.3z"/>
<path class="st0" d="M97,45.4h-3.8c-1.5,0-2.3,0.8-2.3,1.5v3.8c0,1.5,0.8,2.3,1.5,2.3h3.8c1.5,0,2.3-0.8,2.3-1.5v-4.5
	C98.5,46.1,97.7,45.4,97,45.4z"/>
<path class="st0" d="M150,68c0.8,0,1.5-0.8,1.5-1.5V62c0-0.8-0.8-1.5-1.5-1.5h-3.8c-1.5,0-2.3,0.8-2.3,1.5v3.8
	c0,1.5,0.8,2.3,1.5,2.3H150z"/>
<path class="st0" d="M165.2,52.9h-3.8c-1.5,0-2.3,0.8-2.3,1.5v3.8c0,1.5,0.8,2.3,1.5,2.3h3.8c1.5,0,2.3-0.8,2.3-1.5v-4.5
	C166.7,53.7,165.9,52.9,165.2,52.9z"/>
<path class="st0" d="M189.4,31.8c0-0.8-0.8-1.5-1.5-1.5h-3.8c-1.5,0-2.3,0.8-2.3,1.5v3.8c0,1.5,0.8,2.3,1.5,2.3h3.8
	c1.5,0,2.3-0.8,2.3-1.5V31.8z"/>
<path class="st0" d="M189.4,66.5c0,0.8,0.8,1.5,1.5,1.5h18.9c1.5,0,2.3-0.8,2.3-1.5V62c0-0.8-0.8-1.5-1.5-1.5h-18.9
	c-1.5,0-2.3,0.8-2.3,1.5V66.5z"/>
<path class="st0" d="M248.5,60.5h-3.8h-3.8h-3.8h-3.8h-3.8c-1.5,0-2.3,0.8-2.3,1.5v3.8V68h-6.1c-0.8,0-1.5,0.8-1.5,1.5v3.8
	c0,0.8,0.8,1.5,1.5,1.5h7.6h3.8h2.3v1.5v3.8c0,0.8,0.8,1.5,1.5,1.5h3.8h2.3v1.5v3.8c0,0.8,0.8,1.5,1.5,1.5h3.8
	c0.8,0,1.5-0.8,1.5-1.5v-3.8v-3.8v-3.8v-1.5v-4.5v-3V62C250,61.2,249.2,60.5,248.5,60.5z"/>
<path class="st0" d="M248.5,113.3h-3.8c-0.8,0-1.5,0.8-1.5,1.5v18.9c0,0.8,0.8,1.5,1.5,1.5h3.8c0.8,0,1.5-0.8,1.5-1.5v-18.9
	C250,114.1,249.2,113.3,248.5,113.3z"/>
<path class="st0" d="M187.9,45.4h-3.8c-1.5,0-2.3,0.8-2.3,1.5v11.3c0,1.5,0.8,2.3,1.5,2.3h3.8c1.5,0,2.3-0.8,2.3-1.5V46.9
	C189.4,46.1,188.6,45.4,187.9,45.4z"/>
<path class="st0" d="M180.3,15.2h-3.8c-1.5,0-2.3,0.8-2.3,1.5v3.8c0,1.5,0.8,2.3,1.5,2.3h3.8c1.5,0,2.3-0.8,2.3-1.5v-4.5
	C181.8,15.9,181.1,15.2,180.3,15.2z"/>
<path class="st0" d="M160.6,7.6h6.1v6c0,0.8,0.8,1.5,1.5,1.5h3.8c1.5,0,2.3-0.8,2.3-1.5v-6h13.6c0.8,0,1.5-0.8,1.5-1.5V1.6
	c0-0.8-0.8-1.5-1.5-1.5h-15.2h-3.8h-7.6c-1.5,0-2.3,0.8-2.3,1.5v3.8C159.1,6.8,159.8,7.6,160.6,7.6z"/>
<path class="st0" d="M160.6,37.8h3.8h2.3v13.6c0,0.8,0.8,1.5,1.5,1.5h3.8c1.5,0,2.3-0.8,2.3-1.5V36.3V24.2c0-0.8-0.8-1.5-1.5-1.5
	h-3.8h-2.3v-6c0-0.8-0.8-1.5-1.5-1.5h-3.8c-1.5,0-2.3,0.8-2.3,1.5v7.6v11.3C159.1,37.1,159.8,37.8,160.6,37.8z"/>
<path class="st0" d="M159.1,80.9V69.5c0-0.8-0.8-1.5-1.5-1.5h-3.8c-1.5,0-2.3,0.8-2.3,1.5v11.3c0,0.8,0.8,1.5,1.5,1.5h3.8
	C158.3,83.1,159.1,81.6,159.1,80.9z"/>
<path class="st0" d="M137.9,37.8c-0.8,0-1.5,0.8-1.5,1.5v3.8v7.6c0,1.5,0.8,2.3,1.5,2.3h3.8c1.5,0,2.3-0.8,2.3-1.5v-6h7.6v6
	c0,0.8,0.8,1.5,1.5,1.5h3.8c1.5,0,2.3-0.8,2.3-1.5v-7.6v-4.5c0-0.8-0.8-1.5-1.5-1.5h-3.8h-11.4H137.9z"/>
<path class="st0" d="M53,89.2c0,0.8,0.8,1.5,1.5,1.5h6.1v7.6h-6.1c-0.8,0-1.5,0.8-1.5,1.5v3.8c0,1.5,0.8,2.3,1.5,2.3h7.6h3.8h2.3
	v1.5v3.8v2.3h-1.5h-4.5c-0.8,0-1.5,0.8-1.5,1.5v3.8v7.6c0,1.5,0.8,2.3,1.5,2.3h3.8c1.5,0,2.3-0.8,2.3-1.5v-6h1.5h3.8
	c0.8,0,1.5-0.8,1.5-1.5v-3.8v-2.3h6.1c0.8,0,1.5-0.8,1.5-1.5v-3.8c0-0.8-0.8-1.5-1.5-1.5h-5.3V105v-3.8V89.9v-3.8v-3h1.5h3.8
	c0.8,0,1.5-0.8,1.5-1.5v-3.8v-2.3h1.5h3.8h3v6c0,0.8,0.8,1.5,1.5,1.5h3.8c0.8,0,1.5-0.8,1.5-1.5v-7.6v-4.5V62c0.8-0.8,0-1.5-0.8-1.5
	l0,0h-3.8h-2.3v-6c0-0.8-0.8-1.5-1.5-1.5h-3.8c-1.5,0-2.3,0.8-2.3,1.5V62v3.8V68h-1.5H78c-1.5,0-2.3,0.8-2.3,1.5v3.8v2.3h-1.5h-4.5
	c-0.8,0-1.5,0.8-1.5,1.5v3.8v2.3h-1.5h-4.5h-7.6c-0.8,0-1.5,0.8-1.5,1.5V89.2z"/>
<path class="st0" d="M45.5,81.6c0,0.8,0.8,1.5,1.5,1.5h3.8c1.5,0,2.3-0.8,2.3-1.5v-3.8c0-1.5-0.8-2.3-1.5-2.3H47
	c-0.8,0-1.5,0.8-1.5,1.5V81.6z"/>
<path class="st0" d="M24.2,113.3c-0.8,0-1.5,0.8-1.5,1.5v3.8c0,1.5,0.8,2.3,1.5,2.3H28c1.5,0,2.3-0.8,2.3-1.5v-3.8
	c0-1.5-0.8-2.3-1.5-2.3H24.2z"/>
<path class="st0" d="M36.4,158.7c0.8,0,1.5-0.8,1.5-1.5v-3.8c0-1.5-0.8-2.3-1.5-2.3h-4.5c-0.8,0-1.5,0.8-1.5,1.5v3.8
	c0,1.5,0.8,2.3,1.5,2.3H36.4z"/>
<path class="st0" d="M47,143.6h3.8c1.5,0,2.3-0.8,2.3-1.5v-3.8c0-1.5-0.8-2.3-1.5-2.3H47c-0.8,0-1.5,0.8-1.5,1.5v3.8
	C45.5,142.8,46.2,143.6,47,143.6z"/>
<path class="st0" d="M45.5,157.1c0,0.8,0.8,1.5,1.5,1.5h11.4c1.5,0,2.3-0.8,2.3-1.5v-3.8c0-1.5-0.8-2.3-1.5-2.3H47
	c-0.8,0-1.5,0.8-1.5,1.5V157.1z"/>
<path class="st0" d="M53,134.5c0,0.8,0.8,1.5,1.5,1.5h3.8c1.5,0,2.3-0.8,2.3-1.5v-3.8c0-1.5-0.8-2.3-1.5-2.3h-4.5
	c-0.8,0-1.5,0.8-1.5,1.5V134.5z"/>
<path class="st0" d="M60.6,149.6c0,0.8,0.8,1.5,1.5,1.5h3.8c1.5,0,2.3-0.8,2.3-1.5v-11.3c0-1.5-0.8-2.3-1.5-2.3h-4.5
	c-0.8,0-1.5,0.8-1.5,1.5V149.6z"/>
<path class="st0" d="M81.8,158.7H78c-0.8,0-1.5,0.8-1.5,1.5v11.3c0,0.8,0.8,1.5,1.5,1.5h3.8c0.8,0,1.5-0.8,1.5-1.5v-11.3
	C83.3,159.4,82.6,158.7,81.8,158.7z"/>
<path class="st0" d="M97,241.7H83.3v-7.6h6.1c0.8,0,1.5-0.8,1.5-1.5v-3.8c0-0.8-0.8-1.5-1.5-1.5h-7.6H69.7h-1.5v-7.6h1.5h3.8
	c0.8,0,1.5-0.8,1.5-1.5v-3.8v-3h6.1c0.8,0,1.5-0.8,1.5-1.5v-3.8c0-0.8-0.8-1.5-1.5-1.5h-5.3v-6c0-0.8-0.8-1.5-1.5-1.5h-4.5
	c-0.8-0.8-1.5,0-1.5,0.8v7.6v3.8v2.3h-1.5h-4.5c-0.8,0-1.5,0.8-1.5,1.5v3.8v11.3v3.8c0,1.5,0.8,2.3,1.5,2.3h3.8h2.3v9.1v3.8
	c0,1.5,0.8,2.3,1.5,2.3h11.4h15.2c0.8,0,1.5-0.8,1.5-1.5V244C98.5,242.5,97.7,241.7,97,241.7z"/>
<path class="st0" d="M84.8,196.4h3.8c0.8,0,1.5-0.8,1.5-1.5v-7.6v-3.8c0-0.8-0.8-1.5-1.5-1.5h-3.8h-9.1v-1.5v-3.8
	c0-0.8-0.8-1.5-1.5-1.5h-4.5h-1.5v-1.5V170c0-3-0.8-3.8-1.5-3.8h-4.5H43.9h-4.5H21.2h-4.5c-0.8,0-1.5,0.8-1.5,1.5v3.8v15.1
	c0,1.5,0.8,2.3,1.5,2.3h3.8c1.5,0,2.3-0.8,2.3-1.5v-13.6h15.2v9.1v3.8c0,1.5,0.8,2.3,1.5,2.3h3.8h17.4v6c0,0.8,0.8,1.5,1.5,1.5h3.8
	c1.5,0,2.3-0.8,2.3-1.5v-6h1.5h3.8h9.8v6C83.3,195.7,84.1,196.4,84.8,196.4z M45.5,181.3v-7.6h15.2v1.5v3.8v2.3H45.5z"/>
<path class="st0" d="M74.2,128.4h-4.5c-0.8,0-1.5,0.8-1.5,1.5v3.8c0,1.5,0.8,2.3,1.5,2.3h3.8c0.8,0,1.5-0.8,1.5-1.5v-3.8
	C75.8,129.2,75,128.4,74.2,128.4z"/>
<path class="st0" d="M83.3,137.5c0-0.8-0.8-1.5-1.5-1.5H78c-0.8,0-1.5,0.8-1.5,1.5v3.8c0,0.8,0.8,1.5,1.5,1.5h3.8
	c0.8,0,1.5-0.8,1.5-1.5V137.5z"/>
<path class="st0" d="M119.7,234.2h-3.8c-0.8,0-1.5,0.8-1.5,1.5v3.8c0,0.8,0.8,1.5,1.5,1.5h3.8c0.8,0,1.5-0.8,1.5-1.5v-3.8
	C121.2,234.9,120.5,234.2,119.7,234.2z"/>
<path class="st0" d="M134.8,241.7h-3.8c-0.8,0-1.5,0.8-1.5,1.5v3.8c0,0.8,0.8,1.5,1.5,1.5h3.8c0.8,0,1.5-0.8,1.5-1.5v-3.8
	C136.4,242.5,135.6,241.7,134.8,241.7z"/>
<path class="st0" d="M165.2,241.7h-3.8c-0.8,0-1.5,0.8-1.5,1.5v3.8c0,0.8,0.8,1.5,1.5,1.5h3.8c0.8,0,1.5-0.8,1.5-1.5v-3.8
	C166.7,242.5,165.9,241.7,165.2,241.7z"/>
<path class="st0" d="M203,196.4h-3.8c-0.8,0-1.5,0.8-1.5,1.5v3.8c0,0.8,0.8,1.5,1.5,1.5h3.8c0.8,0,1.5-0.8,1.5-1.5v-3.8
	C204.5,197.2,203.8,196.4,203,196.4z"/>
<path class="st0" d="M183.3,158.7h3.8c0.8,0,1.5-0.8,1.5-1.5v-3.8c0-0.8-0.8-1.5-1.5-1.5h-3.8c-0.8,0-1.5,0.8-1.5,1.5v3.8
	C181.8,157.9,182.6,158.7,183.3,158.7z"/>
<path class="st0" d="M213.6,151.1c-0.8,0-1.5,0.8-1.5,1.5v3.8c0,0.8,0.8,1.5,1.5,1.5h3.8c0.8,0,1.5-0.8,1.5-1.5v-3.8
	c0-0.8-0.8-1.5-1.5-1.5H213.6z"/>
<path class="st0" d="M248.5,143.6h-7.6h-3.8c-0.8,0-1.5,0.8-1.5,1.5v3.8v2.3h-1.5h-3.8c-0.8,0-1.5,0.8-1.5,1.5v3.8v2.3h-1.5h-3.8
	c-0.8,0-1.5,0.8-1.5,1.5v3.8v2.3h-6.1c-0.8,0-1.5,0.8-1.5,1.5v3.8c0,0.8,0.8,1.5,1.5,1.5h3.8v1.5v3.8c0,0.8,0.8,1.5,1.5,1.5h3.8h2.3
	v7.6h-7.6v-1.5v-3.8c0-0.8-0.8-1.5-1.5-1.5h-3.8H203c0.8,0,1.5-0.8,1.5-1.5v-3.8c0-0.8-0.8-1.5-1.5-1.5H197v-1.5v-3.8
	c0-0.8-0.8-1.5-1.5-1.5h-3.8h-11.4h-3.8h-11.4h-3.8c-0.8,0-1.5,0.8-1.5,1.5v3.8v3.8v3.8v3.8v3.8v1.5h-7.6v-6c0-0.8-0.8-1.5-1.5-1.5
	H147c-0.8,0-1.5,0.8-1.5,1.5v6h-6.1H128h-3.8h-7.6c-0.8,0-1.5,0.8-1.5,1.5v3.8c0,0.8,0.8,1.5,1.5,1.5h4.5v7.6h-1.5h-3.8h-2.3v-1.5
	v-3.8c0-0.8-0.8-1.5-1.5-1.5h-3.8h-2.3v-6c0-0.8-0.8-1.5-1.5-1.5h-3.8c-0.8,0-1.5,0.8-1.5,1.5v7.6v3.8c0,0.8,0.8,1.5,1.5,1.5h3.8
	h1.5v1.5v3.8v3H97h-3.8h-7.6c-0.8,0-1.5,0.8-1.5,1.5v3.8c0,0.8,0.8,1.5,1.5,1.5h5.3v1.5v3.8c0,0.8,0.8,1.5,1.5,1.5h3.8h9.8v6
	c0,0.8,0.8,1.5,1.5,1.5h3.8c0.8,0,1.5-0.8,1.5-1.5v-7.6v-3.8v-0.8h1.5h3.8c0.8,0,1.5-0.8,1.5-1.5v-3.8v-2.3h1.5h3.8
	c0.8,0,1.5-0.8,1.5-1.5v-3.8v-9.8h7.6v6c0,0.8,0.8,1.5,1.5,1.5h7.6h3.8c0.8,0,1.5-0.8,1.5-1.5v-6h7.6v9.1v3.8v2.3H147h-3.8H128
	c-0.8,0-1.5,0.8-1.5,1.5v3.8c0,0.8,0.8,1.5,1.5,1.5h15.9v7.6h-15.2v-6c0-0.8-0.8-1.5-1.5-1.5h-3.8c-0.8,0-1.5,0.8-1.5,1.5v7.6v3.8
	c0,0.8,0.8,1.5,1.5,1.5h3.8h18.9h3.8c0.8,0,1.5-0.8,1.5-1.5v-3.8v-8.3h7.6v1.5v3.8v7.6c0,0.8,0.8,1.5,1.5,1.5h3.8
	c0.8,0,1.5-0.8,1.5-1.5v-5.3h6.1c0.8,0,1.5-0.8,1.5-1.5v-3.8c0-0.8-0.8-1.5-1.5-1.5h-5.3v-1.5v-3.8v-3h15.2v1.5v3.8
	c0,0.8,0.8,1.5,1.5,1.5h3.8h2.3v6c0,0.8,0.8,1.5,1.5,1.5h3.8c0.8,0,1.5-0.8,1.5-1.5v-5.3h6.1c0.8,0,1.5-0.8,1.5-1.5v-3.8
	c0-0.8-0.8-1.5-1.5-1.5h-7.6h-3.8h-1.5v-1.5V207v-11.3v-3.8v-3h1.5h3.8h17.4v1.5v3.8v11.3v3.8c0,0.8,0.8,1.5,1.5,1.5h3.8h7.6
	c0.8,0,1.5-0.8,1.5-1.5v-3.8c0-0.8-0.8-1.5-1.5-1.5h-5.3v-7.6h9.1h3.8h2.3v6c0,0.8,0.8,1.5,1.5,1.5h6.1v6c0,0.8,0.8,1.5,1.5,1.5h3.8
	c0.8,0,1.5-0.8,1.5-1.5v-7.6v-7.6v-3.8c0-0.8-0.8-1.5-1.5-1.5h-3.8h-7.6h-1.5v-9.1v-3.8c0-0.8-0.8-1.5-1.5-1.5h-3.8h-2.3v-1.5V170
	v-3.8h1.5h3.8c0.8,0,1.5-0.8,1.5-1.5v-3.8v-2.3h1.5h3.8c0.8,0,1.5-0.8,1.5-1.5v-3.8v-2.3h6.1c0.8,0,1.5-0.8,1.5-1.5v-3.8
	C250,144.3,249.2,143.6,248.5,143.6z M187.9,181.3h-3.8h-2.3v-1.5V176v-2.3h7.6v1.5v3.8v2.3H187.9z M166.7,204v-9.1v-3.8v-2.3h7.6
	v1.5v3.8c0,0.8,0.8,1.5,1.5,1.5h3.8h2.3v7.6h-15.2V204z"/>
<path class="st0" d="M221.2,151.1h3.8c0.8,0,1.5-0.8,1.5-1.5v-6h1.5h3.8c0.8,0,1.5-0.8,1.5-1.5v-3.8v-11.3v-3.8v-7.6
	c0-0.8-0.8-1.5-1.5-1.5H228c-0.8,0-1.5,0.8-1.5,1.5v5.3h-6.1c-0.8,0-1.5,0.8-1.5,1.5v3.8c0,0.8,0.8,1.5,1.5,1.5h6.8v7.6h-1.5H222
	h-2.3v-6c0-0.8-0.8-1.5-1.5-1.5h-3.8c-0.8,0-1.5,0.8-1.5,1.5v6.8h-6.1c-0.8,0-1.5,0.8-1.5,1.5v3.8c0,0.8,0.8,1.5,1.5,1.5h7.6h3.8
	h1.5v6C219.7,150.4,220.5,151.1,221.2,151.1z"/>
<path class="st0" d="M248.5,158.7h-3.8c-0.8,0-1.5,0.8-1.5,1.5v6h-6.1c-0.8,0-1.5,0.8-1.5,1.5v3.8c0,0.8,0.8,1.5,1.5,1.5h5.3v6
	c0,0.8,0.8,1.5,1.5,1.5h3.8c0.8,0,1.5-0.8,1.5-1.5v-7.6v-3.8v-7.6C250,159.4,249.2,158.7,248.5,158.7z"/>
<path class="st0" d="M212.1,111.8c0,0.8,0.8,1.5,1.5,1.5h3.8c0.8,0,1.5-0.8,1.5-1.5v-3.8c0-0.8-0.8-1.5-1.5-1.5h-3.8
	c-0.8,0-1.5,0.8-1.5,1.5V111.8z"/>
<path class="st0" d="M234.8,111.8c0,0.8,0.8,1.5,1.5,1.5h3.8c0.8,0,1.5-0.8,1.5-1.5v-3.8c0-0.8-0.8-1.5-1.5-1.5h-3.8
	c-0.8,0-1.5,0.8-1.5,1.5V111.8z"/>
<path class="st0" d="M233.3,83.1h-3.8c-0.8,0-1.5,0.8-1.5,1.5v3.8c0,0.8,0.8,1.5,1.5,1.5h3.8c0.8,0,1.5-0.8,1.5-1.5v-3.8
	C234.8,83.9,234.1,83.1,233.3,83.1z"/>
<path class="st0" d="M227.3,92.2c0-0.8-0.8-1.5-1.5-1.5H222h-7.6c-0.8,0-1.5,0.8-1.5,1.5V96c0,0.8,0.8,1.5,1.5,1.5h5.3V99v3.8
	c0,0.8,0.8,1.5,1.5,1.5h3.8h7.6c0.8,0,1.5-0.8,1.5-1.5V99c0-0.8-0.8-1.5-1.5-1.5h-5.3V96V92.2z"/>
<path class="st0" d="M210.6,98.2h-3.8c-0.8,0-1.5,0.8-1.5,1.5v3.8c0,0.8,0.8,1.5,1.5,1.5h3.8c0.8,0,1.5-0.8,1.5-1.5v-3.8
	C212.1,99,211.4,98.2,210.6,98.2z"/>
<path class="st0" d="M218.2,75.6h-3.8c-0.8,0-1.5,0.8-1.5,1.5v3.8c0,0.8,0.8,1.5,1.5,1.5h3.8c0.8,0,1.5-0.8,1.5-1.5v-3.8
	C219.7,76.3,218.9,75.6,218.2,75.6z"/>
<path class="st0" d="M190.9,105.8h3.8c0.8,0,1.5-0.8,1.5-1.5v-3.8c0-0.8-0.8-1.5-1.5-1.5h-3.8c-0.8,0-1.5,0.8-1.5,1.5v3.8
	C189.4,105,190.2,105.8,190.9,105.8z"/>
<path class="st0" d="M189.4,92.2c0-0.8-0.8-1.5-1.5-1.5h-3.8c-0.8,0-1.5,0.8-1.5,1.5V96c0,0.8,0.8,1.5,1.5,1.5h3.8
	c0.8,0,1.5-0.8,1.5-1.5V92.2z"/>
<path class="st0" d="M174.2,75.6h-6.1c-0.8,0-1.5,0.8-1.5,1.5v3.8c0,0.8,0.8,1.5,1.5,1.5h6.1v6c0,0.8,0.8,1.5,1.5,1.5h3.8
	c0.8,0,1.5-0.8,1.5-1.5v-5.3h6.1h7.6c0.8,0,1.5-0.8,1.5-1.5v-3.8c0-0.8-0.8-1.5-1.5-1.5h-5.3v-6.8c0-0.8-0.8-1.5-1.5-1.5h-7.6h-3.8
	c-1.5,0-2.3,0.8-2.3,1.5V75.6z"/>
<path class="st0" d="M168.2,98.2h3.8c0.8,0,1.5-0.8,1.5-1.5V93c0-0.8-0.8-1.5-1.5-1.5h-3.8c-0.8,0-1.5,0.8-1.5,1.5v3.8
	C166.7,97.5,167.4,98.2,168.2,98.2z"/>
<path class="st0" d="M203,83.1h-3.8c-0.8,0-1.5,0.8-1.5,1.5V96c0,0.8,0.8,1.5,1.5,1.5h3.8c0.8,0,1.5-0.8,1.5-1.5V84.6
	C204.5,83.9,203.8,83.1,203,83.1z"/>
<path class="st0" d="M168.2,151.1h11.4c0.8,0,1.5-0.8,1.5-1.5v-3.8c0-0.8-0.8-1.5-1.5-1.5H172c0.8,0,1.5-0.8,1.5-1.5V139
	c0-0.8-0.8-1.5-1.5-1.5h-3.8c-0.8,0-1.5,0.8-1.5,1.5v3.8c0,0.8,0.8,1.5,1.5,1.5c-0.8,0-1.5,0.8-1.5,1.5v3.8
	C166.7,150.4,167.4,151.1,168.2,151.1z"/>
<path class="st0" d="M203,136c0.8,0,1.5-0.8,1.5-1.5v-11.3v-7.6c0-0.8-0.8-1.5-1.5-1.5h-3.8c-0.8,0-1.5,0.8-1.5,1.5v5.3h-13.6
	c-0.8,0-1.5,0.8-1.5,1.5v11.3c0,0.8,0.8,1.5,1.5,1.5h15.2h3.8V136z"/>
<path class="st0" d="M166.7,119.4c0,0.8,0.8,1.5,1.5,1.5h11.4c0.8,0,1.5-0.8,1.5-1.5v-3.8c0-0.8-0.8-1.5-1.5-1.5h-11.4
	c-0.8,0-1.5,0.8-1.5,1.5V119.4z"/>
<path class="st0" d="M203,241.7H197v-1.5v-3.8c0-0.8-0.8-1.5-1.5-1.5h-3.8h-2.3v-1.5v-3.8c0-0.8-0.8-1.5-1.5-1.5h-3.8h-7.6
	c-0.8,0-1.5,0.8-1.5,1.5v3.8c0,0.8,0.8,1.5,1.5,1.5h5.3v1.5v3.8v1.5h-6.1c-0.8,0-1.5,0.8-1.5,1.5v3.8c0,0.8,0.8,1.5,1.5,1.5h7.6h3.8
	h3.8h3.8h7.6c0.8,0,1.5-0.8,1.5-1.5v-3.8C204.5,242.5,203.8,241.7,203,241.7z"/>
<path class="st0" d="M130.3,173.8h18.9c0.8,0,1.5-0.8,1.5-1.5v-3.8c0-0.8-0.8-1.5-1.5-1.5h-18.9c-0.8,0-1.5,0.8-1.5,1.5v3.8
	C128.8,173,129.5,173.8,130.3,173.8z"/>
<path class="st0" d="M90.9,175.3v3.8c0,0.8,0.8,1.5,1.5,1.5h26.5c0.8,0,1.5-0.8,1.5-1.5v-3.8c0-0.8-0.8-1.5-1.5-1.5H92.4
	C91.7,173.8,90.9,174.5,90.9,175.3z"/>
<path class="st0" d="M1.5,188.9h3.8c1.5,0,2.3-0.8,2.3-1.5v-21.1h6.1c0.8,0,1.5-0.8,1.5-1.5v-3.8c0-1.5-0.8-2.3-1.5-2.3H6.1H1.5
	c-0.8,0-1.5,0.8-1.5,1.5v3.8v22.7C0,188.1,0.8,188.9,1.5,188.9z"/>
<path class="st0" d="M47,68h3.8c1.5,0,2.3-0.8,2.3-1.5V62c0-0.8-0.8-1.5-1.5-1.5H47c-0.8,0-1.5,0.8-1.5,1.5v3.8
	C45.5,67.3,46.2,68,47,68z"/>
<path class="st0" d="M9.1,75.6h3.8c1.5,0,2.3-0.8,2.3-1.5v-4.5c0-0.8-0.8-1.5-1.5-1.5H9.1c-0.8,0-1.5,0.8-1.5,1.5v3.8
	C7.6,74.8,8.3,75.6,9.1,75.6z"/>
<path class="st0" d="M24.2,83.1c-0.8,0-1.5,0.8-1.5,1.5v3.8c0,1.5,0.8,2.3,1.5,2.3H28c1.5,0,2.3-0.8,2.3-1.5v-3.8
	c0-1.5-0.8-2.3-1.5-2.3H24.2z"/>
<path class="st0" d="M30.3,111.8c0,0.8,0.8,1.5,1.5,1.5h3.8h15.2c1.5,0,2.3-0.8,2.3-1.5v-3.8c0-1.5-0.8-2.3-1.5-2.3H37.9v-1.5v-3.8
	c0-1.5-0.8-2.3-1.5-2.3h-4.5h-9.1v-1.5V93c0-1.5-0.8-2.3-1.5-2.3h-4.5H9.1c-0.8,0-1.5,0.8-1.5,1.5V96c0,1.5,0.8,2.3,1.5,2.3h6.1v1.5
	v3.8c0,1.5,0.8,2.3,1.5,2.3h3.8h9.8v1.5V111.8z"/>
<path class="st0" d="M1.5,90.7h3.8c1.5,0,2.3-0.8,2.3-1.5V77.8c0-1.5-0.8-2.3-1.5-2.3H1.5c-0.8,0-1.5,0.8-1.5,1.5v11.3
	C0,89.9,0.8,90.7,1.5,90.7z"/>
<path class="st0" d="M1.5,128.4h3.8h2.3v1.5v11.3v7.6c0,1.5,0.8,2.3,1.5,2.3h3.8c1.5,0,2.3-0.8,2.3-1.5v-6h1.5h3.8h2.3v6
	c0,0.8,0.8,1.5,1.5,1.5H28c1.5,0,2.3-0.8,2.3-1.5v-6h1.5h3.8c1.5,0,2.3-0.8,2.3-1.5v-11.3v-2.3h13.6c0.8,0,1.5-0.8,1.5-1.5v-3.8
	c0-1.5-0.8-2.3-1.5-2.3H36.4h-4.5c-0.8,0-1.5,0.8-1.5,1.5v3.8v2.3h-1.5h-4.5h-3h-4.5h-1.5v-1.5v-3.8c0-1.5-0.8-2.3-1.5-2.3H9.1H7.6
	v-7.6h6.1c0.8,0,1.5-0.8,1.5-1.5v-3.8c0-1.5-0.8-2.3-1.5-2.3H7.6v-6c0-0.8-0.8-1.5-1.5-1.5H1.5C0.8,98.2,0,99,0,99.7v7.6v3.8v11.3
	v3.8C0,127.7,0.8,128.4,1.5,128.4z"/>
<path class="st0" d="M43.9,83.1h-4.5c-0.8,0-1.5,0.8-1.5,1.5v7.6V96c0,1.5,0.8,2.3,1.5,2.3h3.8h7.6c1.5,0,2.3-0.8,2.3-1.5V93
	c0-1.5-0.8-2.3-1.5-2.3h-6.1v-6C45.5,83.9,44.7,83.1,43.9,83.1z"/>
<path class="st0" d="M37.9,62c0-0.8-0.8-1.5-1.5-1.5h-4.5H16.7c-0.8,0-1.5,0.8-1.5,1.5v3.8c0,1.5,0.8,2.3,1.5,2.3h13.6v1.5v3.8v7.6
	c0,1.5,0.8,2.3,1.5,2.3h3.8c1.5,0,2.3-0.8,2.3-1.5v-6h6.1c0.8,0,1.5-0.8,1.5-1.5v-4.5c0-0.8-0.8-1.5-1.5-1.5h-6.1v-1.5V62z"/>
<path class="st0" d="M68.2,24.2V28c0,1.5,0.8,2.3,1.5,2.3h6.1v1.5v3.8c0,1.5,0.8,2.3,1.5,2.3h3.8h2.3v6c0,0.8,0.8,1.5,1.5,1.5h3.8
	c1.5,0,2.3-0.8,2.3-1.5v-6H97c0.8,0,1.5-0.8,1.5-1.5v-4.5c0-0.8-0.8-1.5-1.5-1.5h-7.6h-3.8h-2.3v-1.5v-4.5c0-0.8-0.8-1.5-1.5-1.5H78
	h-7.6C68.9,22.7,68.2,23.5,68.2,24.2z"/>
<path class="st0" d="M128.8,22.7h-1.5h-3.8c-1.5,0-2.3,0.8-2.3,1.5V28v2.3h-6.1c-0.8,0-1.5,0.8-1.5,1.5v6h-1.5h-3.8
	c-1.5,0-2.3,0.8-2.3,1.5v3.8v15.1c0,1.5,0.8,2.3,1.5,2.3h3.8c1.5,0,2.3-0.8,2.3-1.5V45.4h1.5h6.1v9.1v11.3v11.3v3.8
	c0,0.8,0.8,1.5,1.5,1.5h3.8h11.4h3.8c0.8,0,1.5-0.8,1.5-1.5v-3.8v-7.6c0.8-0.8,0-1.5-0.8-1.5h-3.8c-1.5,0-2.3,0.8-2.3,1.5v6h-7.6V68
	h6.1c0.8,0,1.5-0.8,1.5-1.5V54.4c0-0.8-0.8-1.5-1.5-1.5h-6.1v-9.1v-4.5v-7.6v-1.5h1.5h3.8h3.8h3.8c1.5,0,2.3-0.8,2.3-1.5V16.7v-1.5
	h6.1c0.8,0,1.5-0.8,1.5-1.5V9.1c0-0.8-0.8-1.5-1.5-1.5h-7.6h-3.8c-1.5,0-2.3,0.8-2.3,1.5v3.8v2.3h-6.1c-0.8,0-1.5,0.8-1.5,1.5V22.7z
	"/>
<path class="st0" d="M60.6,74.1c0,0.8,0.8,1.5,2.3,1.5h3.8c0.8,0,1.5-0.8,1.5-1.5v-6h5.3c1.5,0,2.3-0.8,2.3-1.5V62
	c0-0.8-0.8-1.5-1.5-1.5h-6.1V39.3c0-0.8-0.8-1.5-1.5-1.5h-3.8c-1.5,0-2.3,0.8-2.3,1.5V62l0,0v3.8l0,0V74.1z"/>
<g>
	<g>
		<path class="st1" d="M99.6,126l12.3-3.3v-4.6l-3.1,0.8v1.6l-3.7,1V119l3.5-0.9v-3l-3.5,0.9v-2.3l3.4-0.9v1.6l3.1-0.8l0-4.6
			l-12,3.2v3l1.5-0.4v7.8l-1.5,0.4V126L99.6,126z M133.6,110.1l2.6-0.7c-0.4-1.1-0.9-2.3-1.3-3.2
			C134.6,107.1,134.1,108.6,133.6,110.1L133.6,110.1z M137.3,112.2l-4.7,1.3c-0.1,0.4-0.2,0.7-0.2,0.8l1.6-0.4v3l-5.3,1.4l-1.5,0.4
			c-3.5,1-5.9-0.7-6.5-3.7l-1.5,0.4v2.4l1.2-0.3v3l-6.8,1.8v-3l1.6-0.4V111l-1.6,0.4v-3l7-1.9v3l-1.4,0.4v2.4l1-0.3
			c1.3-0.3,2.6-1,2.6-3c0-0.1-0.9,0.3-1,0.1v-3l6.6-1.8v3l-2,0.5c0,2.1-1.2,4-2.4,5.1c0.5,2.3,1.7,2.9,4.5,2.2l4-11.9l5.4-1.4l4,9.8
			l1.4-0.4v3l-7,1.9v-3l1.2-0.3C137.4,112.6,137.4,112.4,137.3,112.2L137.3,112.2z M144.8,110.9l1.5-0.4v-7.8l-1.5,0.4v1.6l-3,0.8
			v-4.6l13.1-3.5v4.6l-3,0.8v-1.6l-1.5,0.4v7.8l1.5-0.4v3l-7,1.9V110.9L144.8,110.9z"/>
		<path class="st1" d="M112.5,135.9l1.4-0.4v-7.9l-1.4,0.4v-3l6.6-1.8c2.8-0.8,6-0.2,5.9,3.3c0,3.5-2.6,5.6-5.8,6.5l-1.4,0.4v1
			l1.5-0.4v3l-6.9,1.8V135.9L112.5,135.9z M99.6,142.3l12.2-3.3v-4.6l-2.9,0.8v1.6l-3.7,1v-2.5l3.5-0.9v-3l-3.5,0.9V130l3.4-0.9v1.6
			l3.1-0.8v-4.6l-12.1,3.2v3l1.5-0.4v7.8l-1.5,0.4V142.3L99.6,142.3z M135,119l-4.6,9.2v-4.9l1-0.3v-3l-6.2,1.7v3l1.1-0.3v7.8
			l-1.1,0.3v3l5-1.3l4.6-9.1v4.8l-1,0.3v3l6.3-1.7v-3l-1.2,0.3V121l1.2-0.3v-3L135,119L135,119z M146.8,115.8v3l-1.1,0.3v2.4l3.8-1
			v-2.4l-1.1,0.3v-3l6.2-1.7v3l-1.1,0.3v7.9l1.1-0.3v3l-6.2,1.7v-3l1.1-0.3v-2.4l-3.8,1v2.4l1.1-0.3v3l-6.2,1.7v-3l1.1-0.3v-7.9
			l-1.1,0.3v-3L146.8,115.8L146.8,115.8z M118.6,126.4l-0.7,0.2v3.8l0.7-0.2c1.2-0.3,2.3-1.1,2.3-2.5
			C120.8,126.2,119.8,126,118.6,126.4L118.6,126.4z"/>
		<path class="st1" d="M99.6,147.8l1.5-0.4v7.8l-1.5,0.4v3l8.2-2.2c2.8-0.8,5.4-2.8,5.4-6.1c0-3.3-2.2-3.9-5.4-3l-2.6,0.7v-1.7
			l3.5-1v1.2l3.1-0.8v-4.3l-12.2,3.3V147.8L99.6,147.8z M142.5,147.2l7-1.9v-3l-1.5,0.4v-7.8l3.5-0.9v1.6l3.1-0.8l0-4.6l-12.2,3.3v3
			l1.5-0.4v7.8l-1.5,0.4V147.2L142.5,147.2z M128.4,147.9l1.5-0.4v-7.9c-0.9,0.2-1.9,0.5-2.8,0.7l-3.2,8.1c-1.8,4.4-5.5,6.1-9.4,5.7
			v-4.2l3-0.8l0,2c0.6,0.1,1.6-0.1,2.2-1.5l-4.3-6.1l-1.9,0.5v-3l7-1.9v3l-0.6,0.2l1.9,3.2l1.4-4.1l-0.6,0.2v-3
			c4.4-1.2,8.9-2.4,13.3-3.6c2.8-0.8,6-0.2,5.9,3.3c0,3.5-2.6,5.6-5.8,6.5l-2.2,0.6v1l1.5-0.4v3l-7,1.9V147.9L128.4,147.9z
			 M135.4,138.2l-1.5,0.4v3.8l1.5-0.4c1.2-0.3,2.3-1.1,2.3-2.5C137.7,138,136.7,137.8,135.4,138.2L135.4,138.2z M107.2,153.6
			l-2.1,0.6v-3.1l2.3-0.6C109.8,149.8,109.8,152.9,107.2,153.6L107.2,153.6z"/>
	</g>
	<g>
		<path class="st0" d="M119.5,94.5c0.3-0.1,0.5-0.4,0.5-0.7v-3.1c0-0.2-0.1-0.4-0.3-0.6c-0.1-0.1-0.3-0.1-0.4-0.1
			c-0.1,0-0.1,0-0.2,0l-23.5,6.3c-0.3,0.1-0.5,0.4-0.5,0.7v3.1c0,0.2,0.1,0.4,0.3,0.6c0.1,0.1,0.3,0.1,0.4,0.1c0.1,0,0.1,0,0.2,0
			c0.2,0,0.4-0.1,0.5-0.1c0.9,0,1.5,0.7,1.5,1.8c0,1.4-1.1,2.9-2.4,3.3c-0.3,0.1-0.5,0.4-0.5,0.7v3.1c0,0.2,0.1,0.4,0.3,0.6
			c0.1,0.1,0.3,0.1,0.4,0.1c0.1,0,0.1,0,0.2,0l23.5-6.3c0.3-0.1,0.5-0.4,0.5-0.7v-3.1c0-0.2-0.1-0.4-0.3-0.6
			c-0.1-0.1-0.3-0.1-0.4-0.1c-0.1,0-0.1,0-0.2,0c-0.2,0-0.4,0.1-0.5,0.1c-0.9,0-1.5-0.7-1.5-1.8C117.1,96.3,118.2,94.8,119.5,94.5z
			 M115.7,97.7c0,1.8,1.2,3.2,2.9,3.2c0,0,0,0,0,0v1.8l-4.3,1.1v-0.4c0-0.4-0.3-0.7-0.7-0.7c-0.4,0-0.7,0.3-0.7,0.7v0.8l-16.4,4.4
			v-1.7c1.7-0.7,2.9-2.6,2.9-4.4c0-1.8-1.2-3.2-2.9-3.2c0,0,0,0,0,0v-1.8l16.4-4.4v0.4c0,0.4,0.3,0.7,0.7,0.7c0.4,0,0.7-0.3,0.7-0.7
			v-0.8l4.3-1.1v1.7C116.9,94,115.7,95.8,115.7,97.7z"/>
		<path class="st0" d="M113.7,95.3c-0.4,0-0.7,0.3-0.7,0.7v1.2c0,0.4,0.3,0.7,0.7,0.7c0.4,0,0.7-0.3,0.7-0.7V96
			C114.4,95.6,114,95.3,113.7,95.3z"/>
		<path class="st0" d="M113.7,99c-0.4,0-0.7,0.3-0.7,0.7v1.2c0,0.4,0.3,0.7,0.7,0.7c0.4,0,0.7-0.3,0.7-0.7v-1.2
			C114.4,99.3,114,99,113.7,99z"/>
	</g>
</g>
</svg>
