<?xml version="1.0" encoding="utf-8"?>
<!-- Generator: Adobe Illustrator 24.0.1, SVG Export Plug-In . SVG Version: 6.00 Build 0)  -->
<svg version="1.1" id="Слой_1" xmlns="http://www.w3.org/2000/svg" xmlns:xlink="http://www.w3.org/1999/xlink" x="0px" y="0px"
	 viewBox="0 0 250 250" style="enable-background:new 0 0 250 250;" xml:space="preserve">
<style type="text/css">
	.st0{fill:#D9D9D9;}
	.st1{fill-rule:evenodd;clip-rule:evenodd;fill:#D9D9D9;}
</style>
<g>
	<path class="st0" d="M174.8,8.9h3.8c1.4,0,2.5-1.1,2.5-2.5V2.5c0-1.4-1.1-2.5-2.5-2.5h-3.8c-1.4,0-2.5,1.1-2.5,2.5v3.8
		C172.2,7.8,173.4,8.9,174.8,8.9z"/>
	<path class="st0" d="M123.6,17.5h2.8c1.7,0,3-1.4,3-3V8.9h8.3h0.3h5.6c1.7,0,3-1.4,3-3V3c0-1.7-1.4-3-3-3H138h-0.3h-8.3h-0.3h-5.6
		c-1.7,0-3,1.4-3,3v5.6v0.3v5.6C120.6,16.1,121.9,17.5,123.6,17.5z"/>
	<path class="st0" d="M146.4,14.5c0,1.7,1.4,3,3,3h5.6h0.3h8.3v8.3v0.3v6.5c-0.2,0.9-0.9,1.6-1.8,1.8H158c-1.7,0-3,1.4-3,3V43v0.3
		v8.3v0.3v5.6c0,1.7,1.4,3,3,3h2.8c1.7,0,3-1.4,3-3v-5.6v-0.3v-8.3h8.3h0.3h5.6c1.7,0,3-1.4,3-3v-2.8c0-1.7-1.4-3-3-3h-5.6v-8.3h5.6
		c1.7,0,3-1.4,3-3v-2.8c0-1.7-1.4-3-3-3h-5.6v-5.6c0-1.7-1.4-3-3-3h-5.6V3c0-1.7-1.4-3-3-3H158c-1.7,0-3,1.4-3,3v3.8
		c-0.2,0.9-0.9,1.6-1.8,1.8h-3.8c-1.7,0-3,1.4-3,3V14.5z"/>
	<path class="st0" d="M148.9,34.7h3.8c1.4,0,2.5-1.1,2.5-2.5v-3.8c0-1.4-1.1-2.5-2.5-2.5h-3.8c-1.4,0-2.5,1.1-2.5,2.5v3.8
		C146.4,33.6,147.5,34.7,148.9,34.7z"/>
	<path class="st0" d="M101.1,43.1h-3.8c-1.4,0-2.5,1.1-2.5,2.5v3.8c0,1.4,1.1,2.5,2.5,2.5h3.8c1.4,0,2.5-1.1,2.5-2.5v-3.8
		C103.6,44.2,102.5,43.1,101.1,43.1z"/>
	<path class="st0" d="M71.9,60.5h2.8c1.7,0,3-1.4,3-3v-5.6h5.6c1.7,0,3-1.4,3-3v-5.6V43v-8.3h8.3H95h8.3v5.6c0,1.7,1.4,3,3,3h5.6
		h0.3h5.6c1.7,0,3-1.4,3-3v-2.8c0-1.7-1.4-3-3-3h-5.6v-8.3v-0.3v-5.6c0-1.7-1.4-3-3-3h-5.6V8.9V8.6V3c0-1.7-1.4-3-3-3h-2.8
		c-1.7,0-3,1.4-3,3v3.8c-0.2,0.9-0.9,1.6-1.8,1.8h-6.5V3c0-1.7-1.4-3-3-3h-5.6h-0.3H72c-1.7,0-3,1.4-3,3v2.8c0,1.7,1.4,3,3,3h5.6
		v8.3v0.3v8.3V26v6.5c-0.2,0.9-0.9,1.6-1.8,1.8H72c-1.7,0-3,1.4-3,3v5.6v0.3v8.3v0.3v5.6C68.9,59.2,70.2,60.5,71.9,60.5z M94.7,17.5
		v8.3h-8.3v-8.3H94.7z"/>
	<path class="st0" d="M103.3,58c0,1.4,1.1,2.5,2.5,2.5h3.8c1.4,0,2.5-1.1,2.5-2.5v-3.8c0-1.4-1.1-2.5-2.5-2.5h-3.8
		c-1.4,0-2.5,1.1-2.5,2.5V58z"/>
	<path class="st0" d="M123.1,60.5h3.8c1.4,0,2.5-1.1,2.5-2.5v-3.8c0-1.4-1.1-2.5-2.5-2.5h-3.8c-1.4,0-2.5,1.1-2.5,2.5V58
		C120.6,59.4,121.7,60.5,123.1,60.5z"/>
	<path class="st0" d="M158,77.8h5.6h0.3h5.6c1.7,0,3-1.4,3-3v-5.6h5.6c1.7,0,3-1.4,3-3v-5.6v-0.3v-5.6c0-1.7-1.4-3-3-3h-2.8
		c-1.7,0-3,1.4-3,3v3.8c-0.2,0.9-0.9,1.6-1.8,1.8h-3.8c-1.7,0-3,1.4-3,3v3.8c-0.2,0.9-0.9,1.6-1.8,1.8H158c-1.7,0-3,1.4-3,3v2.8
		C155,76.4,156.4,77.8,158,77.8z"/>
	<path class="st0" d="M212.5,68.9h-5.6h-0.3H201c-1.7,0-3,1.4-3,3v3.8c-0.2,0.9-0.9,1.6-1.8,1.8h-3.8c-1.7,0-3,1.4-3,3v5.6v0.3v8.3
		V95v5.6c0,1.7,1.4,3,3,3h2.8c1.7,0,3-1.4,3-3V95h5.6c1.7,0,3-1.4,3-3v-5.6h8.3h0.3h5.6c1.7,0,3-1.4,3-3v-2.8c0-1.7-1.4-3-3-3h-5.6
		V72C215.6,70.2,214.2,68.9,212.5,68.9z"/>
	<path class="st0" d="M247,68.9h-2.8c-1.7,0-3,1.4-3,3v5.6v0.3v5.6c0,1.7,1.4,3,3,3h2.8c1.7,0,3-1.4,3-3v-5.6v-0.3v-5.6
		C250,70.2,248.6,68.9,247,68.9z"/>
	<path class="st0" d="M2.5,86.4h3.8c1.4,0,2.5-1.1,2.5-2.5V80c0-1.4-1.1-2.5-2.5-2.5H2.5C1.1,77.5,0,78.6,0,80v3.8
		C0,85.3,1.1,86.4,2.5,86.4z"/>
	<path class="st0" d="M95,83.4v-5.6v-0.3v-8.3h5.6c1.7,0,3-1.4,3-3v-2.8c0-1.7-1.4-3-3-3H95v-5.6c0-1.7-1.4-3-3-3h-2.8
		c-1.7,0-3,1.4-3,3v3.8c-0.2,0.9-0.9,1.6-1.8,1.8h-3.8c-1.7,0-3,1.4-3,3V69v0.3v8.3v0.3v5.6c0,1.7,1.4,3,3,3h5.6h0.3H92
		C93.6,86.4,95,85,95,83.4z"/>
	<path class="st0" d="M123.6,86.4h5.6h0.3h8.3h0.3h8.3h0.3h5.6c1.7,0,3-1.4,3-3v-2.8c0-1.7-1.4-3-3-3h-5.6v-8.3V69v-8.3v-0.3v-8.3
		v-0.3v-5.6c0-1.7-1.4-3-3-3h-5.6h-0.3h-5.6c-1.7,0-3,1.4-3,3V49c0,1.7,1.4,3,3,3h5.6v8.3h-5.6c-1.7,0-3,1.4-3,3v3.8
		c-0.2,0.9-0.9,1.6-1.8,1.8h-6.5v-5.6c0-1.7-1.4-3-3-3H115c-1.7,0-3,1.4-3,3v3.8c-0.2,0.9-0.9,1.6-1.8,1.8h-3.8c-1.7,0-3,1.4-3,3
		v2.8c0,1.7,1.4,3,3,3h5.6h0.3h8.3v5.6C120.6,85,121.9,86.4,123.6,86.4z"/>
	<path class="st0" d="M58,86.1h-3.8c-1.4,0-2.5,1.1-2.5,2.5v3.8c0,1.4,1.1,2.5,2.5,2.5H58c1.4,0,2.5-1.1,2.5-2.5v-3.8
		C60.5,87.2,59.4,86.1,58,86.1z"/>
	<path class="st0" d="M178.6,94.7h-3.8c-1.4,0-2.5,1.1-2.5,2.5v3.8c0,1.4,1.1,2.5,2.5,2.5h3.8c1.4,0,2.5-1.1,2.5-2.5v-3.8
		C181.1,95.9,180,94.7,178.6,94.7z"/>
	<path class="st0" d="M180.8,111.9v0.3v6.5c-0.2,0.9-0.9,1.6-1.8,1.8h-3.8c-1.7,0-3,1.4-3,3v2.8c0,1.7,1.4,3,3,3h5.6v5.6
		c0,1.7,1.4,3,3,3h2.8c1.7,0,3-1.4,3-3v-5.6V129v-8.3h5.6c1.7,0,3-1.4,3-3V115c0-1.7-1.4-3-3-3h-5.6v-5.6c0-1.7-1.4-3-3-3h-2.8
		c-1.7,0-3,1.4-3,3V111.9z"/>
	<path class="st0" d="M247,103.3h-5.6v-5.6c0-1.7-1.4-3-3-3h-2.8c-1.7,0-3,1.4-3,3v3.8c-0.2,0.9-0.9,1.6-1.8,1.8h-6.5v-5.6
		c0-1.7-1.4-3-3-3h-5.6h-0.3h-5.6c-1.7,0-3,1.4-3,3v2.8c0,1.7,1.4,3,3,3h5.6v8.3h-5.6c-1.7,0-3,1.4-3,3v2.8c0,1.7,1.4,3,3,3h5.6h0.3
		h5.6c1.7,0,3-1.4,3-3V112h8.3h0.3h8.3v5.6c0,1.7,1.4,3,3,3h2.8c1.7,0,3-1.4,3-3V112v-0.3v-5.6C250,104.7,248.6,103.3,247,103.3z"/>
	<path class="st0" d="M77.8,114.5c0-1.4-1.1-2.5-2.5-2.5h-3.8c-1.4,0-2.5,1.1-2.5,2.5v3.8c0,1.4,1.1,2.5,2.5,2.5h3.8
		c1.4,0,2.5-1.1,2.5-2.5V114.5z"/>
	<path class="st0" d="M166.2,120.8h3.8c1.4,0,2.5-1.1,2.5-2.5v-3.8c0-1.4-1.1-2.5-2.5-2.5h-3.8c-1.4,0-2.5,1.1-2.5,2.5v3.8
		C163.6,119.7,164.8,120.8,166.2,120.8z"/>
	<path class="st0" d="M80,129.4h3.8c1.4,0,2.5-1.1,2.5-2.5v-3.8c0-1.4-1.1-2.5-2.5-2.5H80c-1.4,0-2.5,1.1-2.5,2.5v3.8
		C77.5,128.3,78.6,129.4,80,129.4z"/>
	<path class="st0" d="M247,129.2h-5.6h-0.3h-5.6c-1.7,0-3,1.4-3,3v3.8c-0.2,0.9-0.9,1.6-1.8,1.8h-6.5v-5.6c0-1.7-1.4-3-3-3h-2.8
		c-1.7,0-3,1.4-3,3v5.6v0.3v5.6c0,1.7,1.4,3,3,3h5.6h0.3h8.3v5.6c0,1.7,1.4,3,3,3h5.6h0.3h5.6c1.7,0,3-1.4,3-3v-2.8c0-1.7-1.4-3-3-3
		h-5.6v-8.3h5.6c1.7,0,3-1.4,3-3v-2.8C250,130.5,248.6,129.2,247,129.2z"/>
	<path class="st0" d="M28.4,146.7h3.8c1.4,0,2.5-1.1,2.5-2.5v-3.8c0-1.4-1.1-2.5-2.5-2.5h-3.8c-1.4,0-2.5,1.1-2.5,2.5v3.8
		C25.8,145.5,27,146.7,28.4,146.7z"/>
	<path class="st0" d="M37,155.3h3.8c1.4,0,2.5-1.1,2.5-2.5V149c0-1.4-1.1-2.5-2.5-2.5H37c-1.4,0-2.5,1.1-2.5,2.5v3.8
		C34.4,154.1,35.6,155.3,37,155.3z"/>
	<path class="st0" d="M20.2,155c-1.7,0-3,1.4-3,3v5.6v0.3v5.6c0,1.7,1.4,3,3,3H23c1.7,0,3-1.4,3-3v-5.6h5.6c1.7,0,3-1.4,3-3V158
		c0-1.7-1.4-3-3-3H26h-0.3H20.2z"/>
	<path class="st0" d="M54.2,163.9H58c1.4,0,2.5-1.1,2.5-2.5v-3.8c0-1.4-1.1-2.5-2.5-2.5h-3.8c-1.4,0-2.5,1.1-2.5,2.5v3.8
		C51.7,162.8,52.8,163.9,54.2,163.9z"/>
	<path class="st0" d="M226.4,163.9h3.8c1.4,0,2.5-1.1,2.5-2.5v-3.8c0-1.4-1.1-2.5-2.5-2.5h-3.8c-1.4,0-2.5,1.1-2.5,2.5v3.8
		C223.9,162.8,225,163.9,226.4,163.9z"/>
	<path class="st0" d="M221.6,163.6h-3.8c-1.4,0-2.5,1.1-2.5,2.5v3.8c0,1.4,1.1,2.5,2.5,2.5h3.8c1.4,0,2.5-1.1,2.5-2.5v-3.8
		C224.2,164.7,223,163.6,221.6,163.6z"/>
	<path class="st0" d="M247,163.6h-5.6h-0.3h-5.6c-1.7,0-3,1.4-3,3v3.8c-0.2,0.9-0.9,1.6-1.8,1.8h-3.8c-1.7,0-3,1.4-3,3v2.8
		c0,1.7,1.4,3,3,3h5.6v5.6c0,1.7,1.4,3,3,3h5.6h0.3h5.6c1.7,0,3-1.4,3-3V181v-0.3v-8.3v-0.3v-5.6C250,165,248.6,163.6,247,163.6z"/>
	<path class="st0" d="M3,181.1h2.8c1.7,0,3-1.4,3-3v-5.6v-0.3v-8.3v-0.3v-8.3h5.6c1.7,0,3-1.4,3-3v-2.8c0-1.7-1.4-3-3-3H8.9v-8.3
		v-0.3v-8.3h8.3v5.6c0,1.7,1.4,3,3,3H23c1.7,0,3-1.4,3-3v-5.6h8.3v5.6c0,1.7,1.4,3,3,3h2.8c1.7,0,3-1.4,3-3v-5.6h8.3h0.3H60h0.3h5.6
		c1.7,0,3-1.4,3-3v-2.8c0-1.7-1.4-3-3-3h-5.6H60h-8.3v-8.3H60h0.3h5.6c1.7,0,3-1.4,3-3v-5.6v-0.3V98c0-1.7-1.4-3-3-3h-2.8
		c-1.7,0-3,1.4-3,3v3.8c-0.2,0.9-0.9,1.6-1.8,1.8h-6.5V98c0-1.7-1.4-3-3-3h-5.6v-8.3v-0.3v-8.3h8.3h0.3h8.3v5.6c0,1.7,1.4,3,3,3h2.8
		c1.7,0,3-1.4,3-3v-5.6v-0.3v-5.6c0-1.7-1.4-3-3-3h-5.6H60h-8.3h-0.3h-8.3h-0.3h-8.3h-0.3h-8.3h-0.3h-8.3H17h-5.6c-1.7,0-3,1.4-3,3
		V75c0,1.7,1.4,3,3,3H17v8.3h-5.6c-1.7,0-3,1.4-3,3V92c0,1.7,1.4,3,3,3H17h0.3h5.6c1.7,0,3-1.4,3-3v-5.6h8.3v8.3h-5.6
		c-1.7,0-3,1.4-3,3v5.6v0.3v6.5c-0.2,0.9-0.9,1.6-1.8,1.8h-6.5v-5.6c0-1.7-1.4-3-3-3H8.9v-5.6c0-1.7-1.4-3-3-3H3c-1.7,0-3,1.4-3,3
		v5.6v0.3v5.6c0,1.7,1.4,3,3,3h5.6v8.3H3c-1.7,0-3,1.4-3,3v5.6v0.3v8.3v0.3v8.3v0.3v8.3v0.3v8.3v0.3v8.3v0.3v5.6
		C0,179.8,1.4,181.1,3,181.1z M34.7,103.6H43v8.3h-8.3V103.6z"/>
	<path class="st0" d="M69.2,175.2c0-1.7-1.4-3-3-3h-5.6h-0.3H52v-5.6c0-1.7-1.4-3-3-3h-5.6h-0.3h-5.6c-1.7,0-3,1.4-3,3v5.6v0.3v5.6
		c0,1.7,1.4,3,3,3h5.6h0.3h8.3H52h8.3h0.3h5.6c1.7,0,3-1.4,3-3V175.2z"/>
	<path class="st0" d="M92.5,189.5h-3.8c-1.4,0-2.5,1.1-2.5,2.5v3.8c0,1.4,1.1,2.5,2.5,2.5h3.8c1.4,0,2.5-1.1,2.5-2.5V192
		C95,190.6,93.9,189.5,92.5,189.5z"/>
	<path class="st0" d="M198.3,192c0-1.4-1.1-2.5-2.5-2.5H192c-1.4,0-2.5,1.1-2.5,2.5v3.8c0,1.4,1.1,2.5,2.5,2.5h3.8
		c1.4,0,2.5-1.1,2.5-2.5V192z"/>
	<path class="st0" d="M247,198.1h-2.8c-1.7,0-3,1.4-3,3v3.8c-0.2,0.9-0.9,1.6-1.8,1.8h-6.5h-0.3h-8.3v-5.6c0-1.7-1.4-3-3-3h-5.6
		v-8.3h5.6c1.7,0,3-1.4,3-3V184c0-1.7-1.4-3-3-3h-5.6v-5.6c0-1.7-1.4-3-3-3h-5.6v-5.6c0-1.7-1.4-3-3-3h-5.6v-8.3h8.3h0.3h5.6
		c1.7,0,3-1.4,3-3v-2.8c0-1.7-1.4-3-3-3h-5.6v-5.6c0-1.7-1.4-3-3-3h-2.8c-1.7,0-3,1.4-3,3v3.8c-0.2,0.9-0.9,1.6-1.8,1.8h-3.8
		c-1.7,0-3,1.4-3,3v5.6v0.3v8.3v0.3v6.5c-0.2,0.9-0.9,1.6-1.8,1.8h-6.5v-8.3v-0.3v-8.3V155v-8.3v-0.3v-5.6c0-1.7-1.4-3-3-3h-5.6
		v-5.6c0-1.7-1.4-3-3-3H167c-1.7,0-3,1.4-3,3v5.6v0.3v8.3v0.3v5.6c0,1.7,1.4,3,3,3h5.6v8.3H167c-1.7,0-3,1.4-3,3v3.8
		c-0.2,0.9-0.9,1.6-1.8,1.8h-6.5H155h-5.6c-1.7,0-3,1.4-3,3v2.8c0,1.7,1.4,3,3,3h5.6v8.3v0.3v5.6c0,1.7,1.4,3,3,3h5.6v5.6
		c0,1.7,1.4,3,3,3h5.6v8.3v0.3v5.6c0,1.7,1.4,3,3,3h2.8c1.7,0,3-1.4,3-3v-5.6h8.3h0.3h8.3v5.6c0,1.7,1.4,3,3,3h2.8c1.7,0,3-1.4,3-3
		v-5.6h8.3h0.3h8.3h0.3h8.3h0.3h8.3h0.3h5.6c1.7,0,3-1.4,3-3v-5.6v-0.3v-5.6C250,199.4,248.6,198.1,247,198.1z M163.9,181.1h8.3v8.3
		h-8.3V181.1z M189.7,206.7h-0.3h-8.3v-8.3v-0.3v-8.3v-0.3v-8.3h8.3h0.3h8.3h0.3h8.3v8.3v0.3v8.3v0.3v6.5c-0.2,0.9-0.9,1.6-1.8,1.8
		h-6.5H198H189.7z"/>
	<path class="st0" d="M163.9,209.2c0-1.4-1.1-2.5-2.5-2.5h-3.8c-1.4,0-2.5,1.1-2.5,2.5v3.8c0,1.4,1.1,2.5,2.5,2.5h3.8
		c1.4,0,2.5-1.1,2.5-2.5V209.2z"/>
	<path class="st0" d="M83.4,215.3h-5.6V207h5.6c1.7,0,3-1.4,3-3v-2.8c0-1.7-1.4-3-3-3h-5.6v-8.3h5.6c1.7,0,3-1.4,3-3v-5.6h8.3v5.6
		c0,1.7,1.4,3,3,3h5.6h0.3h5.6c1.7,0,3-1.4,3-3v-2.8c0-1.7-1.4-3-3-3h-5.6v-5.6c0-1.7-1.4-3-3-3H95h-0.3h-8.3v-8.3v-0.3v-8.3V155
		v-5.6c0-1.7-1.4-3-3-3h-5.6v-5.6c0-1.7-1.4-3-3-3h-5.6h-0.3h-8.3h-0.3h-5.6c-1.7,0-3,1.4-3,3v2.8c0,1.7,1.4,3,3,3h5.6h0.3h8.3v5.6
		c0,1.7,1.4,3,3,3h5.6v8.3h-5.6c-1.7,0-3,1.4-3,3v2.8c0,1.7,1.4,3,3,3h5.6v8.3h-5.6c-1.7,0-3,1.4-3,3v5.6v0.3v8.3v0.3v8.3v0.3v8.3
		v0.3v8.3v0.3v8.3v0.3v5.6c0,1.7,1.4,3,3,3h2.8c1.7,0,3-1.4,3-3v-5.6v-0.3v-8.3h5.6c1.7,0,3-1.4,3-3v-2.8
		C86.4,216.6,85,215.3,83.4,215.3z"/>
	<path class="st0" d="M138.1,224.2h8.3v5.6c0,1.7,1.4,3,3,3h2.8c1.7,0,3-1.4,3-3v-5.6v-0.3v-5.6c0-1.7-1.4-3-3-3h-5.6h-0.3H138V207
		h5.6c1.7,0,3-1.4,3-3v-5.6v-0.3v-8.3v-0.3v-5.6c0-1.7-1.4-3-3-3h-2.8c-1.7,0-3,1.4-3,3v3.8c-0.2,0.9-0.9,1.6-1.8,1.8h-6.5v-8.3h5.6
		c1.7,0,3-1.4,3-3v-5.6v-0.3v-5.6c0-1.7-1.4-3-3-3h-5.6h-0.3h-8.3h-0.3H115c-1.7,0-3,1.4-3,3v2.8c0,1.7,1.4,3,3,3h5.6v8.3v0.3v8.3
		v0.3v5.6c0,1.7,1.4,3,3,3h5.6v6.5c-0.2,0.9-0.9,1.6-1.8,1.8h-6.5V201c0-1.7-1.4-3-3-3H115c-1.7,0-3,1.4-3,3v3.8
		c-0.2,0.9-0.9,1.6-1.8,1.8h-6.5V201c0-1.7-1.4-3-3-3h-2.8c-1.7,0-3,1.4-3,3v3.8c-0.2,0.9-0.9,1.6-1.8,1.8h-3.8c-1.7,0-3,1.4-3,3
		v2.8c0,1.7,1.4,3,3,3h5.6H95h8.3v8.3h-5.6c-1.7,0-3,1.4-3,3v2.8c0,1.7,1.4,3,3,3h5.6v5.6c0,1.7,1.4,3,3,3h2.8c1.7,0,3-1.4,3-3v-5.6
		v-0.3v-8.3v-0.3v-8.3h8.3h0.3h8.3v5.6c0,1.7,1.4,3,3,3h5.6h0.5V224.2z"/>
	<path class="st0" d="M163.6,230.2c0,1.4,1.1,2.5,2.5,2.5h3.8c1.4,0,2.5-1.1,2.5-2.5v-3.8c0-1.4-1.1-2.5-2.5-2.5h-3.8
		c-1.4,0-2.5,1.1-2.5,2.5V230.2z"/>
	<path class="st0" d="M195.8,223.9H192c-1.4,0-2.5,1.1-2.5,2.5v3.8c0,1.4,1.1,2.5,2.5,2.5h3.8c1.4,0,2.5-1.1,2.5-2.5v-3.8
		C198.3,225,197.2,223.9,195.8,223.9z"/>
	<path class="st0" d="M238.4,223.9h-2.8c-1.7,0-3,1.4-3,3v5.6v0.3v5.6c0,1.7,1.4,3,3,3h2.8c1.7,0,3-1.4,3-3v-5.6v-0.3v-5.6
		C241.4,225.3,240,223.9,238.4,223.9z"/>
	<path class="st0" d="M146.7,235c0-1.4-1.1-2.5-2.5-2.5h-3.8c-1.4,0-2.5,1.1-2.5,2.5v3.8c0,1.4,1.1,2.5,2.5,2.5h3.8
		c1.4,0,2.5-1.1,2.5-2.5V235z"/>
	<path class="st0" d="M224.2,232.8v-0.3v-5.6c0-1.7-1.4-3-3-3h-5.6h-0.3h-5.6c-1.7,0-3,1.4-3,3v5.6v0.3v8.3v0.3v5.6c0,1.7,1.4,3,3,3
		h2.8c1.7,0,3-1.4,3-3v-5.6h5.6c1.7,0,3-1.4,3-3v-5.6H224.2z"/>
	<path class="st0" d="M152.7,241.1h-3.8c-1.4,0-2.5,1.1-2.5,2.5v3.8c0,1.4,1.1,2.5,2.5,2.5h3.8c1.4,0,2.5-1.1,2.5-2.5v-3.8
		C155.3,242.2,154.1,241.1,152.7,241.1z"/>
	<path class="st0" d="M170,241.1h-3.8c-1.4,0-2.5,1.1-2.5,2.5v3.8c0,1.4,1.1,2.5,2.5,2.5h3.8c1.4,0,2.5-1.1,2.5-2.5v-3.8
		C172.5,242.2,171.4,241.1,170,241.1z"/>
	<path class="st0" d="M195.3,241.1h-5.6v-5.6c0-1.7-1.4-3-3-3h-5.6h-0.3h-5.6c-1.7,0-3,1.4-3,3v2.8c0,1.7,1.4,3,3,3h5.6v5.6
		c0,1.7,1.4,3,3,3h5.6h0.3h5.6c1.7,0,3-1.4,3-3v-2.8C198.3,242.5,197,241.1,195.3,241.1z"/>
	<path class="st0" d="M230.2,241.1h-3.8c-1.4,0-2.5,1.1-2.5,2.5v3.8c0,1.4,1.1,2.5,2.5,2.5h3.8c1.4,0,2.5-1.1,2.5-2.5v-3.8
		C232.8,242.2,231.6,241.1,230.2,241.1z"/>
	<path class="st0" d="M27,44.4c7.5,0,0.7,0,8.2,0s9.2-1.8,9.2-9.2c0-7.5,0-0.7,0-8.2s-1.8-9.2-9.2-9.2c-7.5,0-0.7,0-8.2,0
		s-9.2,1.8-9.2,9.2c0,4.2,0,0.7,0,8.2C17.8,42.6,19.5,44.4,27,44.4z"/>
	<path class="st0" d="M21.5,62.1c17.4,0,1.7,0,19.1,0S62.1,58,62.1,40.6s0-1.7,0-19.1S58,0,40.6,0s-1.7,0-19.1,0S0,4.1,0,21.5
		c0,9.7,0,1.7,0,19.1S4.1,62.1,21.5,62.1z M8.9,21.5c0-8.5,1.2-10.5,1.6-11c0.5-0.5,2.6-1.6,11-1.6h19.1c8.5,0,10.5,1.2,11,1.6
		c0.5,0.5,1.6,2.6,1.6,11v19.1c0,8.5-1.2,10.5-1.6,11c-0.5,0.5-2.6,1.6-11,1.6H21.5c-8.5,0-10.5-1.2-11-1.6c-0.5-0.5-1.6-2.6-1.6-11
		V21.5z"/>
	<path class="st0" d="M214.5,44.4c7.5,0,0.7,0,8.2,0s9.2-1.8,9.2-9.2c0-7.5,0-0.7,0-8.2s-1.8-9.2-9.2-9.2c-7.5,0-0.7,0-8.2,0
		s-9.2,1.8-9.2,9.2c0,4.2,0,0.7,0,8.2C205.3,42.6,207,44.4,214.5,44.4z"/>
	<path class="st0" d="M209,62.1c17.4,0,1.7,0,19.1,0s21.5-4.1,21.5-21.5s0-1.7,0-19.1S245.5,0,228.1,0s-1.7,0-19.1,0
		s-21.5,4.1-21.5,21.5c0,9.7,0,1.7,0,19.1S191.6,62.1,209,62.1z M196.4,21.5c0-8.5,1.2-10.5,1.6-11c0.5-0.5,2.6-1.6,11-1.6h19.1
		c8.5,0,10.5,1.2,11,1.6c0.5,0.5,1.6,2.6,1.6,11v19.1c0,8.5-1.2,10.5-1.6,11c-0.5,0.5-2.6,1.6-11,1.6H209c-8.5,0-10.5-1.2-11-1.6
		c-0.5-0.5-1.6-2.6-1.6-11V21.5z"/>
	<path class="st0" d="M40.6,187.5c-17.4,0-1.7,0-19.1,0S0,191.6,0,209c0,9.7,0,1.7,0,19.1s4.1,21.5,21.5,21.5s1.7,0,19.1,0
		s21.5-4.1,21.5-21.5s0-1.7,0-19.1S58,187.5,40.6,187.5z M53.3,228.1c0,8.5-1.2,10.5-1.6,11c-0.5,0.5-2.6,1.6-11,1.6H21.5
		c-8.5,0-10.5-1.2-11-1.6c-0.5-0.5-1.6-2.6-1.6-11V209c0-8.5,1.2-10.5,1.6-11c0.5-0.5,2.6-1.6,11-1.6h19.1c8.5,0,10.5,1.2,11,1.6
		c0.5,0.5,1.6,2.6,1.6,11v19.1H53.3z"/>
	<path class="st0" d="M35.2,205.3c-7.5,0-0.7,0-8.2,0s-9.2,1.8-9.2,9.2c0,4.2,0,0.7,0,8.2s1.8,9.2,9.2,9.2c7.5,0,0.7,0,8.2,0
		s9.2-1.8,9.2-9.2c0-7.5,0-0.7,0-8.2S42.6,205.3,35.2,205.3z"/>
</g>
<path class="st1" d="M135,92.5c-18.2,0-1.8,0-19.9,0c-18.1,0-22.4,4.3-22.5,22.5c0,10.2,0,1.7,0,19.9s4.3,22.5,22.5,22.5
	s1.7,0,19.9,0s22.5-4.3,22.5-22.5s0-1.7,0-19.9S153.2,92.5,135,92.5z M145,138.8h-4.7c-1.8,0-2.3-1.4-5.5-4.6
	c-2.8-2.7-4-3.1-4.7-3.1c-0.9,0-1.2,0.2-1.2,1.6v4.4c0,1.1-0.4,1.8-3.4,1.8c-5,0-10.5-3-14.4-8.6c-5.9-8.2-7.5-14.4-7.5-15.7
	c0-0.7,0.2-1.3,1.6-1.3h4.7c1.2,0,1.6,0.5,2.1,1.8c2.3,6.7,6.2,12.6,7.8,12.6c0.6,0,0.9-0.3,0.9-1.8v-7c-0.2-3.2-1.9-3.5-1.9-4.6
	c0-0.5,0.4-1.1,1.2-1.1h7.4c1.1,0,1.4,0.5,1.4,1.7v9.4c0,1,0.4,1.4,0.7,1.4c0.6,0,1.1-0.4,2.2-1.5c3.4-3.8,5.8-9.7,5.8-9.7
	c0.3-0.7,0.9-1.3,2.1-1.3h4.7c1.4,0,1.7,0.7,1.4,1.7c-0.6,2.7-6.3,10.9-6.4,10.9c-0.5,0.8-0.7,1.2,0,2.1c0.5,0.7,2.2,2.1,3.3,3.4
	c2,2.2,3.6,4.2,4,5.5C147,138,146.3,138.8,145,138.8z"/>
</svg>
