<?xml version="1.0" encoding="utf-8"?>
<!-- Generator: Adobe Illustrator 24.0.1, SVG Export Plug-In . SVG Version: 6.00 Build 0)  -->
<svg version="1.1" id="Слой_1" xmlns="http://www.w3.org/2000/svg" xmlns:xlink="http://www.w3.org/1999/xlink" x="0px" y="0px"
	 viewBox="0 0 250 250" style="enable-background:new 0 0 250 250;" xml:space="preserve">
<style type="text/css">
	.st0{fill-rule:evenodd;clip-rule:evenodd;}
</style>
<g>
	<path d="M71.9,8.9h5.6h0.3h5.6c1.7,0,3-1.4,3-3V3c0-1.7-1.4-3-3-3h-5.6h-0.3h-5.6c-1.7,0-3,1.4-3,3v2.8C68.9,7.5,70.2,8.9,71.9,8.9
		z"/>
	<path d="M115,8.9h5.6h0.3h8.3v5.6c0,1.7,1.4,3,3,3h5.6v5.6c0,1.7,1.4,3,3,3h5.6h0.3h5.6c1.7,0,3-1.4,3-3v-5.6v-0.3v-5.6
		c0-1.7-1.4-3-3-3h-5.6h-0.3h-8.3V3c0-1.7-1.4-3-3-3h-5.6h-0.3h-8.3h-0.3H115c-1.7,0-3,1.4-3,3v2.8C111.9,7.5,113.3,8.9,115,8.9z"/>
	<path d="M157.5,8.9h3.8c1.4,0,2.5-1.1,2.5-2.5V2.5c0-1.4-1.1-2.5-2.5-2.5h-3.8c-1.4,0-2.5,1.1-2.5,2.5v3.8
		C155,7.8,156.1,8.9,157.5,8.9z"/>
	<path d="M174.8,8.9h3.8c1.4,0,2.5-1.1,2.5-2.5V2.5c0-1.4-1.1-2.5-2.5-2.5h-3.8c-1.4,0-2.5,1.1-2.5,2.5v3.8
		C172.2,7.8,173.4,8.9,174.8,8.9z"/>
	<path d="M86.1,14.5c0,1.7,1.4,3,3,3h5.6v5.6c0,1.7,1.4,3,3,3h2.8c1.7,0,3-1.4,3-3v-5.6v-0.3V8.9V8.6V3c0-1.7-1.4-3-3-3h-2.8
		c-1.7,0-3,1.4-3,3v3.8c-0.2,0.9-0.9,1.6-1.8,1.8h-3.8c-1.7,0-3,1.4-3,3V14.5z"/>
	<path d="M71.9,34.7h2.8c1.7,0,3-1.4,3-3v-5.6h5.6c1.7,0,3-1.4,3-3v-2.8c0-1.7-1.4-3-3-3h-5.6h-0.3h-5.6c-1.7,0-3,1.4-3,3v5.6v0.3
		v5.6C68.9,33.4,70.2,34.7,71.9,34.7z"/>
	<path d="M103.3,32.6c-0.2,0.9-0.9,1.6-1.8,1.8H95h-0.3h-8.3h-0.3h-5.6c-1.7,0-3,1.4-3,3v2.8c0,1.7,1.4,3,3,3h5.6h0.3h8.3v5.6
		c0,1.7,1.4,3,3,3h5.6v5.6c0,1.7,1.4,3,3,3h2.8c1.7,0,3-1.4,3-3v-5.6h8.3v8.3v0.3v8.3v0.3v5.6c0,1.7,1.4,3,3,3h2.8c1.7,0,3-1.4,3-3
		v-5.6v-0.3v-8.3v-0.3v-8.3h8.3v8.3v0.3v5.6c0,1.7,1.4,3,3,3h2.8c1.7,0,3-1.4,3-3v-5.6v-0.3v-8.3h8.3v5.6c0,1.7,1.4,3,3,3h2.8
		c1.7,0,3-1.4,3-3v-5.6h5.6c1.7,0,3-1.4,3-3v-2.8c0-1.7-1.4-3-3-3h-5.6v-5.6c0-1.7-1.4-3-3-3h-5.6H155h-8.3h-0.3h-5.6
		c-1.7,0-3,1.4-3,3v3.8c-0.2,0.9-0.9,1.6-1.8,1.8h-6.5h-0.3h-8.3h-0.3h-8.3v-8.3v-0.3v-5.6c0-1.7-1.4-3-3-3h-2.8c-1.7,0-3,1.4-3,3
		V32.6z"/>
	<path d="M163.6,31.7c0,1.7,1.4,3,3,3h5.6h0.3h5.6c1.7,0,3-1.4,3-3v-5.6v-0.3v-5.6c0-1.7-1.4-3-3-3h-2.8c-1.7,0-3,1.4-3,3V24
		c-0.2,0.9-0.9,1.6-1.8,1.8h-3.8c-1.7,0-3,1.4-3,3V31.7z"/>
	<path d="M174.8,60.5h3.8c1.4,0,2.5-1.1,2.5-2.5v-3.8c0-1.4-1.1-2.5-2.5-2.5h-3.8c-1.4,0-2.5,1.1-2.5,2.5V58
		C172.2,59.4,173.4,60.5,174.8,60.5z"/>
	<path d="M67.1,68.9h-6.5h-0.3h-8.3h-0.3h-5.6c-1.7,0-3,1.4-3,3v5.6v0.3v5.6c0,1.7,1.4,3,3,3h2.8c1.7,0,3-1.4,3-3v-5.6h8.3v5.6
		c0,1.7,1.4,3,3,3h5.6h0.3h5.6c1.7,0,3-1.4,3-3v-5.6h8.3v5.6c0,1.7,1.4,3,3,3H92c1.7,0,3-1.4,3-3v-5.6v-0.3v-8.3v-0.3v-8.3v-0.3
		v-5.6c0-1.7-1.4-3-3-3h-2.8c-1.7,0-3,1.4-3,3v3.8c-0.2,0.9-0.9,1.6-1.8,1.8h-6.5v-8.3v-0.3v-5.6c0-1.7-1.4-3-3-3h-2.8
		c-1.7,0-3,1.4-3,3v5.6v0.3v8.3v0.3v6.5C68.7,68,68,68.7,67.1,68.9z"/>
	<path d="M170,60.3h-3.8c-1.4,0-2.5,1.1-2.5,2.5v3.8c0,1.4,1.1,2.5,2.5,2.5h3.8c1.4,0,2.5-1.1,2.5-2.5v-3.8
		C172.5,61.4,171.4,60.3,170,60.3z"/>
	<path d="M15,77.8c1.4,0,2.5-1.1,2.5-2.5v-3.8c0-1.4-1.1-2.5-2.5-2.5h-3.8c-1.4,0-2.5,1.1-2.5,2.5v3.8c0,1.4,1.1,2.5,2.5,2.5H15z"/>
	<path d="M28.4,77.8h3.8c1.4,0,2.5-1.1,2.5-2.5v-3.8c0-1.4-1.1-2.5-2.5-2.5h-3.8c-1.4,0-2.5,1.1-2.5,2.5v3.8
		C25.8,76.6,27,77.8,28.4,77.8z"/>
	<path d="M112.2,71.4c0-1.4-1.1-2.5-2.5-2.5h-3.8c-1.4,0-2.5,1.1-2.5,2.5v3.8c0,1.4,1.1,2.5,2.5,2.5h3.8c1.4,0,2.5-1.1,2.5-2.5V71.4
		z"/>
	<path d="M148.9,77.8h3.8c1.4,0,2.5-1.1,2.5-2.5v-3.8c0-1.4-1.1-2.5-2.5-2.5h-3.8c-1.4,0-2.5,1.1-2.5,2.5v3.8
		C146.4,76.6,147.5,77.8,148.9,77.8z"/>
	<path d="M247,68.9h-2.8c-1.7,0-3,1.4-3,3v5.6v0.3v5.6c0,1.7,1.4,3,3,3h2.8c1.7,0,3-1.4,3-3v-5.6v-0.3v-5.6
		C250,70.2,248.6,68.9,247,68.9z"/>
	<path d="M2.5,86.4h3.8c1.4,0,2.5-1.1,2.5-2.5V80c0-1.4-1.1-2.5-2.5-2.5H2.5C1.1,77.5,0,78.6,0,80v3.8C0,85.3,1.1,86.4,2.5,86.4z"/>
	<path d="M146.7,80.5c0-1.7-1.4-3-3-3h-5.6h-0.3h-5.6c-1.7,0-3,1.4-3,3v2.8c0,1.7,1.4,3,3,3h5.6h0.3h5.6c1.7,0,3-1.4,3-3V80.5z"/>
	<path d="M54.2,95H58c1.4,0,2.5-1.1,2.5-2.5v-3.8c0-1.4-1.1-2.5-2.5-2.5h-3.8c-1.4,0-2.5,1.1-2.5,2.5v3.8C51.7,93.9,52.8,95,54.2,95
		z"/>
	<path d="M218.3,95h2.8c1.7,0,3-1.4,3-3v-5.6v-0.3v-8.3h5.6c1.7,0,3-1.4,3-3v-2.8c0-1.7-1.4-3-3-3h-5.6h-0.3h-5.6c-1.7,0-3,1.4-3,3
		v5.6v0.3v8.3v0.3V92C215.3,93.6,216.6,95,218.3,95z"/>
	<path d="M28.9,103.6h5.6h0.3h5.6c1.7,0,3-1.4,3-3v-2.8c0-1.7-1.4-3-3-3h-5.6v-5.6c0-1.7-1.4-3-3-3h-5.6v-5.6c0-1.7-1.4-3-3-3h-2.8
		c-1.7,0-3,1.4-3,3v3.8c-0.2,0.9-0.9,1.6-1.8,1.8h-3.8c-1.7,0-3,1.4-3,3v5.6V95v8.3v0.3v5.6c0,1.7,1.4,3,3,3h5.6h0.3h5.6
		c1.7,0,3-1.4,3-3v-2.8c0-1.7-1.4-3-3-3h-5.6V95h8.3v5.6C25.8,102.3,27.2,103.6,28.9,103.6z"/>
	<path d="M51.7,109.7c0,1.4,1.1,2.5,2.5,2.5H58c1.4,0,2.5-1.1,2.5-2.5v-3.8c0-1.4-1.1-2.5-2.5-2.5h-3.8c-1.4,0-2.5,1.1-2.5,2.5
		V109.7z"/>
	<path d="M71.9,112.2h5.6h0.3h5.6c1.7,0,3-1.4,3-3v-2.8c0-1.7-1.4-3-3-3h-5.6v-5.6c0-1.7-1.4-3-3-3h-2.8c-1.7,0-3,1.4-3,3v5.6v0.3
		v5.6C68.9,110.9,70.2,112.2,71.9,112.2z"/>
	<path d="M62.8,120.8h3.8c1.4,0,2.5-1.1,2.5-2.5v-3.8c0-1.4-1.1-2.5-2.5-2.5h-3.8c-1.4,0-2.5,1.1-2.5,2.5v3.8
		C60.3,119.7,61.4,120.8,62.8,120.8z"/>
	<path d="M206.9,112.2v-0.3v-8.3h5.6c1.7,0,3-1.4,3-3v-2.8c0-1.7-1.4-3-3-3h-5.6h-0.3h-8.3v-8.3v-0.3v-8.3h5.6c1.7,0,3-1.4,3-3v-2.8
		c0-1.7-1.4-3-3-3h-5.6h-0.3h-8.3h-0.3h-8.3h-0.3h-5.6c-1.7,0-3,1.4-3,3v5.6v0.3v6.5c-0.2,0.9-0.9,1.6-1.8,1.8h-3.8
		c-1.7,0-3,1.4-3,3V92c0,1.7,1.4,3,3,3h5.6v8.3v0.3v6.5c-0.2,0.9-0.9,1.6-1.8,1.8h-3.8c-1.7,0-3,1.4-3,3v2.8c0,1.7,1.4,3,3,3h5.6
		v5.6c0,1.7,1.4,3,3,3h2.8c1.7,0,3-1.4,3-3v-5.6h5.6c1.7,0,3-1.4,3-3V115c0-1.7-1.4-3-3-3h-5.6v-8.3h8.3v5.6c0,1.7,1.4,3,3,3h5.6
		v5.6c0,1.7,1.4,3,3,3h2.8c1.7,0,3-1.4,3-3V112.2z M181.1,86.4v-0.3v-8.3h8.3v8.3v0.3v6.5c-0.2,0.9-0.9,1.6-1.8,1.8h-6.5V86.4z"/>
	<path d="M218.3,120.8h2.8c1.7,0,3-1.4,3-3v-5.6h5.6c1.7,0,3-1.4,3-3v-5.6h5.6c1.7,0,3-1.4,3-3V95v-0.3v-5.6c0-1.7-1.4-3-3-3h-2.8
		c-1.7,0-3,1.4-3,3v3.8c-0.2,0.9-0.9,1.6-1.8,1.8h-3.8c-1.7,0-3,1.4-3,3v3.8c-0.2,0.9-0.9,1.6-1.8,1.8h-3.8c-1.7,0-3,1.4-3,3v5.6
		v0.3v5.6C215.3,119.5,216.6,120.8,218.3,120.8z"/>
	<path d="M247,120.6h-5.6V115c0-1.7-1.4-3-3-3h-2.8c-1.7,0-3,1.4-3,3v5.6v0.3v5.6c0,1.7,1.4,3,3,3h5.6v8.3v0.3v6.5
		c-0.2,0.9-0.9,1.6-1.8,1.8h-6.5h-0.3h-5.6c-1.7,0-3,1.4-3,3v5.6v0.3v5.6c0,1.7,1.4,3,3,3h5.6h0.3h8.3h0.3h5.6c1.7,0,3-1.4,3-3v-5.6
		V155v-8.3v-0.3v-8.3v-0.3v-8.3v-0.3v-5.6C250,121.9,248.6,120.6,247,120.6z"/>
	<path d="M3,138.1h5.6v8.3v0.3v5.6c0,1.7,1.4,3,3,3h5.6v8.3v0.3v8.3v0.3v5.6c0,1.7,1.4,3,3,3h2.8c1.7,0,3-1.4,3-3v-5.6v-0.3v-8.3
		h8.3h0.3h5.6c1.7,0,3-1.4,3-3v-5.6h5.6c1.7,0,3-1.4,3-3v-2.8c0-1.7-1.4-3-3-3h-5.6v-8.3h5.6c1.7,0,3-1.4,3-3v-5.6h5.6
		c1.7,0,3-1.4,3-3v-2.8c0-1.7-1.4-3-3-3h-5.6V115c0-1.7-1.4-3-3-3h-5.6h-0.3h-5.6c-1.7,0-3,1.4-3,3v2.8c0,1.7,1.4,3,3,3h5.6v8.3
		h-5.6c-1.7,0-3,1.4-3,3v3.8c-0.2,0.9-0.9,1.6-1.8,1.8h-3.8c-1.7,0-3,1.4-3,3v2.8c0,1.7,1.4,3,3,3h5.6v6.5c-0.2,0.9-0.9,1.6-1.8,1.8
		h-6.5v-5.6c0-1.7-1.4-3-3-3h-5.6v-8.3h5.6c1.7,0,3-1.4,3-3v-5.6v-0.3v-5.6c0-1.7-1.4-3-3-3h-5.6h-0.3H8.9V115c0-1.7-1.4-3-3-3H3
		c-1.7,0-3,1.4-3,3v5.6v0.3v8.3v0.3v5.6C0,136.7,1.4,138.1,3,138.1z"/>
	<path d="M80,138.1h3.8c1.4,0,2.5-1.1,2.5-2.5v-3.8c0-1.4-1.1-2.5-2.5-2.5H80c-1.4,0-2.5,1.1-2.5,2.5v3.8
		C77.5,136.9,78.6,138.1,80,138.1z"/>
	<path d="M170,129.2h-3.8c-1.4,0-2.5,1.1-2.5,2.5v3.8c0,1.4,1.1,2.5,2.5,2.5h3.8c1.4,0,2.5-1.1,2.5-2.5v-3.8
		C172.5,130.3,171.4,129.2,170,129.2z"/>
	<path d="M192.5,138.1h5.6h0.3h5.6c1.7,0,3-1.4,3-3v-2.8c0-1.7-1.4-3-3-3h-5.6v-5.6c0-1.7-1.4-3-3-3h-2.8c-1.7,0-3,1.4-3,3v5.6v0.3
		v5.6C189.5,136.7,190.8,138.1,192.5,138.1z"/>
	<path d="M189.7,140.3c0-1.4-1.1-2.5-2.5-2.5h-3.8c-1.4,0-2.5,1.1-2.5,2.5v3.8c0,1.4,1.1,2.5,2.5,2.5h3.8c1.4,0,2.5-1.1,2.5-2.5
		V140.3z"/>
	<path d="M2.5,163.9h3.8c1.4,0,2.5-1.1,2.5-2.5v-3.8c0-1.4-1.1-2.5-2.5-2.5H2.5c-1.4,0-2.5,1.1-2.5,2.5v3.8
		C0,162.8,1.1,163.9,2.5,163.9z"/>
	<path d="M183.4,155c-1.4,0-2.5,1.1-2.5,2.5v3.8c0,1.4,1.1,2.5,2.5,2.5h3.8c1.4,0,2.5-1.1,2.5-2.5v-3.8c0-1.4-1.1-2.5-2.5-2.5H183.4
		z"/>
	<path d="M2.5,181.1h3.8c1.4,0,2.5-1.1,2.5-2.5v-3.8c0-1.4-1.1-2.5-2.5-2.5H2.5c-1.4,0-2.5,1.1-2.5,2.5v3.8
		C0,180,1.1,181.1,2.5,181.1z"/>
	<path d="M69.2,172.5h8.3h0.3h5.6c1.7,0,3-1.4,3-3v-5.6v-0.3V158c0-1.7-1.4-3-3-3h-5.6v-8.3v-0.3v-5.6c0-1.7-1.4-3-3-3h-5.6h-0.3
		h-8.3h-0.3h-5.6c-1.7,0-3,1.4-3,3v2.8c0,1.7,1.4,3,3,3h5.6v8.3h-5.6c-1.7,0-3,1.4-3,3v2.8c0,1.7,1.4,3,3,3h5.6v6.5
		c-0.2,0.9-0.9,1.6-1.8,1.8h-6.5v-5.6c0-1.7-1.4-3-3-3h-2.8c-1.7,0-3,1.4-3,3v3.8c-0.2,0.9-0.9,1.6-1.8,1.8h-3.8c-1.7,0-3,1.4-3,3
		v2.8c0,1.7,1.4,3,3,3h5.6h0.3h8.3h0.3h8.3h0.3h5.6c1.7,0,3-1.4,3-3V172.5z"/>
	<path d="M86.1,178.6c0,1.4,1.1,2.5,2.5,2.5h3.8c1.4,0,2.5-1.1,2.5-2.5v-3.8c0-1.4-1.1-2.5-2.5-2.5h-3.8c-1.4,0-2.5,1.1-2.5,2.5
		V178.6z"/>
	<path d="M106.4,181.1h2.8c1.7,0,3-1.4,3-3v-5.6v-0.3v-5.6c0-1.7-1.4-3-3-3h-5.6h-0.3h-5.6c-1.7,0-3,1.4-3,3v2.8c0,1.7,1.4,3,3,3
		h5.6v5.6C103.3,179.8,104.7,181.1,106.4,181.1z"/>
	<path d="M97.3,189.7h3.8c1.4,0,2.5-1.1,2.5-2.5v-3.8c0-1.4-1.1-2.5-2.5-2.5h-3.8c-1.4,0-2.5,1.1-2.5,2.5v3.8
		C94.7,188.6,95.9,189.7,97.3,189.7z"/>
	<path d="M146.7,180.8v-5.6c0-1.7-1.4-3-3-3h-5.6h-0.3h-8.3v-5.6c0-1.7-1.4-3-3-3h-2.8c-1.7,0-3,1.4-3,3v5.6v0.3v5.6
		c0,1.7,1.4,3,3,3h5.6h0.3h8.3v8.3v0.3v8.3v0.3v5.6c0,1.7,1.4,3,3,3h5.6h0.3h5.6c1.7,0,3-1.4,3-3v-5.6v-0.3v-5.6c0-1.7-1.4-3-3-3
		h-5.6v-8.3V180.8z"/>
	<path d="M247,180.8h-5.6h-0.3h-5.6c-1.7,0-3,1.4-3,3v3.8c-0.2,0.9-0.9,1.6-1.8,1.8h-6.5h-0.3h-8.3v-8.3h8.3h0.3h5.6
		c1.7,0,3-1.4,3-3v-2.8c0-1.7-1.4-3-3-3h-5.6v-5.6c0-1.7-1.4-3-3-3h-2.8c-1.7,0-3,1.4-3,3v3.8c-0.2,0.9-0.9,1.6-1.8,1.8h-6.5v-8.3
		h5.6c1.7,0,3-1.4,3-3V158c0-1.7-1.4-3-3-3h-5.6v-5.6c0-1.7-1.4-3-3-3h-5.6h-0.3h-5.6c-1.7,0-3,1.4-3,3v2.8c0,1.7,1.4,3,3,3h5.6v8.3
		v0.3v6.5c-0.2,0.9-0.9,1.6-1.8,1.8h-6.5h-0.3h-8.3v-5.6c0-1.7-1.4-3-3-3h-5.6h-0.3h-8.3h-0.3h-8.3H155h-5.6c-1.7,0-3,1.4-3,3v2.8
		c0,1.7,1.4,3,3,3h5.6h0.3h8.3v8.3v0.3v5.6c0,1.7,1.4,3,3,3h5.6v8.3v0.3v8.3v0.3v6.5c-0.2,0.9-0.9,1.6-1.8,1.8h-3.8
		c-1.7,0-3,1.4-3,3v5.6v0.3v6.5c-0.2,0.9-0.9,1.6-1.8,1.8h-6.5v-5.6c0-1.7-1.4-3-3-3h-2.8c-1.7,0-3,1.4-3,3v5.6v0.3v8.3v0.3v5.6
		c0,1.7,1.4,3,3,3h5.6h0.3h5.6c1.7,0,3-1.4,3-3v-5.6h8.3v5.6c0,1.7,1.4,3,3,3h2.8c1.7,0,3-1.4,3-3v-5.6h5.6c1.7,0,3-1.4,3-3v-2.8
		c0-1.7-1.4-3-3-3h-5.6v-8.3h8.3h0.3h5.6c1.7,0,3-1.4,3-3v-5.6h8.3v8.3v0.3v5.6c0,1.7,1.4,3,3,3h2.8c1.7,0,3-1.4,3-3v-5.6v-0.3v-8.3
		h5.6c1.7,0,3-1.4,3-3v-2.8c0-1.7-1.4-3-3-3h-5.6v-8.3h8.3v5.6c0,1.7,1.4,3,3,3h2.8c1.7,0,3-1.4,3-3v-5.6h5.6c1.7,0,3-1.4,3-3v-5.6
		h5.6c1.7,0,3-1.4,3-3v-2.8C250,182.2,248.6,180.8,247,180.8z M198.1,206.7h-8.3h-0.3h-8.3v-8.3v-0.3v-8.3v-0.3v-8.3h8.3h0.3h8.3
		h0.3h8.3v8.3v0.3v8.3v0.3v6.5c-0.2,0.9-0.9,1.6-1.8,1.8h-6.5H198.1z"/>
	<path d="M195.8,189.5H192c-1.4,0-2.5,1.1-2.5,2.5v3.8c0,1.4,1.1,2.5,2.5,2.5h3.8c1.4,0,2.5-1.1,2.5-2.5V192
		C198.3,190.6,197.2,189.5,195.8,189.5z"/>
	<path d="M86.4,206.9h8.3H95h5.6c1.7,0,3-1.4,3-3v-2.8c0-1.7-1.4-3-3-3H95v-5.6c0-1.7-1.4-3-3-3h-2.8c-1.7,0-3,1.4-3,3v3.8
		c-0.2,0.9-0.9,1.6-1.8,1.8h-6.5v-8.3v-0.3v-5.6c0-1.7-1.4-3-3-3h-2.8c-1.7,0-3,1.4-3,3v5.6v0.3v8.3v0.3v5.6c0,1.7,1.4,3,3,3h5.6
		v5.6c0,1.7,1.4,3,3,3h2.8c1.7,0,3-1.4,3-3V206.9z"/>
	<path d="M247,206.7h-5.6h-0.3h-5.6c-1.7,0-3,1.4-3,3v2.8c0,1.7,1.4,3,3,3h5.6v8.3v0.3v5.6c0,1.7,1.4,3,3,3h2.8c1.7,0,3-1.4,3-3
		v-5.6v-0.3v-8.3v-0.3v-5.6C250,208,248.6,206.7,247,206.7z"/>
	<path d="M75.2,215.3h-3.8c-1.4,0-2.5,1.1-2.5,2.5v3.8c0,1.4,1.1,2.5,2.5,2.5h3.8c1.4,0,2.5-1.1,2.5-2.5v-3.8
		C77.8,216.4,76.6,215.3,75.2,215.3z"/>
	<path d="M146.7,218.3c0-1.7-1.4-3-3-3h-5.6v-5.6c0-1.7-1.4-3-3-3h-2.8c-1.7,0-3,1.4-3,3v5.6v0.3v5.6c0,1.7,1.4,3,3,3h5.6h0.3h5.6
		c1.7,0,3-1.4,3-3V218.3z"/>
	<path d="M232.8,226.4c0-1.4-1.1-2.5-2.5-2.5h-3.8c-1.4,0-2.5,1.1-2.5,2.5v3.8c0,1.4,1.1,2.5,2.5,2.5h3.8c1.4,0,2.5-1.1,2.5-2.5
		V226.4z"/>
	<path d="M75.2,232.5h-3.8c-1.4,0-2.5,1.1-2.5,2.5v3.8c0,1.4,1.1,2.5,2.5,2.5h3.8c1.4,0,2.5-1.1,2.5-2.5V235
		C77.8,233.6,76.6,232.5,75.2,232.5z"/>
	<path d="M135,232.5h-5.6v-5.6c0-1.7-1.4-3-3-3h-2.8c-1.7,0-3,1.4-3,3v5.6v0.3v5.6c0,1.7,1.4,3,3,3h5.6h0.3h5.6c1.7,0,3-1.4,3-3
		v-2.8C138.1,233.9,136.7,232.5,135,232.5z"/>
	<path d="M207,235c0-1.4-1.1-2.5-2.5-2.5h-3.8c-1.4,0-2.5,1.1-2.5,2.5v3.8c0,1.4,1.1,2.5,2.5,2.5h3.8c1.4,0,2.5-1.1,2.5-2.5V235z"/>
	<path d="M238.4,232.5h-2.8c-1.7,0-3,1.4-3,3v5.6v0.3v5.6c0,1.7,1.4,3,3,3h2.8c1.7,0,3-1.4,3-3v-5.6v-0.3v-5.6
		C241.4,233.9,240,232.5,238.4,232.5z"/>
	<path d="M117.8,241.1h-5.6v-5.6c0-1.7-1.4-3-3-3h-5.6v-8.3h5.6c1.7,0,3-1.4,3-3v-5.6h5.6c1.7,0,3-1.4,3-3v-5.6v-0.3v-8.3h5.6
		c1.7,0,3-1.4,3-3v-2.8c0-1.7-1.4-3-3-3h-5.6h-0.3H115c-1.7,0-3,1.4-3,3v5.6v0.3v6.5c-0.2,0.9-0.9,1.6-1.8,1.8h-3.8
		c-1.7,0-3,1.4-3,3v3.8c-0.2,0.9-0.9,1.6-1.8,1.8H95h-0.3h-5.6c-1.7,0-3,1.4-3,3v2.8c0,1.7,1.4,3,3,3h5.6v8.3h-5.6c-1.7,0-3,1.4-3,3
		v5.6v0.3v5.6c0,1.7,1.4,3,3,3H92c1.7,0,3-1.4,3-3v-5.6h8.3v5.6c0,1.7,1.4,3,3,3h5.6h0.3h5.6c1.7,0,3-1.4,3-3v-2.8
		C120.8,242.5,119.5,241.1,117.8,241.1z"/>
	<path d="M221.1,241.1h-5.6h-0.3h-5.6c-1.7,0-3,1.4-3,3v2.8c0,1.7,1.4,3,3,3h5.6h0.3h5.6c1.7,0,3-1.4,3-3v-2.8
		C224.2,242.5,222.8,241.1,221.1,241.1z"/>
	<path d="M27,44.4c7.5,0,0.7,0,8.2,0c7.5,0,9.2-1.8,9.2-9.2c0-7.5,0-0.7,0-8.2c0-7.5-1.8-9.2-9.2-9.2c-7.5,0-0.7,0-8.2,0
		c-7.5,0-9.2,1.8-9.2,9.2c0,4.2,0,0.7,0,8.2C17.8,42.6,19.5,44.4,27,44.4z"/>
	<path d="M21.5,62.1c17.4,0,1.7,0,19.1,0c17.4,0,21.5-4.1,21.5-21.5c0-17.4,0-1.7,0-19.1C62.1,4.1,58,0,40.6,0c-17.4,0-1.7,0-19.1,0
		C4.1,0,0,4.1,0,21.5c0,9.7,0,1.7,0,19.1C0,58,4.1,62.1,21.5,62.1z M8.9,21.5c0-8.5,1.2-10.5,1.6-11c0.5-0.5,2.6-1.6,11-1.6h19.1
		c8.5,0,10.5,1.2,11,1.6c0.5,0.5,1.6,2.6,1.6,11v19.1c0,8.5-1.2,10.5-1.6,11c-0.5,0.5-2.6,1.6-11,1.6H21.5c-8.5,0-10.5-1.2-11-1.6
		c-0.5-0.5-1.6-2.6-1.6-11V21.5z"/>
	<path d="M214.5,44.4c7.5,0,0.7,0,8.2,0c7.5,0,9.2-1.8,9.2-9.2c0-7.5,0-0.7,0-8.2c0-7.5-1.8-9.2-9.2-9.2c-7.5,0-0.7,0-8.2,0
		c-7.5,0-9.2,1.8-9.2,9.2c0,4.2,0,0.7,0,8.2C205.3,42.6,207,44.4,214.5,44.4z"/>
	<path d="M209,62.1c17.4,0,1.7,0,19.1,0c17.4,0,21.5-4.1,21.5-21.5c0-17.4,0-1.7,0-19.1c0-17.4-4.1-21.5-21.5-21.5
		c-17.4,0-1.7,0-19.1,0c-17.4,0-21.5,4.1-21.5,21.5c0,9.7,0,1.7,0,19.1C187.5,58,191.6,62.1,209,62.1z M196.4,21.5
		c0-8.5,1.2-10.5,1.6-11c0.5-0.5,2.6-1.6,11-1.6h19.1c8.5,0,10.5,1.2,11,1.6c0.5,0.5,1.6,2.6,1.6,11v19.1c0,8.5-1.2,10.5-1.6,11
		c-0.5,0.5-2.6,1.6-11,1.6H209c-8.5,0-10.5-1.2-11-1.6c-0.5-0.5-1.6-2.6-1.6-11V21.5z"/>
	<path d="M40.6,187.5c-17.4,0-1.7,0-19.1,0C4.1,187.5,0,191.6,0,209c0,9.7,0,1.7,0,19.1c0,17.4,4.1,21.5,21.5,21.5
		c17.4,0,1.7,0,19.1,0c17.4,0,21.5-4.1,21.5-21.5c0-17.4,0-1.7,0-19.1C62.1,191.6,58,187.5,40.6,187.5z M53.3,228.1
		c0,8.5-1.2,10.5-1.6,11c-0.5,0.5-2.6,1.6-11,1.6H21.5c-8.5,0-10.5-1.2-11-1.6c-0.5-0.5-1.6-2.6-1.6-11V209c0-8.5,1.2-10.5,1.6-11
		c0.5-0.5,2.6-1.6,11-1.6h19.1c8.5,0,10.5,1.2,11,1.6c0.5,0.5,1.6,2.6,1.6,11V228.1z"/>
	<path d="M35.2,205.3c-7.5,0-0.7,0-8.2,0c-7.5,0-9.2,1.8-9.2,9.2c0,4.2,0,0.7,0,8.2c0,7.5,1.8,9.2,9.2,9.2c7.5,0,0.7,0,8.2,0
		c7.5,0,9.2-1.8,9.2-9.2c0-7.5,0-0.7,0-8.2C44.4,207,42.6,205.3,35.2,205.3z"/>
</g>
<path class="st0" d="M135.2,92.9c-18.1,0-1.7,0-19.9,0c-18.1,0-22.5,4.3-22.5,22.5c0,10.1,0,1.7,0,19.9s4.3,22.5,22.5,22.5
	c18.1,0,1.7,0,19.9,0s22.5-4.3,22.5-22.5s0-1.7,0-19.9C157.7,97.2,153.3,92.9,135.2,92.9z M106.9,125.4c-1.4-1.9-1.5-4-0.5-6
	c1.1-2.1,2.9-3.1,5.1-3.1c1.4,0.1,2.7,0.5,3.7,1.4c1.3,1.2,2.6,2.4,3.8,3.7c1.7,1.8,1.1,4.1-1.2,4.9c-1.7,0.6-3.5,1.1-5.3,1.5
	C110.2,128.1,108.2,127.2,106.9,125.4z M124,136.1c-0.1,1.3-0.1,3-0.4,4.5c-0.6,3.6-3.6,6.1-7.3,6.3c-3.3,0.2-6.6-2.2-7.7-5.5
	c-1-3.2,0.2-6.9,3.1-8.7c2.2-1.3,4.5-2.6,6.8-3.6c2.8-1.3,5.4,0.5,5.4,3.6C124,133.7,124,134.8,124,136.1z M121.9,119.4
	c-1.9-2.2-3.7-4.6-4.8-7.3c-0.3-0.7-0.3-1.4-0.3-1.7c0-3.4,1.5-5.8,4.2-6.8c2.6-1,5.1-0.7,7.2,1.2c2.2,2,3,4.7,2,7.4
	c-0.9,2.2-2,4.4-3.2,6.5C125.9,120.5,123.3,121,121.9,119.4z M135.5,144.7c-3.2,0.5-6.6-1.6-7.5-4.9c-0.8-2.6-1-5.4-1-8.1
	c0-2.3,2.2-3.7,4.4-3c2.3,0.8,4.5,1.8,6.7,2.8c2.3,1.1,3.6,3.6,3.6,6.2C141.7,141.2,139.1,144.2,135.5,144.7z M147.7,121
	c-1,3.6-4.1,5.8-8.7,5.6c-1.9-0.3-4.4-0.5-7-1c-2.8-0.6-4-3.6-2.4-5.9c1.5-2.2,3.1-4.3,4.9-6.3c2.4-2.7,6.3-3.1,9.5-1.2
	C147.2,114,148.7,117.7,147.7,121z"/>
</svg>
