<?xml version="1.0" encoding="utf-8"?>
<!-- Generator: Adobe Illustrator 24.0.1, SVG Export Plug-In . SVG Version: 6.00 Build 0)  -->
<svg version="1.1" id="Слой_1" xmlns="http://www.w3.org/2000/svg" xmlns:xlink="http://www.w3.org/1999/xlink" x="0px" y="0px"
	 viewBox="0 0 250 250" style="enable-background:new 0 0 250 250;" xml:space="preserve">
<style type="text/css">
	.st0{fill-rule:evenodd;clip-rule:evenodd;}
</style>
<g>
	<path d="M131.7,8.9h3.8c1.4,0,2.5-1.1,2.5-2.5V2.5c0-1.4-1.1-2.5-2.5-2.5h-3.8c-1.4,0-2.5,1.1-2.5,2.5v3.8
		C129.2,7.8,130.3,8.9,131.7,8.9z"/>
	<path d="M71.9,34.7h2.8c1.7,0,3-1.4,3-3v-5.6h8.3v5.6c0,1.7,1.4,3,3,3h5.6H95h5.6c1.7,0,3-1.4,3-3v-5.6h8.3h0.3h8.3v5.6
		c0,1.7,1.4,3,3,3h5.6v8.3v0.3v5.6c0,1.7,1.4,3,3,3h5.6v5.6c0,1.7,1.4,3,3,3h2.8c1.7,0,3-1.4,3-3v-5.6v-0.3v-8.3v-0.3v-5.6
		c0-1.7-1.4-3-3-3H138v-8.3h8.3h0.3h8.3v8.3v0.3v5.6c0,1.7,1.4,3,3,3h2.8c1.7,0,3-1.4,3-3v-5.6v-0.3v-8.3h8.3h0.3h5.6
		c1.7,0,3-1.4,3-3v-2.8c0-1.7-1.4-3-3-3h-5.6v-5.6c0-1.7-1.4-3-3-3h-5.6V3c0-1.7-1.4-3-3-3h-5.6H155h-5.6c-1.7,0-3,1.4-3,3v2.8
		c0,1.7,1.4,3,3,3h5.6v8.3h-8.3h-0.3H138h-0.3h-8.3v-5.6c0-1.7-1.4-3-3-3h-2.8c-1.7,0-3,1.4-3,3v3.8c-0.2,0.9-0.9,1.6-1.8,1.8h-6.5
		V8.9V8.6V3c0-1.7-1.4-3-3-3h-2.8c-1.7,0-3,1.4-3,3v5.6v0.3v6.5c-0.2,0.9-0.9,1.6-1.8,1.8H95h-0.3h-8.3V8.9V8.6V3c0-1.7-1.4-3-3-3
		h-5.6h-0.3h-5.6c-1.7,0-3,1.4-3,3v2.8c0,1.7,1.4,3,3,3h5.6v8.3h-5.6c-1.7,0-3,1.4-3,3v5.6v0.3v5.6C68.9,33.4,70.2,34.7,71.9,34.7z"
		/>
	<path d="M86.4,37c0-1.4-1.1-2.5-2.5-2.5H80c-1.4,0-2.5,1.1-2.5,2.5v3.8c0,1.4,1.1,2.5,2.5,2.5h3.8c1.4,0,2.5-1.1,2.5-2.5V37z"/>
	<path d="M97.3,51.9h3.8c1.4,0,2.5-1.1,2.5-2.5v-3.8c0-1.4-1.1-2.5-2.5-2.5h-3.8c-1.4,0-2.5,1.1-2.5,2.5v3.8
		C94.7,50.8,95.9,51.9,97.3,51.9z"/>
	<path d="M129.4,54.2c0-1.4-1.1-2.5-2.5-2.5h-3.8c-1.4,0-2.5,1.1-2.5,2.5V58c0,1.4,1.1,2.5,2.5,2.5h3.8c1.4,0,2.5-1.1,2.5-2.5V54.2z
		"/>
	<path d="M67.1,68.9h-6.5h-0.3h-8.3h-0.3h-5.6c-1.7,0-3,1.4-3,3v2.8c0,1.7,1.4,3,3,3h5.6h0.3h8.3v8.3h-8.3h-0.3h-8.3v-5.6
		c0-1.7-1.4-3-3-3h-5.6v-5.6c0-1.7-1.4-3-3-3h-2.8c-1.7,0-3,1.4-3,3v3.8c-0.2,0.9-0.9,1.6-1.8,1.8h-3.8c-1.7,0-3,1.4-3,3v5.6v0.3
		v8.3V95v5.6c0,1.7,1.4,3,3,3h2.8c1.7,0,3-1.4,3-3V95h8.3h0.3h8.3v5.6c0,1.7,1.4,3,3,3h2.8c1.7,0,3-1.4,3-3V95h8.3v8.3h-5.6
		c-1.7,0-3,1.4-3,3v2.8c0,1.7,1.4,3,3,3h5.6v8.3h-5.6c-1.7,0-3,1.4-3,3v2.8c0,1.7,1.4,3,3,3h5.6v8.3h-5.6c-1.7,0-3,1.4-3,3v2.8
		c0,1.7,1.4,3,3,3h5.6h0.3h5.6c1.7,0,3-1.4,3-3v-5.6h8.3v8.3h-5.6c-1.7,0-3,1.4-3,3v3.8c-0.2,0.9-0.9,1.6-1.8,1.8h-6.5h-0.3h-8.3
		v-5.6c0-1.7-1.4-3-3-3h-5.6v-5.6c0-1.7-1.4-3-3-3h-5.6h-0.3h-8.3h-0.3h-5.6c-1.7,0-3,1.4-3,3v3.8c-0.2,0.9-0.9,1.6-1.8,1.8h-3.8
		c-1.7,0-3,1.4-3,3v2.8c0,1.7,1.4,3,3,3h5.6h0.3h8.3h0.3h8.3v8.3h-8.3h-0.3h-5.6c-1.7,0-3,1.4-3,3v5.6v0.3v5.6c0,1.7,1.4,3,3,3h2.8
		c1.7,0,3-1.4,3-3v-5.6h8.3h0.3h5.6c1.7,0,3-1.4,3-3v-5.6h8.3h0.3h8.3h0.3h8.3h0.3h8.3v8.3v0.3v5.6c0,1.7,1.4,3,3,3h2.8
		c1.7,0,3-1.4,3-3v-5.6v-0.3v-8.3v-0.3v-8.3V155v-8.3v-0.3v-8.3v-0.3v-8.3v-0.3v-5.6c0-1.7-1.4-3-3-3h-2.8c-1.7,0-3,1.4-3,3v3.8
		c-0.2,0.9-0.9,1.6-1.8,1.8h-6.5v-8.3h5.6c1.7,0,3-1.4,3-3v-5.6v-0.3v-8.3h5.6c1.7,0,3-1.4,3-3v-2.8c0-1.7-1.4-3-3-3h-5.6h-0.3h-8.3
		v-8.3h8.3h0.3h8.3h0.3h8.3H95h8.3h0.3h8.3h0.3h5.6c1.7,0,3-1.4,3-3v-5.6h5.6c1.7,0,3-1.4,3-3v-2.8c0-1.7-1.4-3-3-3h-5.6h-0.3H115
		c-1.7,0-3,1.4-3,3v3.8c-0.2,0.9-0.9,1.6-1.8,1.8h-6.5h-0.3H95h-0.3h-8.3v-5.6c0-1.7-1.4-3-3-3h-5.6v-8.3v-0.3v-8.3v-0.3v-5.6
		c0-1.7-1.4-3-3-3h-2.8c-1.7,0-3,1.4-3,3v5.6v0.3v8.3v0.3v6.5C68.7,68,68,68.7,67.1,68.9z"/>
	<path d="M89.1,69.2H92c1.7,0,3-1.4,3-3v-5.6v-0.3v-5.6c0-1.7-1.4-3-3-3h-2.8c-1.7,0-3,1.4-3,3v5.6v0.3v5.6
		C86.1,67.8,87.5,69.2,89.1,69.2z"/>
	<path d="M106.4,69.2h2.8c1.7,0,3-1.4,3-3v-5.6v-0.3v-5.6c0-1.7-1.4-3-3-3h-2.8c-1.7,0-3,1.4-3,3v5.6v0.3v5.6
		C103.3,67.8,104.7,69.2,106.4,69.2z"/>
	<path d="M131.7,69.2h3.8c1.4,0,2.5-1.1,2.5-2.5v-3.8c0-1.4-1.1-2.5-2.5-2.5h-3.8c-1.4,0-2.5,1.1-2.5,2.5v3.8
		C129.2,68,130.3,69.2,131.7,69.2z"/>
	<path d="M172.2,60.5v5.6c0,1.7,1.4,3,3,3h2.8c1.7,0,3-1.4,3-3v-5.6v-0.3v-8.3v-0.3v-8.3v-0.3v-5.6c0-1.7-1.4-3-3-3h-2.8
		c-1.7,0-3,1.4-3,3v3.8c-0.2,0.9-0.9,1.6-1.8,1.8h-3.8c-1.7,0-3,1.4-3,3v2.8c0,1.7,1.4,3,3,3h5.6v8.3V60.5z"/>
	<path d="M17.5,71.4c0-1.4-1.1-2.5-2.5-2.5h-3.8c-1.4,0-2.5,1.1-2.5,2.5v3.8c0,1.4,1.1,2.5,2.5,2.5H15c1.4,0,2.5-1.1,2.5-2.5V71.4z"
		/>
	<path d="M180.8,74.8c0,1.7,1.4,3,3,3h5.6v8.3v0.3v6.5c-0.2,0.9-0.9,1.6-1.8,1.8h-3.8c-1.7,0-3,1.4-3,3v2.8c0,1.7,1.4,3,3,3h5.6v5.6
		c0,1.7,1.4,3,3,3h5.6v5.6c0,1.7,1.4,3,3,3h2.8c1.7,0,3-1.4,3-3v-5.6v-0.3v-5.6c0-1.7-1.4-3-3-3h-5.6V95h5.6c1.7,0,3-1.4,3-3v-2.8
		c0-1.7-1.4-3-3-3h-5.6v-8.3h5.6c1.7,0,3-1.4,3-3v-2.8c0-1.7-1.4-3-3-3h-5.6h-0.3h-8.3h-0.3h-5.6c-1.7,0-3,1.4-3,3V74.8z"/>
	<path d="M218.3,77.8h5.6h0.3h5.6c1.7,0,3-1.4,3-3v-2.8c0-1.7-1.4-3-3-3h-5.6h-0.3h-5.6c-1.7,0-3,1.4-3,3v2.8
		C215.3,76.4,216.6,77.8,218.3,77.8z"/>
	<path d="M129.2,83.4c0,1.7,1.4,3,3,3h5.6h0.3h5.6c1.7,0,3-1.4,3-3v-5.6h8.3v5.6c0,1.7,1.4,3,3,3h5.6v8.3V95v5.6c0,1.7,1.4,3,3,3
		h2.8c1.7,0,3-1.4,3-3V95h5.6c1.7,0,3-1.4,3-3v-2.8c0-1.7-1.4-3-3-3h-5.6v-5.6c0-1.7-1.4-3-3-3h-5.6v-8.3v-0.3v-8.3v-0.3v-5.6
		c0-1.7-1.4-3-3-3H158c-1.7,0-3,1.4-3,3v3.8c-0.2,0.9-0.9,1.6-1.8,1.8h-3.8c-1.7,0-3,1.4-3,3v3.8c-0.2,0.9-0.9,1.6-1.8,1.8h-3.8
		c-1.7,0-3,1.4-3,3v3.8c-0.2,0.9-0.9,1.6-1.8,1.8h-3.8c-1.7,0-3,1.4-3,3V83.4z"/>
	<path d="M250,77.8v-0.3v-5.6c0-1.7-1.4-3-3-3h-2.8c-1.7,0-3,1.4-3,3v5.6v0.3v5.6c0,1.7,1.4,3,3,3h2.8c1.7,0,3-1.4,3-3V77.8z"/>
	<path d="M215.3,92c0,1.7,1.4,3,3,3h5.6v5.6c0,1.7,1.4,3,3,3h5.6h0.3h5.6c1.7,0,3-1.4,3-3V95v-0.3v-5.6c0-1.7-1.4-3-3-3h-5.6h-0.3
		h-8.3h-0.3h-5.6c-1.7,0-3,1.4-3,3V92z"/>
	<path d="M3,112.2h5.6h0.3h5.6c1.7,0,3-1.4,3-3v-2.8c0-1.7-1.4-3-3-3H8.9v-5.6c0-1.7-1.4-3-3-3H3c-1.7,0-3,1.4-3,3v5.6v0.3v5.6
		C0,110.9,1.4,112.2,3,112.2z"/>
	<path d="M40.3,103.3h-5.6h-0.3h-5.6c-1.7,0-3,1.4-3,3v2.8c0,1.7,1.4,3,3,3h5.6h0.3h5.6c1.7,0,3-1.4,3-3v-2.8
		C43.3,104.7,42,103.3,40.3,103.3z"/>
	<path d="M215.3,111.9v0.3v5.6c0,1.7,1.4,3,3,3h2.8c1.7,0,3-1.4,3-3v-5.6v-0.3v-5.6c0-1.7-1.4-3-3-3h-2.8c-1.7,0-3,1.4-3,3V111.9z"
		/>
	<path d="M23.1,111.9h-2.8c-1.7,0-3,1.4-3,3v3.8c-0.2,0.9-0.9,1.6-1.8,1.8h-3.8c-1.7,0-3,1.4-3,3v2.8c0,1.7,1.4,3,3,3h5.6h0.3h8.3
		h0.3h8.3h0.3h5.6c1.7,0,3-1.4,3-3v-2.8c0-1.7-1.4-3-3-3h-5.6h-0.3h-8.3V115C26.1,113.3,24.7,111.9,23.1,111.9z"/>
	<path d="M186.7,111.9h-5.6h-0.3h-8.3h-0.3h-5.6c-1.7,0-3,1.4-3,3v2.8c0,1.7,1.4,3,3,3h5.6h0.3h8.3h0.3h5.6c1.7,0,3-1.4,3-3V115
		C189.7,113.3,188.4,111.9,186.7,111.9z"/>
	<path d="M189.4,126.9c0,1.4,1.1,2.5,2.5,2.5h3.8c1.4,0,2.5-1.1,2.5-2.5v-3.8c0-1.4-1.1-2.5-2.5-2.5H192c-1.4,0-2.5,1.1-2.5,2.5
		V126.9z"/>
	<path d="M43.1,135.5c0,1.4,1.1,2.5,2.5,2.5h3.8c1.4,0,2.5-1.1,2.5-2.5v-3.8c0-1.4-1.1-2.5-2.5-2.5h-3.8c-1.4,0-2.5,1.1-2.5,2.5
		V135.5z"/>
	<path d="M250,129.4v-0.3v-8.3v-0.3V115c0-1.7-1.4-3-3-3h-2.8c-1.7,0-3,1.4-3,3v3.8c-0.2,0.9-0.9,1.6-1.8,1.8h-3.8c-1.7,0-3,1.4-3,3
		v5.6v0.3v5.6c0,1.7,1.4,3,3,3h5.6h0.3h5.6c1.7,0,3-1.4,3-3V129.4z"/>
	<path d="M2.5,146.7h3.8c1.4,0,2.5-1.1,2.5-2.5v-3.8c0-1.4-1.1-2.5-2.5-2.5H2.5c-1.4,0-2.5,1.1-2.5,2.5v3.8
		C0,145.5,1.1,146.7,2.5,146.7z"/>
	<path d="M2.5,163.9h3.8c1.4,0,2.5-1.1,2.5-2.5v-3.8c0-1.4-1.1-2.5-2.5-2.5H2.5c-1.4,0-2.5,1.1-2.5,2.5v3.8
		C0,162.8,1.1,163.9,2.5,163.9z"/>
	<path d="M175.2,163.9h5.6h0.3h5.6c1.7,0,3-1.4,3-3v-5.6h8.3h0.3h5.6c1.7,0,3-1.4,3-3v-5.6v-0.3v-8.3v-0.3v-5.6c0-1.7-1.4-3-3-3
		h-2.8c-1.7,0-3,1.4-3,3v5.6v0.3v6.5c-0.2,0.9-0.9,1.6-1.8,1.8h-6.5v-8.3v-0.3v-5.6c0-1.7-1.4-3-3-3h-5.6h-0.3h-8.3h-0.3h-5.6
		c-1.7,0-3,1.4-3,3v5.6v0.3v5.6c0,1.7,1.4,3,3,3h2.8c1.7,0,3-1.4,3-3v-5.6h8.3v8.3v0.3v6.5c-0.2,0.9-0.9,1.6-1.8,1.8h-3.8
		c-1.7,0-3,1.4-3,3v2.8C172.2,162.5,173.6,163.9,175.2,163.9z"/>
	<path d="M103.6,166.2c0-1.4-1.1-2.5-2.5-2.5h-3.8c-1.4,0-2.5,1.1-2.5,2.5v3.8c0,1.4,1.1,2.5,2.5,2.5h3.8c1.4,0,2.5-1.1,2.5-2.5
		V166.2z"/>
	<path d="M235.5,172.5h2.8c1.7,0,3-1.4,3-3v-5.6h5.6c1.7,0,3-1.4,3-3v-5.6V155v-5.6c0-1.7-1.4-3-3-3h-5.6h-0.3h-8.3h-0.3h-8.3h-0.3
		h-5.6c-1.7,0-3,1.4-3,3v2.8c0,1.7,1.4,3,3,3h5.6h0.3h8.3v8.3v0.3v5.6C232.5,171.1,233.9,172.5,235.5,172.5z"/>
	<path d="M2.5,181.1h3.8c1.4,0,2.5-1.1,2.5-2.5v-3.8c0-1.4-1.1-2.5-2.5-2.5H2.5c-1.4,0-2.5,1.1-2.5,2.5v3.8
		C0,180,1.1,181.1,2.5,181.1z"/>
	<path d="M69.2,175.2c0-1.7-1.4-3-3-3h-5.6h-0.3h-5.6c-1.7,0-3,1.4-3,3v2.8c0,1.7,1.4,3,3,3h5.6h0.3h5.6c1.7,0,3-1.4,3-3V175.2z"/>
	<path d="M158,181.1h2.8c1.7,0,3-1.4,3-3v-5.6h5.6c1.7,0,3-1.4,3-3v-2.8c0-1.7-1.4-3-3-3h-5.6h-0.3h-8.3H155h-8.3h-0.3H138h-0.3
		h-8.3h-0.3h-5.6c-1.7,0-3,1.4-3,3v2.8c0,1.7,1.4,3,3,3h5.6h0.3h8.3v8.3v0.3v8.3v0.3v6.5c-0.2,0.9-0.9,1.6-1.8,1.8h-6.5h-0.3h-5.6
		c-1.7,0-3,1.4-3,3v3.8c-0.2,0.9-0.9,1.6-1.8,1.8H115c-1.7,0-3,1.4-3,3v3.8c-0.2,0.9-0.9,1.6-1.8,1.8h-3.8c-1.7,0-3,1.4-3,3v2.8
		c0,1.7,1.4,3,3,3h5.6v5.6c0,1.7,1.4,3,3,3h2.8c1.7,0,3-1.4,3-3v-5.6v-0.3v-8.3h5.6c1.7,0,3-1.4,3-3v-5.6h8.3v5.6c0,1.7,1.4,3,3,3
		h2.8c1.7,0,3-1.4,3-3v-5.6v-0.3v-8.3v-0.3v-8.3h5.6c1.7,0,3-1.4,3-3v-2.8c0-1.7-1.4-3-3-3h-5.6v-8.3h8.3v5.6
		C155,179.8,156.4,181.1,158,181.1z"/>
	<path d="M230.2,172.2h-3.8c-1.4,0-2.5,1.1-2.5,2.5v3.8c0,1.4,1.1,2.5,2.5,2.5h3.8c1.4,0,2.5-1.1,2.5-2.5v-3.8
		C232.8,173.4,231.6,172.2,230.2,172.2z"/>
	<path d="M115,189.7h2.8c1.7,0,3-1.4,3-3v-5.6v-0.3v-5.6c0-1.7-1.4-3-3-3H115c-1.7,0-3,1.4-3,3v5.6v0.3v5.6
		C111.9,188.4,113.3,189.7,115,189.7z"/>
	<path d="M109.7,189.5h-3.8c-1.4,0-2.5,1.1-2.5,2.5v3.8c0,1.4,1.1,2.5,2.5,2.5h3.8c1.4,0,2.5-1.1,2.5-2.5V192
		C112.2,190.6,111.1,189.5,109.7,189.5z"/>
	<path d="M195.8,189.5H192c-1.4,0-2.5,1.1-2.5,2.5v3.8c0,1.4,1.1,2.5,2.5,2.5h3.8c1.4,0,2.5-1.1,2.5-2.5V192
		C198.3,190.6,197.2,189.5,195.8,189.5z"/>
	<path d="M77.8,198.3v-0.3v-8.3v-0.3v-5.6c0-1.7-1.4-3-3-3h-2.8c-1.7,0-3,1.4-3,3v5.6v0.3v8.3v0.3v5.6c0,1.7,1.4,3,3,3h2.8
		c1.7,0,3-1.4,3-3V198.3z"/>
	<path d="M232.8,198.3h5.6c1.7,0,3-1.4,3-3v-5.6h5.6c1.7,0,3-1.4,3-3v-2.8c0-1.7-1.4-3-3-3h-5.6h-0.3h-5.6c-1.7,0-3,1.4-3,3v3.8
		c-0.2,0.9-0.9,1.6-1.8,1.8h-6.5h-0.3h-8.3v-8.3v-0.3v-8.3h5.6c1.7,0,3-1.4,3-3v-2.8c0-1.7-1.4-3-3-3h-5.6h-0.3h-5.6
		c-1.7,0-3,1.4-3,3v3.8c-0.2,0.9-0.9,1.6-1.8,1.8h-6.5h-0.3h-8.3h-0.3h-8.3h-0.3h-5.6c-1.7,0-3,1.4-3,3v5.6v0.3v8.3v0.3v8.3v0.3v8.3
		v0.3v6.5c-0.2,0.9-0.9,1.6-1.8,1.8h-6.5v-8.3v-0.3v-8.3v-0.3v-5.6c0-1.7-1.4-3-3-3H158c-1.7,0-3,1.4-3,3v5.6v0.3v8.3v0.3v8.3v0.3
		v5.6c0,1.7,1.4,3,3,3h5.6v5.6c0,1.7,1.4,3,3,3h5.6v8.3v0.3v5.6c0,1.7,1.4,3,3,3h5.6h0.3h8.3h0.3h5.6c1.7,0,3-1.4,3-3v-5.6h5.6
		c1.7,0,3-1.4,3-3v-2.8c0-1.7-1.4-3-3-3h-5.6h-0.3h-5.6c-1.7,0-3,1.4-3,3v3.8c-0.2,0.9-0.9,1.6-1.8,1.8h-6.5v-8.3v-0.3v-8.3h8.3h0.3
		h5.6c1.7,0,3-1.4,3-3v-5.6h8.3v8.3v0.3v5.6c0,1.7,1.4,3,3,3h5.6h0.3h5.6c1.7,0,3-1.4,3-3v-2.8c0-1.7-1.4-3-3-3h-5.6v-8.3h5.6
		c1.7,0,3-1.4,3-3v-2.8c0-1.7-1.4-3-3-3h-5.6v-8.3h8.3v5.6c0,1.7,1.4,3,3,3h2.8c1.7,0,3-1.4,3-3V198.3z M198.1,206.7h-8.3h-0.3h-8.3
		v-8.3v-0.3v-8.3v-0.3v-8.3h8.3h0.3h8.3h0.3h8.3v8.3v0.3v8.3v0.3v6.5c-0.2,0.9-0.9,1.6-1.8,1.8h-6.5H198.1z"/>
	<path d="M247.5,198.1h-3.8c-1.4,0-2.5,1.1-2.5,2.5v3.8c0,1.4,1.1,2.5,2.5,2.5h3.8c1.4,0,2.5-1.1,2.5-2.5v-3.8
		C250,199.2,248.9,198.1,247.5,198.1z"/>
	<path d="M92,206.7h-5.6h-0.3h-5.6c-1.7,0-3,1.4-3,3v2.8c0,1.7,1.4,3,3,3h5.6v8.3h-5.6c-1.7,0-3,1.4-3,3v3.8
		c-0.2,0.9-0.9,1.6-1.8,1.8h-3.8c-1.7,0-3,1.4-3,3v2.8c0,1.7,1.4,3,3,3h5.6v5.6c0,1.7,1.4,3,3,3h5.6h0.3H92c1.7,0,3-1.4,3-3v-2.8
		c0-1.7-1.4-3-3-3h-5.6v-8.3H92c1.7,0,3-1.4,3-3v-5.6v-0.3v-8.3v-0.3v-5.6C95,208,93.6,206.7,92,206.7z"/>
	<path d="M71.4,215.3c-1.4,0-2.5,1.1-2.5,2.5v3.8c0,1.4,1.1,2.5,2.5,2.5h3.8c1.4,0,2.5-1.1,2.5-2.5v-3.8c0-1.4-1.1-2.5-2.5-2.5H71.4
		z"/>
	<path d="M247,215.3h-2.8c-1.7,0-3,1.4-3,3v5.6v0.3v5.6c0,1.7,1.4,3,3,3h2.8c1.7,0,3-1.4,3-3v-5.6v-0.3v-5.6
		C250,216.6,248.6,215.3,247,215.3z"/>
	<path d="M112.2,235c0-1.4-1.1-2.5-2.5-2.5h-3.8c-1.4,0-2.5,1.1-2.5,2.5v3.8c0,1.4,1.1,2.5,2.5,2.5h3.8c1.4,0,2.5-1.1,2.5-2.5V235z"
		/>
	<path d="M160.9,232.5h-5.6H155h-8.3v-5.6c0-1.7-1.4-3-3-3H138v-5.6c0-1.7-1.4-3-3-3h-2.8c-1.7,0-3,1.4-3,3v5.6v0.3v5.6
		c0,1.7,1.4,3,3,3h5.6v5.6c0,1.7,1.4,3,3,3h5.6v5.6c0,1.7,1.4,3,3,3h2.8c1.7,0,3-1.4,3-3v-5.6h5.6c1.7,0,3-1.4,3-3v-2.8
		C163.9,233.9,162.5,232.5,160.9,232.5z"/>
	<path d="M238.4,232.5h-2.8c-1.7,0-3,1.4-3,3v5.6v0.3v5.6c0,1.7,1.4,3,3,3h2.8c1.7,0,3-1.4,3-3v-5.6v-0.3v-5.6
		C241.4,233.9,240,232.5,238.4,232.5z"/>
	<path d="M135,241.1h-5.6v-5.6c0-1.7-1.4-3-3-3h-2.8c-1.7,0-3,1.4-3,3v3.8c-0.2,0.9-0.9,1.6-1.8,1.8H115c-1.7,0-3,1.4-3,3v2.8
		c0,1.7,1.4,3,3,3h5.6h0.3h8.3h0.3h5.6c1.7,0,3-1.4,3-3v-2.8C138,242.5,136.7,241.1,135,241.1z"/>
	<path d="M221.1,241.1h-5.6h-0.3h-5.6c-1.7,0-3,1.4-3,3v2.8c0,1.7,1.4,3,3,3h5.6h0.3h5.6c1.7,0,3-1.4,3-3v-2.8
		C224.2,242.5,222.8,241.1,221.1,241.1z"/>
	<path d="M21.5,62.1c17.4,0,1.7,0,19.1,0c17.4,0,21.5-4.1,21.5-21.5c0-17.4,0-1.7,0-19.1C62.1,4.1,58,0,40.6,0c-17.4,0-1.7,0-19.1,0
		C4.1,0,0,4.1,0,21.5c0,9.7,0,1.7,0,19.1C0,58,4.1,62.1,21.5,62.1z M8.9,21.5c0-8.5,1.2-10.5,1.6-11c0.5-0.5,2.6-1.6,11-1.6h19.1
		c8.5,0,10.5,1.2,11,1.6c0.5,0.5,1.6,2.6,1.6,11v19.1c0,8.5-1.2,10.5-1.6,11c-0.5,0.5-2.6,1.6-11,1.6H21.5c-8.5,0-10.5-1.2-11-1.6
		c-0.5-0.5-1.6-2.6-1.6-11V21.5z"/>
	<path d="M27,44.4c7.5,0,0.7,0,8.2,0c7.5,0,9.2-1.8,9.2-9.2c0-7.5,0-0.7,0-8.2c0-7.5-1.8-9.2-9.2-9.2c-7.5,0-0.7,0-8.2,0
		s-9.2,1.8-9.2,9.2c0,4.2,0,0.7,0,8.2C17.8,42.6,19.5,44.4,27,44.4z"/>
	<path d="M214.5,44.4c7.5,0,0.7,0,8.2,0c7.5,0,9.2-1.8,9.2-9.2c0-7.5,0-0.7,0-8.2c0-7.5-1.8-9.2-9.2-9.2c-7.5,0-0.7,0-8.2,0
		s-9.2,1.8-9.2,9.2c0,4.2,0,0.7,0,8.2C205.2,42.6,207,44.4,214.5,44.4z"/>
	<path d="M209,62.1c17.4,0,1.7,0,19.1,0c17.4,0,21.5-4.1,21.5-21.5c0-17.4,0-1.7,0-19.1c0-17.4-4.1-21.5-21.5-21.5
		c-17.4,0-1.7,0-19.1,0c-17.4,0-21.5,4.1-21.5,21.5c0,9.7,0,1.7,0,19.1C187.5,58,191.6,62.1,209,62.1z M196.4,21.5
		c0-8.5,1.2-10.5,1.6-11c0.5-0.5,2.6-1.6,11-1.6h19.1c8.5,0,10.5,1.2,11,1.6c0.5,0.5,1.6,2.6,1.6,11v19.1c0,8.5-1.2,10.5-1.6,11
		c-0.5,0.5-2.6,1.6-11,1.6H209c-8.5,0-10.5-1.2-11-1.6c-0.5-0.5-1.6-2.6-1.6-11V21.5z"/>
	<path d="M35.2,205.3c-7.5,0-0.7,0-8.2,0s-9.2,1.8-9.2,9.2c0,4.2,0,0.7,0,8.2c0,7.5,1.8,9.2,9.2,9.2s0.7,0,8.2,0
		c7.5,0,9.2-1.8,9.2-9.2c0-7.5,0-0.7,0-8.2C44.4,207,42.6,205.3,35.2,205.3z"/>
	<path d="M40.6,187.5c-17.4,0-1.7,0-19.1,0C4.1,187.5,0,191.6,0,209c0,9.7,0,1.7,0,19.1c0,17.4,4.1,21.5,21.5,21.5
		c17.4,0,1.7,0,19.1,0c17.4,0,21.5-4.1,21.5-21.5c0-17.4,0-1.7,0-19.1C62.1,191.6,58,187.5,40.6,187.5z M53.3,228.1
		c0,8.5-1.2,10.5-1.6,11c-0.5,0.5-2.6,1.6-11,1.6H21.5c-8.5,0-10.5-1.2-11-1.6c-0.5-0.5-1.6-2.6-1.6-11V209c0-8.5,1.2-10.5,1.6-11
		c0.5-0.5,2.6-1.6,11-1.6h19.1c8.5,0,10.5,1.2,11,1.6c0.5,0.5,1.6,2.6,1.6,11V228.1z"/>
</g>
<g>
	<path class="st0" d="M120.2,133.8c1.9,1.2,4.2,1.7,6.5,1.4c2.4-0.4,4.6-1.7,6-3.6c1.2-1.6,1.9-3.6,1.9-5.6c-6.2,0-12.3,0-18.5,0
		C116,129.1,117.6,132.2,120.2,133.8z"/>
	<path class="st0" d="M135.2,92.9c-18.1,0-1.7,0-19.9,0c-18.1,0-22.5,4.3-22.5,22.5c0,10.1,0,1.7,0,19.9s4.3,22.5,22.5,22.5
		c18.1,0,1.7,0,19.9,0c18.1,0,22.5-4.3,22.5-22.5s0-1.7,0-19.9C157.7,97.2,153.3,92.9,135.2,92.9z M144.4,131.9
		c-1.3,3.8-3.7,7.2-6.8,9.6c-3.2,2.5-7.2,4-11.2,4.2c-1.8,0.1-3.5-0.1-5.2-0.4c-2,1.3-4,2.7-6,4c-0.3,0.2-0.8,0.3-1-0.1
		c-0.2-0.3-0.1-0.7-0.1-1.1c0-2,0-4,0-5.9c-3.8-2.6-6.8-6.6-8.1-11c-1.2-4.1-1.2-8.6,0.2-12.6c1.4-4.1,4.1-7.7,7.7-10.1
		c3.5-2.4,7.7-3.7,11.9-3.6c4,0.1,7.9,1.4,11.2,3.6c3.5,2.5,6.2,6,7.6,10.1C145.9,123,145.9,127.7,144.4,131.9z"/>
</g>
</svg>
