<?xml version="1.0" encoding="utf-8"?>
<!-- Generator: Adobe Illustrator 24.0.1, SVG Export Plug-In . SVG Version: 6.00 Build 0)  -->
<svg version="1.1" id="Слой_1" xmlns="http://www.w3.org/2000/svg" xmlns:xlink="http://www.w3.org/1999/xlink" x="0px" y="0px"
	 viewBox="0 0 250 250" style="enable-background:new 0 0 250 250;" xml:space="preserve">
<style type="text/css">
	.st0{fill-rule:evenodd;clip-rule:evenodd;}
</style>
<g>
	<path class="st0" d="M148.9,8.9h3.8c1.4,0,2.5-1.1,2.5-2.5V2.5c0-1.4-1.1-2.5-2.5-2.5h-3.8c-1.4,0-2.5,1.1-2.5,2.5v3.8
		C146.4,7.8,147.5,8.9,148.9,8.9z"/>
	<path class="st0" d="M80.5,17.5h5.6h0.3h8.3H95h8.3v8.3H95h-0.3h-8.3h-0.3h-5.6c-1.7,0-3,1.4-3,3v2.8c0,1.7,1.4,3,3,3h5.6h0.3h8.3
		v8.3h-5.6c-1.7,0-3,1.4-3,3v5.6v0.3v6.5c-0.2,0.9-0.9,1.6-1.8,1.8h-3.8c-1.7,0-3,1.4-3,3v2.8c0,1.7,1.4,3,3,3h5.6v8.3v0.3v5.6
		c0,1.7,1.4,3,3,3h5.6H95h5.6c1.7,0,3-1.4,3-3v-2.8c0-1.7-1.4-3-3-3H95V69v-0.3v-8.3v-0.3v-8.3h8.3v5.6c0,1.7,1.4,3,3,3h2.8
		c1.7,0,3-1.4,3-3v-5.6h8.3v8.3H115c-1.7,0-3,1.4-3,3v5.6V69v5.6c0,1.7,1.4,3,3,3h5.6h0.3h8.3h0.3h5.6c1.7,0,3-1.4,3-3V69h5.6
		c1.7,0,3-1.4,3-3v-5.6v-0.3v-8.3h5.6c1.7,0,3-1.4,3-3v-5.6h5.6c1.7,0,3-1.4,3-3v-5.6v-0.3V26v-0.3v-5.6c0-1.7-1.4-3-3-3h-5.6H155
		h-8.3v-5.6c0-1.7-1.4-3-3-3H138V3c0-1.7-1.4-3-3-3h-2.8c-1.7,0-3,1.4-3,3v3.8c-0.2,0.9-0.9,1.6-1.8,1.8h-6.5h-0.3h-8.3H112h-8.3
		h-0.3H95h-0.3h-8.3h-0.3h-5.6c-1.7,0-3,1.4-3,3v2.8C77.5,16.1,78.9,17.5,80.5,17.5z M137.8,60.3h-8.3V52h8.3V60.3z M120.6,17.5h0.3
		h8.3h0.3h8.3v5.6c0,1.7,1.4,3,3,3h5.6h0.3h8.3v8.3h-8.3h-0.3H138h-0.3h-5.6c-1.7,0-3,1.4-3,3v3.8c-0.2,0.9-0.9,1.6-1.8,1.8h-6.5
		v-5.6c0-1.7-1.4-3-3-3H115c-1.7,0-3,1.4-3,3v3.8c-0.2,0.9-0.9,1.6-1.8,1.8h-6.5v-8.3h5.6c1.7,0,3-1.4,3-3v-5.6v-0.3v-8.3H120.6z"/>
	<path class="st0" d="M166.6,17.5h2.8c1.7,0,3-1.4,3-3V8.9h5.6c1.7,0,3-1.4,3-3V3c0-1.7-1.4-3-3-3h-5.6h-0.3h-5.6c-1.7,0-3,1.4-3,3
		v5.6v0.3v5.6C163.6,16.1,165,17.5,166.6,17.5z"/>
	<path class="st0" d="M71.4,26.1h3.8c1.4,0,2.5-1.1,2.5-2.5v-3.8c0-1.4-1.1-2.5-2.5-2.5h-3.8c-1.4,0-2.5,1.1-2.5,2.5v3.8
		C68.9,25,70,26.1,71.4,26.1z"/>
	<path class="st0" d="M71.9,60.5h2.8c1.7,0,3-1.4,3-3v-5.6v-0.3v-8.3V43v-5.6c0-1.7-1.4-3-3-3h-2.8c-1.7,0-3,1.4-3,3V43v0.3v8.3v0.3
		v5.6C68.9,59.2,70.2,60.5,71.9,60.5z"/>
	<path class="st0" d="M161.3,60.5c1.4,0,2.5-1.1,2.5-2.5v-3.8c0-1.4-1.1-2.5-2.5-2.5h-3.8c-1.4,0-2.5,1.1-2.5,2.5V58
		c0,1.4,1.1,2.5,2.5,2.5H161.3z"/>
	<path class="st0" d="M181.1,60.5v-0.3v-8.3v-0.3V46c0-1.7-1.4-3-3-3h-5.6h-0.3h-5.6c-1.7,0-3,1.4-3,3v2.8c0,1.7,1.4,3,3,3h5.6v8.3
		h-5.6c-1.7,0-3,1.4-3,3v2.8c0,1.7,1.4,3,3,3h5.6v5.6c0,1.7,1.4,3,3,3h5.6h0.3h5.6c1.7,0,3-1.4,3-3v-2.8c0-1.7-1.4-3-3-3h-5.6V60.5z
		"/>
	<path class="st0" d="M11.2,68.9c-1.4,0-2.5,1.1-2.5,2.5v3.8c0,1.4,1.1,2.5,2.5,2.5H15c1.4,0,2.5-1.1,2.5-2.5v-3.8
		c0-1.4-1.1-2.5-2.5-2.5H11.2z"/>
	<path class="st0" d="M54.2,68.9c-1.4,0-2.5,1.1-2.5,2.5v3.8c0,1.4,1.1,2.5,2.5,2.5H58c1.4,0,2.5-1.1,2.5-2.5v-3.8
		c0-1.4-1.1-2.5-2.5-2.5H54.2z"/>
	<path class="st0" d="M71.4,77.8h3.8c1.4,0,2.5-1.1,2.5-2.5v-3.8c0-1.4-1.1-2.5-2.5-2.5h-3.8c-1.4,0-2.5,1.1-2.5,2.5v3.8
		C68.9,76.6,70,77.8,71.4,77.8z"/>
	<path class="st0" d="M155,83.4c0,1.7,1.4,3,3,3h5.6v8.3V95v5.6c0,1.7,1.4,3,3,3h5.6v8.3v0.3v5.6c0,1.7,1.4,3,3,3h2.8
		c1.7,0,3-1.4,3-3v-5.6v-0.3v-8.3h5.6c1.7,0,3-1.4,3-3V95v-0.3v-5.6c0-1.7-1.4-3-3-3h-2.8c-1.7,0-3,1.4-3,3v3.8
		c-0.2,0.9-0.9,1.6-1.8,1.8h-6.5v-8.3v-0.3v-5.6c0-1.7-1.4-3-3-3h-5.6h-0.3H158c-1.7,0-3,1.4-3,3V83.4z"/>
	<path class="st0" d="M224.2,103.6v-0.3v-5.6c0-1.7-1.4-3-3-3h-2.8c-1.7,0-3,1.4-3,3v5.6v0.3v5.6c0,1.7,1.4,3,3,3h2.8
		c1.7,0,3-1.4,3-3V103.6z"/>
	<path class="st0" d="M189.4,118.3c0,1.4,1.1,2.5,2.5,2.5h3.8c1.4,0,2.5-1.1,2.5-2.5v-3.8c0-1.4-1.1-2.5-2.5-2.5H192
		c-1.4,0-2.5,1.1-2.5,2.5v3.8H189.4z"/>
	<path class="st0" d="M212.5,111.9h-2.8c-1.7,0-3,1.4-3,3v5.6v0.3v5.6c0,1.7,1.4,3,3,3h2.8c1.7,0,3-1.4,3-3v-5.6v-0.3V115
		C215.5,113.3,214.2,111.9,212.5,111.9z"/>
	<path class="st0" d="M3,138.1h5.6h0.3h5.6c1.7,0,3-1.4,3-3v-5.6v-0.3v-8.3v-0.3v-8.3V112v-8.3h8.3h0.3h5.6c1.7,0,3-1.4,3-3V95H43
		v8.3h-5.6c-1.7,0-3,1.4-3,3v3.8c-0.2,0.9-0.9,1.6-1.8,1.8h-3.8c-1.7,0-3,1.4-3,3v2.8c0,1.7,1.4,3,3,3h5.6v8.3h-5.6
		c-1.7,0-3,1.4-3,3v5.6v0.3v8.3v0.3v5.6c0,1.7,1.4,3,3,3h5.6h0.3H43h0.3h5.6c1.7,0,3-1.4,3-3v-5.6h5.6c1.7,0,3-1.4,3-3v-2.8
		c0-1.7-1.4-3-3-3h-5.6v-5.6c0-1.7-1.4-3-3-3h-5.6v-8.3h5.6c1.7,0,3-1.4,3-3v-5.6h8.3h0.3h8.3v5.6c0,1.7,1.4,3,3,3h2.8
		c1.7,0,3-1.4,3-3v-5.6v-0.3v-8.3v-0.3V95v-0.3v-5.6c0-1.7-1.4-3-3-3H69h-0.3h-8.3h-0.3h-8.3h-0.3h-8.3v-8.3v-0.3v-5.6
		c0-1.7-1.4-3-3-3h-2.8c-1.7,0-3,1.4-3,3v3.8c-0.2,0.9-0.9,1.6-1.8,1.8h-6.5h-0.3h-5.6c-1.7,0-3,1.4-3,3v2.8c0,1.7,1.4,3,3,3h5.6
		v6.5c-0.2,0.9-0.9,1.6-1.8,1.8h-6.5V89c0-1.7-1.4-3-3-3h-2.8c-1.7,0-3,1.4-3,3v3.8c-0.2,0.9-0.9,1.6-1.8,1.8H3c-1.7,0-3,1.4-3,3
		v5.6v0.3v5.6c0,1.7,1.4,3,3,3h5.6v8.3H3c-1.7,0-3,1.4-3,3v5.6v0.3v5.6C0,136.7,1.4,138.1,3,138.1z M60.3,95h0.3h8.3v8.3h-8.3h-0.3
		H52V95H60.3z"/>
	<path class="st0" d="M63.3,138.1h2.8c1.7,0,3-1.4,3-3v-5.6v-0.3v-5.6c0-1.7-1.4-3-3-3h-5.6h-0.3h-5.6c-1.7,0-3,1.4-3,3v2.8
		c0,1.7,1.4,3,3,3h5.6v5.6C60.3,136.7,61.6,138.1,63.3,138.1z"/>
	<path class="st0" d="M217.8,129.2c-1.4,0-2.5,1.1-2.5,2.5v3.8c0,1.4,1.1,2.5,2.5,2.5h3.8c1.4,0,2.5-1.1,2.5-2.5v-3.8
		c0-1.4-1.1-2.5-2.5-2.5H217.8z"/>
	<path class="st0" d="M250,129.4v-0.3v-8.3v-0.3v-8.3v-0.3v-8.3v-0.3V95v-0.3v-8.3v-0.3v-5.6c0-1.7-1.4-3-3-3h-5.6h-0.3h-8.3v-5.6
		c0-1.7-1.4-3-3-3H227c-1.7,0-3,1.4-3,3v3.8c-0.2,0.9-0.9,1.6-1.8,1.8h-6.5v-5.6c0-1.7-1.4-3-3-3h-5.6h-0.3h-5.6c-1.7,0-3,1.4-3,3
		v3.8c-0.2,0.9-0.9,1.6-1.8,1.8h-3.8c-1.7,0-3,1.4-3,3v2.8c0,1.7,1.4,3,3,3h5.6v8.3V95v8.3v0.3v5.6c0,1.7,1.4,3,3,3h2.8
		c1.7,0,3-1.4,3-3v-5.6v-0.3V95v-0.3v-8.3h8.3h0.3h8.3V92c0,1.7,1.4,3,3,3h2.8c1.7,0,3-1.4,3-3v-5.6h8.3v8.3h-5.6c-1.7,0-3,1.4-3,3
		v2.8c0,1.7,1.4,3,3,3h5.6v8.3h-8.3h-0.3h-5.6c-1.7,0-3,1.4-3,3v2.8c0,1.7,1.4,3,3,3h5.6h0.3h8.3v8.3h-5.6c-1.7,0-3,1.4-3,3v5.6v0.3
		v5.6c0,1.7,1.4,3,3,3h2.8c1.7,0,3-1.4,3-3v-5.6h5.6c1.7,0,3-1.4,3-3v-5.4L250,129.4L250,129.4z"/>
	<path class="st0" d="M3,155.3h5.6h0.3h5.6c1.7,0,3-1.4,3-3v-2.8c0-1.7-1.4-3-3-3H8.9H8.6H3c-1.7,0-3,1.4-3,3v2.8
		C0,153.9,1.4,155.3,3,155.3z"/>
	<path class="st0" d="M68.9,172.2v0.3v8.3v0.3v5.6c0,1.7,1.4,3,3,3h5.6h0.3h5.6c1.7,0,3-1.4,3-3v-2.8c0-1.7-1.4-3-3-3h-5.6v-8.3h5.6
		c1.7,0,3-1.4,3-3V164v-0.3v-8.3V155v-8.3v-0.3v-8.3v-0.3v-5.6c0-1.7-1.4-3-3-3h-2.8c-1.7,0-3,1.4-3,3v5.6v0.3v8.3v0.3v6.5
		c-0.2,0.9-0.9,1.6-1.8,1.8h-6.5H69h-8.3h-0.3h-5.6c-1.7,0-3,1.4-3,3v2.8c0,1.7,1.4,3,3,3h5.6h0.3H69L68.9,172.2L68.9,172.2z"/>
	<path class="st0" d="M106.4,172.5h5.6h0.3h8.3h0.3h5.6c1.7,0,3-1.4,3-3v-2.8c0-1.7-1.4-3-3-3h-5.6h-0.3h-8.3H112h-5.6
		c-1.7,0-3,1.4-3,3v2.8C103.3,171.1,104.7,172.5,106.4,172.5z"/>
	<path class="st0" d="M3,181.1h5.6h0.3h8.3h0.3h8.3h0.3h8.3h0.3h5.6c1.7,0,3-1.4,3-3v-5.6h5.6c1.7,0,3-1.4,3-3v-2.8c0-1.7-1.4-3-3-3
		h-5.6H43h-5.6c-1.7,0-3,1.4-3,3v3.8c-0.2,0.9-0.9,1.6-1.8,1.8h-6.5v-5.6c0-1.7-1.4-3-3-3h-2.8c-1.7,0-3,1.4-3,3v3.8
		c-0.2,0.9-0.9,1.6-1.8,1.8H8.9H8.6H3c-1.7,0-3,1.4-3,3v2.8C0,179.8,1.4,181.1,3,181.1z"/>
	<path class="st0" d="M58,172.2h-3.8c-1.4,0-2.5,1.1-2.5,2.5v3.8c0,1.4,1.1,2.5,2.5,2.5H58c1.4,0,2.5-1.1,2.5-2.5v-3.8
		C60.5,173.4,59.4,172.2,58,172.2z"/>
	<path class="st0" d="M244.1,181.1h2.8c1.7,0,3-1.4,3-3v-5.6v-0.3v-8.3v-0.3v-8.3V155v-5.6c0-1.7-1.4-3-3-3h-2.8c-1.7,0-3,1.4-3,3
		v5.6v0.3v8.3v0.3v8.3v0.3v5.6C241.1,179.8,242.5,181.1,244.1,181.1z"/>
	<path class="st0" d="M112.2,189.7h5.6c1.7,0,3-1.4,3-3v-2.8c0-1.7-1.4-3-3-3h-5.6h-0.3h-8.3h-0.3h-5.6c-1.7,0-3,1.4-3,3v2.8
		c0,1.7,1.4,3,3,3h5.6h0.3h8.3H112.2z"/>
	<path class="st0" d="M241.4,183.9c0-1.7-1.4-3-3-3h-5.6h-0.3h-5.6c-1.7,0-3,1.4-3,3v2.8c0,1.7,1.4,3,3,3h5.6h0.3h5.6
		c1.7,0,3-1.4,3-3V183.9z"/>
	<path class="st0" d="M95,192c0-1.4-1.1-2.5-2.5-2.5h-3.8c-1.4,0-2.5,1.1-2.5,2.5v3.8c0,1.4,1.1,2.5,2.5,2.5h3.8
		c1.4,0,2.5-1.1,2.5-2.5V192z"/>
	<path class="st0" d="M198.3,192c0-1.4-1.1-2.5-2.5-2.5H192c-1.4,0-2.5,1.1-2.5,2.5v3.8c0,1.4,1.1,2.5,2.5,2.5h3.8
		c1.4,0,2.5-1.1,2.5-2.5V192z"/>
	<path class="st0" d="M247.5,189.5h-3.8c-1.4,0-2.5,1.1-2.5,2.5v3.8c0,1.4,1.1,2.5,2.5,2.5h3.8c1.4,0,2.5-1.1,2.5-2.5V192
		C250,190.6,248.9,189.5,247.5,189.5z"/>
	<path class="st0" d="M143.6,198.1h-2.8c-1.7,0-3,1.4-3,3v3.8c-0.2,0.9-0.9,1.6-1.8,1.8h-3.8c-1.7,0-3,1.4-3,3v2.8c0,1.7,1.4,3,3,3
		h5.6h0.3h5.6c1.7,0,3-1.4,3-3v-5.6v-0.3V201C146.7,199.4,145.3,198.1,143.6,198.1z"/>
	<path class="st0" d="M235,198.1c-1.4,0-2.5,1.1-2.5,2.5v3.8c0,1.4,1.1,2.5,2.5,2.5h3.8c1.4,0,2.5-1.1,2.5-2.5v-3.8
		c0-1.4-1.1-2.5-2.5-2.5H235z"/>
	<path class="st0" d="M80.5,224.2h5.6h0.3H92c1.7,0,3-1.4,3-3v-5.6v-0.3v-5.6c0-1.7-1.4-3-3-3h-5.6v-5.6c0-1.7-1.4-3-3-3h-2.8
		c-1.7,0-3,1.4-3,3v3.8c-0.2,0.9-0.9,1.6-1.8,1.8H72c-1.7,0-3,1.4-3,3v2.8c0,1.7,1.4,3,3,3h5.6v5.6
		C77.5,222.8,78.9,224.2,80.5,224.2z"/>
	<path class="st0" d="M201.1,224.2h2.8c1.7,0,3-1.4,3-3v-5.6h5.6c1.7,0,3-1.4,3-3V207h5.6c1.7,0,3-1.4,3-3v-2.8c0-1.7-1.4-3-3-3
		h-5.6v-8.3v-0.3v-8.3h5.6c1.7,0,3-1.4,3-3v-5.6v-0.3v-8.3v-0.3v-8.3h5.6c1.7,0,3-1.4,3-3v-2.8c0-1.7-1.4-3-3-3h-5.6h-0.3h-8.3h-0.3
		h-8.3v-8.3v-0.3v-5.6c0-1.7-1.4-3-3-3h-2.8c-1.7,0-3,1.4-3,3v5.6v0.3v6.5c-0.2,0.9-0.9,1.6-1.8,1.8h-6.5v-5.6c0-1.7-1.4-3-3-3h-5.6
		v-5.6c0-1.7-1.4-3-3-3h-2.8c-1.7,0-3,1.4-3,3v3.8c-0.2,0.9-0.9,1.6-1.8,1.8h-3.8c-1.7,0-3,1.4-3,3v5.6v0.3v5.6c0,1.7,1.4,3,3,3h5.6
		h0.3h8.3h0.3h8.3h0.3h8.3h0.3h8.3v5.6c0,1.7,1.4,3,3,3h5.6v6.5c-0.2,0.9-0.9,1.6-1.8,1.8h-6.5v-5.6c0-1.7-1.4-3-3-3h-2.8
		c-1.7,0-3,1.4-3,3v3.8c-0.2,0.9-0.9,1.6-1.8,1.8H190h-0.3h-8.3v-5.6c0-1.7-1.4-3-3-3h-2.8c-1.7,0-3,1.4-3,3v3.8
		c-0.2,0.9-0.9,1.6-1.8,1.8H167c-1.7,0-3,1.4-3,3v2.8c0,1.7,1.4,3,3,3h5.6v6.5c-0.2,0.9-0.9,1.6-1.8,1.8h-6.5V184c0-1.7-1.4-3-3-3
		h-5.6v-8.3h5.6c1.7,0,3-1.4,3-3v-2.8c0-1.7-1.4-3-3-3h-5.6H155h-5.6c-1.7,0-3,1.4-3,3v5.6v0.3v6.5c-0.2,0.9-0.9,1.6-1.8,1.8H138
		v-5.6c0-1.7-1.4-3-3-3h-2.8c-1.7,0-3,1.4-3,3v5.6v0.3v6.5c-0.2,0.9-0.9,1.6-1.8,1.8h-3.8c-1.7,0-3,1.4-3,3v2.8c0,1.7,1.4,3,3,3h5.6
		h0.3h5.6c1.7,0,3-1.4,3-3v-5.6h8.3h0.3h8.3v5.6c0,1.7,1.4,3,3,3h5.6v8.3v0.3v5.6c0,1.7,1.4,3,3,3h5.6h0.3h8.3h0.3h8.3h0.3h8.3v5.6
		C198.1,222.8,199.4,224.2,201.1,224.2z M189.7,206.7h-0.3h-8.3v-8.3v-0.3v-8.3v-0.3v-8.3h8.3h0.3h8.3h0.3h8.3v8.3v0.3v8.3v0.3v6.5
		c-0.2,0.9-0.9,1.6-1.8,1.8h-6.5H198H189.7z"/>
	<path class="st0" d="M247,223.9h-5.6v-5.6c0-1.7-1.4-3-3-3h-2.8c-1.7,0-3,1.4-3,3v3.8c-0.2,0.9-0.9,1.6-1.8,1.8H227
		c-1.7,0-3,1.4-3,3v2.8c0,1.7,1.4,3,3,3h5.6v8.3v0.3v5.6c0,1.7,1.4,3,3,3h2.8c1.7,0,3-1.4,3-3v-5.6h5.6c1.7,0,3-1.4,3-3v-5.6v-0.3
		v-5.6C250,225.3,248.6,223.9,247,223.9z"/>
	<path class="st0" d="M206.9,235.5c0-1.7-1.4-3-3-3h-5.6H198h-8.3v-5.6c0-1.7-1.4-3-3-3h-5.6h-0.3h-8.3h-0.3h-8.3v-5.6
		c0-1.7-1.4-3-3-3H158c-1.7,0-3,1.4-3,3v3.8c-0.2,0.9-0.9,1.6-1.8,1.8h-3.8c-1.7,0-3,1.4-3,3v3.8c-0.2,0.9-0.9,1.6-1.8,1.8H138v-5.6
		c0-1.7-1.4-3-3-3h-5.6v-5.6c0-1.7-1.4-3-3-3h-2.8c-1.7,0-3,1.4-3,3v3.8c-0.2,0.9-0.9,1.6-1.8,1.8H115c-1.7,0-3,1.4-3,3v2.8
		c0,1.7,1.4,3,3,3h5.6v5.6c0,1.7,1.4,3,3,3h5.6h0.3h8.3h0.3h8.3v5.6c0,1.7,1.4,3,3,3h2.8c1.7,0,3-1.4,3-3v-5.6h8.3h0.3h8.3v5.6
		c0,1.7,1.4,3,3,3h2.8c1.7,0,3-1.4,3-3v-5.6h8.3v5.6c0,1.7,1.4,3,3,3h2.8c1.7,0,3-1.4,3-3v-5.6h5.6c1.7,0,3-1.4,3-3v-2.8H206.9z"/>
	<path class="st0" d="M221.6,232.5h-3.8c-1.4,0-2.5,1.1-2.5,2.5v3.8c0,1.4,1.1,2.5,2.5,2.5h3.8c1.4,0,2.5-1.1,2.5-2.5V235
		C224.2,233.6,223,232.5,221.6,232.5z"/>
	<path class="st0" d="M100.6,241.1H95v-5.6c0-1.7-1.4-3-3-3h-5.6h-0.3h-8.3h-0.3h-5.6c-1.7,0-3,1.4-3,3v2.8c0,1.7,1.4,3,3,3h5.6h0.3
		h8.3v5.6c0,1.7,1.4,3,3,3h5.6H95h5.6c1.7,0,3-1.4,3-3v-2.8C103.6,242.5,102.2,241.1,100.6,241.1z"/>
	<path class="st0" d="M118.3,241.1h-3.8c-1.4,0-2.5,1.1-2.5,2.5v3.8c0,1.4,1.1,2.5,2.5,2.5h3.8c1.4,0,2.5-1.1,2.5-2.5v-3.8
		C120.8,242.2,119.7,241.1,118.3,241.1z"/>
	<path class="st0" d="M213,241.1h-3.8c-1.4,0-2.5,1.1-2.5,2.5v3.8c0,1.4,1.1,2.5,2.5,2.5h3.8c1.4,0,2.5-1.1,2.5-2.5v-3.8
		C215.5,242.2,214.4,241.1,213,241.1z"/>
	<path class="st0" d="M21.5,62.1c17.4,0,1.7,0,19.1,0S62.1,58,62.1,40.6s0-1.7,0-19.1S58,0,40.6,0s-1.7,0-19.1,0S0,4.1,0,21.5
		c0,9.7,0,1.7,0,19.1S4.1,62.1,21.5,62.1z M8.9,21.5c0-8.5,1.2-10.5,1.6-11c0.5-0.5,2.6-1.6,11-1.6h19.1c8.5,0,10.5,1.2,11,1.6
		c0.5,0.5,1.6,2.6,1.6,11v19.1c0,8.5-1.2,10.5-1.6,11c-0.5,0.5-2.6,1.6-11,1.6H21.5c-8.5,0-10.5-1.2-11-1.6c-0.5-0.5-1.6-2.6-1.6-11
		V21.5z"/>
	<path class="st0" d="M27,44.4c7.5,0,0.7,0,8.2,0s9.2-1.8,9.2-9.2s0-0.7,0-8.2s-1.8-9.2-9.2-9.2c-7.5,0-0.7,0-8.2,0
		s-9.2,1.8-9.2,9.2c0,4.2,0,0.7,0,8.2S19.5,44.4,27,44.4z"/>
	<path class="st0" d="M214.5,44.4c7.5,0,0.7,0,8.2,0s9.2-1.8,9.2-9.2s0-0.7,0-8.2s-1.8-9.2-9.2-9.2c-7.5,0-0.7,0-8.2,0
		s-9.2,1.8-9.2,9.2c0,4.2,0,0.7,0,8.2S207,44.4,214.5,44.4z"/>
	<path class="st0" d="M209,62.1c17.4,0,1.7,0,19.1,0s21.5-4.1,21.5-21.5s0-1.7,0-19.1S245.5,0,228.1,0s-1.7,0-19.1,0
		s-21.5,4.1-21.5,21.5c0,9.7,0,1.7,0,19.1S191.6,62.1,209,62.1z M196.4,21.5c0-8.5,1.2-10.5,1.6-11c0.5-0.5,2.6-1.6,11-1.6h19.1
		c8.5,0,10.5,1.2,11,1.6c0.5,0.5,1.6,2.6,1.6,11v19.1c0,8.5-1.2,10.5-1.6,11c-0.5,0.5-2.6,1.6-11,1.6H209c-8.5,0-10.5-1.2-11-1.6
		c-0.5-0.5-1.6-2.6-1.6-11V21.5z"/>
	<path class="st0" d="M35.2,205.3c-7.5,0-0.7,0-8.2,0s-9.2,1.8-9.2,9.2c0,4.2,0,0.7,0,8.2s1.8,9.2,9.2,9.2s0.7,0,8.2,0
		s9.2-1.8,9.2-9.2s0-0.7,0-8.2S42.6,205.3,35.2,205.3z"/>
	<path class="st0" d="M40.6,187.5c-17.4,0-1.7,0-19.1,0S0,191.6,0,209c0,9.7,0,1.7,0,19.1s4.1,21.5,21.5,21.5s1.7,0,19.1,0
		s21.5-4.1,21.5-21.5s0-1.7,0-19.1S58,187.5,40.6,187.5z M53.3,228.1c0,8.5-1.2,10.5-1.6,11c-0.5,0.5-2.6,1.6-11,1.6H21.5
		c-8.5,0-10.5-1.2-11-1.6c-0.5-0.5-1.6-2.6-1.6-11V209c0-8.5,1.2-10.5,1.6-11c0.5-0.5,2.6-1.6,11-1.6h19.1c8.5,0,10.5,1.2,11,1.6
		c0.5,0.5,1.6,2.6,1.6,11v19.1H53.3z"/>
	<path class="st0" d="M134.2,95c-16.7,0-1.6,0-18.4,0C99.1,95,95,99,95,115.8c0,9.3,0,1.6,0,18.4c0,16.7,4,20.8,20.8,20.8
		c16.7,0,1.6,0,18.4,0s20.8-4,20.8-20.8c0-16.7,0-1.6,0-18.4S150.9,95,134.2,95z M140,112.9c-0.1,1.2-0.8,5.4-1.5,10l-2.1,13.5
		c0,0-0.2,2-1.7,2.4s-3.8-1.2-4.3-1.6c-0.4-0.2-6.4-4.2-8.7-6.1c-0.6-0.6-1.2-1.6,0.1-2.8c3.1-2.8,6.8-6.4,9-8.7c1-1,2-3.5-2.2-0.6
		l-12.1,8.2c0,0-1.4,0.9-4,0.1s-5.6-1.8-5.6-1.8s-2.1-1.1,1.5-2.5l20.2-8.3c2-0.9,8.7-3.6,8.7-3.6S140.3,110,140,112.9z"/>
</g>
</svg>
