<?xml version="1.0" encoding="utf-8"?>
<!-- Generator: Adobe Illustrator 24.0.1, SVG Export Plug-In . SVG Version: 6.00 Build 0)  -->
<svg version="1.1" id="Слой_1" xmlns="http://www.w3.org/2000/svg" xmlns:xlink="http://www.w3.org/1999/xlink" x="0px" y="0px"
	 viewBox="0 0 250 250" style="enable-background:new 0 0 250 250;" xml:space="preserve">
<style type="text/css">
	.st0{fill-rule:evenodd;clip-rule:evenodd;}
</style>
<g>
	<path class="st0" d="M106.3,8.9h5.9V8.8h5.6c1.6,0,3-1.3,3-3V3c0-1.6-1.3-3-3-3h-5.6h-0.3h-5.6c-1.6,0-3,1.3-3,3v2.9
		C103.3,7.5,104.6,8.9,106.3,8.9z"/>
	<path class="st0" d="M131.7,8.8h3.8c1.4,0,2.5-1.1,2.5-2.5V2.5c0-1.4-1.1-2.5-2.5-2.5h-3.8c-1.4,0-2.5,1.1-2.5,2.5v3.8
		C129.2,7.7,130.3,8.8,131.7,8.8z"/>
	<path class="st0" d="M137.8,17.5L137.8,17.5v5.9c0.1,1.4-1.1,2.5-2.5,2.5l0,0h-3.1c-1.6,0-3,1.3-3,3v2.8c0,1.6,1.3,3,3,3h5.6v8.4
		v0.2V52h0.1v5.6c0,1.6,1.3,3,3,3h2.8c1.6,0,3-1.3,3-3V52l0,0v-8.7v-0.2v-8.4v-0.3v-8.3v-0.3v-8.3h5.6c1.6,0,3-1.3,3-3V8.6h-0.1V3
		c0-1.6-1.3-3-3-3h-2.8c-1.6,0-3,1.3-3,3v3.9c-0.2,0.9-0.9,1.5-1.8,1.7h-3.8c-1.6,0-3,1.3-3,3V17.5z"/>
	<path class="st0" d="M120.6,23.6c0,1.4,1.1,2.5,2.5,2.5h3.8c1.4,0,2.5-1.1,2.5-2.5v-3.8c0-1.4-1.1-2.5-2.5-2.5h-3.8
		c-1.4-0.1-2.5,1.1-2.5,2.5C120.6,19.8,120.6,23.6,120.6,23.6z"/>
	<path class="st0" d="M163.7,23.1c0,1.6,1.3,3,3,3h2.8c1.6,0,3-1.3,3-3v-5.6v-0.3V8.6h-0.1V3c0-1.6-1.3-3-3-3h-2.8c-1.6,0-3,1.3-3,3
		v5.6v0.3v8.6h0.1V23.1z"/>
	<path class="st0" d="M86.1,31.7c0,1.6,1.3,3,3,3h5.6v5.6c0,1.6,1.3,3,3,3h5.6h0.3h8.3h0.1V49c0,1.6,1.3,3,3,3h2.8c1.6,0,3-1.3,3-3
		v-5.7v-0.1h5.7c1.6,0,3-1.3,3-3v-2.8c0-1.6-1.3-3-3-3h-5.7h-0.2h-8.4h-0.3h-8.3v-8.3v-0.3v-8.6h-0.1v-5.6c0-1.6-1.3-3-3-3h-2.8
		c-1.6,0-3,1.3-3,3v5.6v0.3v6.6c-0.3,1.1-1.2,1.8-2.4,1.8l0,0h-3.2c-1.6,0-3,1.3-3,3V31.7z"/>
	<path class="st0" d="M155,32.2c0,1.4,1.1,2.5,2.5,2.5h3.8c1.4,0,2.5-1.1,2.5-2.5v-3.8c0-1.4-1.1-2.5-2.5-2.5h-3.8
		c-1.4-0.1-2.5,1.1-2.5,2.5V32.2z"/>
	<path class="st0" d="M69,40.3c0,1.6,1.3,3,3,3h2.8c1.6,0,3-1.3,3-3v-5.6l0,0v-8.6V26h5.6c1.6,0,3-1.3,3-3v-2.8c0-1.6-1.3-3-3-3
		h-5.6V8.6h-0.1V3c0-1.6-1.3-3-3-3h-2.8c-1.6,0-3,1.3-3,3v5.6v0.3v8.3v0.3v8.3v0.3v8.6H69V40.3z"/>
	<path class="st0" d="M172.4,37.4c0-1.6-1.3-3-3-3h-2.8c-1.6,0-3,1.3-3,3v5.7v0.2V49c0,1.6,1.3,3,3,3h5.6v8.3v0.3v8.3v0.3v8.3v0.3
		v5.6c0,1.6,1.3,3,3,3h5.6h0.3h8.4h0.2h5.7c1.6,0,3-1.3,3-3v-5.9h-0.1v-5.6c0-1.6-1.3-3-3-3h-2.8c-1.6,0-3,1.3-3,3v3.2
		c0,1.2-0.8,2.1-1.8,2.4h-6.6v-8.3v-0.3v-8.3v-0.3v-8.4v-0.2V46c0-1.6-1.3-3-3-3h-5.7L172.4,37.4L172.4,37.4z"/>
	<path class="st0" d="M126.9,51.7h-3.8c-1.4,0-2.5,1.1-2.5,2.5V58c0,1.4,1.1,2.5,2.5,2.5h3.8c1.4,0,2.5-1.1,2.5-2.5v-3.8
		C129.4,52.8,128.3,51.7,126.9,51.7z"/>
	<path class="st0" d="M69,66.2c0,1.6,1.3,3,3,3h2.8c1.6,0,3-1.3,3-3v-5.9h-0.1v-5.7c0-1.6-1.3-3-3-3h-2.8c-1.6,0-3,1.3-3,3v5.9H69
		V66.2z"/>
	<path class="st0" d="M135,60.3h-2.8c-1.6,0-3,1.3-3,3v5.9h0.1v5.6c0,1.6,1.3,3,3,3h2.8c1.6,0,3-1.3,3-3v-5.9H138v-5.6
		C138,61.7,136.7,60.3,135,60.3z"/>
	<path class="st0" d="M60.3,69h-5.7c-1.6,0-3,1.3-3,3v2.8c0,1.6,1.3,3,3,3h5.9v-0.1h5.7c1.6,0,3-1.3,3-3v-2.8c0-1.6-1.3-3-3-3
		L60.3,69L60.3,69z"/>
	<path class="st0" d="M94.7,77.8H95h5.6c1.6,0,3-1.3,3-3v-5.6h8.3v8.6h0.1v5.6c0,1.6,1.3,3,3,3h2.8c1.6,0,3-1.3,3-3v-5.6v-0.3v-8.3
		v-0.3v-5.6c0-1.6-1.3-3-3-3h-5.6h-0.1v-5.7c0-1.6-1.3-3-3-3h-2.8c-1.6,0-3,1.3-3,3v3.9c-0.2,0.8-0.9,1.5-1.7,1.8H95h-0.1v-5.7
		c0-1.6-1.3-3-3-3h-2.8c-1.6,0-3,1.3-3,3v5.7v0.2v6.7c-0.3,1.1-1.2,1.8-2.4,1.8h-3.2c-1.6,0-3,1.3-3,3v2.8c0,1.6,1.3,3,3,3h5.6l0,0
		H94.7z"/>
	<path class="st0" d="M247,68.9h-5.9l0,0h-8.3h-0.3h-8.3h-0.3h-8.6V69h-5.6c-1.6,0-3,1.3-3,3v2.8c0,1.6,1.3,3,3,3h5.6l0,0h8.6h0.1
		v5.6c0,1.6,1.3,3,3,3h2.8c1.6,0,3-1.3,3-3v-5.6h8.3v8.3h-5.6c-1.6,0-3,1.3-3,3V95h0.1v5.6c0,1.6,1.3,3,3,3h2.8c1.6,0,3-1.3,3-3V95
		h5.6c1.6,0,3-1.3,3-3v-5.6v-0.3v-8.3v-0.3v-5.6C250,70.3,248.7,68.9,247,68.9z"/>
	<path class="st0" d="M163.9,83.3v-2.8c0-1.6-1.3-3-3-3h-5.6v-8.3h5.6c1.6,0,3-1.3,3-3v-5.9h-0.1v-5.7c0-1.6-1.3-3-3-3H158
		c-1.6,0-3,1.3-3,3v3.9c-0.2,0.8-0.9,1.5-1.7,1.8h-3.9c-1.6,0-3,1.3-3,3v5.6v0.3v8.3v0.3v5.6c0,1.6,1.3,3,3,3h5.9v-0.1h5.6
		C162.5,86.3,163.9,85,163.9,83.3z"/>
	<path class="st0" d="M203.9,86.1h-2.8c-1.6,0-3,1.3-3,3v3.2c0.1,1.2-0.7,2.1-1.8,2.4h-6.8v0.1h-5.7c-1.6,0-3,1.3-3,3v2.8
		c0,1.6,1.3,3,3,3h5.7l0,0v8.3h-8.4h-0.3h-5.6c-1.6,0-3,1.3-3,3v5.7v0.2v6.6c-0.3,1-1.2,1.9-2.4,1.9h-3.2c-1.6,0-3,1.3-3,3v2.8
		c0,1.6,1.3,3,3,3h5.6v8.3v0.3v8.3v0.3v5.6c0,1.6,1.3,3,3,3h5.9v-0.1h5.6c1.6,0,3-1.3,3-3V158c0-1.6-1.3-3-3-3h-5.6v-8.3h8.4h0.2
		h5.7c1.6,0,3-1.3,3-3v-5.6h5.6c1.6,0,3-1.3,3-3v-5.6v-0.3v-8.4v-0.2v-8.4v-0.3v-8.3v-0.1h5.6c1.6,0,3-1.3,3-3v-2.8c0-1.6-1.3-3-3-3
		H207h-0.1v-5.6C206.9,87.5,205.6,86.1,203.9,86.1z M189.5,120.8v8.4h-8.4v-8.4C181.1,120.8,189.5,120.8,189.5,120.8z"/>
	<path class="st0" d="M224.1,88.7c0-1.4-1.1-2.5-2.5-2.5h-3.8c-1.4-0.1-2.5,1.1-2.5,2.5v3.8c0,1.4,1.1,2.5,2.5,2.5h3.8
		c1.4,0,2.5-1.1,2.5-2.5V88.7z"/>
	<path class="st0" d="M3,103.6h5.6h0.3h8.3v5.6c0,1.6,1.3,3,3,3h5.6h0.3h5.6c1.6,0,3-1.3,3-3v-5.6h5.6c1.6,0,3-1.3,3-3V95h8.4H52
		h8.3h0.3h8.3v8.3l0,0v5.9c0,1.6,1.3,3,3,3h5.7v5.6c0,1.6,1.3,3,3,3h2.8c1.6,0,3-1.3,3-3v-5.6v-0.3v-5.6c0-1.6-1.3-3-3-3h-5.6V95
		v-0.1h5.6c1.6,0,3-1.3,3-3v-2.8c0-1.6-1.3-3-3-3h-5.6h-0.3h-8.3h-0.3h-8.3h-0.3H52v-5.6c0-1.6-1.3-3-3-3h-5.7h-0.1v-5.6
		c0-1.6-1.3-3-3-3h-2.8c-1.6,0-3,1.3-3,3v3.9c-0.2,0.8-0.9,1.5-1.7,1.7h-6.6v-5.6c0-1.6-1.3-3-3-3h-5.9V69h-5.6c-1.6,0-3,1.3-3,3
		v2.8c0,1.6,1.3,3,3,3h5.6v8.3v0.3V93c-0.2,0.8-0.9,1.5-1.7,1.7H8.9v-8.6H8.8v-5.6c0-1.6-1.3-3-3-3H3c-1.6,0-3,1.3-3,3v5.6v0.3v8.3
		V95v5.6C0,102.2,1.3,103.6,3,103.6z M34.4,86.4v8.3h-8.3v-8.3H34.4z"/>
	<path class="st0" d="M163.6,101.1c0,1.4,1.1,2.5,2.5,2.5h3.8c1.4,0,2.5-1.1,2.5-2.5v-3.8c0-1.4-1.1-2.5-2.5-2.5h-3.8
		c-1.3-0.1-2.5,1.1-2.5,2.5V101.1z"/>
	<path class="st0" d="M58,103.4h-3.8c-1.4-0.1-2.5,1.1-2.5,2.5v3.8c0,1.4,1.1,2.5,2.5,2.5H58c1.4,0,2.5-1.1,2.5-2.5v-3.8
		C60.5,104.5,59.4,103.4,58,103.4z"/>
	<path class="st0" d="M2.5,120.8h3.8c1.4,0,2.5-1.1,2.5-2.5v-3.8c0-1.4-1.1-2.5-2.5-2.5H2.5c-1.4-0.1-2.5,1.1-2.5,2.5v3.8
		C0,119.7,1.1,120.8,2.5,120.8z"/>
	<path class="st0" d="M247,111.9h-5.6h-0.3h-5.6c-1.6,0-3,1.3-3,3v3.9c-0.3,1.1-1.2,1.8-2.4,1.8h-3.2c-1.6,0-3,1.3-3,3v2.8
		c0,1.6,1.3,3,3,3h5.6v0.1h8.6v8.3v0.3v6.6c-0.2,0.8-0.9,1.5-1.7,1.7h-6.6h-0.3h-5.6c-1.6,0-3,1.3-3,3v3.9c-0.2,0.8-0.9,1.5-1.7,1.7
		h-6.6h-0.3h-8.6v0.1H201c-1.6,0-3,1.3-3,3v2.8c0,1.6,1.3,3,3,3h5.7h0.2h8.4h0.1v5.6c0,1.6,1.3,3,3,3h2.8c1.6,0,3-1.3,3-3v-5.6h8.3
		h0.1v5.6c0,1.6,1.3,3,3,3h2.8c1.6,0,3-1.3,3-3v-5.6h5.6c1.6,0,3-1.3,3-3v-5.6V155v-8.3v-0.3v-8.3v-0.3v-8.3v-0.3v-8.4v-0.2v-5.7
		C250,113.3,248.7,111.9,247,111.9z"/>
	<path class="st0" d="M3,146.7h5.6h0.3h8.3h0.3h5.6c1.6,0,3-1.3,3-3v-5.6l0,0h8.3v8.6h0.1v5.6c0,1.6,1.3,3,3,3h2.8c1.6,0,3-1.3,3-3
		v-5.6h8.4H52h8.3h0.3h8.3H69v5.6c0,1.6,1.3,3,3,3h2.8c1.6,0,3-1.3,3-3v-5.6l0,0V138h5.6c1.6,0,3-1.3,3-3v-2.8c0-1.6-1.3-3-3-3h-5.6
		h-0.3h-5.6c-1.6,0-3,1.3-3,3v3.8c-0.2,0.8-0.9,1.5-1.8,1.8h-6.5h-0.3H52h-0.3h-8.4v-8.3h8.4H52h8.6v-0.1h5.6c1.6,0,3-1.3,3-3v-2.8
		c0-1.6-1.3-3-3-3h-5.6h-0.3H52h-0.3h-8.4v-0.1h-5.9c-1.6,0-3,1.3-3,3v3.9c-0.2,0.8-0.9,1.5-1.7,1.8h-6.6h-0.3h-5.6
		c-1.6,0-3,1.3-3,3v3.8c-0.2,0.8-0.9,1.5-1.7,1.8H8.9H8.8v-5.6c0-1.6-1.3-3-3-3H3c-1.6,0-3,1.3-3,3v5.6v0.3v5.6
		C0,145.3,1.3,146.7,3,146.7z"/>
	<path class="st0" d="M217.8,137.8c-1.4,0-2.5,1.1-2.5,2.5v3.8c0,1.4,1.1,2.5,2.5,2.5h3.8c1.4,0,2.5-1.1,2.5-2.5v-3.8
		c0-1.4-1.1-2.5-2.5-2.5H217.8z"/>
	<path class="st0" d="M2.5,163.8h3.8c1.4,0,2.5-1.1,2.5-2.5v-3.8c0-1.4-1.1-2.5-2.5-2.5H2.5c-1.4,0-2.5,1.1-2.5,2.5v3.8
		C0,162.7,1.1,163.8,2.5,163.8z"/>
	<path class="st0" d="M57.6,155h-5.9v0.1H46c-1.6,0-3,1.3-3,3v2.8c0,1.6,1.3,3,3,3h5.9v-0.1h5.7c1.6,0,3-1.3,3-3V158
		C60.6,156.4,59.3,155,57.6,155z"/>
	<path class="st0" d="M95,166.6c0-1.6-1.3-3-3-3h-5.6h-0.3h-8.3h-0.3h-5.6c-1.6,0-3,1.3-3,3v3.9c-0.2,0.9-0.9,1.5-1.8,1.7h-6.5h-0.3
		H52h-0.3h-8.6v0.1h-5.7c-1.6,0-3,1.3-3,3v2.8c0,1.6,1.3,3,3,3h5.7h0.2h8.4H52h8.3h0.3h8.3v8.4l0,0v5.9c0,1.6,1.3,3,3,3h5.6v8.3v0.1
		h-5.6c-1.6,0-3,1.3-3,3v2.8c0,1.6,1.3,3,3,3h5.7v5.6c0,1.6,1.3,3,3,3h2.8c1.6,0,3-1.3,3-3v-5.6v-0.3V207v-0.3v-8.4v-0.2v-5.7
		c0-1.6-1.3-3-3-3h-5.6v-8.3h5.6c1.6,0,3-1.3,3-3v-5.6v-0.1H92c1.6,0,3-1.3,3-3V166.6z"/>
	<path class="st0" d="M2.5,181.1h3.8c1.4,0,2.5-1.1,2.5-2.5v-3.8c0-1.4-1.1-2.5-2.5-2.5H2.5c-1.4-0.1-2.5,1.1-2.5,2.5v3.8
		C0,180,1.1,181.1,2.5,181.1z"/>
	<path class="st0" d="M20.3,181.1h2.8c1.6,0,3-1.3,3-3v-5.7h5.6c1.6,0,3-1.3,3-3v-2.8c0-1.6-1.3-3-3-3h-5.6H26V158c0-1.6-1.3-3-3-3
		h-2.8c-1.6,0-3,1.3-3,3v3.9c-0.3,1.1-1.2,1.8-2.4,1.8h-3.2c-1.6,0-3,1.3-3,3v2.8c0,1.6,1.3,3,3,3h5.6h0.1v5.6
		C17.3,179.7,18.6,181.1,20.3,181.1z"/>
	<path class="st0" d="M129.4,175.2c0-1.6-1.3-3-3-3h-2.8c-1.6,0-3,1.3-3,3v3.2c0,1.2-0.8,2.1-1.8,2.4h-3.9c-1.6,0-3,1.3-3,3v3.9
		c-0.3,1.1-1.2,1.8-2.4,1.8h-5.9h-0.3h-5.6c-1.6,0-3,1.3-3,3v2.8c0,1.6,1.3,3,3,3h5.6v0.1h8.6h0.3h8.4h0.2h5.7c1.6,0,3-1.3,3-3v-5.7
		v-0.2v-8.7h-0.1L129.4,175.2L129.4,175.2z"/>
	<path class="st0" d="M137.8,178.1c0,1.6,1.3,3,3,3h5.6h0.3h5.6c1.6,0,3-1.3,3-3v-5.6v-0.3v-5.6c0-1.6-1.3-3-3-3h-5.6h-0.3h-8.6v0.1
		h-5.6c-1.6,0-3,1.3-3,3v2.8c0,1.6,1.3,3,3,3h5.6V178.1z"/>
	<path class="st0" d="M249.9,175.2c0-1.6-1.3-3-3-3h-2.8c-1.6,0-3,1.3-3,3v3.9c-0.2,0.8-0.9,1.5-1.7,1.7h-3.9c-1.6,0-3,1.3-3,3v3.9
		c-0.3,1.1-1.2,1.8-2.4,1.8h-3.2c-1.6,0-3,1.3-3,3v2.8c0,1.6,1.3,3,3,3h5.6v0.1v8.3v0.3v6.5c-0.3,1-1.2,1.9-2.4,1.9h-3.2
		c-1.6,0-3,1.3-3,3v2.8c0,1.6,1.3,3,3,3h5.6h0.3h8.3h0.1v5.6c0,1.6,1.3,3,3,3h2.8c1.6,0,3-1.3,3-3v-5.6v-0.3v-5.6c0-1.6-1.3-3-3-3
		h-5.6V207h5.6c1.6,0,3-1.3,3-3v-5.6v-0.3v-8.4v-0.2v-8.7h-0.1L249.9,175.2L249.9,175.2z"/>
	<path class="st0" d="M195.8,189.5H192c-1.4,0-2.5,1.1-2.5,2.5v3.8c0,1.4,1.1,2.5,2.5,2.5h3.8c1.4,0,2.5-1.1,2.5-2.5V192
		C198.3,190.6,197.2,189.5,195.8,189.5z"/>
	<path class="st0" d="M126.5,206.7h-5.9v0.1h-5.7c-1.6,0-3,1.3-3,3v2.8c0,1.6,1.3,3,3,3h5.7v8.3l0,0h-5.7c-1.6,0-3,1.3-3,3v5.9h0.1
		v5.6c0,1.6,1.3,3,3,3h2.8c1.6,0,3-1.3,3-3v-5.6l0,0h5.7c1.6,0,3-1.3,3-3v-5.6v-0.3v-8.3v-0.3v-5.6
		C129.5,208.1,128.2,206.7,126.5,206.7z"/>
	<path class="st0" d="M146.7,224.2h8.6v-0.1h5.6c1.6,0,3-1.3,3-3v-2.8c0-1.6-1.3-3-3-3h-5.6V207v-0.1h5.6c1.6,0,3-1.3,3-3v-2.8
		c0-1.6-1.3-3-3-3h-5.6v-5.7c0-1.6-1.3-3-3-3h-5.9v0.1h-5.6c-1.6,0-3,1.3-3,3v2.8c0,1.6,1.3,3,3,3h5.6v8.4v0.3v6.5
		c-0.2,0.8-0.9,1.5-1.8,1.8h-3.8c-1.6,0-3,1.3-3,3v5.9h0.1v5.6c0,1.6,1.3,3,3,3h2.8c1.6,0,3-1.3,3-3L146.7,224.2L146.7,224.2z"/>
	<path class="st0" d="M163.6,230.2c0,1.4,1.1,2.5,2.5,2.5h3.8c1.4,0,2.5-1.1,2.5-2.5v-3.8c0-1.4-1.1-2.5-2.5-2.5h-3.8
		c-1.3,0-2.5,1.1-2.5,2.5V230.2z"/>
	<path class="st0" d="M221.2,223.9h-5.6v-8.3v-0.1h5.6c1.6,0,3-1.3,3-3v-2.8c0-1.6-1.3-3-3-3h-5.6v-8.3v-0.3v-8.4v-0.2v-8.4v-0.3
		v-5.6c0-1.6-1.3-3-3-3H207h-0.3h-8.3h-0.1v-5.6c0-1.6-1.3-3-3-3h-2.8c-1.6,0-3,1.3-3,3v3.2c0,1.2-0.8,2.1-1.8,2.4h-6.6h-0.3h-5.6
		c-1.6,0-3,1.3-3,3v5.6v0.3v6.6c-0.3,1.1-1.2,1.8-2.4,1.8h-3.2c-1.6,0-3,1.3-3,3v2.8c0,1.6,1.3,3,3,3h5.6v0.1v8.3v0.3v8.3v0.3v5.6
		c0,1.6,1.3,3,3,3h5.6h0.3h5.6c1.6,0,3-1.3,3-3v-5.6h8.4h0.3h8.3v8.3l0,0H201c-1.6,0-3,1.3-3,3v5.9h0.1v5.6c0,1.6,1.3,3,3,3h2.8
		c1.6,0,3-1.3,3-3v-5.6l0,0h8.7v-0.1h5.6c1.6,0,3-1.3,3-3v-2.8C224.2,225.3,222.9,223.9,221.2,223.9z M198.1,206.7h-8.4h-0.2h-8.4
		v-8.3v-0.3v-8.4v-0.2v-8.4h8.4h0.2h8.4h0.3h8.3v8.4v0.2v8.4v0.3v5.9c0.1,1.1-0.7,2.1-1.8,2.4h-6.5L198.1,206.7L198.1,206.7z"/>
	<path class="st0" d="M77.8,232.5L77.8,232.5l-0.1-5.6c0-1.6-1.3-3-3-3h-2.8c-1.6,0-3,1.3-3,3v5.9H69v5.6c0,1.6,1.3,3,3,3h2.8
		c1.6,0,3-1.3,3-3V232.5z"/>
	<path class="st0" d="M163.9,235.5c0-1.6-1.3-3-3-3h-5.6H155h-5.6c-1.6,0-3,1.3-3,3v5.9h0.1v5.6c0,1.6,1.3,3,3,3h2.8
		c1.6,0,3-1.3,3-3v-5.6v-0.1h5.6c1.6,0,3-1.3,3-3L163.9,235.5L163.9,235.5z"/>
	<path class="st0" d="M181,235.5c0-1.6-1.3-3-3-3h-2.8c-1.6,0-3,1.3-3,3v3.9c-0.3,1.1-1.2,1.8-2.4,1.8h-3.2c-1.6,0-3,1.3-3,3v2.8
		c0,1.6,1.3,3,3,3h5.6h0.3h5.6c1.6,0,3-1.3,3-3v-5.9H181V235.5z"/>
	<path class="st0" d="M83.8,241.2H80c-1.4-0.1-2.5,1.1-2.5,2.5v3.8c0,1.4,1.1,2.5,2.5,2.5h3.8c1.4,0,2.5-1.1,2.5-2.5v-3.8
		C86.3,242.3,85.2,241.2,83.8,241.2z"/>
	<path class="st0" d="M109.6,241.2h-3.8c-1.3-0.1-2.5,1.1-2.5,2.5v3.8c0,1.4,1.1,2.5,2.5,2.5h3.8c1.4,0,2.5-1.1,2.5-2.5v-3.8
		C112.1,242.3,111,241.2,109.6,241.2z"/>
	<path class="st0" d="M195.8,241.2H192c-1.4-0.1-2.5,1.1-2.5,2.5v3.8c0,1.4,1.1,2.5,2.5,2.5h3.8c1.4,0,2.5-1.1,2.5-2.5v-3.8
		C198.3,242.3,197.2,241.2,195.8,241.2z"/>
	<path class="st0" d="M213,241.2h-3.8c-1.4-0.1-2.5,1.1-2.5,2.5v3.8c0,1.4,1.1,2.5,2.5,2.5h3.8c1.4,0,2.5-1.1,2.5-2.5v-3.8
		C215.5,242.3,214.4,241.2,213,241.2z"/>
	<path class="st0" d="M247,241.1h-5.6h-0.1v-5.6c0-1.6-1.3-3-3-3h-2.8c-1.6,0-3,1.3-3,3v5.6v0.3v5.6c0,1.6,1.3,3,3,3h5.9v-0.1h5.6
		c1.6,0,3-1.3,3-3v-2.8C250,242.5,248.7,241.1,247,241.1z"/>
	<path class="st0" d="M27,44.4c7.5,0,0.7,0,8.2,0c7.4,0,9.2-1.7,9.2-9.2s0-0.7,0-8.2c0-7.4-1.7-9.2-9.2-9.2s-0.8,0-8.2,0
		s-9.2,1.7-9.2,9.2c0,4.2,0,0.8,0,8.2S19.5,44.4,27,44.4z"/>
	<path class="st0" d="M21.5,62.1c17.4,0,1.7,0,19.1,0S62.1,58,62.1,40.6s0-1.7,0-19.1S58,0,40.6,0s-1.7,0-19.1,0S0,4.1,0,21.5
		c0,9.8,0,1.7,0,19.1S4.1,62.1,21.5,62.1z M8.9,21.5c0-8.4,1.1-10.5,1.6-11c0.5-0.4,2.5-1.6,11-1.6h19.2c8.4,0,10.5,1.1,11,1.6
		c0.4,0.5,1.6,2.5,1.6,11v19.1c0,8.5-1.2,10.5-1.7,11c-0.5,0.4-2.5,1.6-11,1.6H21.5c-8.4,0-10.5-1.1-11-1.6c-0.4-0.5-1.6-2.5-1.6-11
		V21.5z"/>
	<path class="st0" d="M223.1,17.8c-7.5,0-0.8,0-8.2,0s-9.2,1.7-9.2,9.2c0,4.2,0,0.8,0,8.2s1.7,9.2,9.2,9.2s0.7,0,8.2,0
		c7.4,0,9.2-1.7,9.2-9.2s0-0.7,0-8.2C232.3,19.6,230.6,17.8,223.1,17.8z"/>
	<path class="st0" d="M228.5,0c-17.4,0-1.7,0-19.1,0s-21.5,4.1-21.5,21.5c0,9.8,0,1.7,0,19.1s4.1,21.5,21.5,21.5s1.7,0,19.1,0
		S250,58,250,40.6s0-1.7,0-19.1S245.9,0,228.5,0z M241.2,40.6c0,8.5-1.2,10.5-1.7,11c-0.5,0.4-2.5,1.6-11,1.6h-19.1
		c-8.4,0-10.5-1.1-11-1.6c-0.4-0.5-1.6-2.5-1.6-11V21.5c0-8.4,1.1-10.5,1.6-11c0.5-0.4,2.5-1.6,11-1.6h19.2c8.4,0,10.5,1.1,11,1.6
		c0.4,0.5,1.6,2.5,1.6,11V40.6z"/>
	<path class="st0" d="M40.6,187.9c-17.4,0-1.7,0-19.1,0S0,192,0,209.4c0,9.8,0,1.7,0,19.1S4.1,250,21.5,250s1.7,0,19.1,0
		s21.5-4.1,21.5-21.5s0-1.7,0-19.1S58,187.9,40.6,187.9z M53.3,228.5c0,8.5-1.2,10.5-1.7,11c-0.5,0.4-2.5,1.6-11,1.6H21.5
		c-8.4,0-10.5-1.1-11-1.6c-0.4-0.5-1.6-2.5-1.6-11v-19.1c0-8.4,1.1-10.5,1.6-11c0.5-0.4,2.5-1.6,11-1.6h19.2c8.4,0,10.5,1.1,11,1.6
		c0.4,0.5,1.6,2.5,1.6,11V228.5z"/>
	<path class="st0" d="M35.2,205.7c-7.5,0-0.8,0-8.2,0s-9.2,1.7-9.2,9.2c0,4.2,0,0.7,0,8.2c0,7.4,1.7,9.2,9.2,9.2s0.7,0,8.2,0
		c7.4,0,9.2-1.7,9.2-9.2s0-0.7,0-8.2C44.4,207.5,42.7,205.7,35.2,205.7z"/>
	<path class="st0" d="M115.3,157.8c18.1,0,1.7,0,19.9,0s22.5-4.3,22.5-22.5s0-1.7,0-19.9s-4.4-22.5-22.5-22.5s-1.7,0-19.9,0
		c-18.1,0-22.5,4.3-22.5,22.5c0,10.1,0,1.7,0,19.9S97.1,157.8,115.3,157.8z M108.4,128.9c1.3,0.3,2.7,0.2,4-0.2
		c-4.1-0.8-7.1-4.5-7.1-8.7v-0.1c1.2,0.7,2.6,1.1,4,1.1c-3.9-2.6-5.1-7.8-2.7-11.8c4.5,5.5,11.1,8.9,18.3,9.3
		c-0.7-3.1,0.3-6.3,2.6-8.5c3.6-3.4,9.2-3.2,12.5,0.4c2-0.4,3.9-1.1,5.6-2.2c-0.7,2.1-2,3.8-3.9,4.9c1.8-0.2,3.5-0.7,5.1-1.4
		c-1.1,1.9-2.6,3.5-4.4,4.8c0,0.4,0,0.8,0,1.1c0,11.7-8.9,25.2-25.2,25.2c-4.8,0-9.5-1.4-13.6-4c0.7,0.1,1.4,0.1,2.1,0.1
		c4,0,7.9-1.3,11-3.8C112.9,135,109.6,132.6,108.4,128.9z"/>
</g>
</svg>
