<?xml version="1.0" encoding="utf-8"?>
<!-- Generator: Adobe Illustrator 24.0.1, SVG Export Plug-In . SVG Version: 6.00 Build 0)  -->
<svg version="1.1" id="Слой_1" xmlns="http://www.w3.org/2000/svg" xmlns:xlink="http://www.w3.org/1999/xlink" x="0px" y="0px"
	 viewBox="0 0 250 250" style="enable-background:new 0 0 250 250;" xml:space="preserve">
<style type="text/css">
	.st0{fill-rule:evenodd;clip-rule:evenodd;}
</style>
<g>
	<path d="M158,8.9h5.6v8.3H158c-1.7,0-3,1.4-3,3V23c0,1.7,1.4,3,3,3h5.6h0.3h8.3v8.3h-8.3h-0.3H158c-1.7,0-3,1.4-3,3v2.8
		c0,1.7,1.4,3,3,3h5.6h0.3h8.3v8.3v0.3V60v0.3v8.3v0.3v5.6c0,1.7,1.4,3,3,3h5.6v8.3h-5.6c-1.7,0-3,1.4-3,3V92c0,1.7,1.4,3,3,3h5.6
		h0.3h8.3h0.3h8.3h0.3h5.6c1.7,0,3-1.4,3-3v-5.6h5.6c1.7,0,3-1.4,3-3v-5.6h5.6c1.7,0,3-1.4,3-3V72c0-1.7-1.4-3-3-3h-5.6h-0.3h-5.6
		c-1.7,0-3,1.4-3,3v3.8c-0.2,0.9-0.9,1.6-1.8,1.8H201c-1.7,0-3,1.4-3,3v3.8c-0.2,0.9-0.9,1.6-1.8,1.8h-6.5v-8.3h5.6c1.7,0,3-1.4,3-3
		v-2.8c0-1.7-1.4-3-3-3h-5.6h-0.3h-8.3v-8.3v-0.3v-8.3v-0.3v-8.3v-0.3V35v-0.3v-8.3v-0.3v-8.3v-0.3V8.9V8.6V3c0-1.7-1.4-3-3-3h-5.6
		h-0.3h-8.3h-0.3H158c-1.7,0-3,1.4-3,3v2.8C155,7.5,156.4,8.9,158,8.9z"/>
	<path d="M71.9,17.5h5.6v5.6c0,1.7,1.4,3,3,3h2.8c1.7,0,3-1.4,3-3v-5.6H92c1.7,0,3-1.4,3-3v-2.8c0-1.7-1.4-3-3-3h-5.6V3
		c0-1.7-1.4-3-3-3h-2.8c-1.7,0-3,1.4-3,3v3.8c-0.2,0.9-0.9,1.6-1.8,1.8H72c-1.7,0-3,1.4-3,3v2.8C68.9,16.1,70.2,17.5,71.9,17.5z"/>
	<path d="M106.4,17.5h5.6v5.6c0,1.7,1.4,3,3,3h2.8c1.7,0,3-1.4,3-3v-5.6h5.6c1.7,0,3-1.4,3-3V8.9V8.6V3c0-1.7-1.4-3-3-3h-2.8
		c-1.7,0-3,1.4-3,3v3.8c-0.2,0.9-0.9,1.6-1.8,1.8h-6.5H112h-5.6c-1.7,0-3,1.4-3,3v2.8C103.3,16.1,104.7,17.5,106.4,17.5z"/>
	<path d="M148.9,17.5h3.8c1.4,0,2.5-1.1,2.5-2.5v-3.8c0-1.4-1.1-2.5-2.5-2.5h-3.8c-1.4,0-2.5,1.1-2.5,2.5V15
		C146.4,16.4,147.5,17.5,148.9,17.5z"/>
	<path d="M129.2,24c-0.2,0.9-0.9,1.6-1.8,1.8h-3.8c-1.7,0-3,1.4-3,3v3.8c-0.2,0.9-0.9,1.6-1.8,1.8H115c-1.7,0-3,1.4-3,3v2.8
		c0,1.7,1.4,3,3,3h5.6h0.3h8.3v5.6c0,1.7,1.4,3,3,3h5.6v8.3h-5.6c-1.7,0-3,1.4-3,3v2.8c0,1.7,1.4,3,3,3h5.6h0.3h8.3h0.3h8.3h0.3h5.6
		c1.7,0,3-1.4,3-3v-5.6V60v-5.6c0-1.7-1.4-3-3-3H158c-1.7,0-3,1.4-3,3v3.8c-0.2,0.9-0.9,1.6-1.8,1.8h-6.5v-8.3v-0.3v-5.6
		c0-1.7-1.4-3-3-3H138v-8.3v-0.3v-8.3h5.6c1.7,0,3-1.4,3-3v-2.8c0-1.7-1.4-3-3-3H138h-0.3h-5.6c-1.7,0-3,1.4-3,3V24H129.2z"/>
	<path d="M94.7,25.8h-5.6c-1.7,0-3,1.4-3,3v2.8c0,1.7,1.4,3,3,3h5.6H95h5.6c1.7,0,3-1.4,3-3v-2.8c0-1.7-1.4-3-3-3H95H94.7z"/>
	<path d="M155.3,28.4c0-1.4-1.1-2.5-2.5-2.5H149c-1.4,0-2.5,1.1-2.5,2.5v3.8c0,1.4,1.1,2.5,2.5,2.5h3.8c1.4,0,2.5-1.1,2.5-2.5V28.4z
		"/>
	<path d="M71.9,43.3h2.8c1.7,0,3-1.4,3-3v-5.6v-0.3v-5.6c0-1.7-1.4-3-3-3h-2.8c-1.7,0-3,1.4-3,3v5.6v0.3v5.6
		C68.9,42,70.2,43.3,71.9,43.3z"/>
	<path d="M123.1,60.5h3.8c1.4,0,2.5-1.1,2.5-2.5v-3.8c0-1.4-1.1-2.5-2.5-2.5h-3.8c-1.4,0-2.5,1.1-2.5,2.5V58
		C120.6,59.4,121.7,60.5,123.1,60.5z"/>
	<path d="M71.9,77.8h2.8c1.7,0,3-1.4,3-3v-5.6v-0.3v-8.3v-0.3v-5.6c0-1.7-1.4-3-3-3h-2.8c-1.7,0-3,1.4-3,3v5.6v0.3v8.3v0.3v5.6
		C68.9,76.4,70.2,77.8,71.9,77.8z"/>
	<path d="M88.7,77.8h3.8c1.4,0,2.5-1.1,2.5-2.5v-3.8c0-1.4-1.1-2.5-2.5-2.5h-3.8c-1.4,0-2.5,1.1-2.5,2.5v3.8
		C86.1,76.6,87.2,77.8,88.7,77.8z"/>
	<path d="M28.9,86.4h2.8c1.7,0,3-1.4,3-3v-5.6H43h0.3h8.3h0.3h5.6c1.7,0,3-1.4,3-3V72c0-1.7-1.4-3-3-3h-5.6h-0.3h-8.3H43h-8.3h-0.3
		h-5.6c-1.7,0-3,1.4-3,3v5.6v0.3v5.6C25.8,85,27.2,86.4,28.9,86.4z"/>
	<path d="M112.2,86.4h8.3h0.3h5.6c1.7,0,3-1.4,3-3v-5.6v-0.3v-5.6c0-1.7-1.4-3-3-3h-5.6v-5.6c0-1.7-1.4-3-3-3h-5.6V52v-0.3v-5.6
		c0-1.7-1.4-3-3-3h-5.6h-0.3H95h-0.3h-8.3h-0.3h-5.6c-1.7,0-3,1.4-3,3v2.8c0,1.7,1.4,3,3,3h5.6v5.6c0,1.7,1.4,3,3,3H92
		c1.7,0,3-1.4,3-3v-5.6h8.3v8.3h-5.6c-1.7,0-3,1.4-3,3V66c0,1.7,1.4,3,3,3h5.6v8.3h-5.6c-1.7,0-3,1.4-3,3v2.8c0,1.7,1.4,3,3,3h5.6
		h0.3h8.3h0.3V86.4z"/>
	<path d="M163.9,86.4h5.6c1.7,0,3-1.4,3-3v-2.8c0-1.7-1.4-3-3-3h-5.6h-0.3H158c-1.7,0-3,1.4-3,3v2.8c0,1.7,1.4,3,3,3h5.6H163.9z"/>
	<path d="M241.4,77.8v-0.3v-5.6c0-1.7-1.4-3-3-3h-2.8c-1.7,0-3,1.4-3,3v3.8c-0.2,0.9-0.9,1.6-1.8,1.8H227c-1.7,0-3,1.4-3,3v2.8
		c0,1.7,1.4,3,3,3h5.6h0.3h5.6c1.7,0,3-1.4,3-3v-5.5H241.4z"/>
	<path d="M60.3,86.1h-5.6c-1.7,0-3,1.4-3,3V92c0,1.7,1.4,3,3,3h5.6v6.5c-0.2,0.9-0.9,1.6-1.8,1.8H52v-5.6c0-1.7-1.4-3-3-3h-5.6h-0.3
		h-5.6c-1.7,0-3,1.4-3,3v5.6v0.3v5.6c0,1.7,1.4,3,3,3h5.6h0.3h8.3H52h8.3h0.3h5.6c1.7,0,3-1.4,3-3v-5.6v-0.3V95v-0.3v-5.6
		c0-1.7-1.4-3-3-3h-5.6H60.3z"/>
	<path d="M86.4,86.4v-0.3v-5.6c0-1.7-1.4-3-3-3h-2.8c-1.7,0-3,1.4-3,3v5.6v0.3V92c0,1.7,1.4,3,3,3h2.8c1.7,0,3-1.4,3-3V86.4z"/>
	<path d="M217.8,103.6h3.8c1.4,0,2.5-1.1,2.5-2.5v-3.8c0-1.4-1.1-2.5-2.5-2.5h-3.8c-1.4,0-2.5,1.1-2.5,2.5v3.8
		C215.3,102.5,216.4,103.6,217.8,103.6z"/>
	<path d="M247.5,94.7h-3.8c-1.4,0-2.5,1.1-2.5,2.5v3.8c0,1.4,1.1,2.5,2.5,2.5h3.8c1.4,0,2.5-1.1,2.5-2.5v-3.8
		C250,95.9,248.9,94.7,247.5,94.7z"/>
	<path d="M83.4,103.3h-2.8c-1.7,0-3,1.4-3,3v5.6v0.3v8.3v0.3v5.6c0,1.7,1.4,3,3,3h2.8c1.7,0,3-1.4,3-3v-5.6v-0.3v-8.3v-0.3v-5.6
		C86.4,104.7,85,103.3,83.4,103.3z"/>
	<path d="M209.2,120.8h3.8c1.4,0,2.5-1.1,2.5-2.5v-3.8c0-1.4-1.1-2.5-2.5-2.5h-3.8c-1.4,0-2.5,1.1-2.5,2.5v3.8
		C206.7,119.7,207.8,120.8,209.2,120.8z"/>
	<path d="M226.9,120.8h2.8c1.7,0,3-1.4,3-3v-5.6h5.6c1.7,0,3-1.4,3-3v-2.8c0-1.7-1.4-3-3-3h-5.6h-0.3h-5.6c-1.7,0-3,1.4-3,3v5.6v0.3
		v5.6C223.9,119.5,225.2,120.8,226.9,120.8z"/>
	<path d="M247,111.9h-2.8c-1.7,0-3,1.4-3,3v5.6v0.3v5.6c0,1.7,1.4,3,3,3h2.8c1.7,0,3-1.4,3-3v-5.6v-0.3V115
		C250,113.3,248.6,111.9,247,111.9z"/>
	<path d="M2.5,129.4h3.8c1.4,0,2.5-1.1,2.5-2.5v-3.8c0-1.4-1.1-2.5-2.5-2.5H2.5c-1.4,0-2.5,1.1-2.5,2.5v3.8
		C0,128.3,1.1,129.4,2.5,129.4z"/>
	<path d="M206.9,123.6c0-1.7-1.4-3-3-3h-5.6v-8.3V112v-5.6c0-1.7-1.4-3-3-3h-5.6h-0.3h-8.3h-0.3h-8.3v-5.6c0-1.7-1.4-3-3-3h-2.8
		c-1.7,0-3,1.4-3,3v5.6v0.3v5.6c0,1.7,1.4,3,3,3h5.6h0.3h8.3h0.3h8.3v8.3h-5.6c-1.7,0-3,1.4-3,3v5.6v0.3v5.6c0,1.7,1.4,3,3,3h2.8
		c1.7,0,3-1.4,3-3v-5.6h8.3h0.3h5.6c1.7,0,3-1.4,3-3V123.6z"/>
	<path d="M17.2,129.4v5.6c0,1.7,1.4,3,3,3h5.6h0.3h5.6c1.7,0,3-1.4,3-3v-2.8c0-1.7-1.4-3-3-3h-5.6v-8.3h5.6c1.7,0,3-1.4,3-3V115
		c0-1.7-1.4-3-3-3h-5.6v-8.3v-0.3V95v-0.3v-5.6c0-1.7-1.4-3-3-3h-5.6v-8.3v-0.3v-5.6c0-1.7-1.4-3-3-3h-2.8c-1.7,0-3,1.4-3,3v5.6v0.3
		v8.3v0.3v8.3V95v8.3v0.3v8.3v0.3v5.6c0,1.7,1.4,3,3,3h5.6v8.3L17.2,129.4L17.2,129.4z"/>
	<path d="M163.6,135c0,1.7,1.4,3,3,3h2.8c1.7,0,3-1.4,3-3v-5.6v-0.3v-5.6c0-1.7-1.4-3-3-3h-2.8c-1.7,0-3,1.4-3,3v5.6v0.3V135z"/>
	<path d="M57.5,137.8h-5.6h-0.3h-8.3H43h-5.6c-1.7,0-3,1.4-3,3v2.8c0,1.7,1.4,3,3,3H43h0.3h8.3h0.3h5.6c1.7,0,3-1.4,3-3v-2.8
		C60.5,139.1,59.2,137.8,57.5,137.8z"/>
	<path d="M68.9,143.6c0,1.7,1.4,3,3,3h5.6v5.6c0,1.7,1.4,3,3,3h2.8c1.7,0,3-1.4,3-3v-5.6v-0.3v-5.6c0-1.7-1.4-3-3-3h-5.6v-5.6
		c0-1.7-1.4-3-3-3h-5.6v-5.6c0-1.7-1.4-3-3-3h-5.6h-0.3h-5.6c-1.7,0-3,1.4-3,3v2.8c0,1.7,1.4,3,3,3h5.6v5.6c0,1.7,1.4,3,3,3h5.6
		L68.9,143.6L68.9,143.6z"/>
	<path d="M200.6,137.8c-1.4,0-2.5,1.1-2.5,2.5v3.8c0,1.4,1.1,2.5,2.5,2.5h3.8c1.4,0,2.5-1.1,2.5-2.5v-3.8c0-1.4-1.1-2.5-2.5-2.5
		H200.6z"/>
	<path d="M247,137.8h-5.6v-5.6c0-1.7-1.4-3-3-3h-5.6h-0.3h-8.3v-5.6c0-1.7-1.4-3-3-3h-2.8c-1.7,0-3,1.4-3,3v3.8
		c-0.2,0.9-0.9,1.6-1.8,1.8h-3.8c-1.7,0-3,1.4-3,3v2.8c0,1.7,1.4,3,3,3h5.6v8.3h-5.6c-1.7,0-3,1.4-3,3v5.6v0.3v8.3v0.3v6.5
		c-0.2,0.9-0.9,1.6-1.8,1.8h-6.5v-5.6c0-1.7-1.4-3-3-3h-5.6h-0.3H184c-1.7,0-3,1.4-3,3v3.8c-0.2,0.9-0.9,1.6-1.8,1.8h-3.8
		c-1.7,0-3,1.4-3,3v3.8c-0.2,0.9-0.9,1.6-1.8,1.8h-6.5h-0.3h-8.3v-5.6c0-1.7-1.4-3-3-3h-5.6v-5.6c0-1.7-1.4-3-3-3H138h-0.3h-8.3
		h-0.3h-8.3h-0.3H115c-1.7,0-3,1.4-3,3v2.8c0,1.7,1.4,3,3,3h5.6v5.6c0,1.7,1.4,3,3,3h2.8c1.7,0,3-1.4,3-3v-5.6h8.3v5.6
		c0,1.7,1.4,3,3,3h5.6v5.6c0,1.7,1.4,3,3,3h5.6h0.3h8.3v8.3H158c-1.7,0-3,1.4-3,3v2.8c0,1.7,1.4,3,3,3h5.6v5.6c0,1.7,1.4,3,3,3h5.6
		h0.3h8.3h0.3h8.3h0.3h8.3v8.3v0.3v5.6c0,1.7,1.4,3,3,3h5.6v8.3H201c-1.7,0-3,1.4-3,3v2.8c0,1.7,1.4,3,3,3h5.6h0.3h5.6
		c1.7,0,3-1.4,3-3v-5.6h8.3h0.3h5.6c1.7,0,3-1.4,3-3v-5.6h8.3v5.6c0,1.7,1.4,3,3,3h2.8c1.7,0,3-1.4,3-3v-5.6V232v-5.6
		c0-1.7-1.4-3-3-3h-5.6v-5.6c0-1.7-1.4-3-3-3h-5.6h-0.3H224h-0.3h-5.6c-1.7,0-3,1.4-3,3v3.8c-0.2,0.9-0.9,1.6-1.8,1.8h-6.5v-8.3h5.6
		c1.7,0,3-1.4,3-3v-5.6h5.6c1.7,0,3-1.4,3-3v-2.8c0-1.7-1.4-3-3-3h-5.6v-8.3h8.3v5.6c0,1.7,1.4,3,3,3h2.8c1.7,0,3-1.4,3-3v-5.6v-0.3
		v-8.3h5.6c1.7,0,3-1.4,3-3v-5.6h5.6c1.7,0,3-1.4,3-3v-5.6v-0.3V158c0-1.7-1.4-3-3-3h-2.8c-1.7,0-3,1.4-3,3v3.8
		c-0.2,0.9-0.9,1.6-1.8,1.8h-6.5V158c0-1.7-1.4-3-3-3H224v-8.3v-0.3V138h8.3v5.6c0,1.7,1.4,3,3,3h5.6h0.3h5.6c1.7,0,3-1.4,3-3v-2.8
		C250,139.1,248.6,137.8,247,137.8z M189.7,206.7h-0.3h-8.3v-8.3v-0.3v-8.3v-0.3v-8.3h8.3h0.3h8.3h0.3h8.3v8.3v0.3v8.3v0.3v6.5
		c-0.2,0.9-0.9,1.6-1.8,1.8h-6.5H198H189.7z M215.5,172.5v-0.3v-8.3h8.3v8.3v0.3v6.5c-0.2,0.9-0.9,1.6-1.8,1.8h-6.5V172.5z"/>
	<path d="M28.4,155.3h3.8c1.4,0,2.5-1.1,2.5-2.5V149c0-1.4-1.1-2.5-2.5-2.5h-3.8c-1.4,0-2.5,1.1-2.5,2.5v3.8
		C25.8,154.1,27,155.3,28.4,155.3z"/>
	<path d="M75.2,155h-3.8c-1.4,0-2.5,1.1-2.5,2.5v3.8c0,1.4,1.1,2.5,2.5,2.5h3.8c1.4,0,2.5-1.1,2.5-2.5v-3.8
		C77.8,156.1,76.6,155,75.2,155z"/>
	<path d="M166.6,163.9h2.8c1.7,0,3-1.4,3-3v-5.6h8.3h0.3h5.6c1.7,0,3-1.4,3-3v-2.8c0-1.7-1.4-3-3-3H181h-0.3h-8.3h-0.3h-5.6
		c-1.7,0-3,1.4-3,3v5.6v0.3v5.6C163.6,162.5,165,163.9,166.6,163.9z"/>
	<path d="M46.1,172.5h2.8c1.7,0,3-1.4,3-3v-5.6h5.6c1.7,0,3-1.4,3-3V158c0-1.7-1.4-3-3-3h-5.6h-0.3h-8.3H43h-5.6c-1.7,0-3,1.4-3,3
		v2.8c0,1.7,1.4,3,3,3H43v5.6C43.1,171.1,44.4,172.5,46.1,172.5z"/>
	<path d="M3,181.1h5.6h0.3h8.3h0.3h8.3h0.3h5.6c1.7,0,3-1.4,3-3v-5.6v-0.3v-5.6c0-1.7-1.4-3-3-3h-2.8c-1.7,0-3,1.4-3,3v3.8
		c-0.2,0.9-0.9,1.6-1.8,1.8h-6.5v-8.3h5.6c1.7,0,3-1.4,3-3V158c0-1.7-1.4-3-3-3h-5.6h-0.3H8.9v-5.6c0-1.7-1.4-3-3-3H3
		c-1.7,0-3,1.4-3,3v5.6v0.3v8.3v0.3v8.3v0.3v5.6C0,179.8,1.4,181.1,3,181.1z"/>
	<path d="M54.2,181.1H58c1.4,0,2.5-1.1,2.5-2.5v-3.8c0-1.4-1.1-2.5-2.5-2.5h-3.8c-1.4,0-2.5,1.1-2.5,2.5v3.8
		C51.7,180,52.8,181.1,54.2,181.1z"/>
	<path d="M109.2,172.2h-5.6h-0.3h-5.6c-1.7,0-3,1.4-3,3v2.8c0,1.7,1.4,3,3,3h5.6h0.3h5.6c1.7,0,3-1.4,3-3v-2.8
		C112.2,173.6,110.9,172.2,109.2,172.2z"/>
	<path d="M118.3,180.8h-3.8c-1.4,0-2.5,1.1-2.5,2.5v3.8c0,1.4,1.1,2.5,2.5,2.5h3.8c1.4,0,2.5-1.1,2.5-2.5v-3.8
		C120.8,182,119.7,180.8,118.3,180.8z"/>
	<path d="M135,180.8h-2.8c-1.7,0-3,1.4-3,3v3.8c-0.2,0.9-0.9,1.6-1.8,1.8h-3.8c-1.7,0-3,1.4-3,3v5.6v0.3v5.6c0,1.7,1.4,3,3,3h5.6
		h0.3h5.6c1.7,0,3-1.4,3-3v-5.6h5.6c1.7,0,3-1.4,3-3v-2.8c0-1.7-1.4-3-3-3H138v-5.6C138,182.2,136.7,180.8,135,180.8z"/>
	<path d="M95,198.3h8.3v8.3v0.3v5.6c0,1.7,1.4,3,3,3h2.8c1.7,0,3-1.4,3-3v-5.6v-0.3v-8.3V198v-5.6c0-1.7-1.4-3-3-3h-5.6h-0.3H95
		v-5.6c0-1.7-1.4-3-3-3h-5.6v-8.3v-0.3v-5.6c0-1.7-1.4-3-3-3h-2.8c-1.7,0-3,1.4-3,3v5.6v0.3v6.5c-0.2,0.9-0.9,1.6-1.8,1.8H72
		c-1.7,0-3,1.4-3,3v2.8c0,1.7,1.4,3,3,3h5.6v5.6c0,1.7,1.4,3,3,3h5.6h0.3h8.3H95V198.3z"/>
	<path d="M198.3,192c0-1.4-1.1-2.5-2.5-2.5H192c-1.4,0-2.5,1.1-2.5,2.5v3.8c0,1.4,1.1,2.5,2.5,2.5h3.8c1.4,0,2.5-1.1,2.5-2.5V192z"
		/>
	<path d="M247,198.1h-5.6h-0.3h-5.6c-1.7,0-3,1.4-3,3v2.8c0,1.7,1.4,3,3,3h5.6v5.6c0,1.7,1.4,3,3,3h2.8c1.7,0,3-1.4,3-3v-5.6v-0.3
		V201C250,199.4,248.6,198.1,247,198.1z"/>
	<path d="M68.9,215.3v0.3v5.6c0,1.7,1.4,3,3,3h2.8c1.7,0,3-1.4,3-3v-5.6v-0.3V207v-0.3v-5.6c0-1.7-1.4-3-3-3h-2.8c-1.7,0-3,1.4-3,3
		v5.6v0.3V215.3z"/>
	<path d="M126.4,215.3h-2.8c-1.7,0-3,1.4-3,3v3.8c-0.2,0.9-0.9,1.6-1.8,1.8H115c-1.7,0-3,1.4-3,3v2.8c0,1.7,1.4,3,3,3h5.6h0.3h8.3
		h0.3h5.6c1.7,0,3-1.4,3-3v-2.8c0-1.7-1.4-3-3-3h-5.6v-5.6C129.4,216.6,128.1,215.3,126.4,215.3z"/>
	<path d="M155.3,224.2h5.6c1.7,0,3-1.4,3-3v-2.8c0-1.7-1.4-3-3-3h-5.6v-5.6c0-1.7-1.4-3-3-3h-2.8c-1.7,0-3,1.4-3,3v5.6v0.3v5.6
		c0,1.7,1.4,3,3,3h5.6h0.2V224.2z"/>
	<path d="M83.4,223.9h-2.8c-1.7,0-3,1.4-3,3v3.8c-0.2,0.9-0.9,1.6-1.8,1.8H72c-1.7,0-3,1.4-3,3v2.8c0,1.7,1.4,3,3,3h5.6h0.3h5.6
		c1.7,0,3-1.4,3-3v-5.6v-0.3v-5.6C86.4,225.2,85,223.9,83.4,223.9z"/>
	<path d="M175.2,232.8h5.6h0.3h5.6c1.7,0,3-1.4,3-3V227c0-1.7-1.4-3-3-3h-5.6h-0.3h-5.6c-1.7,0-3,1.4-3,3v2.8
		C172.2,231.4,173.6,232.8,175.2,232.8z"/>
	<path d="M144.1,232.5h-3.8c-1.4,0-2.5,1.1-2.5,2.5v3.8c0,1.4,1.1,2.5,2.5,2.5h3.8c1.4,0,2.5-1.1,2.5-2.5V235
		C146.7,233.6,145.5,232.5,144.1,232.5z"/>
	<path d="M198.3,235c0-1.4-1.1-2.5-2.5-2.5H192c-1.4,0-2.5,1.1-2.5,2.5v3.8c0,1.4,1.1,2.5,2.5,2.5h3.8c1.4,0,2.5-1.1,2.5-2.5V235z"
		/>
	<path d="M135,241.1h-5.6h-0.3h-8.3h-0.3h-8.3h-0.3h-8.3h-0.3h-5.6c-1.7,0-3,1.4-3,3v2.8c0,1.7,1.4,3,3,3h5.6h0.3h8.3h0.3h8.3h0.3
		h8.3h0.3h5.6c1.7,0,3-1.4,3-3v-2.8C138,242.5,136.7,241.1,135,241.1z"/>
	<path d="M186.7,241.1h-5.6h-0.3h-8.3h-0.3h-8.3h-0.3H158c-1.7,0-3,1.4-3,3v2.8c0,1.7,1.4,3,3,3h5.6h0.3h8.3h0.3h8.3h0.3h5.6
		c1.7,0,3-1.4,3-3v-2.8C189.7,242.5,188.4,241.1,186.7,241.1z"/>
	<path d="M21.5,62.1c17.4,0,1.7,0,19.1,0S62.1,58,62.1,40.6s0-1.7,0-19.1S58,0,40.6,0s-1.7,0-19.1,0S0,4.1,0,21.5
		c0,9.7,0,1.7,0,19.1S4.1,62.1,21.5,62.1z M8.9,21.5c0-8.5,1.2-10.5,1.6-11c0.5-0.5,2.6-1.6,11-1.6h19.1c8.5,0,10.5,1.2,11,1.6
		c0.5,0.5,1.6,2.6,1.6,11v19.1c0,8.5-1.2,10.5-1.6,11c-0.5,0.5-2.6,1.6-11,1.6H21.5c-8.5,0-10.5-1.2-11-1.6c-0.5-0.5-1.6-2.6-1.6-11
		V21.5z"/>
	<path d="M27,44.4c7.5,0,0.7,0,8.2,0s9.2-1.8,9.2-9.2s0-0.7,0-8.2s-1.8-9.2-9.2-9.2c-7.5,0-0.7,0-8.2,0s-9.2,1.8-9.2,9.2
		c0,4.2,0,0.7,0,8.2S19.5,44.4,27,44.4z"/>
	<path d="M209,62.1c17.4,0,1.7,0,19.1,0s21.5-4.1,21.5-21.5s0-1.7,0-19.1S245.5,0,228.1,0s-1.7,0-19.1,0s-21.5,4.1-21.5,21.5
		c0,9.7,0,1.7,0,19.1S191.6,62.1,209,62.1z M196.4,21.5c0-8.5,1.2-10.5,1.6-11c0.5-0.5,2.6-1.6,11-1.6h19.1c8.5,0,10.5,1.2,11,1.6
		c0.5,0.5,1.6,2.6,1.6,11v19.1c0,8.5-1.2,10.5-1.6,11c-0.5,0.5-2.6,1.6-11,1.6H209c-8.5,0-10.5-1.2-11-1.6c-0.5-0.5-1.6-2.6-1.6-11
		V21.5z"/>
	<path d="M214.5,44.4c7.5,0,0.7,0,8.2,0s9.2-1.8,9.2-9.2s0-0.7,0-8.2s-1.8-9.2-9.2-9.2c-7.5,0-0.7,0-8.2,0s-9.2,1.8-9.2,9.2
		c0,4.2,0,0.7,0,8.2S207,44.4,214.5,44.4z"/>
	<path d="M35.2,205.2c-7.5,0-0.7,0-8.2,0s-9.2,1.8-9.2,9.2c0,4.2,0,0.7,0,8.2s1.8,9.2,9.2,9.2s0.7,0,8.2,0s9.2-1.8,9.2-9.2
		c0-7.5,0-0.7,0-8.2C44.4,207,42.6,205.2,35.2,205.2z"/>
	<path d="M40.6,187.5c-17.4,0-1.7,0-19.1,0S0,191.6,0,209c0,9.7,0,1.7,0,19.1s4.1,21.5,21.5,21.5s1.7,0,19.1,0s21.5-4.1,21.5-21.5
		s0-1.7,0-19.1S58,187.5,40.6,187.5z M53.3,228.1c0,8.5-1.2,10.5-1.6,11c-0.5,0.5-2.6,1.6-11,1.6H21.5c-8.5,0-10.5-1.2-11-1.6
		c-0.5-0.5-1.6-2.6-1.6-11V209c0-8.5,1.2-10.5,1.6-11c0.5-0.5,2.6-1.6,11-1.6h19.1c8.5,0,10.5,1.2,11,1.6c0.5,0.5,1.6,2.6,1.6,11
		v19.1H53.3z"/>
</g>
<path class="st0" d="M135.2,92.9c-18.1,0-1.7,0-19.9,0c-18.1,0-22.5,4.3-22.5,22.5c0,10.1,0,1.7,0,19.9s4.3,22.5,22.5,22.5
	c18.1,0,1.7,0,19.9,0s22.5-4.3,22.5-22.5s0-1.7,0-19.9S153.3,92.9,135.2,92.9z M145.2,139.1h-4.7c-1.8,0-2.3-1.4-5.5-4.6
	c-2.8-2.7-4-3.1-4.7-3.1c-1,0-1.2,0.3-1.2,1.6v4.2c0,1.2-0.4,1.8-3.4,1.8c-5,0-10.5-3-14.4-8.6c-5.9-8.2-7.5-14.4-7.5-15.7
	c0-0.7,0.3-1.3,1.6-1.3h4.7c1.2,0,1.7,0.5,2.1,1.8c2.3,6.7,6.2,12.6,7.8,12.6c0.6,0,0.9-0.3,0.9-1.8v-7c-0.2-3.2-1.9-3.5-1.9-4.6
	c0-0.5,0.5-1.1,1.2-1.1h7.4c1,0,1.4,0.5,1.4,1.7v9.4c0,1,0.4,1.4,0.7,1.4c0.6,0,1.1-0.4,2.2-1.5c3.4-3.8,5.8-9.7,5.8-9.7
	c0.3-0.7,0.9-1.3,2.1-1.3h4.7c1.4,0,1.7,0.7,1.4,1.7c-0.6,2.8-6.4,10.9-6.4,10.9c-0.5,0.8-0.7,1.2,0,2.1c0.5,0.7,2.2,2.1,3.3,3.4
	c2,2.3,3.6,4.2,4,5.5C147.2,138.4,146.5,139.1,145.2,139.1z"/>
</svg>
