<?xml version="1.0" encoding="utf-8"?>
<!-- Generator: Adobe Illustrator 24.0.1, SVG Export Plug-In . SVG Version: 6.00 Build 0)  -->
<svg version="1.1" id="Слой_1" xmlns="http://www.w3.org/2000/svg" xmlns:xlink="http://www.w3.org/1999/xlink" x="0px" y="0px"
	 viewBox="0 0 250 250" style="enable-background:new 0 0 250 250;" xml:space="preserve">
<style type="text/css">
	.st0{fill-rule:evenodd;clip-rule:evenodd;}
</style>
<g>
	<path d="M56,7h3c1.1,0,2-0.9,2-2V2c0-1.1-0.9-2-2-2h-3c-1.1,0-2,0.9-2,2v3C54,6.1,54.9,7,56,7z"/>
	<path d="M191,7h3c1.1,0,2-0.9,2-2V2c0-1.1-0.9-2-2-2h-3c-1.1,0-2,0.9-2,2v3C189,6.1,189.9,7,191,7z"/>
	<path d="M130.3,13.7h3c1.1,0,2-0.9,2-2v-3c0-1.1-0.9-2-2-2h-3c-1.1,0.1-2,0.9-2,2v3C128.3,12.8,129.2,13.7,130.3,13.7z"/>
	<path d="M184.3,13.7h3c1.1,0,2-0.9,2-2v-3c0-1.1-0.9-2-2-2h-3c-1.1,0.1-2,0.9-2,2v3C182.3,12.8,183.2,13.7,184.3,13.7z"/>
	<path d="M90.1,20.5h2.2c1.3,0,2.4-1.1,2.4-2.4v-4.3h0.1h6.5h0.2h4.4c1.3,0,2.4-1.1,2.4-2.4V9.2c0-1.3-1.1-2.4-2.4-2.4h-4.4V2.4
		c0-1.3-1.1-2.4-2.4-2.4h-4.4h-0.2h-4.4c-1.3,0-2.4,1.1-2.4,2.4V7h0.1v6.5h-0.1v4.6C87.7,19.4,88.8,20.5,90.1,20.5z"/>
	<path d="M108,18.9c-0.3,0.8-1,1.4-1.9,1.4h-4.6v-0.1h-4.6c-1.3,0-2.4,1.1-2.4,2.4v3.1c-0.2,0.6-0.7,1.1-1.3,1.3h-3.1
		c-1.3,0-2.4,1.1-2.4,2.4v4.4V34v4.4c0,1.3,1.1,2.4,2.4,2.4h2.2c1.3,0,2.4-1.1,2.4-2.4V34h6.6h0.2h6.5v6.5v0.3v6.5v0.2v5.2
		c-0.2,0.6-0.7,1.1-1.3,1.3h-5.2v0h-4.6c-1.3,0-2.4,1.1-2.4,2.4v2.2c0,1.3,1.1,2.4,2.4,2.4h4.4h0.2h6.5v4.4c0,1.3,1.1,2.4,2.4,2.4
		h2.2c1.3,0,2.4-1.1,2.4-2.4V61v-0.2v-6.5V54v-6.5v-0.2v-6.5h4.4c1.3,0,2.4-1.1,2.4-2.4v-2.2c0-1.3-1.1-2.4-2.4-2.4H115v-6.5V27
		v-6.5h6.5h0.3h4.3c1.3,0,2.4-1.1,2.4-2.4v-2.2c0-1.3-1.1-2.4-2.4-2.4h-4.3h-0.3H115h-0.2h-4.4c-1.3,0-2.4,1.1-2.4,2.4V18.9z"/>
	<path d="M135,20.3v0.2V27v0.3v4.3c0,1.3,1.1,2.4,2.4,2.4h4.4h0.2h4.4c1.3,0,2.4-1.1,2.4-2.4v-2.2c0-1.3-1.1-2.4-2.4-2.4H142v-6.5
		h4.4c1.3,0,2.4-1.1,2.4-2.4v-4.3h6.5v6.5h-0.1v4.6c0,1.3,1.1,2.4,2.4,2.4h4.4h0.2h6.6v6.5h-0.1v4.6c0,1.3,1.1,2.4,2.4,2.4h4.4h0
		v4.3c0,1.3,1.1,2.4,2.4,2.4h2.2c1.3,0,2.4-1.1,2.4-2.4v-4.3h6.5v6.5v0.2v6.8h0v4.3c0,1.3,1.1,2.4,2.4,2.4h2.2
		c1.3,0,2.4-1.1,2.4-2.4v-4.3V54v-6.5v-0.2v-6.6v-0.2v-4.4c0-1.3-1.1-2.4-2.4-2.4H189v0.1h-6.5v-4.4c0-1.3-1.1-2.4-2.4-2.4h-4.3
		v-4.4c0-1.3-1.1-2.4-2.4-2.4h-4.6v0.1h-6.5v-6.5h4.3c1.3,0,2.4-1.1,2.4-2.4V9.2c0-1.3-1.1-2.4-2.4-2.4h-4.3H162h-6.5h-0.2h-6.5V2.4
		c0-1.3-1.1-2.4-2.4-2.4h-2.2c-1.3,0-2.4,1.1-2.4,2.4v4.4V7v5.1c-0.2,0.7-0.7,1.2-1.3,1.4h-3.1c-1.3,0-2.4,1.1-2.4,2.4V20.3z"/>
	<path d="M177.5,20.5h3c1.1,0,2-0.9,2-2v-3c0-1.1-0.9-2-2-2h-3c-1.1,0-2,0.9-2,2v3C175.5,19.6,176.4,20.5,177.5,20.5z"/>
	<path d="M194,13.5h-3c-1.1,0-2,0.9-2,2v3c0,1.1,0.9,2,2,2h3c1.1,0,2-0.9,2-2v-3C196,14.4,195.1,13.5,194,13.5z"/>
	<path d="M83,27.2h3c1.1,0,2-0.9,2-2v-3c0-1.1-0.9-2-2-2h-3c-1.1,0.1-2,0.9-2,2v3C81,26.3,81.9,27.2,83,27.2z"/>
	<path d="M133.3,33.7h-3c-1.1,0.1-2,0.9-2,2v3c0,1.1,0.9,2,2,2h3c1.1,0,2-0.9,2-2v-3C135.3,34.6,134.4,33.7,133.3,33.7z"/>
	<path d="M56.4,47.5h2.2c1.3,0,2.4-1.1,2.4-2.4v-4.3h6.5v6.5v0.2V54v0.3v5.1c-0.3,0.8-1,1.4-1.9,1.4H61v-0.1h-4.6
		c-1.3,0-2.4,1.1-2.4,2.4v4.4h0v4.6c0,1.3,1.1,2.4,2.4,2.4h2.2c1.3,0,2.4-1.1,2.4-2.4v-4.3h6.5v6.4h-4.4c-1.3,0-2.4,1.1-2.4,2.4V81
		h0v4.6c0,1.3,1.1,2.4,2.4,2.4h2.2c1.3,0,2.4-1.1,2.4-2.4v-4.3h4.4c1.3,0,2.4-1.1,2.4-2.4v-4.4h4.4c1.3,0,2.4-1.1,2.4-2.4v-2.2
		c0-1.3-1.1-2.4-2.4-2.4h-4.4V61v-0.2v-6.5V54v-6.5v-0.2v-6.5h4.4c1.3,0,2.4-1.1,2.4-2.4v-2.2c0-1.3-1.1-2.4-2.4-2.4h-4.4h-0.2h-6.5
		v-6.5V27v-6.5v-0.2v-6.5h4.3c1.3,0,2.4-1.1,2.4-2.4V7h0V2.4c0-1.3-1.1-2.4-2.4-2.4h-2.2c-1.3,0-2.4,1.1-2.4,2.4v3
		c-0.2,0.6-0.7,1.1-1.3,1.3h-3.1c-1.3,0-2.4,1.1-2.4,2.4v4.6h0.1v6.6v0.2v4.6c0,0.9-0.6,1.6-1.4,1.9h-3c-1.3,0-2.4,1.1-2.4,2.4v4.4
		V34v6.5h0v4.6C54,46.4,55.1,47.5,56.4,47.5z"/>
	<path d="M86,40.5h-3c-1.1,0-2,0.9-2,2v3c0,1.1,0.9,2,2,2h3c1.1,0,2-0.9,2-2v-3C88,41.4,87.1,40.5,86,40.5z"/>
	<path d="M96.5,47.5h3c1.1,0,2-0.9,2-2v-3c0-1.1-0.9-2-2-2h-3c-1.1,0-2,0.9-2,2v3C94.5,46.6,95.4,47.5,96.5,47.5z"/>
	<path d="M126.5,40.5h-3c-1.1,0-2,0.9-2,2v3c0,1.1,0.9,2,2,2h3c1.1,0,2-0.9,2-2v-3C128.5,41.4,127.6,40.5,126.5,40.5z"/>
	<path d="M140,40.5h-3c-1.1,0-2,0.9-2,2v3c0,1.1,0.9,2,2,2h3c1.1,0,2-0.9,2-2v-3C142,41.4,141.1,40.5,140,40.5z"/>
	<path d="M150.9,47.5h2.2c1.3,0,2.4-1.1,2.4-2.4v-4.4v-0.2v-4.4c0-1.3-1.1-2.4-2.4-2.4h-2.2c-1.3,0-2.4,1.1-2.4,2.4v4.4v0.2v4.4
		C148.5,46.4,149.6,47.5,150.9,47.5z"/>
	<path d="M167,40.5h-3c-1.1,0-2,0.9-2,2v3c0,1.1,0.9,2,2,2h3c1.1,0,2-0.9,2-2v-3C169,41.4,168.1,40.5,167,40.5z"/>
	<path d="M92.8,47.2h-3c-1.1,0.1-2,0.9-2,2v3c0,1.1,0.9,2,2,2h3c1.1,0,2-0.9,2-2v-3C94.8,48.1,93.9,47.2,92.8,47.2z"/>
	<path d="M146.8,47.2h-3c-1.1,0.1-2,0.9-2,2v3c0,1.1,0.9,2,2,2h3c1.1,0,2-0.9,2-2v-3C148.8,48.1,147.9,47.2,146.8,47.2z"/>
	<path d="M173.8,47.2h-3c-1.1,0.1-2,0.9-2,2v3c0,1.1,0.9,2,2,2h3c1.1,0,2-0.9,2-2v-3C175.8,48.1,174.9,47.2,173.8,47.2z"/>
	<path d="M47.3,54h-6.5h-0.3H34h-0.2h-6.5H27h-6.5h-0.2h-6.6v0H9.1c-1.3,0-2.4,1.1-2.4,2.4v2.2c0,1.3,1.1,2.4,2.4,2.4h4.4h0.2h6.5
		v4.4c0,1.3,1.1,2.4,2.4,2.4H27v4.3c0,1.3,1.1,2.4,2.4,2.4h4.3v4.4c0,1.3,1.1,2.4,2.4,2.4h2.2c1.3,0,2.4-1.1,2.4-2.4v-4.4h4.4
		c1.3,0,2.4-1.1,2.4-2.4v-2.2c0-1.3-1.1-2.4-2.4-2.4h-4.3h-0.3H34V61h6.5h0.3h6.5v0h4.6c1.3,0,2.4-1.1,2.4-2.4v-2.2
		c0-1.3-1.1-2.4-2.4-2.4h-4.4H47.3z"/>
	<path d="M81,59c0,1.1,0.9,2,2,2h3c1.1,0,2-0.9,2-2v-3c0-1.1-0.9-2-2-2h-3c-1.1,0-2,0.9-2,2V59z"/>
	<path d="M162,59c0,1.1,0.9,2,2,2h3c1.1,0,2-0.9,2-2v-3c0-1.1-0.9-2-2-2h-3c-1.1,0-2,0.9-2,2V59z"/>
	<path d="M175.5,59c0,1.1,0.9,2,2,2h3c1.1,0,2-0.9,2-2v-3c0-1.1-0.9-2-2-2h-3c-1.1,0-2,0.9-2,2V59z"/>
	<path d="M250,56.4c0-1.3-1.1-2.4-2.4-2.4h-2.2c-1.3,0-2.4,1.1-2.4,2.4v4.4V61v5.2c-0.2,0.6-0.7,1.1-1.3,1.3h-3.1
		c-1.3,0-2.4,1.1-2.4,2.4v2.2c0,1.3,1.1,2.4,2.4,2.4h4.4h0.2h4.4c1.3,0,2.4-1.1,2.4-2.4v-4.3v-0.3v-6.7h0V56.4z"/>
	<path d="M2,67.8h3c1.1,0,2-0.9,2-2v-3c0-1.1-0.9-2-2-2H2c-1.1,0-2,0.9-2,2v3C0,66.9,0.9,67.8,2,67.8z"/>
	<path d="M223,60.8v-4.4c0-1.3-1.1-2.4-2.4-2.4h-4.4H216h-4.4c-1.3,0-2.4,1.1-2.4,2.4v3.3c-0.2,0.5-0.7,0.9-1.2,1h-3.1
		c-1.3,0-2.4,1.1-2.4,2.4v4.4v0.2v6.6v0.2v5.2c-0.2,0.6-0.7,1.1-1.3,1.3H196h-0.2h-6.5v-6.5h4.3c1.3,0,2.4-1.1,2.4-2.4v-2.2
		c0-1.3-1.1-2.4-2.4-2.4h-4.3h0v-4.4c0-1.3-1.1-2.4-2.4-2.4h-2.2c-1.3,0-2.4,1.1-2.4,2.4v3c-0.2,0.7-0.7,1.2-1.3,1.4h-5.2v-4.4
		c0-1.3-1.1-2.4-2.4-2.4h-2.2c-1.3,0-2.4,1.1-2.4,2.4v4.4h-0.1v4.6c0,1.3,1.1,2.4,2.4,2.4h4.4V81h-4.4c-1.3,0-2.4,1.1-2.4,2.4v2.2
		c0,1.3,1.1,2.4,2.4,2.4h4.4h0.2h6.6h0.2h6.5h0.3h6.4v4.4c0,1.3,1.1,2.4,2.4,2.4h2.2c1.3,0,2.4-1.1,2.4-2.4V88h0.1h6.4v4.4
		c0,1.3,1.1,2.4,2.4,2.4h2.2c1.3,0,2.4-1.1,2.4-2.4V88h0.1v-6.7h4.3c1.3,0,2.4-1.1,2.4-2.4v-4.4h4.4c1.3,0,2.4-1.1,2.4-2.4v-2.2
		c0-1.3-1.1-2.4-2.4-2.4H223V61V60.8z M209.5,67.8h6.5v6.5h-6.5V67.8z"/>
	<path d="M236.5,62.8c0-1.1-0.9-2-2-2h-3c-1.1,0-2,0.9-2,2v3c0,1.1,0.9,2,2,2h3c1.1,0,2-0.9,2-2V62.8z"/>
	<path d="M2.4,81.2h4.3v4.4c0,1.3,1.1,2.4,2.4,2.4h4.4h0.2h4.4c1.3,0,2.4-1.1,2.4-2.4v-4.3V81v-6.5v-0.2v-4.4c0-1.3-1.1-2.4-2.4-2.4
		h-2.2c-1.3,0-2.4,1.1-2.4,2.4v3c-0.3,0.8-1,1.4-1.9,1.4H7v-0.1H2.4c-1.3,0-2.4,1.1-2.4,2.4v2.2C0,80.1,1.1,81.2,2.4,81.2z"/>
	<path d="M123.9,74.2c-1.3,0-2.4,1.1-2.4,2.4v2.2c0,1.3,1.1,2.4,2.4,2.4h4.4v0.1h4.6c1.3,0,2.4-1.1,2.4-2.4v-4.4h4.3
		c1.3,0,2.4-1.1,2.4-2.4v-4.3h6.5h0.3h4.3c1.3,0,2.4-1.1,2.4-2.4V61v-0.2v-4.4c0-1.3-1.1-2.4-2.4-2.4h-2.2c-1.3,0-2.4,1.1-2.4,2.4v3
		c-0.3,0.8-1,1.4-1.9,1.4H142v-4.4c0-1.3-1.1-2.4-2.4-2.4h-2.2c-1.3,0-2.4,1.1-2.4,2.4v3c-0.3,0.8-1,1.4-1.9,1.4h-4.6v-4.4
		c0-1.3-1.1-2.4-2.4-2.4h-2.2c-1.3,0-2.4,1.1-2.4,2.4v4.4V61v4.4c0,1.3,1.1,2.4,2.4,2.4h4.4v6.4H123.9z"/>
	<path d="M146.8,74.3h-3c-1.1,0-2,0.9-2,2v3c0,1.1,0.9,2,2,2h3c1.1,0,2-0.9,2-2v-3C148.8,75.2,147.9,74.3,146.8,74.3z"/>
	<path d="M42.5,88h3c1.1,0,2-0.9,2-2v-3c0-1.1-0.9-2-2-2h-3c-1.1,0-2,0.9-2,2v3C40.5,87.1,41.4,88,42.5,88z"/>
	<path d="M247.6,81h-4.4H243h-4.4c-1.3,0-2.4,1.1-2.4,2.4v2.2c0,1.3,1.1,2.4,2.4,2.4h4.4h0.2h4.4c1.3,0,2.4-1.1,2.4-2.4v-2.2
		C250,82.1,248.9,81,247.6,81z"/>
	<path d="M121.5,92.3c0,1.3,1.1,2.4,2.4,2.4h4.4v0.1h6.7h0.3h6.5h0.2h6.5h0.3h6.5h0.2h4.4c1.3,0,2.4-1.1,2.4-2.4V88v-0.2V81h0v-4.4
		c0-1.3-1.1-2.4-2.4-2.4h-2.2c-1.3,0-2.4,1.1-2.4,2.4V81v0.2v5.1c-0.3,0.9-1,1.5-1.9,1.5h-4.6h-0.3H142v-4.4c0-1.3-1.1-2.4-2.4-2.4
		h-2.2c-1.3,0-2.4,1.1-2.4,2.4v3c-0.3,0.8-1,1.4-1.9,1.4h-4.6v-0.1h-4.6c-1.3,0-2.4,1.1-2.4,2.4V92.3z"/>
	<path d="M236.5,90.2c0-1.3-1.1-2.4-2.4-2.4h-4.3h0v-4.4c0-1.3-1.1-2.4-2.4-2.4h-2.2c-1.3,0-2.4,1.1-2.4,2.4v4.4V88v6.5h-0.1v4.6
		c0,1.3,1.1,2.4,2.4,2.4h2.2c1.3,0,2.4-1.1,2.4-2.4v-4.3h0.1h4.3c1.3,0,2.4-1.1,2.4-2.4V90.2z"/>
	<path d="M173.8,94.5h-3c-1.1,0-2,0.9-2,2v3c0,1.1,0.9,2,2,2h3c1.1,0,2-0.9,2-2v-3C175.8,95.4,174.9,94.5,173.8,94.5z"/>
	<path d="M184.3,101.5h3c1.1,0,2-0.9,2-2v-3c0-1.1-0.9-2-2-2h-3c-1.1,0-2,0.9-2,2v3C182.3,100.6,183.2,101.5,184.3,101.5z"/>
	<path d="M247.6,94.5h-4.4H243h-4.4c-1.3,0-2.4,1.1-2.4,2.4v2.2c0,1.3,1.1,2.4,2.4,2.4h4.4h0v4.4c0,1.3,1.1,2.4,2.4,2.4h2.2
		c1.3,0,2.4-1.1,2.4-2.4v-4.4v-0.2v-4.4C250,95.6,248.9,94.5,247.6,94.5z"/>
	<path d="M65.4,108.3c1.3,0,2.4-1.1,2.4-2.4v-2.2c0-1.3-1.1-2.4-2.4-2.4H61h-0.2h-6.5v-6.5h4.3c1.3,0,2.4-1.1,2.4-2.4v-2.2
		c0-1.3-1.1-2.4-2.4-2.4h-4.4v-0.1h-4.6c-1.3,0-2.4,1.1-2.4,2.4v3.1c-0.2,0.6-0.7,1.1-1.3,1.3h-5.1v-4.4c0-1.3-1.1-2.4-2.4-2.4h-2.2
		c-1.3,0-2.4,1.1-2.4,2.4v4.4v0.2v4.6c0,1.2-0.9,2-2,2h-4.5v-4.4c0-1.3-1.1-2.4-2.4-2.4h-4.4h-0.2h-6.6h-0.2H9.1
		c-1.3,0-2.4,1.1-2.4,2.4v2.2c0,1.3,1.1,2.4,2.4,2.4h4.4h0.2h6.5v4.4c0,1.3,1.1,2.4,2.4,2.4H27v6.5v0.2v6.5v0.3v6.5v0.2v4.4
		c0,1.3,1.1,2.4,2.4,2.4h2.2c1.3,0,2.4-1.1,2.4-2.4v-4.4v-0.2v-6.5h4.4c1.3,0,2.4-1.1,2.4-2.4v-2.2c0-1.3-1.1-2.4-2.4-2.4H34v-6.5
		h4.4c1.3,0,2.4-1.1,2.4-2.4v-4.4h6.4v4.4c0,1.3,1.1,2.4,2.4,2.4H54v6.4h-4.4c-1.3,0-2.4,1.1-2.4,2.4v2.2c0,1.3,1.1,2.4,2.4,2.4H54
		v0.1h6.8v6.5h-0.1v4.6c0,1.3,1.1,2.4,2.4,2.4h2.2c1.3,0,2.4-1.1,2.4-2.4v-4.4h0.1v-6.8v-0.2v-4.4c0-1.3-1.1-2.4-2.4-2.4H61v-6.4
		H65.4z"/>
	<path d="M167,101.3h-3c-1.1,0-2,0.9-2,2v3c0,1.1,0.9,2,2,2h3c1.1,0,2-0.9,2-2v-3C169,102.2,168.1,101.3,167,101.3z"/>
	<path d="M180.1,101.2h-2.2c-1.3,0-2.4,1.1-2.4,2.4v3.1c-0.2,0.6-0.7,1.1-1.3,1.3h-3.1c-1.3,0-2.4,1.1-2.4,2.4v2.2
		c0,1.3,1.1,2.4,2.4,2.4h4.4h0.2h6.6h0.2h4.4c1.3,0,2.4-1.1,2.4-2.4v-2.2c0-1.3-1.1-2.4-2.4-2.4h-4.4h0v-4.4
		C182.5,102.3,181.4,101.2,180.1,101.2z"/>
	<path d="M45.5,115c1.1,0,2-0.9,2-2v-3c0-1.1-0.9-2-2-2h-3c-1.1,0-2,0.9-2,2v3c0,1.1,0.9,2,2,2H45.5z"/>
	<path d="M216,113c0,1.1,0.9,2,2,2h3c1.1,0,2-0.9,2-2v-3c0-1.1-0.9-2-2-2h-3c-1.1,0-2,0.9-2,2V113z"/>
	<path d="M231.5,115h3c1.1,0,2-0.9,2-2v-3c0-1.1-0.9-2-2-2h-3c-1.1,0-2,0.9-2,2v3C229.5,114.1,230.4,115,231.5,115z"/>
	<path d="M2.4,121.8h2.2c1.3,0,2.4-1.1,2.4-2.4V115h6.5h0.3h4.3c1.3,0,2.4-1.1,2.4-2.4v-2.2c0-1.3-1.1-2.4-2.4-2.4h-4.3h-0.3H7v-4.4
		c0-1.3-1.1-2.4-2.4-2.4H2.4c-1.3,0-2.4,1.1-2.4,2.4v4.4v0.2v6.6v0.2v4.4C0,120.7,1.1,121.8,2.4,121.8z"/>
	<path d="M167,114.8h-3c-1.1,0-2,0.9-2,2v3c0,1.1,0.9,2,2,2h3c1.1,0,2-0.9,2-2v-3C169,115.7,168.1,114.8,167,114.8z"/>
	<path d="M224.8,121.8h3c1.1,0,2-0.9,2-2v-3c0-1.1-0.9-2-2-2h-3c-1.1,0-2,0.9-2,2v3C222.8,120.9,223.7,121.8,224.8,121.8z"/>
	<path d="M47.5,123.5c0-1.1-0.9-2-2-2h-3c-1.1,0-2,0.9-2,2v3c0,1.1,0.9,2,2,2h3c1.1,0,2-0.9,2-2V123.5z"/>
	<path d="M76.6,121.5c-1.3,0-2.4,1.1-2.4,2.4v4.4h0v4.6c0,1.3,1.1,2.4,2.4,2.4h2.2c1.3,0,2.4-1.1,2.4-2.4v-4.4h6.5v4.4
		c0,1.3,1.1,2.4,2.4,2.4h2.2c1.3,0,2.4-1.1,2.4-2.4v-4.4h0.1v-4.6c0-1.3-1.1-2.4-2.4-2.4H88V115h4.4c1.3,0,2.4-1.1,2.4-2.4v-2.2
		c0-1.3-1.1-2.4-2.4-2.4H88v-6.5v-0.2v-6.5h6.5h0.3h6.5h0.2h6.5h0.3h4.3c1.3,0,2.4-1.1,2.4-2.4V88v-0.2v-4.4c0-1.3-1.1-2.4-2.4-2.4
		h-4.3v-4.4c0-1.3-1.1-2.4-2.4-2.4h-4.6v0.1h-6.5v-4.4c0-1.3-1.1-2.4-2.4-2.4h-2.2c-1.3,0-2.4,1.1-2.4,2.4v2.9
		c-0.2,0.7-0.7,1.2-1.4,1.4h-3c-1.3,0-2.4,1.1-2.4,2.4v2.2c0,1.3,1.1,2.4,2.4,2.4h4.4v0.1h6.7v6.5H88h-0.2h-6.5v-4.4
		c0-1.3-1.1-2.4-2.4-2.4h-2.2c-1.3,0-2.4,1.1-2.4,2.4v2.4c0,1-0.6,1.7-1.4,1.9h-3c-1.3,0-2.4,1.1-2.4,2.4v2.2c0,1.3,1.1,2.4,2.4,2.4
		h4.4v0.1v6.5v0.2v6.5h-0.1v4.6c0,1.3,1.1,2.4,2.4,2.4H81v6.5H76.6z"/>
	<path d="M168.8,126.5c0,1.1,0.9,2,2,2h3c1.1,0,2-0.9,2-2v-3c0-1.1-0.9-2-2-2h-3c-1.1,0-2,0.9-2,2V126.5z"/>
	<path d="M216,128.5h0.3h4.3c1.3,0,2.4-1.1,2.4-2.4v-2.2c0-1.3-1.1-2.4-2.4-2.4h-4.3h0v-4.4c0-1.3-1.1-2.4-2.4-2.4h-2.2
		c-1.3,0-2.4,1.1-2.4,2.4v3.1c-0.2,0.6-0.7,1.1-1.3,1.3h-5.2V115h4.3c1.3,0,2.4-1.1,2.4-2.4v-4.3h4.4c1.3,0,2.4-1.1,2.4-2.4v-2.2
		c0-1.3-1.1-2.4-2.4-2.4h-4.4h0v-4.4c0-1.3-1.1-2.4-2.4-2.4h-2.2c-1.3,0-2.4,1.1-2.4,2.4v3c-0.3,0.8-1,1.4-1.9,1.4H196v-0.1h-4.6
		c-1.3,0-2.4,1.1-2.4,2.4v2.2c0,1.3,1.1,2.4,2.4,2.4h4.4v0.1v6.5v0.2v6.5v0.3v6.5v0.2v6.5v0.3v6.5h-0.1v4.6c0,1.3,1.1,2.4,2.4,2.4
		h4.4v6.4h-4.4c-1.3,0-2.4,1.1-2.4,2.4v2.2c0,1.3,1.1,2.4,2.4,2.4h4.4v0.1v6.5H196h-0.2h-6.5H189h-6.5v-0.1h-4.6
		c-1.3,0-2.4,1.1-2.4,2.4v2.2c0,1.3,1.1,2.4,2.4,2.4h4.4v0.1h6.7h0.3h6.5h0.2h6.5h0v4.3c0,1.3,1.1,2.4,2.4,2.4h2.2
		c1.3,0,2.4-1.1,2.4-2.4v-4.3v-0.3V169v-0.2v-6.5v0h4.4c1.3,0,2.4-1.1,2.4-2.4v-2.2c0-1.3-1.1-2.4-2.4-2.4h-4.4v-6.5h4.4
		c1.3,0,2.4-1.1,2.4-2.4V142h4.3c1.3,0,2.4-1.1,2.4-2.4v-2.2c0-1.3-1.1-2.4-2.4-2.4h-4.3H216h-6.5v-6.5H216z"/>
	<path d="M247.6,121.5h-4.4H243h-4.4c-1.3,0-2.4,1.1-2.4,2.4v2.2c0,1.3,1.1,2.4,2.4,2.4h4.4v6.8h0v4.3c0,1.3,1.1,2.4,2.4,2.4h2.2
		c1.3,0,2.4-1.1,2.4-2.4v-4.3V135v-6.5v-0.2v-4.4C250,122.6,248.9,121.5,247.6,121.5z"/>
	<path d="M36.1,142h4.4h0.2h4.4c1.3,0,2.4-1.1,2.4-2.4v-2.2c0-1.3-1.1-2.4-2.4-2.4h-4.4h-0.2h-4.4c-1.3,0-2.4,1.1-2.4,2.4v2.2
		C33.7,140.9,34.8,142,36.1,142z"/>
	<path d="M59,135h-3c-1.1,0-2,0.9-2,2v3c0,1.1,0.9,2,2,2h3c1.1,0,2-0.9,2-2v-3C61,135.9,60.1,135,59,135z"/>
	<path d="M83,142h3c1.1,0,2-0.9,2-2v-3c0-1.1-0.9-2-2-2h-3c-1.1,0-2,0.9-2,2v3C81,141.1,81.9,142,83,142z"/>
	<path d="M189.3,135.3V135v-6.7h0v-4.4c0-1.3-1.1-2.4-2.4-2.4h-2.2c-1.3,0-2.4,1.1-2.4,2.4v2.9c-0.2,0.7-0.7,1.2-1.3,1.4h-3.1
		c-1.3,0-2.4,1.1-2.4,2.4v3.1c-0.2,0.6-0.7,1.1-1.3,1.3H169h0v-4.4c0-1.3-1.1-2.4-2.4-2.4h-2.2c-1.3,0-2.4,1.1-2.4,2.4v4.4v0.2v4.4
		c0,1.3,1.1,2.4,2.4,2.4h4.4h0.2h6.5h0v4.4c0,1.3,1.1,2.4,2.4,2.4h2.2c1.3,0,2.4-1.1,2.4-2.4V142h4.4c1.3,0,2.4-1.1,2.4-2.4V135.3z"
		/>
	<path d="M20.5,148.8v-0.3V142h4.4c1.3,0,2.4-1.1,2.4-2.4v-2.2c0-1.3-1.1-2.4-2.4-2.4h-4.4v-6.5v-0.2v-4.4c0-1.3-1.1-2.4-2.4-2.4
		h-4.4h-0.2H9.1c-1.3,0-2.4,1.1-2.4,2.4v2.2c0,1.3,1.1,2.4,2.4,2.4h4.4v6.5v0.3v6.5v0.2v6.5v0.3v4.3c0,1.3,1.1,2.4,2.4,2.4h2.2
		c1.3,0,2.4-1.1,2.4-2.4V148.8z"/>
	<path d="M29,155.5h3c1.1,0,2-0.9,2-2v-3c0-1.1-0.9-2-2-2h-3c-1.1,0-2,0.9-2,2v3C27,154.6,27.9,155.5,29,155.5z"/>
	<path d="M184.3,155.5h3c1.1,0,2-0.9,2-2v-3c0-1.1-0.9-2-2-2h-3c-1.1,0-2,0.9-2,2v3C182.3,154.6,183.2,155.5,184.3,155.5z"/>
	<path d="M247.6,148.5h-4.3H243h-6.5v-6.7h0v-4.4c0-1.3-1.1-2.4-2.4-2.4h-2.2c-1.3,0-2.4,1.1-2.4,2.4v4.4v0.2v6.5v0.3v4.3
		c0,1.3,1.1,2.4,2.4,2.4h4.4h0.2h6.5h0.3h4.3c1.3,0,2.4-1.1,2.4-2.4v-2.2C250,149.6,248.9,148.5,247.6,148.5z"/>
	<path d="M2.4,162.3h2.2c1.3,0,2.4-1.1,2.4-2.4v-4.4v-0.2v-6.5v-0.3V142v-0.2v-6.6V135v-4.4c0-1.3-1.1-2.4-2.4-2.4H2.4
		c-1.3,0-2.4,1.1-2.4,2.4v4.4v0.2v6.6v0.2v6.5v0.3v6.5v0.2v4.4C0,161.2,1.1,162.3,2.4,162.3z"/>
	<path d="M92.3,162.3c1.3,0,2.4-1.1,2.4-2.4v-4.4h0.1v-6.8v-0.2v-4.4c0-1.3-1.1-2.4-2.4-2.4h-2.2c-1.3,0-2.4,1.1-2.4,2.4v4.4v0.2
		v6.6h-0.1v4.6c0,1.3,1.1,2.4,2.4,2.4H92.3z"/>
	<path d="M148.8,157.3c0-1.1-0.9-2-2-2h-3c-1.1,0-2,0.9-2,2v3c0,1.1,0.9,2,2,2h3c1.1,0,2-0.9,2-2V157.3z"/>
	<path d="M180.5,155.3h-3c-1.1,0-2,0.9-2,2v3c0,1.1,0.9,2,2,2h3c1.1,0,2-0.9,2-2v-3C182.5,156.2,181.6,155.3,180.5,155.3z"/>
	<path d="M13.8,164c0-1.1-0.9-2-2-2h-3c-1.2,0-2,0.9-2,2v3c0,1.1,0.9,2,2,2h3c1.1,0,2-0.9,2-2V164z"/>
	<path d="M79.3,162h-3c-1.1,0-2,0.9-2,2v3c0,1.1,0.9,2,2,2h3c1.1,0,2-0.9,2-2v-3C81.3,162.9,80.4,162,79.3,162z"/>
	<path d="M150.5,169h3c1.1,0,2-0.9,2-2v-3c0-1.1-0.9-2-2-2h-3c-1.1,0-2,0.9-2,2v3C148.5,168.1,149.4,169,150.5,169z"/>
	<path d="M247.6,162h-4.4H243h-4.4c-1.3,0-2.4,1.1-2.4,2.4v3.3c-0.3,0.7-1,1.1-1.8,1.1h-4.7v-0.1h-4.6c-1.3,0-2.4,1.1-2.4,2.4v3.4
		c-0.2,0.5-0.7,0.9-1.2,1h-3.1c-1.3,0-2.4,1.1-2.4,2.4v2.2c0,1.3,1.1,2.4,2.4,2.4h4.4h0.2h4.4c1.3,0,2.4-1.1,2.4-2.4v-4.3h6.5v6.5
		v0.2v6.5h-0.1v4.6c0,1.3,1.1,2.4,2.4,2.4h4.6v0h4.4c1.3,0,2.4-1.1,2.4-2.4v-2.2c0-1.3-1.1-2.4-2.4-2.4h-4.3v-6.5h4.3
		c1.3,0,2.4-1.1,2.4-2.4v-4.3v-0.3V169v-0.2v-4.4C250,163.1,248.9,162,247.6,162z"/>
	<path d="M20.5,170.8c0-1.1-0.9-2-2-2h-3c-1.1,0-2,0.9-2,2v3c0,1.1,0.9,2,2,2h3c1.1,0,2-0.9,2-2V170.8z"/>
	<path d="M81,173.8c0,1.1,0.9,2,2,2h3c1.1,0,2-0.9,2-2v-3c0-1.1-0.9-2-2-2h-3c-1.1,0-2,0.9-2,2V173.8z"/>
	<path d="M128.5,170.8c0-1.1-0.9-2-2-2h-3c-1.1,0-2,0.9-2,2v3c0,1.1,0.9,2,2,2h3c1.1,0,2-0.9,2-2V170.8z"/>
	<path d="M166.6,175.8c1.3,0,2.4-1.1,2.4-2.4V169v-0.2V162h0v-4.4c0-1.3-1.1-2.4-2.4-2.4h-2.2c-1.3,0-2.4,1.1-2.4,2.4v4.4v0.2v5.2
		c-0.2,0.6-0.7,1.1-1.3,1.3h-3.1c-1.3,0-2.4,1.1-2.4,2.4v2.2c0,1.3,1.1,2.4,2.4,2.4h4.4v0.1H166.6z"/>
	<path d="M87.7,180.1c0,1.3,1.1,2.4,2.4,2.4h4.6v0h4.4c1.3,0,2.4-1.1,2.4-2.4v-2.2c0-1.3-1.1-2.4-2.4-2.4h-4.6v0h-4.4
		c-1.3,0-2.4,1.1-2.4,2.4V180.1z"/>
	<path d="M170.8,182.5h3c1.1,0,2-0.9,2-2v-3c0-1.1-0.9-2-2-2h-3c-1.1,0-2,0.9-2,2v3C168.8,181.6,169.7,182.5,170.8,182.5z"/>
	<path d="M18.1,182.2h-2.2c-1.3,0-2.4,1.1-2.4,2.4v4.4v0.2v4.4c0,1.3,1.1,2.4,2.4,2.4h4.6v0h4.4c1.3,0,2.4-1.1,2.4-2.4v-2.2
		c0-1.3-1.1-2.4-2.4-2.4h-4.4v-4.4C20.5,183.3,19.4,182.2,18.1,182.2z"/>
	<path d="M110.4,189.3h2.2c1.3,0,2.4-1.1,2.4-2.4v-4.4v0h4.4c1.3,0,2.4-1.1,2.4-2.4v-2.2c0-1.3-1.1-2.4-2.4-2.4H115V169h4.4
		c1.3,0,2.4-1.1,2.4-2.4v-4.3h6.4v4.3c0,1.3,1.1,2.4,2.4,2.4h4.4v6.5v0h-4.4c-1.3,0-2.4,1.1-2.4,2.4v2.2c0,1.3,1.1,2.4,2.4,2.4h4.4
		h0.2h4.4c1.3,0,2.4-1.1,2.4-2.4v-4.3v0h4.4c1.3,0,2.4-1.1,2.4-2.4v-2.2c0-1.3-1.1-2.4-2.4-2.4H142v-4.4c0-1.3-1.1-2.4-2.4-2.4h-4.3
		v-4.4c0-1.3-1.1-2.4-2.4-2.4h-4.6v0.1h-6.6v-0.1h-4.6c-1.3,0-2.4,1.1-2.4,2.4v3.2c-0.3,0.6-0.7,1-1.3,1.2H108v0h-4.4
		c-1.3,0-2.4,1.1-2.4,2.4v2.2c0,1.3,1.1,2.4,2.4,2.4h4.4v6.5v0.3v6.5v0.2v4.4C108,188.2,109.1,189.3,110.4,189.3z"/>
	<path d="M153.1,189.3c1.3,0,2.4-1.1,2.4-2.4v-2.2c0-1.3-1.1-2.4-2.4-2.4h-4.4v-0.1h-4.6c-1.3,0-2.4,1.1-2.4,2.4v2.2
		c0,1.3,1.1,2.4,2.4,2.4h4.4v0.1H153.1z"/>
	<path d="M2.4,196h2.2c1.3,0,2.4-1.1,2.4-2.4v-4.3V189v-6.5v-0.2v-6.6v-0.2v-4.4c0-1.3-1.1-2.4-2.4-2.4H2.4c-1.3,0-2.4,1.1-2.4,2.4
		v4.4v0.2v6.6v0.2v6.5v0.3v4.3C0,194.9,1.1,196,2.4,196z"/>
	<path d="M54.3,189.3V189v-6.5h6.5v6.5h-0.1v4.6c0,1.3,1.1,2.4,2.4,2.4h4.6v0h4.4c1.3,0,2.4-1.1,2.4-2.4v-2.2c0-1.3-1.1-2.4-2.4-2.4
		h-4.3v-6.5v-0.2v-6.5v0h4.3c1.3,0,2.4-1.1,2.4-2.4v-2.2c0-1.3-1.1-2.4-2.4-2.4h-4.3v-6.5V162v-6.5h4.3c1.3,0,2.4-1.1,2.4-2.4v-4.3
		h4.4c1.3,0,2.4-1.1,2.4-2.4v-2.2c0-1.3-1.1-2.4-2.4-2.4h-4.4v-0.1h-4.6c-1.3,0-2.4,1.1-2.4,2.4v3.1c-0.2,0.6-0.7,1.1-1.3,1.3h-3.1
		c-1.3,0-2.4,1.1-2.4,2.4v4.6h0.1v4.6c0,0.9-0.6,1.6-1.4,1.9h-5.1v-6.5v-0.2v-4.4c0-1.3-1.1-2.4-2.4-2.4h-4.4h-0.2h-4.4
		c-1.3,0-2.4,1.1-2.4,2.4v2.2c0,1.3,1.1,2.4,2.4,2.4h4.4v6.5h-6.5h-0.3h-6.7v0h-4.4c-1.3,0-2.4,1.1-2.4,2.4v2.2
		c0,1.3,1.1,2.4,2.4,2.4h4.4H34h6.5h0.3h6.5v6.5h-6.5h-0.3H34h-0.2H27v0h-4.4c-1.3,0-2.4,1.1-2.4,2.4v2.2c0,1.3,1.1,2.4,2.4,2.4H27
		v4.4c0,1.3,1.1,2.4,2.4,2.4h2.2c1.3,0,2.4-1.1,2.4-2.4v-4.4h6.5h0.3h6.5v6.5v0h-4.4c-1.3,0-2.4,1.1-2.4,2.4v2.2
		c0,1.3,1.1,2.4,2.4,2.4h4.4h0.2h4.4c1.3,0,2.4-1.1,2.4-2.4V189.3z M60.8,169v6.5h-6.5V169H60.8z"/>
	<path d="M88,196h4.4c1.3,0,2.4-1.1,2.4-2.4v-2.2c0-1.3-1.1-2.4-2.4-2.4H88v-4.4c0-1.3-1.1-2.4-2.4-2.4H81v0h-4.4
		c-1.3,0-2.4,1.1-2.4,2.4v2.2c0,1.3,1.1,2.4,2.4,2.4H81v4.4c0,1.3,1.1,2.4,2.4,2.4L88,196L88,196z"/>
	<path d="M78.9,202.5h-4.4h-0.2h-4.4c-1.3,0-2.4,1.1-2.4,2.4v4.4v0.2v6.5v0.3v4.3c0,1.3,1.1,2.4,2.4,2.4h4.4h0.2H81h0.3h4.3
		c1.3,0,2.4-1.1,2.4-2.4v-4.4V216v-4.4c0-1.3-1.1-2.4-2.4-2.4h-4.3v-4.3C81.3,203.6,80.2,202.5,78.9,202.5z"/>
	<path d="M103.6,209.5h2.2c1.3,0,2.4-1.1,2.4-2.4v-4.3h0.1V196v-0.2v-4.4c0-1.3-1.1-2.4-2.4-2.4h-2.2c-1.3,0-2.4,1.1-2.4,2.4v3
		c-0.2,0.6-0.6,1.1-1.1,1.3h-3.3c-1.3,0-2.4,1.1-2.4,2.4v2.2c0,1.3,1.1,2.4,2.4,2.4h4.3v4.4C101.2,208.4,102.3,209.5,103.6,209.5z"
		/>
	<path d="M128.2,202.5v4.6c0,1.3,1.1,2.4,2.4,2.4h2.2c1.3,0,2.4-1.1,2.4-2.4v-4.3h0.1V196v0h4.3c1.3,0,2.4-1.1,2.4-2.4v-2.2
		c0-1.3-1.1-2.4-2.4-2.4h-4.3H135h-6.7v0h-4.4c-1.3,0-2.4,1.1-2.4,2.4v2.2c0,1.3,1.1,2.4,2.4,2.4h4.4v6.5H128.2z"/>
	<path d="M204.5,209.5h3c1.1,0,2-0.9,2-2v-3c0-1.1-0.9-2-2-2h-3c-1.1,0-2,0.9-2,2v3C202.5,208.6,203.4,209.5,204.5,209.5z"/>
	<path d="M247.6,202.5h-4.4H243h-4.4c-1.3,0-2.4,1.1-2.4,2.4v4.6h0.1v5.2c-0.2,0.6-0.7,1.1-1.3,1.3h-3.1c-1.3,0-2.4,1.1-2.4,2.4v2.2
		c0,1.3,1.1,2.4,2.4,2.4h4.3v4.4c0,1.3,1.1,2.4,2.4,2.4h2.2c1.3,0,2.4-1.1,2.4-2.4V223h0.1v0h4.3c1.3,0,2.4-1.1,2.4-2.4v-2.2
		c0-1.3-1.1-2.4-2.4-2.4h-4.3v-6.5h4.3c1.3,0,2.4-1.1,2.4-2.4v-2.2C250,203.6,248.9,202.5,247.6,202.5z"/>
	<path d="M116.8,216.3h3c1.1,0,2-0.9,2-2v-3c0-1.1-0.9-2-2-2h-3c-1.1,0-2,0.9-2,2v3C114.8,215.4,115.7,216.3,116.8,216.3z"/>
	<path d="M96.5,223h3c1.1,0,2-0.9,2-2v-3c0-1.1-0.9-2-2-2h-3c-1.1,0-2,0.9-2,2v3C94.5,222.1,95.4,223,96.5,223z"/>
	<path d="M223,216.3V216v-6.5v0h4.4c1.3,0,2.4-1.1,2.4-2.4v-2.2c0-1.3-1.1-2.4-2.4-2.4H223V196v0h4.4c1.3,0,2.4-1.1,2.4-2.4v-2.2
		c0-1.3-1.1-2.4-2.4-2.4H223h-0.2h-6.5h0v-4.4c0-1.3-1.1-2.4-2.4-2.4h-2.2c-1.3,0-2.4,1.1-2.4,2.4v3.1c-0.2,0.6-0.7,1.1-1.3,1.3
		h-5.2v-4.4c0-1.3-1.1-2.4-2.4-2.4H196h-0.2h-4.4c-1.3,0-2.4,1.1-2.4,2.4v4.4v0.2v6.6v0.2v5.2c-0.2,0.6-0.7,1.1-1.3,1.3h-5.2h-0.2
		h-6.5V196h4.3c1.3,0,2.4-1.1,2.4-2.4V189h0v-4.4c0-1.3-1.1-2.4-2.4-2.4h-2.2c-1.3,0-2.4,1.1-2.4,2.4v3.1c-0.2,0.6-0.7,1.1-1.3,1.3
		H169h-0.2h-6.6H162h-4.4c-1.3,0-2.4,1.1-2.4,2.4v3.3c-0.2,0.5-0.5,0.8-1,1h-3.3c-1.3,0-2.4,1.1-2.4,2.4v4.4v0.2v4.4
		c0,1.3,1.1,2.4,2.4,2.4h2.2c1.3,0,2.4-1.1,2.4-2.4v-4.3h4.4c1.3,0,2.4-1.1,2.4-2.4V196h6.5v6.5h-4.4c-1.3,0-2.4,1.1-2.4,2.4v4.4
		v0.2v5.2c-0.2,0.6-0.7,1.1-1.3,1.3h-5.2h-0.2h-6.5h-0.3H142h-0.2H135v0h-4.4c-1.3,0-2.4,1.1-2.4,2.4v2.2c0,1.3,1.1,2.4,2.4,2.4h4.4
		h0.2h6.6v6.5v0h-4.4c-1.3,0-2.4,1.1-2.4,2.4v2.2c0,1.3,1.1,2.4,2.4,2.4h4.3v4.4c0,1.3,1.1,2.4,2.4,2.4h4.4h0.2h6.5v4.3
		c0,1.3,1.1,2.4,2.4,2.4h2.2c1.3,0,2.4-1.1,2.4-2.4v-4.3h0.1v-6.8v0h4.3c1.3,0,2.4-1.1,2.4-2.4v-2.2c0-1.3-1.1-2.4-2.4-2.4h-4.3H162
		h-6.5h-0.2h-6.5V223h6.5h0.2h6.5h0.3h6.5h0.2h6.5h0.3h6.5v6.5v0h-4.4c-1.3,0-2.4,1.1-2.4,2.4v2.2c0,1.3,1.1,2.4,2.4,2.4h4.4h0.2
		h4.4c1.3,0,2.4-1.1,2.4-2.4v-4.3v-0.3V223h6.5h0.2h6.5v4.4c0,1.3,1.1,2.4,2.4,2.4h4.3v4.3c0,1.3,1.1,2.4,2.4,2.4h2.2
		c1.3,0,2.4-1.1,2.4-2.4v-4.3h0.1V223h4.3c1.3,0,2.4-1.1,2.4-2.4V216.3z M189,209.5v6.5h-6.5v-6.5H189z M169,216v-6.5h6.5v6.5H169z
		 M196,216v-6.5v-0.2v-6.5v-0.3V196h6.5h0.3h6.5h0.2h6.5v6.5v0.3v6.5v0.2v5.2c-0.2,0.6-0.7,1.1-1.3,1.3h-5.2h-0.2h-6.5h-0.3H196z"/>
	<path d="M126.1,222.8h-4.4v-0.1h-4.6c-1.3,0-2.4,1.1-2.4,2.4v3.2c-0.3,0.6-0.7,1-1.3,1.2h-5.1v-4.4c0-1.3-1.1-2.4-2.4-2.4h-2.2
		c-1.3,0-2.4,1.1-2.4,2.4v3c-0.2,0.7-0.7,1.2-1.4,1.4h-3c-1.3,0-2.4,1.1-2.4,2.4v2.2c0,1.3,1.1,2.4,2.4,2.4h4.3v4.4
		c0,1.3,1.1,2.4,2.4,2.4h2.2c1.3,0,2.4-1.1,2.4-2.4v-4.4h0.1h6.5v6.5v0h-4.4c-1.3,0-2.4,1.1-2.4,2.4v2.2c0,1.3,1.1,2.4,2.4,2.4h4.4
		h0.2h4.4c1.3,0,2.4-1.1,2.4-2.4v-4.3v0h4.3c1.3,0,2.4-1.1,2.4-2.4v-2.2c0-1.3-1.1-2.4-2.4-2.4h-4.3v-6.5h4.3c1.3,0,2.4-1.1,2.4-2.4
		v-2.2C128.5,223.9,127.4,222.8,126.1,222.8z"/>
	<path d="M81.3,231.5c0-1.1-0.9-2-2-2h-3c-1.1,0-2,0.9-2,2v3c0,1.1,0.9,2,2,2h3c1.1,0,2-0.9,2-2V231.5z"/>
	<path d="M202.8,231.5c0-1.1-0.9-2-2-2h-3c-1.1,0-2,0.9-2,2v3c0,1.1,0.9,2,2,2h3c1.1,0,2-0.9,2-2V231.5z"/>
	<path d="M229.8,231.5c0-1.1-0.9-2-2-2h-3c-1.1,0-2,0.9-2,2v3c0,1.1,0.9,2,2,2h3c1.1,0,2-0.9,2-2V231.5z"/>
	<path d="M250,231.9c0-1.3-1.1-2.4-2.4-2.4h-2.2c-1.3,0-2.4,1.1-2.4,2.4v4.4v0.2v5.2c-0.2,0.6-0.7,1.1-1.3,1.3h-5.4v0h-4.4
		c-1.3,0-2.4,1.1-2.4,2.4v2.2c0,1.3,1.1,2.4,2.4,2.4h4.4h0.2h6.5h0.3h4.3c1.3,0,2.4-1.1,2.4-2.4v-4.3V243v-6.7h0V231.9z"/>
	<path d="M72.1,236.3h-4.3v-6.6v-0.2v-4.4c0-1.3-1.1-2.4-2.4-2.4H61v-6.4V216v-6.5v-0.2v-6.6h0v-4.6c0-1.3-1.1-2.4-2.4-2.4h-2.2
		c-1.3,0-2.4,1.1-2.4,2.4v4.4v0.2v6.6v0.2v6.5v0.3v6.5v0.2v6.5v0.3v6.5v0.2v4.4c0,1.3,1.1,2.4,2.4,2.4h4.4H61h6.8v0h4.3
		c1.3,0,2.4-1.1,2.4-2.4v-2.2C74.5,237.4,73.4,236.3,72.1,236.3z"/>
	<path d="M92.4,236.2h-2.2c-1.3,0-2.4,1.1-2.4,2.4v3c-0.2,0.7-0.7,1.2-1.4,1.4h-3c-1.3,0-2.4,1.1-2.4,2.4v2.2c0,1.3,1.1,2.4,2.4,2.4
		h4.4H88h4.4c1.3,0,2.4-1.1,2.4-2.4v-4.4V243v-4.4C94.8,237.3,93.7,236.2,92.4,236.2z"/>
	<path d="M194,236.3h-3c-1.1,0-2,0.9-2,2v3c0,1.1,0.9,2,2,2h3c1.1,0,2-0.9,2-2v-3C196,237.2,195.1,236.3,194,236.3z"/>
	<path d="M209.5,238.6c0-1.3-1.1-2.4-2.4-2.4h-2.2c-1.3,0-2.4,1.1-2.4,2.4v4.6h0v4.4c0,1.3,1.1,2.4,2.4,2.4h2.2
		c1.3,0,2.4-1.1,2.4-2.4V243h0V238.6z"/>
	<path d="M140,243h-3c-1.1,0-2,0.9-2,2v3c0,1.1,0.9,2,2,2h3c1.1,0,2-0.9,2-2v-3C142,243.9,141.1,243,140,243z"/>
	<path d="M173.8,243h-3c-1.1,0-2,0.9-2,2v3c0,1.1,0.9,2,2,2h3c1.1,0,2-0.9,2-2v-3C175.8,243.9,174.9,243,173.8,243z"/>
	<path d="M21.2,34.7c5.8,0,0.6,0,6.4,0c5.8,0,7.2-1.4,7.2-7.2s0-0.6,0-6.4c0-5.8-1.4-7.2-7.2-7.2c-5.9,0-0.6,0-6.4,0
		S14,15.3,14,21.1c0,3.3,0,0.6,0,6.4S15.4,34.7,21.2,34.7z"/>
	<path d="M16.9,48.7c13.6,0,1.3,0,14.9,0c13.7,0,16.9-3.3,16.9-16.9c0-13.6,0-1.3,0-14.9C48.7,3.2,45.4,0,31.8,0
		c-13.6,0-1.3,0-14.9,0C3.2,0,0,3.2,0,16.9c0,7.6,0,1.3,0,14.9C0,45.5,3.2,48.7,16.9,48.7z M7,16.9c0-6.6,0.9-8.3,1.3-8.6
		c0.3-0.4,2-1.3,8.6-1.3h15c6.6,0,8.2,0.9,8.6,1.3c0.4,0.4,1.3,2,1.3,8.6v14.9c0,6.7-0.9,8.3-1.4,8.6c-0.3,0.4-2,1.3-8.6,1.3H16.9
		c-6.6,0-8.2-0.9-8.6-1.3c-0.4-0.3-1.3-2-1.3-8.6V16.9z"/>
	<path d="M233.1,0c-13.7,0-1.3,0-14.9,0c-13.7,0-16.9,3.3-16.9,16.9c0,7.6,0,1.3,0,14.9c0,13.7,3.3,16.9,16.9,16.9s1.3,0,14.9,0
		c13.7,0,16.9-3.3,16.9-16.9c0-13.6,0-1.3,0-14.9C250,3.2,246.7,0,233.1,0z M243,31.8c0,6.7-0.9,8.3-1.3,8.6c-0.3,0.4-2,1.3-8.6,1.3
		h-14.9c-6.6,0-8.2-0.9-8.6-1.3c-0.4-0.3-1.3-2-1.3-8.6V16.9c0-6.6,0.9-8.2,1.3-8.6c0.3-0.4,2-1.3,8.6-1.3h14.9
		c6.6,0,8.2,0.9,8.6,1.3c0.4,0.4,1.3,2,1.3,8.6V31.8z"/>
	<path d="M228.8,13.9c-5.8,0-0.6,0-6.4,0s-7.2,1.4-7.2,7.2c0,3.3,0,0.6,0,6.4s1.4,7.2,7.2,7.2s0.6,0,6.4,0c5.8,0,7.2-1.4,7.2-7.2
		s0-0.6,0-6.4C236,15.3,234.6,13.9,228.8,13.9z"/>
	<path d="M27.6,215.3c-5.9,0-0.6,0-6.4,0s-7.2,1.4-7.2,7.2c0,3.3,0,0.6,0,6.4s1.4,7.2,7.2,7.2s0.6,0,6.4,0c5.8,0,7.2-1.4,7.2-7.2
		s0-0.6,0-6.4C34.8,216.7,33.4,215.3,27.6,215.3z"/>
	<path d="M31.8,201.3c-13.6,0-1.3,0-14.9,0.1C3.2,201.4,0,204.7,0,218.3c0,7.6,0,1.3,0,14.9c0,13.6,3.2,16.9,16.9,16.8
		c13.6,0,1.3,0,14.9,0c13.7,0,16.9-3.3,16.9-16.9c0-13.6,0-1.3,0-14.9C48.7,204.5,45.4,201.3,31.8,201.3z M41.8,233.2
		c0,6.6-0.9,8.2-1.4,8.6c-0.3,0.4-2,1.3-8.6,1.3H16.9c-6.6,0-8.2-0.9-8.6-1.3c-0.4-0.3-1.3-2-1.3-8.6v-14.9c0-6.6,0.9-8.2,1.3-8.6
		c0.3-0.4,2-1.3,8.6-1.3h15c6.6,0,8.2,0.9,8.6,1.3c0.4,0.4,1.3,2,1.3,8.6V233.2z"/>
</g>
<g>
	<path class="st0" d="M125.1,109.7c-8.3,0-15.1,6.8-15.1,15.1c0,2.8,0.8,5.6,2.3,8l0.4,0.6l-1.5,5.6l5.7-1.5l0.5,0.3
		c2.3,1.4,5,2.1,7.7,2.1c8.3,0,15.1-6.7,15-15.2c0-4-1.6-7.8-4.4-10.6C132.9,111.3,129.1,109.7,125.1,109.7z M134.2,131.4
		c-0.4,1.1-2.2,2.1-3.1,2.2c-0.8,0.1-1.8,0.1-2.9-0.2c-0.7-0.3-1.5-0.5-2.6-1c-4.5-1.9-7.5-6.5-7.7-6.8s-1.8-2.5-1.8-4.7
		c0-2.3,1.2-3.3,1.6-3.8c0.4-0.5,0.9-0.6,1.2-0.6s0.6,0,0.9,0c0.3,0,0.6-0.1,1,0.8c0.4,0.9,1.3,3.2,1.4,3.4c0.1,0.2,0.2,0.5,0,0.8
		c-0.2,0.3-0.3,0.5-0.5,0.8c-0.2,0.3-0.5,0.6-0.7,0.8c-0.2,0.2-0.5,0.4-0.2,0.9c0.2,0.4,1.2,1.9,2.5,3.1c1.7,1.5,3.1,2,3.6,2.2
		s0.7,0.2,1-0.1c0.2-0.3,1.1-1.3,1.4-1.8c0.3-0.4,0.6-0.4,1-0.2c0.4,0.2,2.6,1.3,3.1,1.5c0.4,0.2,0.7,0.3,1.1,0.5
		C134.6,129.4,134.6,130.3,134.2,131.4z"/>
	<path class="st0" d="M132.8,99.6c-14.2,0-1.4,0-15.6,0c-14.2,0-17.6,3.4-17.6,17.6c0,7.9,0,1.4,0,15.6c0,14.2,3.4,17.6,17.6,17.6
		c14.2,0,1.4,0,15.6,0s17.6-3.4,17.6-17.6s0-1.4,0-15.6S147,99.6,132.8,99.6z M125.1,143.1c-3.1,0-6.1-0.8-8.7-2.2l-9.6,2.5l2.6-9.4
		c-1.6-2.8-2.4-5.9-2.4-9.1c0-10,8.1-18.1,18.1-18.1c4.8,0,9.4,1.9,12.8,5.3c3.4,3.4,5.3,7.9,5.3,12.9
		C143.2,135,135.1,143.1,125.1,143.1z"/>
</g>
</svg>
