<?xml version="1.0" encoding="utf-8"?>
<!-- Generator: Adobe Illustrator 24.0.1, SVG Export Plug-In . SVG Version: 6.00 Build 0)  -->
<svg version="1.1" id="Слой_1" xmlns="http://www.w3.org/2000/svg" xmlns:xlink="http://www.w3.org/1999/xlink" x="0px" y="0px"
	 viewBox="0 0 250 250" style="enable-background:new 0 0 250 250;" xml:space="preserve">
<style type="text/css">
	.st0{fill-rule:evenodd;clip-rule:evenodd;}
	.st1{opacity:0.25;enable-background:new    ;}
</style>
<g>
	<path class="st0" d="M196.8,6.3h2.7c1,0,1.8-0.8,1.8-1.8V1.8c0-1-0.8-1.8-1.8-1.8h-2.7c-1,0-1.8,0.8-1.8,1.8v2.7
		C195,5.5,195.8,6.3,196.8,6.3z"/>
	<path class="st0" d="M50.9,12.4h4v4c0,1.2,1,2.1,2.1,2.1h2c1.2,0,2.1-1,2.1-2.1v-4v-0.2v-4c0-1.2-1-2.1-2.1-2.1h-4h-0.2h-4
		c-1.2,0-2.1,1-2.1,2.1v2C48.7,11.4,49.7,12.4,50.9,12.4z"/>
	<path class="st0" d="M81.3,12.4h4h0.2h5.9v4c0,1.2,1,2.1,2.1,2.1h4h0.2h5.9h0.2h5.9h0.2h5.9v5.9h-4c-1.2,0-2.1,1-2.1,2.1v2
		c0,1.2,1,2.1,2.1,2.1h4h0.2h5.9h0.2h5.9h0.2h4c1.2,0,2.1-1,2.1-2.1v-2c0-1.2-1-2.1-2.1-2.1h-4v-4c0-1.2-1-2.1-2.1-2.1h-4v-5.9h5.9
		v4c0,1.2,1,2.1,2.1,2.1h4v4c0,1.2,1,2.1,2.1,2.1h4h0.2h4c1.2,0,2.1-1,2.1-2.1v-4h5.9h0.2h5.9v4c0,1.2,1,2.1,2.1,2.1h2
		c1.2,0,2.1-1,2.1-2.1v-4h4c1.2,0,2.1-1,2.1-2.1v-2c0-1.2-1-2.1-2.1-2.1h-4v-6V6.1v-4c0-1.2-1-2.1-2.1-2.1h-4h-0.2h-4
		c-1.2,0-2.1,1-2.1,2.1v4v0.2v4.6c-0.2,0.6-0.7,1.1-1.3,1.3h-4.6h-0.2h-5.9h-0.2h-5.9V6.3h4c1.2,0,2.1-1,2.1-2.1v-2
		c0-1.2-1-2.1-2.1-2.1h-4H134h-5.9H128h-4c-1.2,0-2.1,1-2.1,2.1v2.7c-0.2,0.6-0.7,1.1-1.3,1.3H116h-0.2h-4c-1.2,0-2.1,1-2.1,2.1V11
		c-0.2,0.6-0.7,1.1-1.3,1.3h-4.6v-6h4c1.2,0,2.1-1,2.1-2.1v-2c0-1.2-1-2.1-2.1-2.1h-4h-0.2h-5.9h-0.2h-4c-1.2,0-2.1,1-2.1,2.1v2.7
		c-0.2,0.6-0.7,1.1-1.3,1.3h-4.6v-4c0-1.2-1-2.1-2.1-2.1h-2c-1.2,0-2.1,1-2.1,2.1v4v0.2v4C79.2,11.4,80.2,12.4,81.3,12.4z"/>
	<path class="st0" d="M178.8,12.4h2c1.2,0,2.1-1,2.1-2.1v-4V6.1v-4c0-1.2-1-2.1-2.1-2.1h-2c-1.2,0-2.1,1-2.1,2.1v4v0.2v4
		C176.7,11.4,177.7,12.4,178.8,12.4z"/>
	<path class="st0" d="M191,18.5h2c1.2,0,2.1-1,2.1-2.1v-4v-0.2v-4c0-1.2-1-2.1-2.1-2.1h-2c-1.2,0-2.1,1-2.1,2.1v4v0.2v4
		C188.9,17.5,189.8,18.5,191,18.5z"/>
	<path class="st0" d="M89.8,18.3h-2.7c-1,0-1.8,0.8-1.8,1.8v2.7c0,1,0.8,1.8,1.8,1.8h2.7c1,0,1.8-0.8,1.8-1.8v-2.7
		C91.6,19.1,90.8,18.3,89.8,18.3z"/>
	<path class="st0" d="M178.8,24.6h4h0.2h4c1.2,0,2.1-1,2.1-2.1v-2c0-1.2-1-2.1-2.1-2.1h-4h-0.2h-4c-1.2,0-2.1,1-2.1,2.1v2
		C176.7,23.6,177.7,24.6,178.8,24.6z"/>
	<path class="st0" d="M201.3,20.1c0-1-0.8-1.8-1.8-1.8h-2.7c-1,0-1.8,0.8-1.8,1.8v2.7c0,1,0.8,1.8,1.8,1.8h2.7c1,0,1.8-0.8,1.8-1.8
		V20.1z"/>
	<path class="st0" d="M50.9,30.7h2c1.2,0,2.1-1,2.1-2.1v-4v-0.2v-4c0-1.2-1-2.1-2.1-2.1h-2c-1.2,0-2.1,1-2.1,2.1v4v0.2v4
		C48.7,29.7,49.7,30.7,50.9,30.7z"/>
	<path class="st0" d="M95.9,24.4h-2.7c-1,0-1.8,0.8-1.8,1.8v2.7c0,1,0.8,1.8,1.8,1.8h2.7c1,0,1.8-0.8,1.8-1.8v-2.7
		C97.7,25.2,96.9,24.4,95.9,24.4z"/>
	<path class="st0" d="M156.8,24.4h-2.7c-1,0-1.8,0.8-1.8,1.8v2.7c0,1,0.8,1.8,1.8,1.8h2.7c1,0,1.8-0.8,1.8-1.8v-2.7
		C158.6,25.2,157.8,24.4,156.8,24.4z"/>
	<path class="st0" d="M195.2,26.2c0-1-0.8-1.8-1.8-1.8h-2.7c-1,0-1.8,0.8-1.8,1.8v2.7c0,1,0.8,1.8,1.8,1.8h2.7c1,0,1.8-0.8,1.8-1.8
		V26.2z"/>
	<path class="st0" d="M59.3,30.5h-2.7c-1,0-1.8,0.8-1.8,1.8V35c0,1,0.8,1.8,1.8,1.8h2.7c1,0,1.8-0.8,1.8-1.8v-2.7
		C61.1,31.3,60.3,30.5,59.3,30.5z"/>
	<path class="st0" d="M69.2,36.7h4v4c0,1.2,1,2.1,2.1,2.1h2c1.2,0,2.1-1,2.1-2.1v-4h4c1.2,0,2.1-1,2.1-2.1v-2c0-1.2-1-2.1-2.1-2.1
		h-4v-4c0-1.2-1-2.1-2.1-2.1h-4v-5.9h4c1.2,0,2.1-1,2.1-2.1v-2c0-1.2-1-2.1-2.1-2.1h-4h-0.2h-4c-1.2,0-2.1,1-2.1,2.1v4v0.2v5.9v0.2
		v5.9v0.2v4C67,35.8,68,36.7,69.2,36.7z"/>
	<path class="st0" d="M108.1,30.5h-2.7c-1,0-1.8,0.8-1.8,1.8V35c0,1,0.8,1.8,1.8,1.8h2.7c1,0,1.8-0.8,1.8-1.8v-2.7
		C109.9,31.3,109.1,30.5,108.1,30.5z"/>
	<path class="st0" d="M144.6,30.5h-2.7c-1,0-1.8,0.8-1.8,1.8V35c0,1,0.8,1.8,1.8,1.8h2.7c1,0,1.8-0.8,1.8-1.8v-2.7
		C146.4,31.3,145.6,30.5,144.6,30.5z"/>
	<path class="st0" d="M170.6,36.6v0.2v5.9v0.2v4c0,1.2,1,2.1,2.1,2.1h2c1.2,0,2.1-1,2.1-2.1v-4v-0.2v-5.9h5.9v4c0,1.2,1,2.1,2.1,2.1
		h2c1.2,0,2.1-1,2.1-2.1v-4v-0.2v-4c0-1.2-1-2.1-2.1-2.1h-4h-0.2h-5.9h-0.2h-4c-1.2,0-2.1,1-2.1,2.1v4H170.6z"/>
	<path class="st0" d="M60.9,41c0,1,0.8,1.8,1.8,1.8h2.7c1,0,1.8-0.8,1.8-1.8v-2.7c0-1-0.8-1.8-1.8-1.8h-2.7c-1,0-1.8,0.8-1.8,1.8V41
		z"/>
	<path class="st0" d="M85.3,41c0,1,0.8,1.8,1.8,1.8h2.7c1,0,1.8-0.8,1.8-1.8v-2.7c0-1-0.8-1.8-1.8-1.8h-2.7c-1,0-1.8,0.8-1.8,1.8V41
		z"/>
	<path class="st0" d="M102,36.6h-2.7c-1,0-1.8,0.8-1.8,1.8V41c0,1,0.8,1.8,1.8,1.8h2.7c1,0,1.8-0.8,1.8-1.8v-2.7
		C103.8,37.4,103,36.6,102,36.6z"/>
	<path class="st0" d="M114.2,36.6h-2.7c-1,0-1.8,0.8-1.8,1.8V41c0,1,0.8,1.8,1.8,1.8h2.7c1,0,1.8-0.8,1.8-1.8v-2.7
		C116,37.4,115.2,36.6,114.2,36.6z"/>
	<path class="st0" d="M138.2,36.6h-2c-1.2,0-2.1,1-2.1,2.1v4v0.2v4c0,1.2,1,2.1,2.1,2.1h2c1.2,0,2.1-1,2.1-2.1v-4v-0.2v-4
		C140.3,37.5,139.4,36.6,138.2,36.6z"/>
	<path class="st0" d="M150.7,36.6H148c-1,0-1.8,0.8-1.8,1.8V41c0,1,0.8,1.8,1.8,1.8h2.7c1,0,1.8-0.8,1.8-1.8v-2.7
		C152.5,37.4,151.7,36.6,150.7,36.6z"/>
	<path class="st0" d="M197.1,42.8h2c1.2,0,2.1-1,2.1-2.1v-4v-0.2v-4c0-1.2-1-2.1-2.1-2.1h-2c-1.2,0-2.1,1-2.1,2.1v4v0.2v4
		C195,41.9,195.9,42.8,197.1,42.8z"/>
	<path class="st0" d="M95.9,48.9c1,0,1.8-0.8,1.8-1.8v-2.7c0-1-0.8-1.8-1.8-1.8h-2.7c-1,0-1.8,0.8-1.8,1.8v2.7c0,1,0.8,1.8,1.8,1.8
		H95.9z"/>
	<path class="st0" d="M128.1,42.7v-4c0-1.2-1-2.1-2.1-2.1h-2c-1.2,0-2.1,1-2.1,2.1v2.7c-0.2,0.6-0.7,1.1-1.3,1.3h-2.7
		c-1.2,0-2.1,1-2.1,2.1v4V49v4c0,1.2,1,2.1,2.1,2.1h4h0.2h5.9V61h-4c-1.2,0-2.1,1-2.1,2.1v2c0,1.2,1,2.1,2.1,2.1h4h0.2h4
		c1.2,0,2.1-1,2.1-2.1v-4h5.9h0.2h4c1.2,0,2.1-1,2.1-2.1v-2c0-1.2-1-2.1-2.1-2.1h-4h-0.2h-5.9v-4c0-1.2-1-2.1-2.1-2.1h-4v-5.9
		L128.1,42.7L128.1,42.7z"/>
	<path class="st0" d="M154.5,48.9h4h0.2h4c1.2,0,2.1-1,2.1-2.1v-4v-0.2v-4c0-1.2-1-2.1-2.1-2.1h-2c-1.2,0-2.1,1-2.1,2.1v2.7
		c-0.2,0.6-0.7,1.1-1.3,1.3h-2.7c-1.2,0-2.1,1-2.1,2.1v2C152.3,48,153.3,48.9,154.5,48.9z"/>
	<path class="st0" d="M7.9,48.7c-1,0-1.8,0.8-1.8,1.8v2.7c0,1,0.8,1.8,1.8,1.8h2.7c1,0,1.8-0.8,1.8-1.8v-2.7c0-1-0.8-1.8-1.8-1.8
		H7.9z"/>
	<path class="st0" d="M36.7,55h4c1.2,0,2.1-1,2.1-2.1v-2c0-1.2-1-2.1-2.1-2.1h-4h-0.2h-5.9h-0.2h-5.9h-0.2h-4c-1.2,0-2.1,1-2.1,2.1
		v2c0,1.2,1,2.1,2.1,2.1h4h0.2h5.9h0.2h5.9H36.7z"/>
	<path class="st0" d="M50.9,55h2c1.2,0,2.1-1,2.1-2.1v-4v-0.2v-5.9v-0.2v-4c0-1.2-1-2.1-2.1-2.1h-2c-1.2,0-2.1,1-2.1,2.1v4v0.2v5.9
		v0.2v4C48.7,54.1,49.7,55,50.9,55z"/>
	<path class="st0" d="M150.7,48.7H148c-1,0-1.8,0.8-1.8,1.8v2.7c0,1,0.8,1.8,1.8,1.8h2.7c1,0,1.8-0.8,1.8-1.8v-2.7
		C152.5,49.5,151.7,48.7,150.7,48.7z"/>
	<path class="st0" d="M243.9,50.5c0-1-0.8-1.8-1.8-1.8h-2.7c-1,0-1.8,0.8-1.8,1.8v2.7c0,1,0.8,1.8,1.8,1.8h2.7c1,0,1.8-0.8,1.8-1.8
		V50.5z"/>
	<path class="st0" d="M1.8,61.1h2.7c1,0,1.8-0.8,1.8-1.8v-2.7c0-1-0.8-1.8-1.8-1.8H1.8c-1,0-1.8,0.8-1.8,1.8v2.7
		C0,60.3,0.8,61.1,1.8,61.1z"/>
	<path class="st0" d="M42.7,56.6v2.7c0,1,0.8,1.8,1.8,1.8h2.7c1,0,1.8-0.8,1.8-1.8v-2.7c0-1-0.8-1.8-1.8-1.8h-2.7
		C43.5,54.8,42.7,55.6,42.7,56.6z"/>
	<path class="st0" d="M59,54.8h-2c-1.2,0-2.1,1-2.1,2.1v2.7c-0.2,0.6-0.7,1.1-1.3,1.3h-2.7c-1.2,0-2.1,1-2.1,2.1v2
		c0,1.2,1,2.1,2.1,2.1h4V73v0.2v5.9v0.2v5.9v0.2v4c0,1.2,1,2.1,2.1,2.1h4h0.2H67h0.2h4c1.2,0,2.1-1,2.1-2.1v-4h4
		c1.2,0,2.1-1,2.1-2.1v-4v-0.2v-4c0-1.2-1-2.1-2.1-2.1h-2c-1.2,0-2.1,1-2.1,2.1v2.7c-0.2,0.6-0.7,1.1-1.3,1.3h-2.7
		c-1.2,0-2.1,1-2.1,2.1V84c-0.2,0.6-0.7,1.1-1.3,1.3h-4.6v-5.9v-0.2v-5.9h4c1.2,0,2.1-1,2.1-2.1v-4h5.9h0.2h4c1.2,0,2.1-1,2.1-2.1
		v-2c0-1.2-1-2.1-2.1-2.1h-4v-6h5.9v4c0,1.2,1,2.1,2.1,2.1h4h0.2h4c1.2,0,2.1-1,2.1-2.1v-4v-0.2v-4c0-1.2-1-2.1-2.1-2.1h-4v-4
		c0-1.2-1-2.1-2.1-2.1h-2c-1.2,0-2.1,1-2.1,2.1v2.7c-0.2,0.6-0.7,1.1-1.3,1.3h-4.6v-4c0-1.2-1-2.1-2.1-2.1h-2c-1.2,0-2.1,1-2.1,2.1
		v4v0.2v5.9V55v4.6c-0.2,0.6-0.7,1.1-1.3,1.3h-4.6v-4C61.1,55.8,60.2,54.8,59,54.8z"/>
	<path class="st0" d="M38.4,67.2H41c1,0,1.8-0.8,1.8-1.8v-2.7c0-1-0.8-1.8-1.8-1.8h-2.7c-1,0-1.8,0.8-1.8,1.8v2.7
		C36.6,66.4,37.4,67.2,38.4,67.2z"/>
	<path class="st0" d="M91.4,65.1c0,1.2,1,2.1,2.1,2.1h4h0.2h4c1.2,0,2.1-1,2.1-2.1v-4h4c1.2,0,2.1-1,2.1-2.1v-4v-0.2v-4
		c0-1.2-1-2.1-2.1-2.1h-4h-0.2h-4c-1.2,0-2.1,1-2.1,2.1v4V55v4.6c-0.2,0.6-0.7,1.1-1.3,1.3h-2.7c-1.2,0-2.1,1-2.1,2.1V65.1z"/>
	<path class="st0" d="M113.8,60.9h-2c-1.2,0-2.1,1-2.1,2.1v2.7c-0.2,0.6-0.7,1.1-1.3,1.3h-2.7c-1.2,0-2.1,1-2.1,2.1v2.7
		c-0.2,0.6-0.7,1.1-1.3,1.3h-2.7c-1.2,0-2.1,1-2.1,2.1v2c0,1.2,1,2.1,2.1,2.1h4v5.9v0.2V90c-0.2,0.6-0.7,1.1-1.3,1.3h-2.7
		c-1.2,0-2.1,1-2.1,2.1v2c0,1.2,1,2.1,2.1,2.1h4h0.2h4c1.2,0,2.1-1,2.1-2.1v-4h5.9v4c0,1.2,1,2.1,2.1,2.1h2c1.2,0,2.1-1,2.1-2.1v-4
		h4c1.2,0,2.1-1,2.1-2.1v-2c0-1.2-1-2.1-2.1-2.1h-4v-4c0-1.2-1-2.1-2.1-2.1h-4v-5.9h4c1.2,0,2.1-1,2.1-2.1v-2c0-1.2-1-2.1-2.1-2.1
		h-4v-4C116,61.9,115,60.9,113.8,60.9z"/>
	<path class="st0" d="M189.1,61.1h4c1.2,0,2.1-1,2.1-2.1v-2c0-1.2-1-2.1-2.1-2.1h-4h-0.2H183v-4c0-1.2-1-2.1-2.1-2.1h-2
		c-1.2,0-2.1,1-2.1,2.1v4V55v4.6c-0.2,0.6-0.7,1.1-1.3,1.3h-4.6V55v-0.2v-4c0-1.2-1-2.1-2.1-2.1h-2c-1.2,0-2.1,1-2.1,2.1v2.7
		c-0.2,0.6-0.7,1.1-1.3,1.3h-2.7c-1.2,0-2.1,1-2.1,2.1v4v0.2V67v0.2v5.9v0.2v4c0,1.2,1,2.1,2.1,2.1h4h0.2h5.9v5.9v0.2v4
		c0,1.2,1,2.1,2.1,2.1h2c1.2,0,2.1-1,2.1-2.1v-4v-0.2v-5.9v-0.2v-4c0-1.2-1-2.1-2.1-2.1h-4h-0.2h-5.9v-5.9h5.9h0.2h5.9v4
		c0,1.2,1,2.1,2.1,2.1h2c1.2,0,2.1-1,2.1-2.1v-4h4c1.2,0,2.1-1,2.1-2.1L189.1,61.1L189.1,61.1z"/>
	<path class="st0" d="M233.3,67.2h2.7c1,0,1.8-0.8,1.8-1.8v-2.7c0-1-0.8-1.8-1.8-1.8h-2.7c-1,0-1.8,0.8-1.8,1.8v2.7
		C231.5,66.4,232.3,67.2,233.3,67.2z"/>
	<path class="st0" d="M44.4,73.3h2.7c1,0,1.8-0.8,1.8-1.8v-2.7c0-1-0.8-1.8-1.8-1.8h-2.7c-1,0-1.8,0.8-1.8,1.8v2.7
		C42.7,72.5,43.5,73.3,44.4,73.3z"/>
	<path class="st0" d="M89.8,67h-2.7c-1,0-1.8,0.8-1.8,1.8v2.7c0,1,0.8,1.8,1.8,1.8h2.7c1,0,1.8-0.8,1.8-1.8v-2.7
		C91.6,67.8,90.8,67,89.8,67z"/>
	<path class="st0" d="M221.5,73.3h4h0.2h4c1.2,0,2.1-1,2.1-2.1v-2c0-1.2-1-2.1-2.1-2.1h-4v-5.9V61v-6h4c1.2,0,2.1-1,2.1-2.1v-2
		c0-1.2-1-2.1-2.1-2.1h-4h-0.2h-4c-1.2,0-2.1,1-2.1,2.1v4V55v4.6c-0.2,0.6-0.7,1.1-1.3,1.3h-2.7c-1.2,0-2.1,1-2.1,2.1v2
		c0,1.2,1,2.1,2.1,2.1h4v4C219.3,72.3,220.3,73.3,221.5,73.3z"/>
	<path class="st0" d="M239.4,73.3h2.7c1,0,1.8-0.8,1.8-1.8v-2.7c0-1-0.8-1.8-1.8-1.8h-2.7c-1,0-1.8,0.8-1.8,1.8v2.7
		C237.6,72.5,238.4,73.3,239.4,73.3z"/>
	<path class="st0" d="M247.9,73.1h-2c-1.2,0-2.1,1-2.1,2.1v4v0.2V84c-0.2,0.6-0.7,1.1-1.3,1.3h-2.7c-1.2,0-2.1,1-2.1,2.1v2.7
		c-0.2,0.6-0.7,1.1-1.3,1.3h-4.6v-5.9v-0.2v-4c0-1.2-1-2.1-2.1-2.1h-4h-0.2h-4c-1.2,0-2.1,1-2.1,2.1v2c0,1.2,1,2.1,2.1,2.1h4v5.9
		v0.2v4c0,1.2,1,2.1,2.1,2.1h4h0.2h5.9h0.2h5.9h0.2h4c1.2,0,2.1-1,2.1-2.1v-4v-0.2v-5.9v-0.2v-5.9v-0.2v-4
		C250,74.1,249,73.1,247.9,73.1z"/>
	<path class="st0" d="M93.2,85.5h2.7c1,0,1.8-0.8,1.8-1.8V81c0-1-0.8-1.8-1.8-1.8h-2.7c-1,0-1.8,0.8-1.8,1.8v2.7
		C91.4,84.7,92.2,85.5,93.2,85.5z"/>
	<path class="st0" d="M136.2,85.5h2c1.2,0,2.1-1,2.1-2.1v-4v-0.2v-4c0-1.2-1-2.1-2.1-2.1h-4H134h-5.9H128h-4c-1.2,0-2.1,1-2.1,2.1v2
		c0,1.2,1,2.1,2.1,2.1h4h0.2h5.9v4C134,84.5,135,85.5,136.2,85.5z"/>
	<path class="st0" d="M158.6,83.4v-2c0-1.2-1-2.1-2.1-2.1h-4h-0.2h-4c-1.2,0-2.1,1-2.1,2.1v2c0,1.2,1,2.1,2.1,2.1h4h0.2h4
		C157.6,85.5,158.6,84.5,158.6,83.4z"/>
	<path class="st0" d="M187.3,79.2h-2.7c-1,0-1.8,0.8-1.8,1.8v2.7c0,1,0.8,1.8,1.8,1.8h2.7c1,0,1.8-0.8,1.8-1.8V81
		C189.1,80,188.3,79.2,187.3,79.2z"/>
	<path class="st0" d="M188.9,91.4v0.2v4c0,1.2,1,2.1,2.1,2.1h2c1.2,0,2.1-1,2.1-2.1v-4v-0.2v-4c0-1.2-1-2.1-2.1-2.1h-2
		c-1.2,0-2.1,1-2.1,2.1V91.4z"/>
	<path class="st0" d="M152.5,93.2c0-1-0.8-1.8-1.8-1.8H148c-1,0-1.8,0.8-1.8,1.8v2.7c0,1,0.8,1.8,1.8,1.8h2.7c1,0,1.8-0.8,1.8-1.8
		V93.2z"/>
	<path class="st0" d="M40.7,97.5h-4h-0.2h-4c-1.2,0-2.1,1-2.1,2.1v2c0,1.2,1,2.1,2.1,2.1h4h0.2h4c1.2,0,2.1-1,2.1-2.1v-2
		C42.8,98.4,41.9,97.5,40.7,97.5z"/>
	<path class="st0" d="M91.4,102c0,1,0.8,1.8,1.8,1.8h2.7c1,0,1.8-0.8,1.8-1.8v-2.7c0-1-0.8-1.8-1.8-1.8h-2.7c-1,0-1.8,0.8-1.8,1.8
		V102z"/>
	<path class="st0" d="M48.7,103.6h-4c-1.2,0-2.1,1-2.1,2.1v2c0,1.2,1,2.1,2.1,2.1h4h0.2h5.9v5.9h-4c-1.2,0-2.1,1-2.1,2.1v4v0.2v4
		c0,1.2,1,2.1,2.1,2.1h4v5.9v0.2v4c0,1.2,1,2.1,2.1,2.1h4v4c0,1.2,1,2.1,2.1,2.1h4h0.2h5.9h0.2h4c1.2,0,2.1-1,2.1-2.1v-4v-0.2v-5.9
		V134v-4c0-1.2-1-2.1-2.1-2.1h-4V122v-0.2V116v-0.2v-5.9h5.9h0.2h4c1.2,0,2.1-1,2.1-2.1v-2c0-1.2-1-2.1-2.1-2.1h-4v-5.9h4
		c1.2,0,2.1-1,2.1-2.1v-4h4c1.2,0,2.1-1,2.1-2.1v-2c0-1.2-1-2.1-2.1-2.1h-4h-0.2h-4c-1.2,0-2.1,1-2.1,2.1v2.7
		c-0.2,0.6-0.7,1.1-1.3,1.3h-2.7c-1.2,0-2.1,1-2.1,2.1v2.7c-0.2,0.6-0.7,1.1-1.3,1.3h-2.7c-1.2,0-2.1,1-2.1,2.1v2.7
		c-0.2,0.6-0.7,1.1-1.3,1.3h-4.6h-0.2H55h-0.2h-5.9h-0.2C48.7,103.8,48.7,103.6,48.7,103.6z M67,128.1v5.9h-5.9v-5.9H67z M67,109.9
		v5.9v0.2v4.6c-0.2,0.6-0.7,1.1-1.3,1.3h-4.6V116v-0.2v-5.9H67z"/>
	<path class="st0" d="M2.1,116h4h0.2h4c1.2,0,2.1-1,2.1-2.1v-4h4c1.2,0,2.1-1,2.1-2.1v-2c0-1.2-1-2.1-2.1-2.1h-4v-5.9v-0.2v-5.9h5.9
		v5.9v0.2v4c0,1.2,1,2.1,2.1,2.1h2c1.2,0,2.1-1,2.1-2.1v-4v-0.2v-5.9h5.9h0.2h5.9h0.2h5.9h0.2h4c1.2,0,2.1-1,2.1-2.1v-4v-0.2v-4
		c0-1.2-1-2.1-2.1-2.1h-2c-1.2,0-2.1,1-2.1,2.1V84c-0.2,0.6-0.7,1.1-1.3,1.3h-4.6v-5.9h4c1.2,0,2.1-1,2.1-2.1v-2
		c0-1.2-1-2.1-2.1-2.1h-4h-0.2h-5.9h-0.2h-5.9v-5.9V67v-4c0-1.2-1-2.1-2.1-2.1h-4v-4c0-1.2-1-2.1-2.1-2.1h-2c-1.2,0-2.1,1-2.1,2.1
		v2.7c-0.2,0.6-0.7,1.1-1.3,1.3H8.2c-1.2,0-2.1,1-2.1,2.1v2.7c-0.2,0.6-0.7,1.1-1.3,1.3H2.1C1,67,0,68,0,69.2v4v0.2v5.9v0.2v5.9v0.2
		v4c0,1.2,1,2.1,2.1,2.1h4v5.9h-4c-1.2,0-2.1,1-2.1,2.1v4v0.2v5.9v0.2v4C0,115,1,116,2.1,116z M12.4,85.3h-0.2H6.3v-5.9h5.9h0.2h5.9
		v5.9H12.4z M18.3,73.1h-5.9v-5.9h5.9V73.1z"/>
	<path class="st0" d="M38.4,116H41c1,0,1.8-0.8,1.8-1.8v-2.7c0-1-0.8-1.8-1.8-1.8h-2.7c-1,0-1.8,0.8-1.8,1.8v2.7
		C36.6,115.2,37.4,116,38.4,116z"/>
	<path class="st0" d="M247.9,109.7h-2c-1.2,0-2.1,1-2.1,2.1v2.7c-0.2,0.6-0.7,1.1-1.3,1.3h-4.6v-5.9v-0.2v-4c0-1.2-1-2.1-2.1-2.1h-4
		h-0.2h-5.9h-0.2h-4c-1.2,0-2.1,1-2.1,2.1v2.7c-0.2,0.6-0.7,1.1-1.3,1.3h-4.6h-0.2h-5.9v-5.9v-0.2v-5.9v-0.2v-5.9h5.9v4
		c0,1.2,1,2.1,2.1,2.1h2c1.2,0,2.1-1,2.1-2.1v-4v-0.2v-4c0-1.2-1-2.1-2.1-2.1h-4v-5.9h4c1.2,0,2.1-1,2.1-2.1v-2c0-1.2-1-2.1-2.1-2.1
		h-4h-0.2h-5.9v-5.9V67v-5.9v-0.2V55h4c1.2,0,2.1-1,2.1-2.1v-2c0-1.2-1-2.1-2.1-2.1h-4h-0.2h-5.9H201h-4c-1.2,0-2.1,1-2.1,2.1v2
		c0,1.2,1,2.1,2.1,2.1h4v5.9v0.2v4.6c-0.2,0.6-0.7,1.1-1.3,1.3h-4.6H195h-4c-1.2,0-2.1,1-2.1,2.1v2c0,1.2,1,2.1,2.1,2.1h4h0.2h5.9
		v5.9h-4c-1.2,0-2.1,1-2.1,2.1v2c0,1.2,1,2.1,2.1,2.1h4v5.9v0.2v5.9v0.2v5.9v0.2v4.6c-0.2,0.6-0.7,1.1-1.3,1.3h-4.6v-4
		c0-1.2-1-2.1-2.1-2.1h-4h-0.2H183h-0.2h-5.9v-4c0-1.2-1-2.1-2.1-2.1h-2c-1.2,0-2.1,1-2.1,2.1v2.7c-0.2,0.6-0.7,1.1-1.3,1.3h-4.6
		v-5.9h4c1.2,0,2.1-1,2.1-2.1v-2c0-1.2-1-2.1-2.1-2.1h-4v-4c0-1.2-1-2.1-2.1-2.1h-2c-1.2,0-2.1,1-2.1,2.1v4v0.2v4.6
		c-0.2,0.6-0.7,1.1-1.3,1.3h-2.7c-1.2,0-2.1,1-2.1,2.1v4v0.2v4c0,1.2,1,2.1,2.1,2.1h4h0.2h5.9v4c0,1.2,1,2.1,2.1,2.1h2
		c1.2,0,2.1-1,2.1-2.1v-4h5.9h0.2h5.9v4c0,1.2,1,2.1,2.1,2.1h4v5.9h-4c-1.2,0-2.1,1-2.1,2.1v4v0.2v4.6c-0.2,0.6-0.7,1.1-1.3,1.3H177
		h-0.2h-5.9v-4c0-1.2-1-2.1-2.1-2.1h-4V122v-0.2v-4c0-1.2-1-2.1-2.1-2.1h-2c-1.2,0-2.1,1-2.1,2.1v2.7c-0.2,0.6-0.7,1.1-1.3,1.3h-2.7
		c-1.2,0-2.1,1-2.1,2.1v4v0.2v5.9v0.2v4c0,1.2,1,2.1,2.1,2.1h2c1.2,0,2.1-1,2.1-2.1v-4h5.9v4c0,1.2,1,2.1,2.1,2.1h4v5.9h-4
		c-1.2,0-2.1,1-2.1,2.1v4v0.2v4.6c-0.2,0.6-0.7,1.1-1.3,1.3h-2.7c-1.2,0-2.1,1-2.1,2.1v2c0,1.2,1,2.1,2.1,2.1h4h0.2h5.9h0.2h5.9h0.2
		h4c1.2,0,2.1-1,2.1-2.1v-4h4c1.2,0,2.1-1,2.1-2.1v-2c0-1.2-1-2.1-2.1-2.1h-4h-0.2H177v-5.9h4c1.2,0,2.1-1,2.1-2.1v-4h4
		c1.2,0,2.1-1,2.1-2.1v-4h4c1.2,0,2.1-1,2.1-2.1v-4V128v-6v-0.2V116h5.9v5.9v0.2v4c0,1.2,1,2.1,2.1,2.1h4h0.2h4c1.2,0,2.1-1,2.1-2.1
		v-4v-0.2V116h5.9v4c0,1.2,1,2.1,2.1,2.1h2c1.2,0,2.1-1,2.1-2.1v-4v-0.2v-5.9h5.9v5.9v0.2v4.6c-0.2,0.6-0.7,1.1-1.3,1.3h-2.7
		c-1.2,0-2.1,1-2.1,2.1v2.7c-0.2,0.6-0.7,1.1-1.3,1.3h-4.6h-0.2h-4c-1.2,0-2.1,1-2.1,2.1v2c0,1.2,1,2.1,2.1,2.1h4h0.2h5.9v5.9h-5.9
		h-0.2h-4c-1.2,0-2.1,1-2.1,2.1v2c0,1.2,1,2.1,2.1,2.1h4h0.2h5.9v4c0,1.2,1,2.1,2.1,2.1h2c1.2,0,2.1-1,2.1-2.1v-4v-0.2v-5.9h4
		c1.2,0,2.1-1,2.1-2.1v-4V134v-5.9h5.9h0.2h4c1.2,0,2.1-1,2.1-2.1v-4v-0.2V116v-0.2v-4C250,110.6,249,109.7,247.9,109.7z"/>
	<path class="st0" d="M91.4,120.6c-0.2,0.6-0.7,1.1-1.3,1.3h-2.7c-1.2,0-2.1,1-2.1,2.1v4v0.2v4c0,1.2,1,2.1,2.1,2.1h2
		c1.2,0,2.1-1,2.1-2.1v-4h4c1.2,0,2.1-1,2.1-2.1v-4v-0.2v-4c0-1.2-1-2.1-2.1-2.1h-2c-1.2,0-2.1,1-2.1,2.1V120.6z"/>
	<path class="st0" d="M2.1,128.1h4h0.2h5.9h0.2h5.9h0.2h4c1.2,0,2.1-1,2.1-2.1v-4h5.9v5.9h-4c-1.2,0-2.1,1-2.1,2.1v2
		c0,1.2,1,2.1,2.1,2.1h4v4c0,1.2,1,2.1,2.1,2.1h4h0.2h4c1.2,0,2.1-1,2.1-2.1v-2c0-1.2-1-2.1-2.1-2.1h-4v-5.9h4c1.2,0,2.1-1,2.1-2.1
		v-2c0-1.2-1-2.1-2.1-2.1h-4v-4c0-1.2-1-2.1-2.1-2.1h-4v-4c0-1.2-1-2.1-2.1-2.1h-2c-1.2,0-2.1,1-2.1,2.1v2.7
		c-0.2,0.6-0.7,1.1-1.3,1.3h-4.6h-0.2h-4c-1.2,0-2.1,1-2.1,2.1v2.7c-0.2,0.6-0.7,1.1-1.3,1.3H6.3H6.1h-4c-1.2,0-2.1,1-2.1,2.1v2
		C0,127.2,1,128.1,2.1,128.1z"/>
	<path class="st0" d="M172.4,128.1h2.7c1,0,1.8-0.8,1.8-1.8v-2.7c0-1-0.8-1.8-1.8-1.8h-2.7c-1,0-1.8,0.8-1.8,1.8v2.7
		C170.6,127.3,171.4,128.1,172.4,128.1z"/>
	<path class="st0" d="M22.4,134h-2c-1.2,0-2.1,1-2.1,2.1v2.7c-0.2,0.6-0.7,1.1-1.3,1.3h-2.7c-1.2,0-2.1,1-2.1,2.1v2
		c0,1.2,1,2.1,2.1,2.1h4h0.2h5.9h0.2h4c1.2,0,2.1-1,2.1-2.1v-2c0-1.2-1-2.1-2.1-2.1h-4v-4C24.6,135,23.6,134,22.4,134z"/>
	<path class="st0" d="M197.1,140.3h4h0.2h4c1.2,0,2.1-1,2.1-2.1v-2c0-1.2-1-2.1-2.1-2.1h-4h-0.2h-4c-1.2,0-2.1,1-2.1,2.1v2
		C195,139.4,195.9,140.3,197.1,140.3z"/>
	<path class="st0" d="M193.4,140.1h-2.7c-1,0-1.8,0.8-1.8,1.8v2.7c0,1,0.8,1.8,1.8,1.8h2.7c1,0,1.8-0.8,1.8-1.8v-2.7
		C195.2,140.9,194.4,140.1,193.4,140.1z"/>
	<path class="st0" d="M247.9,146.2h-4h-0.2h-4c-1.2,0-2.1,1-2.1,2.1v2.7c-0.2,0.6-0.7,1.1-1.3,1.3h-2.7c-1.2,0-2.1,1-2.1,2.1v2
		c0,1.2,1,2.1,2.1,2.1h4v4.6c-0.2,0.6-0.7,1.1-1.3,1.3h-4.6v-4c0-1.2-1-2.1-2.1-2.1h-4v-4c0-1.2-1-2.1-2.1-2.1h-2
		c-1.2,0-2.1,1-2.1,2.1v2.7c-0.2,0.6-0.7,1.1-1.3,1.3h-4.6v-5.9v-0.2v-4c0-1.2-1-2.1-2.1-2.1h-4h-0.2h-5.9h-0.2h-4
		c-1.2,0-2.1,1-2.1,2.1v4v0.2v4.6c-0.2,0.6-0.7,1.1-1.3,1.3H191c-1.2,0-2.1,1-2.1,2.1v2.7c-0.2,0.6-0.7,1.1-1.3,1.3h-2.7
		c-1.2,0-2.1,1-2.1,2.1v4v0.2v4.6c-0.2,0.6-0.7,1.1-1.3,1.3h-4.6v-4c0-1.2-1-2.1-2.1-2.1h-4h-0.2h-4c-1.2,0-2.1,1-2.1,2.1v2
		c0,1.2,1,2.1,2.1,2.1h4v4c0,1.2,1,2.1,2.1,2.1h4v4c0,1.2,1,2.1,2.1,2.1h2c1.2,0,2.1-1,2.1-2.1v-4h5.9v5.9v0.2v4.6
		c-0.2,0.6-0.7,1.1-1.3,1.3H183h-0.2h-4c-1.2,0-2.1,1-2.1,2.1v2.7c-0.2,0.6-0.7,1.1-1.3,1.3h-4.6v-4c0-1.2-1-2.1-2.1-2.1h-2
		c-1.2,0-2.1,1-2.1,2.1v2.7c-0.2,0.6-0.7,1.1-1.3,1.3h-2.7c-1.2,0-2.1,1-2.1,2.1v4v0.2v5.9v0.2v4.6c-0.2,0.6-0.7,1.1-1.3,1.3h-2.7
		c-1.2,0-2.1,1-2.1,2.1v2.7c-0.2,0.6-0.7,1.1-1.3,1.3h-4.6h-0.2h-4c-1.2,0-2.1,1-2.1,2.1v2c0,1.2,1,2.1,2.1,2.1h4h0.2h5.9h0.2h4
		c1.2,0,2.1-1,2.1-2.1v-4h4c1.2,0,2.1-1,2.1-2.1v-4v-0.2v-5.9h5.9h0.2h4c1.2,0,2.1-1,2.1-2.1v-4h5.9h0.2h5.9v4c0,1.2,1,2.1,2.1,2.1
		h4v5.9h-4c-1.2,0-2.1,1-2.1,2.1v2c0,1.2,1,2.1,2.1,2.1h4v5.9v0.2v4c0,1.2,1,2.1,2.1,2.1h4v4c0,1.2,1,2.1,2.1,2.1h2
		c1.2,0,2.1-1,2.1-2.1v-4v-0.2v-4c0-1.2-1-2.1-2.1-2.1h-4v-5.9h5.9h0.2h5.9v5.9v0.2v4c0,1.2,1,2.1,2.1,2.1h4v5.9v0.2v4
		c0,1.2,1,2.1,2.1,2.1h4h0.2h4c1.2,0,2.1-1,2.1-2.1v-2c0-1.2-1-2.1-2.1-2.1h-4v-5.9v-0.2v-4c0-1.2-1-2.1-2.1-2.1h-4v-5.9h5.9v4
		c0,1.2,1,2.1,2.1,2.1h4h0.2h4c1.2,0,2.1-1,2.1-2.1v-2c0-1.2-1-2.1-2.1-2.1h-4v-5.9v-0.2v-5.9h4c1.2,0,2.1-1,2.1-2.1v-4V207v-5.9
		v-0.2V195l0,0v-5.9h5.9v5.9v0.2v4c0,1.2,1,2.1,2.1,2.1h2c1.2,0,2.1-1,2.1-2.1v-4V195v-5.9v-0.2v-4c0-1.2-1-2.1-2.1-2.1h-4v-4
		c0-1.2-1-2.1-2.1-2.1h-2c-1.2,0-2.1,1-2.1,2.1v2.7c-0.2,0.6-0.7,1.1-1.3,1.3h-2.7c-1.2,0-2.1,1-2.1,2.1v4v0.2v5.9v0.2v5.9v0.2v4.6
		c-0.2,0.6-0.7,1.1-1.3,1.3h-4.6v-5.9v-0.2v-5.9V195v-5.9v-0.2V183v-0.2v-4c0-1.2-1-2.1-2.1-2.1h-4v-5.9h5.9v4c0,1.2,1,2.1,2.1,2.1
		h2c1.2,0,2.1-1,2.1-2.1v-4h5.9h0.2h5.9h0.2h4c1.2,0,2.1-1,2.1-2.1v-4v-0.2v-5.9v-0.2v-5.9v-0.2v-4C250,147.2,249,146.2,247.9,146.2
		z M207.2,152.5v5.9v0.2v5.9v0.2v4c0,1.2,1,2.1,2.1,2.1h4v5.9v0.2v5.9v0.2v4.6c-0.2,0.6-0.7,1.1-1.3,1.3h-2.7c-1.2,0-2.1,1-2.1,2.1
		v2.7c-0.2,0.6-0.7,1.1-1.3,1.3h-4.6v-4c0-1.2-1-2.1-2.1-2.1h-4V183v-0.2v-5.9v-0.2v-5.9v-0.2v-5.9h4c1.2,0,2.1-1,2.1-2.1v-4v-0.2
		v-5.9L207.2,152.5L207.2,152.5z M207.3,219.3h-0.2h-5.9v-5.9v-0.2v-5.9v-0.2v-5.9h5.9h0.2h5.9h0.2h5.9v5.9v0.2v5.9v0.2v4.6
		c-0.2,0.6-0.7,1.1-1.3,1.3h-4.6h-0.2L207.3,219.3L207.3,219.3z"/>
	<path class="st0" d="M12.2,156.8c0,1,0.8,1.8,1.8,1.8h2.7c1,0,1.8-0.8,1.8-1.8v-2.7c0-1-0.8-1.8-1.8-1.8H14c-1,0-1.8,0.8-1.8,1.8
		V156.8z"/>
	<path class="st0" d="M74.9,158.6h2.7c1,0,1.8-0.8,1.8-1.8v-2.7c0-1-0.8-1.8-1.8-1.8h-2.7c-1,0-1.8,0.8-1.8,1.8v2.7
		C73.1,157.8,73.9,158.6,74.9,158.6z"/>
	<path class="st0" d="M87.4,158.6h2c1.2,0,2.1-1,2.1-2.1v-4h4c1.2,0,2.1-1,2.1-2.1v-2c0-1.2-1-2.1-2.1-2.1h-4v-4
		c0-1.2-1-2.1-2.1-2.1h-2c-1.2,0-2.1,1-2.1,2.1v2.7c-0.2,0.6-0.7,1.1-1.3,1.3h-2.7c-1.2,0-2.1,1-2.1,2.1v2c0,1.2,1,2.1,2.1,2.1h4v4
		C85.3,157.6,86.3,158.6,87.4,158.6z"/>
	<path class="st0" d="M116,152.3h-0.2h-4c-1.2,0-2.1,1-2.1,2.1v2c0,1.2,1,2.1,2.1,2.1h4h0.2h4c1.2,0,2.1-1,2.1-2.1v-2
		c0-1.2-1-2.1-2.1-2.1H116z"/>
	<path class="st0" d="M158.6,154.5c0-1.2-1-2.1-2.1-2.1h-4h-0.2h-5.9h-0.2h-5.9h-0.2h-5.9H134h-4c-1.2,0-2.1,1-2.1,2.1v2
		c0,1.2,1,2.1,2.1,2.1h4v4c0,1.2,1,2.1,2.1,2.1h2c1.2,0,2.1-1,2.1-2.1v-4h5.9h0.2h5.9h0.2h4c1.2,0,2.1-1,2.1-2.1v-2H158.6z"/>
	<path class="st0" d="M57,164.7h2c1.2,0,2.1-1,2.1-2.1v-4h4c1.2,0,2.1-1,2.1-2.1v-2c0-1.2-1-2.1-2.1-2.1h-4v-4c0-1.2-1-2.1-2.1-2.1
		h-4h-0.2h-5.9h-0.2h-5.9h-0.2h-5.9h-0.2h-4c-1.2,0-2.1,1-2.1,2.1v2.7c-0.2,0.6-0.7,1.1-1.3,1.3h-2.7c-1.2,0-2.1,1-2.1,2.1v2
		c0,1.2,1,2.1,2.1,2.1h4v4c0,1.2,1,2.1,2.1,2.1h4h0.2h4c1.2,0,2.1-1,2.1-2.1v-2c0-1.2-1-2.1-2.1-2.1h-4v-5.9h5.9h0.2h5.9v4
		c0,1.2,1,2.1,2.1,2.1h4v4C54.8,163.7,55.8,164.7,57,164.7z"/>
	<path class="st0" d="M81,164.7h2.7c1,0,1.8-0.8,1.8-1.8v-2.7c0-1-0.8-1.8-1.8-1.8H81c-1,0-1.8,0.8-1.8,1.8v2.7
		C79.2,163.9,80,164.7,81,164.7z"/>
	<path class="st0" d="M103.8,158.6v-0.2v-4c0-1.2-1-2.1-2.1-2.1h-2c-1.2,0-2.1,1-2.1,2.1v4v0.2v4c0,1.2,1,2.1,2.1,2.1h2
		c1.2,0,2.1-1,2.1-2.1V158.6z"/>
	<path class="st0" d="M2.1,170.8h2c1.2,0,2.1-1,2.1-2.1v-4v-0.2v-5.9v-0.2v-5.9h4c1.2,0,2.1-1,2.1-2.1v-2c0-1.2-1-2.1-2.1-2.1h-4
		v-5.9v-0.2v-4c0-1.2-1-2.1-2.1-2.1h-2C1,134,0,135,0,136.2v4v0.2v5.9v0.2v5.9v0.2v5.9v0.2v5.9v0.2v4C0,169.8,1,170.8,2.1,170.8z"/>
	<path class="st0" d="M44.4,170.8h2.7c1,0,1.8-0.8,1.8-1.8v-2.7c0-1-0.8-1.8-1.8-1.8h-2.7c-1,0-1.8,0.8-1.8,1.8v2.7
		C42.7,170,43.5,170.8,44.4,170.8z"/>
	<path class="st0" d="M26.5,176.9h4h0.2h5.9h0.2h4c1.2,0,2.1-1,2.1-2.1v-2c0-1.2-1-2.1-2.1-2.1h-4h-0.2h-5.9v-4c0-1.2-1-2.1-2.1-2.1
		h-2c-1.2,0-2.1,1-2.1,2.1v4v0.2v4C24.4,175.9,25.3,176.9,26.5,176.9z"/>
	<path class="st0" d="M71.5,170.6h-2.7c-1,0-1.8,0.8-1.8,1.8v2.7c0,1,0.8,1.8,1.8,1.8h2.7c1,0,1.8-0.8,1.8-1.8v-2.7
		C73.3,171.4,72.5,170.6,71.5,170.6z"/>
	<path class="st0" d="M91.6,174.7v-4v-0.2v-4c0-1.2-1-2.1-2.1-2.1h-2c-1.2,0-2.1,1-2.1,2.1v2.7c-0.2,0.6-0.7,1.1-1.3,1.3h-2.7
		c-1.2,0-2.1,1-2.1,2.1v2c0,1.2,1,2.1,2.1,2.1h4h0.2h4C90.6,176.9,91.6,175.9,91.6,174.7z"/>
	<path class="st0" d="M156.5,170.6h-4h-0.2h-5.9h-0.2h-4c-1.2,0-2.1,1-2.1,2.1v2.7c-0.2,0.6-0.7,1.1-1.3,1.3h-2.7
		c-1.2,0-2.1,1-2.1,2.1v2.7c-0.2,0.6-0.7,1.1-1.3,1.3h-4.6v-5.9v-0.2v-5.9h4c1.2,0,2.1-1,2.1-2.1v-2c0-1.2-1-2.1-2.1-2.1h-4H128h-6
		h-0.2H116h-0.2h-4c-1.2,0-2.1,1-2.1,2.1v2c0,1.2,1,2.1,2.1,2.1h4v4c0,1.2,1,2.1,2.1,2.1h4v5.9v0.2v4c0,1.2,1,2.1,2.1,2.1h4h0.2h5.9
		v5.9v0.2v4c0,1.2,1,2.1,2.1,2.1h4v5.9h-5.9H134h-4c-1.2,0-2.1,1-2.1,2.1v4v0.2v4c0,1.2,1,2.1,2.1,2.1h4v4c0,1.2,1,2.1,2.1,2.1h2
		c1.2,0,2.1-1,2.1-2.1v-4h4c1.2,0,2.1-1,2.1-2.1v-4v-0.2v-5.9h4c1.2,0,2.1-1,2.1-2.1v-2c0-1.2-1-2.1-2.1-2.1h-4v-5.9V195v-4
		c0-1.2-1-2.1-2.1-2.1h-4V183h4c1.2,0,2.1-1,2.1-2.1v-4h5.9h0.2h4c1.2,0,2.1-1,2.1-2.1v-2C158.6,171.6,157.6,170.6,156.5,170.6z"/>
	<path class="st0" d="M201.1,176.7v0.2v5.9v0.2v4c0,1.2,1,2.1,2.1,2.1h2c1.2,0,2.1-1,2.1-2.1v-4v-0.2v-5.9v-0.2v-4
		c0-1.2-1-2.1-2.1-2.1h-2c-1.2,0-2.1,1-2.1,2.1V176.7z"/>
	<path class="st0" d="M18.3,181.2c0,1,0.8,1.8,1.8,1.8h2.7c1,0,1.8-0.8,1.8-1.8v-2.7c0-1-0.8-1.8-1.8-1.8h-2.7c-1,0-1.8,0.8-1.8,1.8
		V181.2z"/>
	<path class="st0" d="M38.4,189.1H41c1,0,1.8-0.8,1.8-1.8v-2.7c0-1-0.8-1.8-1.8-1.8h-2.7c-1,0-1.8,0.8-1.8,1.8v2.7
		C36.6,188.3,37.4,189.1,38.4,189.1z"/>
	<path class="st0" d="M69.2,189.1h4h0.2h4c1.2,0,2.1-1,2.1-2.1v-4v-0.2v-4c0-1.2-1-2.1-2.1-2.1h-2c-1.2,0-2.1,1-2.1,2.1v2.7
		c-0.2,0.6-0.7,1.1-1.3,1.3h-2.7c-1.2,0-2.1,1-2.1,2.1v2C67,188.1,68,189.1,69.2,189.1z"/>
	<path class="st0" d="M103.8,183v-0.2v-4c0-1.2-1-2.1-2.1-2.1h-4h-0.2h-4c-1.2,0-2.1,1-2.1,2.1v4v0.2v4c0,1.2,1,2.1,2.1,2.1h4h0.2h4
		c1.2,0,2.1-1,2.1-2.1V183z"/>
	<path class="st0" d="M116,189.1v-0.2V183v-0.2v-4c0-1.2-1-2.1-2.1-2.1h-2c-1.2,0-2.1,1-2.1,2.1v4v0.2v5.9v0.2v4
		c0,1.2,1,2.1,2.1,2.1h2c1.2,0,2.1-1,2.1-2.1V189.1z"/>
	<path class="st0" d="M154.5,195.2h4h0.2h4c1.2,0,2.1-1,2.1-2.1v-4h4c1.2,0,2.1-1,2.1-2.1v-2c0-1.2-1-2.1-2.1-2.1h-4h-0.2h-5.9h-0.2
		h-5.9h-0.2h-4c-1.2,0-2.1,1-2.1,2.1v2c0,1.2,1,2.1,2.1,2.1h4v4C152.3,194.2,153.3,195.2,154.5,195.2z"/>
	<path class="st0" d="M2.1,201.3h4h0.2h5.9h0.2h4c1.2,0,2.1-1,2.1-2.1v-4h5.9v4c0,1.2,1,2.1,2.1,2.1h4h0.2h5.9h0.2h4
		c1.2,0,2.1-1,2.1-2.1v-2c0-1.2-1-2.1-2.1-2.1h-4h-0.2h-5.9v-4c0-1.2-1-2.1-2.1-2.1h-4h-0.2h-5.9v-4c0-1.2-1-2.1-2.1-2.1h-4V177h4
		c1.2,0,2.1-1,2.1-2.1v-4v-0.2v-4c0-1.2-1-2.1-2.1-2.1h-2c-1.2,0-2.1,1-2.1,2.1v2.7c-0.2,0.6-0.7,1.1-1.3,1.3H8.2
		c-1.2,0-2.1,1-2.1,2.1v2.7c-0.2,0.6-0.7,1.1-1.3,1.3H2.1c-1.2,0-2.1,1-2.1,2.1v4v0.2v5.9v0.2v5.9v0.2v4C0,200.3,1,201.3,2.1,201.3z
		"/>
	<path class="st0" d="M48.7,201.1v0.2v4c0,1.2,1,2.1,2.1,2.1h2c1.2,0,2.1-1,2.1-2.1v-4h5.9H61h6h0.2h5.9h0.2h4c1.2,0,2.1-1,2.1-2.1
		v-2c0-1.2-1-2.1-2.1-2.1h-4h-0.2h-5.9H67h-5.9v-5.9V189v-6v-0.2v-5.9v-0.2v-4c0-1.2-1-2.1-2.1-2.1h-4h-0.2h-4c-1.2,0-2.1,1-2.1,2.1
		v4v0.2v4c0,1.2,1,2.1,2.1,2.1h4v5.9h-5.9h-0.2h-4c-1.2,0-2.1,1-2.1,2.1v2c0,1.2,1,2.1,2.1,2.1h4C48.7,195.1,48.7,201.1,48.7,201.1z
		"/>
	<path class="st0" d="M101.6,195h-4h-0.2h-4c-1.2,0-2.1,1-2.1,2.1v2c0,1.2,1,2.1,2.1,2.1h4h0.2h4c1.2,0,2.1-1,2.1-2.1v-2
		C103.8,195.9,102.8,195,101.6,195z"/>
	<path class="st0" d="M126.4,201.3c1,0,1.8-0.8,1.8-1.8v-2.7c0-1-0.8-1.8-1.8-1.8h-2.7c-1,0-1.8,0.8-1.8,1.8v2.7
		c0,1,0.8,1.8,1.8,1.8H126.4z"/>
	<path class="st0" d="M79.2,205.6c0,1,0.8,1.8,1.8,1.8h2.7c1,0,1.8-0.8,1.8-1.8v-2.7c0-1-0.8-1.8-1.8-1.8H81c-1,0-1.8,0.8-1.8,1.8
		V205.6z"/>
	<path class="st0" d="M79.4,209c0-1-0.8-1.8-1.8-1.8h-2.7c-1,0-1.8,0.8-1.8,1.8v2.7c0,1,0.8,1.8,1.8,1.8h2.7c1,0,1.8-0.8,1.8-1.8
		V209z"/>
	<path class="st0" d="M93.2,213.4h2.7c1,0,1.8-0.8,1.8-1.8V209c0-1-0.8-1.8-1.8-1.8h-2.7c-1,0-1.8,0.8-1.8,1.8v2.7
		C91.4,212.6,92.2,213.4,93.2,213.4z"/>
	<path class="st0" d="M105.7,213.4h2c1.2,0,2.1-1,2.1-2.1v-4h4c1.2,0,2.1-1,2.1-2.1v-2c0-1.2-1-2.1-2.1-2.1h-4h-0.2h-4
		c-1.2,0-2.1,1-2.1,2.1v4v0.2v4C103.6,212.5,104.5,213.4,105.7,213.4z"/>
	<path class="st0" d="M213.4,209c0-1-0.8-1.8-1.8-1.8H209c-1,0-1.8,0.8-1.8,1.8v2.7c0,1,0.8,1.8,1.8,1.8h2.7c1,0,1.8-0.8,1.8-1.8
		V209H213.4z"/>
	<path class="st0" d="M71.2,213.3h-4v-4c0-1.2-1-2.1-2.1-2.1h-4h-0.2h-4c-1.2,0-2.1,1-2.1,2.1v2c0,1.2,1,2.1,2.1,2.1h4v4.6
		c-0.2,0.6-0.7,1.1-1.3,1.3H55v-4c0-1.2-1-2.1-2.1-2.1h-2c-1.2,0-2.1,1-2.1,2.1v4v0.2v5.9v0.2v4c0,1.2,1,2.1,2.1,2.1h4H55h4
		c1.2,0,2.1-1,2.1-2.1v-4H67h0.2h4c1.2,0,2.1-1,2.1-2.1v-4v-0.2v-4C73.3,214.2,72.3,213.3,71.2,213.3z"/>
	<path class="st0" d="M99.3,219.5h2.7c1,0,1.8-0.8,1.8-1.8V215c0-1-0.8-1.8-1.8-1.8h-2.7c-1,0-1.8,0.8-1.8,1.8v2.7
		C97.5,218.7,98.3,219.5,99.3,219.5z"/>
	<path class="st0" d="M122,213.4v-0.2v-4c0-1.2-1-2.1-2.1-2.1h-2c-1.2,0-2.1,1-2.1,2.1v4v0.2v4c0,1.2,1,2.1,2.1,2.1h2
		c1.2,0,2.1-1,2.1-2.1V213.4z"/>
	<path class="st0" d="M184.6,219.5h2.7c1,0,1.8-0.8,1.8-1.8V215c0-1-0.8-1.8-1.8-1.8h-2.7c-1,0-1.8,0.8-1.8,1.8v2.7
		C182.8,218.7,183.6,219.5,184.6,219.5z"/>
	<path class="st0" d="M243.9,215.1c0-1-0.8-1.8-1.8-1.8h-2.7c-1,0-1.8,0.8-1.8,1.8v2.7c0,1,0.8,1.8,1.8,1.8h2.7c1,0,1.8-0.8,1.8-1.8
		V215.1z"/>
	<path class="st0" d="M85.5,225.6h4c1.2,0,2.1-1,2.1-2.1v-2c0-1.2-1-2.1-2.1-2.1h-4h-0.2h-4c-1.2,0-2.1,1-2.1,2.1v4v0.2v4
		c0,1.2,1,2.1,2.1,2.1h2c1.2,0,2.1-1,2.1-2.1L85.5,225.6L85.5,225.6z"/>
	<path class="st0" d="M113.8,225.4h-2c-1.2,0-2.1,1-2.1,2.1v2.7c-0.2,0.6-0.7,1.1-1.3,1.3h-4.6h-0.2h-4c-1.2,0-2.1,1-2.1,2.1v2.7
		c-0.2,0.6-0.7,1.1-1.3,1.3h-4.6v-4c0-1.2-1-2.1-2.1-2.1h-2c-1.2,0-2.1,1-2.1,2.1v4v0.2v5.9v0.2v4c0,1.2,1,2.1,2.1,2.1h4h0.2h4
		c1.2,0,2.1-1,2.1-2.1v-4h4c1.2,0,2.1-1,2.1-2.1v-4h5.9h0.2h4c1.2,0,2.1-1,2.1-2.1v-4v-0.2v-4C116,226.4,115,225.4,113.8,225.4z"/>
	<path class="st0" d="M121.9,229.9c0,1,0.8,1.8,1.8,1.8h2.7c1,0,1.8-0.8,1.8-1.8v-2.7c0-1-0.8-1.8-1.8-1.8h-2.7
		c-1,0-1.8,0.8-1.8,1.8C121.9,227.2,121.9,229.9,121.9,229.9z"/>
	<path class="st0" d="M168.7,225.4h-2c-1.2,0-2.1,1-2.1,2.1v4v0.2v4.6c-0.2,0.6-0.7,1.1-1.3,1.3h-2.7c-1.2,0-2.1,1-2.1,2.1v2
		c0,1.2,1,2.1,2.1,2.1h4h0.2h4c1.2,0,2.1-1,2.1-2.1v-4v-0.2v-5.9v-0.2v-4C170.8,226.4,169.8,225.4,168.7,225.4z"/>
	<path class="st0" d="M71.2,231.5h-2c-1.2,0-2.1,1-2.1,2.1v4v0.2v4c0,1.2,1,2.1,2.1,2.1h2c1.2,0,2.1-1,2.1-2.1v-4v-0.2v-4
		C73.3,232.5,72.3,231.5,71.2,231.5z"/>
	<path class="st0" d="M183,231.7h4c1.2,0,2.1-1,2.1-2.1v-2c0-1.2-1-2.1-2.1-2.1h-4v-4c0-1.2-1-2.1-2.1-2.1h-2c-1.2,0-2.1,1-2.1,2.1
		v4v0.2v5.9v0.2v4c0,1.2,1,2.1,2.1,2.1h2c1.2,0,2.1-1,2.1-2.1V231.7z"/>
	<path class="st0" d="M247.9,231.5h-2c-1.2,0-2.1,1-2.1,2.1v4v0.2v4c0,1.2,1,2.1,2.1,2.1h2c1.2,0,2.1-1,2.1-2.1v-4v-0.2v-4
		C250,232.5,249,231.5,247.9,231.5z"/>
	<path class="st0" d="M53.2,237.6h-2.7c-1,0-1.8,0.8-1.8,1.8v2.7c0,1,0.8,1.8,1.8,1.8h2.7c1,0,1.8-0.8,1.8-1.8v-2.7
		C55,238.4,54.2,237.6,53.2,237.6z"/>
	<path class="st0" d="M140.3,237.8v-0.2v-4c0-1.2-1-2.1-2.1-2.1h-4H134h-4c-1.2,0-2.1,1-2.1,2.1v2.7c-0.2,0.6-0.7,1.1-1.3,1.3H124
		c-1.2,0-2.1,1-2.1,2.1v2c0,1.2,1,2.1,2.1,2.1h4h0.2h5.9h0.2h4c1.2,0,2.1-1,2.1-2.1L140.3,237.8L140.3,237.8z"/>
	<path class="st0" d="M152.5,239.4c0-1-0.8-1.8-1.8-1.8H148c-1,0-1.8,0.8-1.8,1.8v2.7c0,1,0.8,1.8,1.8,1.8h2.7c1,0,1.8-0.8,1.8-1.8
		V239.4z"/>
	<path class="st0" d="M189.1,239.4c0-1-0.8-1.8-1.8-1.8h-2.7c-1,0-1.8,0.8-1.8,1.8v2.7c0,1,0.8,1.8,1.8,1.8h2.7c1,0,1.8-0.8,1.8-1.8
		V239.4z"/>
	<path class="st0" d="M236,237.6h-2.7c-1,0-1.8,0.8-1.8,1.8v2.7c0,1,0.8,1.8,1.8,1.8h2.7c1,0,1.8-0.8,1.8-1.8v-2.7
		C237.8,238.4,237,237.6,236,237.6z"/>
	<path class="st0" d="M113.8,243.7h-4h-0.2h-4c-1.2,0-2.1,1-2.1,2.1v2c0,1.2,1,2.1,2.1,2.1h4h0.2h4c1.2,0,2.1-1,2.1-2.1v-2
		C116,244.7,115,243.7,113.8,243.7z"/>
	<path class="st0" d="M144.6,243.7h-2.7c-1,0-1.8,0.8-1.8,1.8v2.7c0,1,0.8,1.8,1.8,1.8h2.7c1,0,1.8-0.8,1.8-1.8v-2.7
		C146.4,244.5,145.6,243.7,144.6,243.7z"/>
	<path class="st0" d="M156.8,243.7h-2.7c-1,0-1.8,0.8-1.8,1.8v2.7c0,1,0.8,1.8,1.8,1.8h2.7c1,0,1.8-0.8,1.8-1.8v-2.7
		C158.6,244.5,157.8,243.7,156.8,243.7z"/>
	<path class="st0" d="M199.1,243.7h-4H195h-4c-1.2,0-2.1,1-2.1,2.1v2c0,1.2,1,2.1,2.1,2.1h4h0.2h4c1.2,0,2.1-1,2.1-2.1v-2
		C201.3,244.7,200.3,243.7,199.1,243.7z"/>
	<path class="st0" d="M211.6,243.7H209c-1,0-1.8,0.8-1.8,1.8v2.7c0,1,0.8,1.8,1.8,1.8h2.7c1,0,1.8-0.8,1.8-1.8v-2.7
		C213.4,244.5,212.6,243.7,211.6,243.7z"/>
	<path class="st0" d="M19.1,31.4c5.3,0,0.5,0,5.8,0s6.5-1.3,6.5-6.5s0-0.5,0-5.8s-1.3-6.5-6.5-6.5c-5.3,0-0.5,0-5.8,0
		s-6.5,1.3-6.5,6.5c0,2.9,0,0.5,0,5.8S13.8,31.4,19.1,31.4z"/>
	<path class="st0" d="M15.2,44c12.3,0,1.2,0,13.5,0S44,41,44,28.7s0-1.2,0-13.5S41,0,28.7,0s-1.2,0-13.5,0S0,2.9,0,15.2
		c0,6.9,0,1.2,0,13.5S2.9,44,15.2,44z M6.3,15.2c0-6,0.8-7.4,1.2-7.8C7.9,7,9.3,6.2,15.3,6.2h13.5c6,0,7.4,0.8,7.8,1.2
		c0.4,0.4,1.2,1.8,1.2,7.8v13.5c0,6-0.8,7.4-1.2,7.8c-0.4,0.3-1.8,1.2-7.8,1.2H15.2c-6,0-7.4-0.8-7.8-1.2s-1.2-1.8-1.2-7.8V15.2H6.3
		z"/>
	<path class="st0" d="M220.3,44c12.3,0,1.2,0,13.5,0S249,41,249,28.7s0-1.2,0-13.5S246.1,0,233.8,0s-1.2,0-13.5,0S205,2.9,205,15.2
		c0,6.9,0,1.2,0,13.5S208,44,220.3,44z M211.3,15.2c0-6,0.8-7.4,1.2-7.8s1.8-1.2,7.8-1.2h13.5c6,0,7.4,0.8,7.8,1.2
		c0.4,0.4,1.2,1.8,1.2,7.8v13.5c0,6-0.8,7.4-1.2,7.8c-0.4,0.3-1.8,1.2-7.8,1.2h-13.5c-6,0-7.4-0.8-7.8-1.2c-0.4-0.4-1.2-1.8-1.2-7.8
		V15.2z"/>
	<path class="st0" d="M224.1,31.4c5.3,0,0.5,0,5.8,0s6.5-1.3,6.5-6.5s0-0.5,0-5.8s-1.3-6.5-6.5-6.5c-5.3,0-0.5,0-5.8,0
		s-6.5,1.3-6.5,6.5c0,2.9,0,0.5,0,5.8S218.8,31.4,224.1,31.4z"/>
	<path class="st0" d="M24.9,217.6c-5.3,0-0.5,0-5.8,0s-6.5,1.3-6.5,6.5c0,2.9,0,0.5,0,5.8s1.3,6.5,6.5,6.5s0.5,0,5.8,0
		s6.5-1.3,6.5-6.5s0-0.5,0-5.8C31.4,218.8,30.2,217.6,24.9,217.6z"/>
	<path class="st0" d="M28.7,205c-12.3,0-1.2,0-13.5,0S0,208,0,220.3c0,6.9,0,1.2,0,13.5S2.9,249,15.2,249s1.2,0,13.5,0
		S44,246.1,44,233.8s0-1.2,0-13.5S41,205,28.7,205z M37.7,233.8c0,6-0.8,7.4-1.2,7.8c-0.4,0.3-1.8,1.2-7.8,1.2H15.2
		c-6,0-7.4-0.8-7.8-1.2s-1.2-1.8-1.2-7.8v-13.5c0-6,0.8-7.4,1.2-7.8c0.4-0.4,1.8-1.2,7.8-1.2h13.5c6,0,7.4,0.8,7.8,1.2
		c0.4,0.4,1.2,1.8,1.2,7.8V233.8z"/>
	<path class="st0" d="M147.7,131.8c0-12.8,0-1.2,0-14.1c0-12.8-3.1-15.9-15.9-15.9c-12.8,0-1.2,0-14.1,0c-12.8,0-15.9,3.1-15.9,15.9
		c0,7.2,0,1.2,0,14.1c0,12.8,3.1,15.9,15.9,15.9s1.2,0,14.1,0S147.7,144.7,147.7,131.8z M115.8,141.1c-0.9,0.6-2.5-0.2-2.4-1.3
		c0-1.9-0.1-3.7,0.1-5.6c-1,0.2-2,0.8-3.1,0.6c-0.8-0.3-1.3-1.4-0.8-2.3c1.3-2.5,2.5-5.1,3.9-7.6c-1.2-2.3-2.4-4.7-3.6-7.1
		c-0.3-0.5-0.6-1.2-0.4-1.8c0.3-0.6,0.9-1.2,1.6-1c0.8,0.1,1.5,0.4,2.3,0.6c0.1-1.9,0-3.8,0.1-5.6c-0.1-1.2,1.4-2,2.4-1.3
		c8.6,4.8,17.2,9.7,25.8,14.5c0.6,0.3,1.2,0.6,1.4,1.3l0,0c0.1,0.1,0.1,0.3,0.1,0.5s-0.1,0.5-0.2,0.7c-0.3,0.5-0.8,0.8-1.3,1
		C133,131.4,124.4,136.3,115.8,141.1z"/>
</g>
<path class="st1" d="M109.5,116c0.3-0.6,0.9-1.2,1.6-1c0.8,0.1,1.5,0.4,2.3,0.6c9.9,3,19.8,5.9,29.7,8.8c0.1,0.1,0.1,0.3,0.1,0.5
	c-9.9,0-19.8,0-29.7,0c-1.2-2.3-2.4-4.7-3.6-7.1C109.6,117.2,109.2,116.6,109.5,116L109.5,116z"/>
<path class="st1" d="M137.6,127c1.8-0.4,3.5-1.1,5.3-1.5c-0.3,0.5-0.8,0.8-1.3,1c-8.6,4.8-17.2,9.7-25.8,14.5
	c-0.9,0.6-2.5-0.2-2.4-1.3c0-1.9-0.1-3.7,0.1-5.6c1.3-0.3,2.5-0.7,3.8-1.1C124.1,131.1,130.8,129,137.6,127L137.6,127z"/>
</svg>
