<?xml version="1.0" encoding="utf-8"?>
<!-- Generator: Adobe Illustrator 24.0.1, SVG Export Plug-In . SVG Version: 6.00 Build 0)  -->
<svg version="1.1" id="Слой_1" xmlns="http://www.w3.org/2000/svg" xmlns:xlink="http://www.w3.org/1999/xlink" x="0px" y="0px"
	 viewBox="0 0 1150.9 283.5" style="enable-background:new 0 0 1150.9 283.5;" xml:space="preserve">
<style type="text/css">
	.st0{fill-rule:evenodd;clip-rule:evenodd;fill:#D9D9D9;}
	.st1{fill:#D9D9D9;}
</style>
<g>
	<g>
		<path class="st0" d="M18.3,148.8l50.9-13.6v-19l-12.7,3.4v6.6l-15.4,4.1V120l14.3-3.8v-12.4l-14.3,3.8v-9.6l14.1-3.8v6.6L68,97.3
			v-19L18.3,91.6v12.4l6.2-1.7v32.4l-6.2,1.7V148.8L18.3,148.8z M158.8,83.4l10.8-2.9c-1.8-4.6-3.8-9.5-5.4-13.3
			C162.9,70.8,160.8,77.2,158.8,83.4L158.8,83.4z M173.9,91.8L154.4,97c-0.5,1.6-0.8,2.7-0.9,3.1l6.6-1.8v12.4l-21.9,5.9l-6.2,1.7
			c-14.6,3.9-24.1-2.9-26.7-15.2l-6.4,1.7v9.9l4.8-1.3V126l-28.1,7.5v-12.4l6.8-1.8V86.9l-6.8,1.8V76.3l29-7.8v12.4l-5.7,1.5v9.9
			l4.2-1.1C108.7,90,114,87,114,78.7c0-0.6-3.9,1.1-3.9,0.5V67l27.4-7.3v12.4l-8.1,2.2c-0.1,8.8-4.8,16.6-10,20.9
			c1.9,9.4,7,12.2,18.7,9l16.4-49.1l22.3-6l16.4,40.4l5.9-1.6v12.4l-29,7.8V95.7l4.8-1.3C174.6,93.7,174.3,92.8,173.9,91.8
			L173.9,91.8z M204.9,86.4l6.2-1.7V52.4l-6.3,1.7v6.5l-12.4,3.3V45l54.2-14.5v18.9l-12.4,3.3v-6.5l-6.3,1.7v32.3l6.2-1.7V91
			l-29,7.8L204.9,86.4L204.9,86.4z"/>
		<path class="st0" d="M71.6,189.5l5.6-1.5v-32.4l-5.6,1.5v-12.5l27.3-7.3c11.6-3.1,24.6-0.7,24.4,13.8
			c-0.1,14.5-10.6,23.2-23.7,26.7l-5.8,1.6v4.2l6.2-1.7v12.5l-28.5,7.6V189.5L71.6,189.5z M18.3,216.2l50.4-13.5v-19l-12.1,3.2v6.6
			l-15.4,4.1v-10.3l14.3-3.8V171l-14.3,3.8v-9.6l14.1-3.8v6.6l12.8-3.4v-19l-49.7,13.3v12.4l6.2-1.7v32.4l-6.2,1.7L18.3,216.2
			L18.3,216.2z M164.3,119.8l-19.1,37.8v-20.2l4.2-1.1v-12.4l-25.5,6.8V143l4.7-1.3v32.4l-4.7,1.3v12.4l20.5-5.5l18.9-37.3v19.8
			L159,166v12.4l25.8-6.9v-12.4l-5,1.3v-32.4l5-1.3v-12.4L164.3,119.8L164.3,119.8z M213.3,106.6v12.5l-4.4,1.2v10l15.6-4.2v-10
			l-4.4,1.2v-12.5l25.8-6.9v12.5l-4.7,1.3V144l4.7-1.3v12.5l-25.8,6.9v-12.5l4.4-1.2v-10l-15.6,4.2v10l4.4-1.2v12.5l-25.8,6.9v-12.5
			l4.7-1.3v-32.4l-4.7,1.3v-12.5L213.3,106.6L213.3,106.6z M96.8,150.3l-2.9,0.8v15.7l2.9-0.8c5.1-1.4,9.3-4.4,9.3-10.4
			S101.9,148.9,96.8,150.3L96.8,150.3z"/>
		<path class="st0" d="M18.3,238.6l6.2-1.7v32.4l-6.2,1.7v12.5l33.8-9c11.6-3.1,22.3-11.5,22.1-25.2c-0.2-13.7-9.1-16.1-22.3-12.5
			l-10.7,2.9v-7.1l14.5-3.9v5.1l12.7-3.4v-17.5l-50.1,13.5V238.6L18.3,238.6z M195.3,236l29-7.8v-12.5l-6.2,1.7v-32.4l14.6-3.9v6.6
			l12.7-3.4v-19l-50.1,13.4v12.4l6.2-1.7v32.4l-6.2,1.7L195.3,236L195.3,236z M137.3,239.1l6.2-1.7v-32.4c-3.8,1-7.7,2.1-11.5,3.1
			l-13.4,33.2c-7.3,18.2-22.8,25.1-38.7,23.4v-17.3l12.4-3.3l0,8.1c2.3,0.2,6.6-0.4,9.2-6.2L84,221l-7.8,2.1v-12.5l28.7-7.7v12.5
			l-2.3,0.6l7.7,13.2l5.7-16.9l-2.4,0.6v-12.5c18.3-4.9,36.6-9.8,54.8-14.7c11.6-3.1,24.6-0.7,24.4,13.8
			c-0.1,14.5-10.6,23.2-23.7,26.7l-8.9,2.4v4.2l6.2-1.7v12.5l-29.1,7.8L137.3,239.1L137.3,239.1z M166.3,199l-6.1,1.6v15.7l6.1-1.6
			c5.1-1.4,9.3-4.4,9.3-10.4C175.6,198.4,171.4,197.6,166.3,199L166.3,199z M50,262.5l-8.8,2.4v-12.7l9.4-2.5
			C60.7,247,60.6,259.7,50,262.5L50,262.5z"/>
	</g>
	<g>
		<path class="st1" d="M100.6,18.7c1.3-0.3,2.1-1.5,2.1-2.8v-13c0-0.9-0.4-1.8-1.1-2.3c-0.5-0.4-1.1-0.6-1.8-0.6
			c-0.2,0-0.5,0-0.8,0.1l-97,26C0.9,26.4,0,27.6,0,28.9v13c0,0.9,0.4,1.8,1.1,2.3c0.5,0.4,1.1,0.6,1.8,0.6c0.2,0,0.5,0,0.8-0.1
			c0.8-0.2,1.5-0.3,2.2-0.3c3.8,0,6.3,2.9,6.3,7.2c0,5.8-4.6,12-10,13.4C0.9,65.4,0,66.5,0,67.8v13c0,0.9,0.4,1.8,1.1,2.3
			c0.5,0.4,1.1,0.6,1.8,0.6c0.2,0,0.5,0,0.8-0.1l97-26c1.3-0.3,2.1-1.5,2.1-2.8v-13c0-0.9-0.4-1.8-1.1-2.3c-0.5-0.4-1.1-0.6-1.8-0.6
			c-0.2,0-0.5,0-0.8,0.1c-0.8,0.2-1.5,0.3-2.2,0.3c-3.8,0-6.3-2.9-6.3-7.2C90.6,26.3,95.2,20.1,100.6,18.7z M84.8,32.1
			c0,7.5,5.1,13,12.1,13c0,0,0,0,0.1,0v7.5l-17.6,4.7v-1.7c0-1.6-1.3-2.9-2.9-2.9c-1.6,0-2.9,1.3-2.9,2.9v3.3L5.8,77.1v-7.2
			c6.9-2.9,12.1-10.5,12.1-18.3c0-7.6-5.1-13-12.1-13c0,0,0,0-0.1,0v-7.5l67.8-18.2v1.9c0,1.6,1.3,2.9,2.9,2.9
			c1.6,0,2.9-1.3,2.9-2.9v-3.4L97,6.7v7.2C90,16.8,84.8,24.4,84.8,32.1z"/>
		<path class="st1" d="M76.5,22.1c-1.6,0-2.9,1.3-2.9,2.9v5.1c0,1.6,1.3,2.9,2.9,2.9c1.6,0,2.9-1.3,2.9-2.9V25
			C79.4,23.4,78.1,22.1,76.5,22.1z"/>
		<path class="st1" d="M76.5,37.4c-1.6,0-2.9,1.3-2.9,2.9v5.1c0,1.6,1.3,2.9,2.9,2.9c1.6,0,2.9-1.3,2.9-2.9v-5.1
			C79.4,38.7,78.1,37.4,76.5,37.4z"/>
	</g>
</g>
<g>
	<path class="st1" d="M370.2,25.5l-1.9,15.1h-20.5v67.8h-19.6V40.5h-21.4V25.5H370.2z"/>
	<path class="st1" d="M426.6,51.7c3.9,5.9,5.9,14.2,5.9,24.8c0,6.5-1,12.4-3,17.5c-2,5.1-5,9.2-8.8,12.1c-3.8,2.9-8.3,4.4-13.4,4.4
		c-6.4,0-11.5-2.2-15.4-6.6v29.1l-18.9,2V44.8h16.6l1,7.1c2.5-3.1,5.3-5.4,8.5-6.9c3.2-1.5,6.5-2.2,9.8-2.2
		C416.8,42.8,422.7,45.8,426.6,51.7z M412.9,76.7c0-7.5-0.8-12.7-2.5-15.6s-4.2-4.4-7.5-4.4c-2.1,0-4.2,0.6-6,1.9
		c-1.9,1.3-3.5,3.1-5,5.5v26.8c2.5,3.8,5.8,5.6,9.7,5.6C409.1,96.5,412.9,89.9,412.9,76.7z"/>
	<path class="st1" d="M494.6,95.2c0.7,1.1,1.8,2,3.3,2.5l-4,12.3c-3.9-0.3-7.1-1.2-9.6-2.6s-4.4-3.6-5.7-6.6
		c-4.1,6.4-10.5,9.6-19.1,9.6c-6.3,0-11.3-1.8-15.1-5.5c-3.8-3.7-5.6-8.4-5.6-14.3c0-6.9,2.5-12.2,7.7-15.9
		c5.1-3.7,12.5-5.5,22.1-5.5h6.5v-2.8c0-3.8-0.8-6.3-2.4-7.7c-1.6-1.4-4.4-2.1-8.4-2.1c-2.1,0-4.6,0.3-7.5,0.9c-3,0.6-6,1.4-9.1,2.5
		l-4.3-12.4c4-1.5,8.1-2.7,12.3-3.5s8.1-1.2,11.7-1.2c9.1,0,15.8,1.9,20,5.6c4.2,3.8,6.3,9.4,6.3,16.9v24.6
		C493.6,92.3,494,94.1,494.6,95.2z M475.1,90.8V79.5h-4.7c-4.3,0-7.5,0.8-9.6,2.3c-2.1,1.5-3.2,3.9-3.2,7.1c0,2.6,0.7,4.5,2,5.9
		c1.3,1.4,3.1,2.1,5.4,2.1C469.3,96.9,472.7,94.8,475.1,90.8z"/>
	<path class="st1" d="M545,108.4V83.1h-17.5v25.2h-18.9V44.8h18.9v24.3H545V44.8H564v63.5H545z"/>
	<path class="st1" d="M618.1,44.7c3.5,1.3,6.8,3.2,9.9,5.9l-8.1,11.2c-4-3-8-4.5-12.1-4.5c-4.2,0-7.4,1.6-9.6,4.7s-3.2,8.1-3.2,15.1
		c0,6.7,1.1,11.4,3.2,14.2c2.2,2.8,5.3,4.2,9.3,4.2c2.2,0,4.1-0.3,5.9-1s3.9-1.8,6.3-3.3l8.2,11.7c-6.3,5-13.4,7.5-21.4,7.5
		c-6.5,0-12-1.4-16.8-4.1s-8.3-6.6-10.9-11.6c-2.5-5-3.8-10.8-3.8-17.5c0-6.7,1.3-12.6,3.8-17.8s6.2-9.2,10.9-12.1
		c4.7-2.9,10.2-4.4,16.4-4.4C610.7,42.8,614.6,43.5,618.1,44.7z"/>
	<path class="st1" d="M672.1,108.4V58.8H655v49.5h-18.9V44.8H691v63.5H672.1z"/>
	<path class="st1" d="M756.2,51.7c5.5,5.9,8.2,14.3,8.2,24.9c0,6.8-1.3,12.7-3.8,17.8c-2.5,5.1-6.1,9-10.8,11.8
		c-4.7,2.8-10.2,4.2-16.6,4.2c-9.7,0-17.2-3-22.8-8.9c-5.5-5.9-8.3-14.2-8.3-24.9c0-6.8,1.3-12.7,3.8-17.8s6.1-9,10.8-11.8
		c4.7-2.8,10.2-4.2,16.6-4.2C743.1,42.8,750.7,45.8,756.2,51.7z M724.7,61.5c-1.9,3.2-2.9,8.2-2.9,15c0,6.9,0.9,12,2.8,15.2
		s4.8,4.8,8.7,4.8c3.8,0,6.7-1.6,8.6-4.8c1.9-3.2,2.9-8.2,2.9-15c0-6.9-0.9-12-2.8-15.2c-1.9-3.2-4.8-4.8-8.7-4.8
		C729.5,56.7,726.6,58.3,724.7,61.5z"/>
	<path class="st1" d="M829.4,51.7c3.9,5.9,5.9,14.2,5.9,24.8c0,6.5-1,12.4-3,17.5c-2,5.1-5,9.2-8.8,12.1c-3.8,2.9-8.3,4.4-13.4,4.4
		c-6.4,0-11.5-2.2-15.4-6.6v29.1l-18.9,2V44.8h16.6l1,7.1c2.5-3.1,5.3-5.4,8.5-6.9c3.2-1.5,6.5-2.2,9.8-2.2
		C819.5,42.8,825.5,45.8,829.4,51.7z M815.6,76.7c0-7.5-0.8-12.7-2.5-15.6s-4.2-4.4-7.5-4.4c-2.2,0-4.2,0.6-6,1.9
		c-1.9,1.3-3.5,3.1-5,5.5v26.8c2.5,3.8,5.8,5.6,9.7,5.6C811.8,96.5,815.6,89.9,815.6,76.7z"/>
	<path class="st1" d="M893.9,44.8l-2.3,14h-17.2v49.5h-18.9V58.8h-18.5v-14H893.9z"/>
	<path class="st1" d="M379,169l-2,14h-29.2v19.9h25.5v13.8h-25.5v21.2H379v14.1h-50.8V169L379,169L379,169z"/>
	<path class="st1" d="M446.6,188.4l-16.9,29.4l18.3,34.1h-20l-13.9-27.3h-5.7v27.3h-18.9v-63.5h18.9v24.8h6.2l13.8-24.8H446.6z"/>
	<path class="st1" d="M504.8,238.8c0.7,1.1,1.8,1.9,3.3,2.5l-4,12.3c-3.9-0.3-7.1-1.2-9.6-2.6c-2.5-1.4-4.4-3.6-5.7-6.6
		c-4.1,6.4-10.5,9.6-19.1,9.6c-6.3,0-11.3-1.8-15.1-5.5c-3.8-3.7-5.6-8.4-5.6-14.4c0-6.9,2.5-12.2,7.7-15.9
		c5.1-3.7,12.5-5.5,22.1-5.5h6.5v-2.8c0-3.8-0.8-6.3-2.4-7.7c-1.6-1.4-4.4-2.1-8.4-2.1c-2.1,0-4.6,0.3-7.5,0.9c-3,0.6-6,1.4-9.1,2.4
		l-4.3-12.4c4-1.5,8.1-2.7,12.3-3.5s8.1-1.2,11.7-1.2c9.1,0,15.8,1.9,20,5.6c4.2,3.8,6.3,9.4,6.3,16.9v24.6
		C503.8,235.9,504.1,237.6,504.8,238.8z M485.2,234.3v-11.2h-4.7c-4.3,0-7.5,0.8-9.6,2.3c-2.1,1.5-3.2,3.9-3.2,7.1
		c0,2.6,0.7,4.5,2,5.9c1.3,1.4,3.1,2.1,5.4,2.1C479.5,240.4,482.9,238.4,485.2,234.3z"/>
	<path class="st1" d="M566.2,188.4l-2.3,14h-17.2v49.5h-18.9v-49.5h-18.5v-14H566.2z"/>
	<path class="st1" d="M625,225.7h-39.4c0.6,5.3,2.2,9.1,4.5,11.2c2.4,2.1,5.7,3.2,9.9,3.2c2.5,0,5-0.5,7.4-1.4
		c2.4-0.9,5-2.3,7.8-4.2l7.8,10.5c-7.4,5.9-15.7,8.9-24.8,8.9c-10.3,0-18.2-3-23.7-9.1c-5.5-6.1-8.2-14.2-8.2-24.4
		c0-6.5,1.2-12.3,3.5-17.4s5.7-9.2,10.2-12.2c4.5-3,9.8-4.5,16-4.5c9.2,0,16.3,2.9,21.5,8.6c5.2,5.7,7.8,13.7,7.8,23.9
		C625.3,221.5,625.2,223.8,625,225.7z M606.8,213.5c-0.2-9.7-3.6-14.6-10.3-14.6c-3.3,0-5.8,1.2-7.6,3.6c-1.8,2.4-2.9,6.3-3.3,11.8
		h21.2L606.8,213.5L606.8,213.5z"/>
	<path class="st1" d="M689.7,195.2c3.9,5.9,5.9,14.2,5.9,24.8c0,6.5-1,12.4-3,17.5c-2,5.1-5,9.2-8.8,12.1c-3.8,2.9-8.3,4.4-13.4,4.4
		c-6.4,0-11.5-2.2-15.4-6.6v29.1l-18.9,2v-90.1h16.6l1,7.1c2.5-3.1,5.3-5.4,8.5-6.9c3.2-1.5,6.5-2.2,9.8-2.2
		C679.8,186.4,685.8,189.3,689.7,195.2z M675.9,220.2c0-7.5-0.8-12.7-2.5-15.6s-4.2-4.4-7.5-4.4c-2.2,0-4.2,0.6-6,1.9
		c-1.9,1.3-3.5,3.1-5,5.5v26.8c2.5,3.8,5.8,5.6,9.7,5.6C672.1,240.1,675.9,233.4,675.9,220.2z"/>
	<path class="st1" d="M763.2,251.9h-17.9v-22.6c0-4.5,0.2-8.7,0.7-12.7s1.1-7.3,1.8-10.1l-21.2,45.3h-19.3v-63.5h18.1v23
		c0,4.2-0.3,8.4-0.8,12.4s-1.1,7.4-1.7,10.1l20.9-45.5h19.4L763.2,251.9L763.2,251.9z"/>
	<path class="st1" d="M814.4,251.9v-25.2H797v25.2h-18.9v-63.5H797v24.3h17.5v-24.3h18.9v63.5H814.4z"/>
	<path class="st1" d="M893.8,196.3c3.6,2.3,6.5,5.7,8.5,10.1c2.1,4.4,3.1,9.7,3.1,15.9c0,6.5-1.2,12.1-3.7,16.9
		c-2.5,4.8-6,8.4-10.6,11s-9.9,3.8-16,3.8c-9.5,0-17-3.1-22.4-9.3c-5.5-6.2-8.2-15.6-8.2-28.3c0-9.2,0.8-16.8,2.3-22.7
		s4.2-10.8,8-14.5c3.8-3.8,9.1-6.8,16-8.9c4.9-1.5,8.7-2.9,11.5-4.1s6-2.9,9.6-5l6.8,12.1c-2.8,1.8-5.7,3.4-8.8,4.8
		c-3.1,1.4-7,2.8-11.7,4.2c-3.5,1.1-6.3,2.4-8.3,3.9c-2,1.5-3.7,3.5-4.8,6.1c-1.2,2.6-2,6.1-2.5,10.5c4.5-6.5,10.9-9.8,19-9.8
		C886.1,192.8,890.2,194,893.8,196.3z M883.1,236.2c1.9-2.6,2.9-7,2.9-13.3c0-6.1-0.8-10.3-2.4-12.6c-1.6-2.4-4-3.5-7.3-3.5
		c-2.4,0-4.7,0.7-6.8,2c-2.2,1.3-3.9,3.3-5.3,5.9v8.1c0,5.9,1,10.3,2.9,13.1s4.6,4.2,8,4.2C878.5,240.1,881.2,238.8,883.1,236.2z"/>
	<path class="st1" d="M950.8,252c-2.5,8.2-6.7,14.5-12.5,19s-13.5,6.9-23.3,7.5l-2-13.3c6.1-0.8,10.5-2.1,13.5-4.1
		c2.9-1.9,5.2-5,7-9.2H927l-19.4-63.5h20.1l11.4,51.4l12.4-51.4H971L950.8,252z"/>
	<path class="st1" d="M1031.4,195.2c3.9,5.9,5.9,14.2,5.9,24.8c0,6.5-1,12.4-3.1,17.5s-5,9.2-8.8,12.1c-3.8,2.9-8.3,4.4-13.4,4.4
		c-6.4,0-11.5-2.2-15.4-6.6v29.1l-18.9,2v-90.1h16.6l1,7.1c2.5-3.1,5.3-5.4,8.5-6.9c3.2-1.5,6.5-2.2,9.8-2.2
		C1021.6,186.4,1027.5,189.3,1031.4,195.2z M1017.7,220.2c0-7.5-0.8-12.7-2.5-15.6s-4.2-4.4-7.5-4.4c-2.2,0-4.2,0.6-6,1.9
		c-1.9,1.3-3.5,3.1-5,5.5v26.8c2.5,3.8,5.8,5.6,9.7,5.6C1013.9,240.1,1017.7,233.4,1017.7,220.2z"/>
	<path class="st1" d="M1068,251.9h-18.9v-63.5h45l-2.3,14.4H1068L1068,251.9L1068,251.9z"/>
	<path class="st1" d="M1147.6,238.8c0.7,1.1,1.8,1.9,3.3,2.5l-3.9,12.3c-3.9-0.3-7.1-1.2-9.6-2.6c-2.5-1.4-4.4-3.6-5.7-6.6
		c-4.2,6.4-10.5,9.6-19.1,9.6c-6.3,0-11.3-1.8-15.1-5.5c-3.8-3.7-5.6-8.4-5.6-14.4c0-6.9,2.6-12.2,7.7-15.9
		c5.1-3.7,12.5-5.5,22.1-5.5h6.5v-2.8c0-3.8-0.8-6.3-2.4-7.7c-1.6-1.4-4.4-2.1-8.4-2.1c-2.1,0-4.6,0.3-7.5,0.9
		c-2.9,0.6-6,1.4-9.1,2.4l-4.3-12.4c4-1.5,8.1-2.7,12.3-3.5c4.2-0.8,8.1-1.2,11.7-1.2c9.1,0,15.8,1.9,20,5.6
		c4.2,3.8,6.3,9.4,6.3,16.9v24.6C1146.6,235.9,1147,237.6,1147.6,238.8z M1128.1,234.3v-11.2h-4.7c-4.3,0-7.5,0.8-9.6,2.3
		c-2.1,1.5-3.2,3.9-3.2,7.1c0,2.6,0.7,4.5,2,5.9c1.3,1.4,3.1,2.1,5.4,2.1C1122.3,240.4,1125.7,238.4,1128.1,234.3z"/>
</g>
</svg>
